<?xml version="1.0" encoding="UTF-8"?><svg xmlns="http://www.w3.org/2000/svg" viewBox="0 0 124.39 216.39"><defs><style>.d{fill:#98bc00;}.e{fill:#cdd905;}.f{fill:#e8ee31;}.g{fill:#f0fc54;}.h{fill:#fa8b9b;}.i{fill:#ea6e86;}.j{fill:#fbfecf;}.k{fill:#d5e672;}.l{fill:#a7a58b;}.m{fill:#7e7d66;}.n{fill:#d0e53a;}.o{fill:#b3cf1e;}.p{fill:#e0e824;}.q{fill:#c5d920;}.r{fill:#fcb6c0;}</style></defs><g id="a"/><g id="b"><g id="c"><g><path class="l" d="M59.78,116.33l8.17,99.13s1.01,1.12,3.32,.89c.5-.05,1.06-.16,1.69-.36-.74-9.74-5.28-69.41-6.28-77.8-.74-6.16-3.81-7.55-5.74-7.8l-1.16-14.07h0Z"/><path class="m" d="M61.33,115.87c-.56,.12-1.08,.27-1.54,.45h0l1.16,14.07c1.94,.25,5,1.65,5.74,7.8,1,8.39,5.54,68.05,6.28,77.8,.54-.17,1.12-.41,1.75-.72h0l-4.32-99.88h-.01c-.35,.04-.69,.08-1.04,.12-.24,.03-.48,.05-.73,.07h0c-1.44,.14-2.9,.23-4.37,.27-.98,.03-1.95,.03-2.92,.01h0Z"/><path class="e" d="M122.59,56.32c.86,31.98-25.25,58.65-58.34,59.54C31.17,116.76,3.64,91.56,2.78,59.57,1.91,27.58,28.03,.92,61.11,.02c33.08-.89,60.61,24.31,61.48,56.3h0Z"/><path class="d" d="M100.61,13.03c3.71,6.8,3.19,13.24-5.7,19.25-34.84,15.16-60.43,12.69-90.93,14.7-1.15,4.73-1.33,7.52-1.19,12.59,.1,3.96,1.32,10.08,2.2,13.79,.57,.36,2.91,.85,3.69,.99,45.42,8.16,61.14,.32,82.84,16.61,3.56,3.5,2.81,8.46-2.15,12.52-15.57,8.79-33.38,11.39-50.33,7.75,7.72,3.19,16.27,4.88,25.23,4.64,33.08-.89,59.19-27.56,58.34-59.54-.48-17.53-8.98-33.01-21.99-43.29h0Z"/><path class="g" d="M1.18,49.29s80.62-3.5,121.11-3.82c0,0,3.56,4.67,1.39,21.94-1.24,3.21-75.64,11.84-120.28,5.38,0,0-5.83-10.17-2.21-23.5h0Z"/><path class="o" d="M72.03,46.63c.15,0,.3-.01,.44-.02-.15,0-.29,0-.44,.02h0Z"/><path class="k" d="M121.24,45.48h0c.35,0,.7,0,1.05-.01,0,0,1.36,1.78,1.89,7.2-.53-5.42-1.89-7.2-1.89-7.2-.35,0-.7,0-1.05,.01h0Z"/><polygon class="q" points="121.24 45.48 121.24 45.49 121.24 45.48 121.24 45.48 121.24 45.48"/><path class="o" d="M6.51,73.21c.5,.06,1,.12,1.51,.18-.51-.06-1.01-.12-1.51-.18h0Zm65.97-26.59c17.62-.56,35.28-1.01,48.76-1.13h0c-13.48,.12-31.14,.57-48.76,1.13h0Z"/><path class="k" d="M123.57,67.57c-.26,.25-.93,.54-1.95,.83h0c1.02-.3,1.69-.58,1.95-.83h0Z"/><path class="o" d="M91.73,72.74c.41-.04,.82-.08,1.22-.12h0c-.4,.04-.81,.08-1.22,.12h0Zm29.89-4.34c-4.29,1.26-14.85,2.87-28.52,4.2,13.67-1.33,24.23-2.94,28.52-4.2h0Z"/><path class="n" d="M68.48,46.74c12.24,.95,28.16,3.84,25.99,15.47-1.36,5.15-11.51,7.9-25.15,9.22-20.34,1.97-48.43,.79-66.7-.28,.45,1.05,.78,1.64,.78,1.64,1.02,.15,2.06,.29,3.11,.42,.5,.06,1,.12,1.51,.18,25.66,3.02,59.32,1.65,83.7-.65,.41-.04,.82-.08,1.22-.12,.05,0,.1-.01,.15-.02,13.67-1.33,24.23-2.94,28.52-4.2,1.02-.3,1.69-.58,1.95-.83,.06-.05,.09-.11,.11-.16,.83-6.61,.83-11.37,.5-14.73-.53-5.42-1.89-7.2-1.89-7.2-.35,0-.7,0-1.05,.01h0c-13.48,.12-31.14,.58-48.76,1.13h-.01c-.15,0-.3,0-.44,.02-1.18,.03-2.36,.07-3.54,.11h0Z"/><path class="f" d="M52.23,2.64c-.95,.09-1.94,.31-2.8,.51-.86,.2-1.59,.39-2.02,.43-.08,0-.15,.01-.21,0,0,0-20.65,5.77-21.15,14.16-.27,4.58,2.66,6.49,7.42,6.03,3.96-.38,9.19-2.4,14.92-5.89,12.64-7.68,8.84-12.26,7.22-14.38-.66-.86-1.98-1-3.39-.86h0Z"/><path class="f" d="M17.86,23.94s-4.2,2.37-5.43,8.68c-.77,3.93,2.47,6.4,5.75,6.08,2-.19,4.02-1.42,5.16-3.99,3-6.8,.62-10.7-5.48-10.77h0Z"/><path class="j" d="M11.32,50.9c-1.91,.18-3.61,.42-5.01,.71,0,0-.19-.01-.48,.02-.8,.08-2.36,.47-2.67,2.3-.43,2.48,.68,6.66,9.56,5.92,5.89-.48,16.47-.55,24.21-1.3,3.93-.38,7.12-.94,8.6-1.81,4.38-2.59,2.83-5.02-4.85-5.8-6.37-.65-20.18-.92-29.35-.03h0Z"/><path class="j" d="M56.45,51.02c-1.41,.14-3.8,.65-4.09,2.56-.33,2.13,3.2,2.8,6.52,2.48,.94-.09,1.87-.26,2.68-.5,3.65-1.08,2.11-5.18-3.94-4.6-.05,0-.09,.01-.14,.01,0,0-.43-.01-1.03,.05h0Z"/><path class="h" d="M44.82,109.58s-.81,.62-.72,4.06c.09,3.44,1.4,7.68,2.83,7.88,1.43,.19,9.93-1.69,16.03-4.36l-.97-5.31s-12.07-2.76-17.16-2.27Z"/><path class="h" d="M82.13,105.78s.94,.4,1.67,3.76c.73,3.36,.48,7.79-.86,8.33-1.34,.53-10.04,.72-16.6-.4l-.32-5.39s11.05-5.57,16.11-6.3Z"/><path class="i" d="M52.03,134.69s3.77,4.91,9.97,4.74c1.57-2.96,3.54-14.2,2.7-23.92l-2.4-.69s-8.79,16.14-10.27,19.87Z"/><path class="i" d="M79.05,134.57s-3.49,5.1-9.7,5.28c-1.72-2.86-4.3-13.99-3.99-23.74l2.37-.82s9.64,15.64,11.33,19.28Z"/><path class="r" d="M61.61,111.38s3.66-.69,5.46-.15c.67,2.71,.4,6.05,.18,6.53-2.83,.67-4.85,.61-5.11,.02-.26-.59-1.08-4.84-.53-6.4Z"/><path class="p" d="M14.22,80.26c-1.53,.15-4.22,.78-3.01,3.49,1.67,3.69,8.22,15.67,20.78,19.07,1.8,.49,3.28,.64,4.47,.52,7.1-.69,4.19-10.83,1.68-15.02-2.94-4.91-13.94-8.35-22.97-8.1,0,0-.4-.01-.96,.04h0Z"/></g></g></g></svg>