<?xml version="1.0" encoding="UTF-8"?><svg xmlns="http://www.w3.org/2000/svg" viewBox="0 0 119.45 224.68"><defs><style>.d{fill:#bf0c0c;}.e{fill:#9567c6;}.f{fill:#ffed80;}.g{fill:#f5e04c;}.h{fill:#c49f6b;}.i{fill:#f8ea88;}.j{fill:#ffda00;}.k{fill:#724ba3;}.l{fill:#f20808;}.m{fill:#cab3e3;}.n{fill:#ffc200;}</style></defs><g id="a"/><g id="b"><g id="c"><g><path class="i" d="M53.54,207.32c0,.06,0,.12-.01,.18,0-.06,0-.12,.01-.18h0Zm2.93-26.52c-1.51,11.5-2.66,21.11-2.93,26.51,.28-5.38,1.43-15,2.93-26.51h0Zm41.81-8.2c-14.09,12.64-28.82,24.68-44.77,35.26-.03,.78-.05,1.46-.03,2.03,.08,4.14,2,7.08,4.75,9.18,4.82,3.68,12.22,4.78,16.77,5.29,7.14,.8,14.79,.43,15.72-4.87,0,0,3.54-20.42,7.55-46.89h0Zm2.66-18.07c-.3,2.07-.59,4.12-.89,6.15,.3-2.03,.59-4.08,.89-6.15h0Zm.08-.55c-.02,.13-.04,.26-.06,.38,.02-.13,.04-.25,.06-.38h0Zm-35.84-41.49s0,.05,0,.08c0-.03,0-.05,0-.08h0ZM7.54,68.1c.05,.04,.11,.09,.17,.13h0c-.06-.04-.11-.09-.17-.13h0Zm57.69,43.9s0,.08-.01,.13c0-.04,0-.08,.01-.13h0Zm.17-1.77c-.04,.44-.08,.88-.13,1.32h0c.04-.44,.08-.88,.13-1.32h0Zm.06-.6c-.01,.14-.03,.29-.04,.43,.01-.15,.03-.29,.04-.43h0Zm.06-.62s0,.05,0,.08c0-.03,0-.05,0-.08h0ZM.11,55.04c-.04,.19-.07,.37-.11,.56,0,0,0,.01,0,.04,0-.03,0-.04,0-.04,.03-.19,.07-.38,.11-.56H.11Zm.11-.57c-.03,.14-.06,.28-.09,.43,.03-.14,.06-.29,.09-.43H.22Zm.13-.63c-.03,.16-.07,.33-.1,.49,.03-.16,.07-.33,.1-.49H.35Zm32.45,18.19c-2.26,3.03-7.3,3.81-17.7,.11-2.98-1.06-5.37-2.4-7.29-3.85,1.92,1.45,4.31,2.79,7.29,3.85,10.41,3.71,15.45,2.92,17.7-.11h0Zm1.9-6.78c-.19,.97-.32,1.83-.4,2.54,.09-.71,.21-1.57,.4-2.54h0ZM15.43,47.45s.08,.06,.12,.09h0s-.08-.06-.12-.09h0Zm18.74,10.16c-6.62-2.25-12.74-5.64-18.32-9.84,5.58,4.2,11.7,7.59,18.32,9.84h0Zm2.49,.79c-.34-.1-.68-.2-1.02-.31,.34,.11,.68,.21,1.02,.31h0Zm70.54,46.74c-.59,5.65-1.26,11.53-1.99,17.51h0c-.42,3.38-.84,6.79-1.29,10.21,1.23-9.48,2.36-18.89,3.28-27.72h0Zm.05-.44c-.01,.11-.02,.21-.03,.32,.01-.11,.02-.22,.03-.32h0Zm2.22-29.8s0,.08,0,.11c-14.57,3.7-29.77,8.43-42.73,16.79h0c12.97-8.36,28.16-13.1,42.73-16.79-.06,1.8-.14,3.68-.24,5.65,.11-2.01,.19-3.94,.24-5.76h0Zm-.22-12.1s0,.06,0,.09c0-.03,0-.06,0-.09h0Zm-.07-.93c.01,.15,.03,.31,.04,.47-.01-.16-.03-.31-.04-.47h0ZM61.62,1.43C36.62-5.59,8.73,13.4,.36,53.8c1.19-5.73,2.78-11.03,4.68-15.89h0c3.67-9.31,8.54-16.99,14.17-22.94,3.63,13.75,11.53,26.29,22.23,35.67h0c-10.69-9.38-18.59-21.92-22.23-35.67C30.21,3.36,44.09-1.7,57.5,.53h0c1.38,.23,2.76,.52,4.13,.9h0Zm22.53,11.07c-6.86-5.23-14.59-8.84-22.53-11.07,7.93,2.23,15.65,5.84,22.5,11.06,1.55,1.18,3.06,2.45,4.51,3.79h0c7.98,7.41,14.38,17.38,17.9,30.37-.83,.17-1.67,.35-2.5,.55h0c.83-.2,1.66-.38,2.5-.55,1.27,4.66,2.17,9.7,2.63,15.14-2-23.41-11.91-39.31-25.02-49.3h0Z"/><path class="e" d="M90.73,219.49c-.93,5.3-8.58,5.67-15.73,4.87-2.18-.24-5.01-.63-7.9-1.36,9.69-6.89,18.31-15.48,26.96-23.54-1.98,12.21-3.34,20.02-3.34,20.02Z"/><path class="j" d="M94.07,199.46c-8.65,8.05-17.27,16.65-26.96,23.54-6.58-1.67-13.47-5.18-13.63-13.11,0-.56,0-1.26,.04-2.03,15.94-10.59,30.67-22.62,44.77-35.26-1.53,10.1-2.99,19.33-4.22,26.86Z"/><path class="e" d="M98.29,172.6c-14.09,12.64-28.82,24.68-44.77,35.26,.24-5.73,1.61-16.94,3.38-30.28,16.51-10.16,31.66-21.54,45.65-34.42-1.4,10.14-2.85,20.17-4.26,29.45h0Z"/><path class="e" d="M105.2,122.65c-15.21,8.53-28.73,18.77-44.31,25.2,1.29-9.71,2.52-19.35,3.5-27.96,13.16-10.83,27.56-19.77,43.77-24.66-.76,8.52-1.79,17.83-2.96,27.42h0Z"/><path class="j" d="M108.17,95.23c-16.21,4.89-30.62,13.83-43.77,24.66,.33-2.91,.63-5.7,.89-8.34,.66-6.76,1.18-13.41,1.44-19.74,12.97-8.37,28.16-13.1,42.74-16.8-.18,5.87-.63,12.73-1.3,20.21h0Z"/><path class="e" d="M109.52,72.81c0,.71-.03,1.45-.06,2.2-14.58,3.7-29.77,8.43-42.74,16.8,.35-8.09,.29-15.63-.4-22.15,10.7-11.89,25.16-19.95,40.22-23,2.08,7.65,3.17,16.33,2.98,26.15h0Z"/><path class="e" d="M53.69,46.92c-1.32-.23-2.56-.3-3.72-.24-1.9-15.37,1.96-31.62,7.53-46.15,1.38,.23,2.76,.52,4.13,.9,9.72,2.74,19.14,7.55,27.01,14.86-11.2,10.16-21.65,21.35-28.35,34.62-1.77-2.12-3.93-3.51-6.59-3.99h0Z"/><path class="e" d="M5.04,37.91c3.67-9.3,8.54-16.99,14.17-22.94,3.63,13.76,11.54,26.3,22.24,35.68-2.14,2.17-3.68,4.97-4.78,7.75-12.26-3.58-22.95-11.04-31.63-20.49h0Z"/><path class="i" d="M7.8,68.3s-.06-.04-.09-.07h0s.06,.04,.09,.07h0ZM0,55.65c.06,.61,.8,7.22,7.54,12.45C.81,62.87,.06,56.26,0,55.65H0Zm.13-.75s-.02,.09-.03,.14c0-.05,.02-.1,.03-.14H.14Zm.11-.57s-.02,.1-.03,.14c0-.05,.02-.09,.03-.14H.25Zm.11-.54s0,.03-.01,.05c0-.01,0-.03,.01-.05H.36Zm36.31,4.61h-.01c-.96,2.44-1.58,4.87-1.96,6.85,.38-1.98,1.01-4.41,1.97-6.85h0Z"/><path class="g" d="M36.66,58.4c-.96,2.44-1.58,4.87-1.96,6.85-.19,.97-.32,1.83-.4,2.54h0c-.2,1.65-.65,3.11-1.5,4.24-2.26,3.03-7.3,3.81-17.7,.11-2.98-1.06-5.37-2.4-7.29-3.85-.03-.02-.06-.04-.09-.07-.06-.04-.11-.09-.17-.13C.81,62.87,.06,56.26,0,55.65c0-.03,0-.04,0-.04,.03-.19,.07-.38,.11-.56,0-.04,.02-.1,.03-.14,.03-.14,.06-.29,.09-.43,0-.05,.02-.09,.03-.14,.03-.16,.07-.33,.1-.49,0-.01,0-.03,.01-.05,1.19-5.73,2.78-11.03,4.68-15.89,3.2,3.48,6.67,6.69,10.39,9.54,.04,.03,.08,.06,.12,.09h0c.1,.07,.2,.15,.3,.23,5.58,4.2,11.7,7.59,18.32,9.84,.49,.17,.98,.33,1.47,.48,.34,.11,.68,.21,1.02,.31h0Z"/><path class="h" d="M15.85,47.77c-.1-.08-.2-.15-.3-.23h0c.1,.08,.2,.15,.3,.23h0Zm-10.8-9.86h0c3.2,3.48,6.67,6.69,10.39,9.54-3.72-2.85-7.19-6.06-10.39-9.54h0Zm30.6,20.18c-.49-.15-.98-.32-1.47-.48,.49,.17,.98,.33,1.47,.48h0Z"/><path class="j" d="M57.5,.53c-5.57,14.53-9.43,30.78-7.53,46.15-3.56,.21-6.34,1.77-8.52,3.97-10.7-9.38-18.6-21.92-22.24-35.68C30.21,3.36,44.09-1.7,57.5,.53h0Z"/><path class="j" d="M88.63,16.29c7.98,7.41,14.38,17.38,17.9,30.37-15.06,3.05-29.51,11.11-40.22,23-.86-8.21-2.74-14.78-6.04-18.75,6.7-13.27,17.15-24.46,28.35-34.62h0Z"/><path class="j" d="M102.55,143.15c-13.99,12.88-29.14,24.27-45.65,34.42,1.23-9.25,2.64-19.54,3.99-29.73,15.59-6.43,29.11-16.67,44.31-25.2-.83,6.77-1.72,13.66-2.66,20.51h0Z"/><path class="k" d="M84.21,224.39c-2.74,.44-6.02,.32-9.2-.04-2.18-.24-5.01-.63-7.9-1.36,3.94-2.8,7.69-5.88,11.35-9.09,.51,1.79,1.16,3.57,2.02,5.32,1.04,1.54,2.27,3.44,3.74,5.17Z"/><path class="n" d="M78.45,213.91c-3.66,3.21-7.41,6.3-11.35,9.09-6.58-1.67-13.47-5.18-13.63-13.11,0-.56,0-1.26,.04-2.03,8.46-5.62,16.57-11.65,24.44-17.96-.93,7.75-1.76,16.03,.5,24Z"/><path class="k" d="M77.96,189.9c-7.87,6.31-15.98,12.34-24.44,17.96,.24-5.73,1.61-16.94,3.38-30.28,8.55-5.27,16.73-10.87,24.58-16.83-.96,8.05-1.99,16.18-2.96,24.43-.17,1.54-.37,3.12-.56,4.72Z"/><path class="k" d="M60.89,147.85c1.29-9.71,2.53-19.35,3.5-27.96,6.68-5.5,13.69-10.51,21.09-14.75,.07,10-.45,20.08-1.33,30.3-7.55,4.65-15.12,9.05-23.26,12.41Z"/><path class="n" d="M64.39,119.89c.33-2.91,.63-5.7,.88-8.34,.66-6.76,1.18-13.41,1.45-19.74,5.49-3.54,11.4-6.41,17.48-8.85,.84,7.35,1.22,14.74,1.28,22.17-7.4,4.24-14.41,9.25-21.09,14.75Z"/><path class="k" d="M84.2,82.96c-6.08,2.44-11.99,5.3-17.48,8.85,.35-8.09,.28-15.63-.4-22.15,3.93-4.36,8.36-8.21,13.15-11.48,2.25,8.24,3.79,16.49,4.74,24.78Z"/><path class="k" d="M68.63,37.65c-3.15,4.2-6,8.6-8.35,13.27-1.77-2.12-3.93-3.51-6.58-3.99-1.33-.24-2.57-.31-3.73-.24-.63-5.11-.58-10.31-.09-15.51,7.08,.21,13.61,2.2,18.76,6.48Z"/><path class="k" d="M24.18,36.84c1.32-.59,2.65-1.14,4-1.65,3.68,5.73,8.14,10.97,13.27,15.46-2.13,2.17-3.68,4.97-4.78,7.75-12.26-3.58-22.94-11.04-31.62-20.49,.85-2.17,1.78-4.24,2.76-6.23,4.9,4.98,11,7.79,16.38,5.16Z"/><path class="n" d="M36.67,58.4c-1.43,3.63-2.12,7.24-2.37,9.39-.72,6.03-4.88,9.45-19.2,4.35C.78,67.04,0,55.61,0,55.61c1.22-6.43,2.93-12.33,5.05-17.7,8.68,9.45,19.36,16.91,31.62,20.49Z"/><path class="n" d="M49.87,31.17c-.49,5.2-.54,10.41,.09,15.51-3.56,.21-6.34,1.76-8.51,3.97-5.12-4.49-9.59-9.73-13.27-15.46,7.21-2.73,14.71-4.23,21.69-4.02Z"/><path class="n" d="M79.46,58.18c-4.78,3.27-9.22,7.12-13.15,11.48-.87-8.22-2.74-14.78-6.04-18.75,2.35-4.67,5.2-9.07,8.35-13.27,4,3.33,7.16,8.04,9.06,14.4,.65,2.05,1.21,4.09,1.77,6.14Z"/><path class="n" d="M56.9,177.58c1.23-9.25,2.64-19.54,3.99-29.74,8.14-3.36,15.71-7.76,23.26-12.41-.72,8.35-1.66,16.78-2.68,25.32-7.85,5.96-16.03,11.56-24.58,16.83Z"/><path class="m" d="M83.36,16.39c.92,.7,1.83,1.44,2.74,2.23-1.81,1.68-3.59,3.4-5.34,5.15-1.24-.91-2.54-1.68-3.9-2.29-7.01-3.16-16.47-6.2-23.39-8.99,.77-2.69,1.62-5.34,2.55-7.96,4.24,.6,9.66,1.93,15.57,4.79,3.97,1.92,7.94,4.14,11.77,7.06h0Z"/><path class="m" d="M104.04,47.22c.88,2.55,1.7,5.28,2.47,8.19,0,0,1.36,8.88,.77,14.25-.16,1.46-.61,1.76-1.19,1.31-1.56-1.19-4.13-7.64-5.11-11.35-.45-1.68-1.6-5.67-3.47-10.5,2.15-.74,4.33-1.37,6.53-1.9h0Z"/><path class="f" d="M56.02,4.54c-.92,2.61-1.78,5.27-2.55,7.96-3.34-1.35-6.1-2.64-7.69-3.85-2.13-1.62-2.18-3.1,1.2-4.41,0,0,3.52-.48,9.03,.3h0Z"/><path class="f" d="M86.1,18.62c6.89,6.02,13.17,14.73,17.94,28.6-2.2,.53-4.38,1.16-6.53,1.9-3.24-8.33-8.64-19.17-16.31-25.02-.14-.11-.29-.21-.44-.32,1.75-1.75,3.53-3.47,5.34-5.15h0Z"/><path class="m" d="M106.01,95.91c-.53,5.65-1.52,16.01-2.81,27.88-1.1,.63-2.19,1.27-3.27,1.92,1.33-10.8,2.7-21.91,3.87-29.05,.73-.26,1.47-.51,2.22-.75h0Z"/><path class="f" d="M105.86,89c.22,.17,.41,.92,.56,2.38,0,0-.15,1.65-.41,4.53-.74,.24-1.48,.49-2.22,.75,.82-5.02,1.54-8.07,2.07-7.66h0Z"/><path class="m" d="M100.74,144.8c-1.27,10.09-2.67,19.98-4.11,28.04,0,0,.08-11.02,1.12-25.37,1-.88,2-1.77,2.99-2.67h0Z"/><path class="f" d="M103.19,123.79c-.73,6.71-1.56,13.91-2.45,21.01-.99,.9-1.99,1.79-2.99,2.67,.43-5.91,1.01-12.38,1.81-18.88,.12-.95,.24-1.91,.36-2.88,1.08-.65,2.17-1.29,3.27-1.92h0Z"/><path class="d" d="M108.37,99.11s-30.33,1.29-41.82-7.46c0,0-1.34-.15-1.14,1.31,.2,1.46,17.34,11.18,42.61,7.77,0,0,1.58-1.12,.36-1.62Z"/><path class="l" d="M58.71,95.5c11.23,6.62,26.62,4.98,26.62,4.98-13.29,21.25-33.15,22.39-36.05,22.9-2.9,.5-1.95,1.03-1.95,1.03,12.99,5.83,35.01-16.71,35.01-16.71-2.99,3.92-2.8,11.81-1.62,18.91,1.18,7.1-4.32,20.92-6.41,24.17s.14,1.85,.14,1.85c4.22-4.53,9.56-20.42,7.71-32.49s5.65-17.58,5.65-17.58c4.71,8.05,18.97,25.69,24.43,25.4,5.46-.3,12.04-6.13,1.99-18.63-10.04-12.5-23.79-12.51-23.79-12.51-1.11-.07-3.1-1.01-3.1-1.01-6.53-16.6-21.01-24.54-31.37-20.61-10.36,3.93-8.49,13.68,2.74,20.3Zm33.25,4.42s8.24-.89,18.18,8.43c9.94,9.32,7.04,17.96,2.83,16.88-4.21-1.08-30.28-26.37-21.01-25.31Zm-38.7-21.16c2.99-3.92,15.1-.5,22.44,3.35,7.34,3.85,9.89,16.26,9.89,16.26-7.87,1.94-15.34-.46-25.15-3.86-9.8-3.4-10.17-11.82-7.18-15.74Z"/><path class="d" d="M82.16,120.15c.38,2.48,.44,5.12,.29,7.8-.51,.51-1.03,1-1.58,1.43,.03-1,0-1.93-.15-2.77-.89-5.35-1.21-11.14-.04-15.35,.75-.96,1.62-1.81,2.65-2.47-1.16,2.79-1.91,6.55-1.17,11.35Z"/><path class="d" d="M64.12,121.69c-.23-.66-.45-1.35-.64-2.06,3.7-1.6,7.75-3.97,11.73-7.38-.14,.77-.31,1.52-.5,2.26-3.04,2.44-6.73,5.1-10.59,7.18Z"/><path class="d" d="M70.53,97.7c5.31,1.39,10.11,1.89,15.06,.66,0,0-1.27-6.11-4.56-11.09,.26-.5,.44-1.06,.55-1.64,2.25,2.9,4.23,6.29,5.76,10.18,0,0,2,.94,3.1,1.01,0,0,7.83,.02,15.99,5.39-.31,.36-.55,.83-.66,1.45-.07,.36-.06,.73-.07,1.09-7.83-5.45-13.74-4.83-13.74-4.83-5.52-.63,1.49,8.08,8.95,15.46-.05,.27-.08,.54-.04,.82,.24,1.8,.82,3.55,1.67,5.15-5.71-5.79-11.91-13.98-14.72-18.79,0,0-.09,.07-.22,.17-.57-1.25-2.05-.93-3.53-.4,.42-.62,.86-1.2,1.27-1.86,0,0-7.04,.74-15.06-.82,.21-.54,.37-1.14,.41-1.82l-.15-.15Z"/><path class="l" d="M55.97,75.2c7.93-3.01,18.27,.96,25.61,10.43-.11,.58-.29,1.13-.55,1.64-1.39-2.11-3.15-4.02-5.33-5.17-7.34-3.85-19.45-7.27-22.44-3.35-2.99,3.92-2.62,12.34,7.18,15.74,3.64,1.26,6.95,2.39,10.09,3.2l.15,.15c-.04,.68-.2,1.27-.41,1.82-3.85-.75-7.92-2.02-11.56-4.16-11.23-6.62-13.1-16.37-2.74-20.3Z"/><path class="l" d="M100.9,115.38c5.08,5.02,10.36,9.42,12.06,9.85,4.21,1.08,7.11-7.56-2.83-16.88-1.53-1.43-3.02-2.61-4.44-3.6,0-.36,0-.73,.07-1.09,.12-.61,.35-1.08,.66-1.45,2.65,1.75,5.33,4.05,7.8,7.12,10.05,12.5,3.46,18.33-1.99,18.63-.44,.02-.96-.11-1.51-.31l.78-1.02-.78,1.02c-2.18-.79-5.1-3.18-8.19-6.31-.85-1.61-1.43-3.35-1.67-5.15-.04-.29,0-.56,.04-.82Z"/><path class="l" d="M90.04,98.94c1.04-.24,2.12-.97,3.19-.8,1.94,.31,1.12,1.53-.46,1.55-1.04,.02-2.73-.24-3.44,.75-.97,1.33,1.24,1.97,.76,3.19-1.5,.38-1.38-1.98-1.82-2.73-.75-1.3-2-.72-3.22-.69,.15-1.14,2.16-.91,2.27-1.9,.1-.92-1.69-1.67-1.22-2.93,.95,.51,1.54,1.88,2.09,2.77,.42,.67,.25,.8,.98,.97,.38,.09,.84-.9,.99,.06l-.12-.23Z"/></g></g></g></svg>