<?xml version="1.0" encoding="UTF-8"?><svg xmlns="http://www.w3.org/2000/svg" viewBox="0 0 125.87 74.72"><defs><style>.d{fill:#fff;}.e{fill:#a4faff;}.f{fill:#2fbcd3;}.g{fill:#ffed42;}.h{fill:#82ecf7;}.i{fill:#61ccde;}.j{fill:#5be6f4;}.k{fill:#88f9ff;}.l{fill:#74ddeb;}.m{fill:#48d2e5;}.n{fill:#ffe706;}</style></defs><g id="a"/><g id="b"><g id="c"><g><path class="j" d="M8.28,5.38s49.09-11.27,88.92-1.2c.81,0,13.28,.8,15.29-3.22,2.01-4.02,10.87,5.63,8.46,22.93-2.42,17.3,2.01,35.01,4.42,38.62,2.41,3.62-4.42,8.86-8.44,5.24-4.03-3.61-12.88,2.01-16.1,3.22-3.22,1.21-60.36,11.27-87.71-7.64,0,0-3.22-1.61-5.23,1.21-2.01,2.81-9.26,2.01-7.65-4.43C1.84,53.67,4.65,20.67,2.24,13.44-.17,6.19,3.04,.56,8.28,5.38h0Z"/><path class="m" d="M125.37,62.52c-2.41-3.61-6.84-21.32-4.42-38.62,2.41-17.3-6.44-26.96-8.46-22.93-.29,.59-.85,1.07-1.53,1.47,5.95,13.73,4.35,31.07,4.35,46.81-1.21-2.41-3.62-3.61-3.62-6.03-12.08,4.83-16.9,19.31-30.18,20.52-13.28,1.21-30.18,4.83-37.42-7.24-9.66-15.69,18.11-13.28,28.97-19.31-19.31,1.21-43.46,6.03-56.73-9.65-4.39-6.58-2.56-16.7,3.03-24.19-6.9,1.11-11.08,2.06-11.08,2.06C3.04,.56-.17,6.19,2.24,13.44c2.41,7.23-.4,40.24-2.01,46.67-1.61,6.45,5.63,7.24,7.65,4.43,2.01-2.82,5.23-1.21,5.23-1.21,27.36,18.91,84.49,8.86,87.71,7.64,3.22-1.21,12.06-6.83,16.1-3.22,4.02,3.62,10.85-1.61,8.44-5.23h0Z"/><path class="f" d="M9.38,60.41c-.6,.15-1.44,.01-2.01-.11-.81-6.95,.44-14.18,1.11-20.49,.81-7.6,0-14.85,0-22.51-.04,7.87-.48,15.4,1.83,22.84,.77,2.47,.47,5.24,1.15,7.69,.67,2.41,3.21,4.96,5.17,6.68,1.81,1.59,3.54,3.43,5.36,4.93,1.01,.84,6.69,4.82,1.64,4.53-1.97-.11-4.43-3.83-5.94-4.62-4.14-2.16-4.77,1.26-8.01,1.66l-.3-.6h0Z"/><path class="f" d="M105.35,66.45c-.87-1.26,4.77-1.18,8.55-1.1,1.75,.04,3.09,.07,3.21-.03,2.29-2.01,1.21-11.93,.79-14.84-2.07,.35-.85,11.1-4.4,8.74-1.41-.93,.13-2.89-1.49-3.66-2-.95-3.47,1.71-4.4,2.98-2.06,2.8-4.1,4.68-7.15,6.54-1.66,1.01-8.16,2.96-7.99,4.88,2.4,.35,4.55-.62,6.62-1.6,2.1-1,4.14-2,6.26-1.6v-.31h0Z"/><path class="d" d="M25.68,15.85c0,2.83-2.64,5.13-5.89,5.13s-5.88-2.29-5.88-5.13,2.64-5.14,5.88-5.14,5.89,2.31,5.89,5.14h0Z"/><path class="d" d="M48.92,54.27c0,4.83-4.6,8.75-10.27,8.75s-10.26-3.92-10.26-8.75,4.59-8.75,10.26-8.75c5.67,0,10.27,3.91,10.27,8.75h0Z"/><path class="d" d="M102.83,33c0,1.75-1.75,3.18-3.93,3.18s-3.92-1.42-3.92-3.18,1.75-3.16,3.92-3.16,3.93,1.41,3.93,3.16h0Z"/><path class="d" d="M101.53,12.78c0,2.41-2.78,4.37-6.19,4.37s-6.19-1.96-6.19-4.37,2.76-4.38,6.19-4.38,6.19,1.95,6.19,4.38h0Z"/><path class="d" d="M50.43,18.37c0,1.46-1.42,2.63-3.18,2.63s-3.16-1.18-3.16-2.63,1.42-2.65,3.16-2.65,3.18,1.17,3.18,2.65h0Z"/><path class="d" d="M65.71,23.59c0,1.47-1.42,2.65-3.16,2.65s-3.18-1.18-3.18-2.65,1.42-2.63,3.18-2.63c1.74,0,3.16,1.18,3.16,2.63h0Z"/><path class="d" d="M94.68,53.67c0,3.49-3.38,6.34-7.54,6.34s-7.55-2.85-7.55-6.34,3.39-6.34,7.55-6.34,7.54,2.83,7.54,6.34h0Z"/><path class="k" d="M85.73,4.88S47.11-.85,34.74,4.28c-12.37,5.13,28.06,5.13,38.02,7.55,9.95,2.41,26.56-.9,12.97-6.95h0Z"/><path class="n" d="M47.11,58.77c0,1.24-.05,2.49-.08,3.7l.08-.08v-3.62h0Z"/><path class="d" d="M114.85,66.71c-.06,.41-.1,.83-.12,1.25,.57-.2,1.21-.34,1.91-.44-.53-.4-1.14-.66-1.79-.81h0Z"/><path class="h" d="M101.66,70.62c-.31,.14-.59,.26-.84,.35-.23,.08-.72,.21-1.45,.37,.73-.16,1.22-.29,1.45-.37,.25-.09,.53-.21,.84-.35h0Zm11.85-4.06c.46,0,.91,.05,1.34,.15,.66,.15,1.26,.41,1.79,.81h0c-.88-.66-1.96-.94-3.13-.96h0Zm-.13,0c-1.03,0-2.12,.19-3.24,.5,1.11-.31,2.21-.5,3.24-.5h0Zm12.07-3.91c.06,.11,.12,.21,.17,.32-.05-.11-.1-.22-.17-.32h0ZM48.36,44.06c-1.85,.72-3.42,1.58-4.52,2.66,.42,.21,.82,.45,1.2,.7,.17-.11,.34-.22,.5-.34,1.14-.92,2.01-1.97,2.83-3.01h0ZM1.52,10.27c.12,1,.35,2.07,.72,3.17,.23,.69,.41,1.62,.55,2.74,.27,2.17,.39,5.05,.39,8.32,0-4.95-.26-9.02-.94-11.06-.37-1.1-.61-2.17-.72-3.17h0ZM4.98,3.6c.89,.09,1.92,.58,3.05,1.57-1.13-.98-2.16-1.48-3.05-1.57h0Zm-.31-.02s-.09,0-.14,0c.04,0,.09,0,.14,0h0ZM116.46,1.64c2.82,3.08,5.76,10.48,4.66,20.82,1.1-10.34-1.84-17.75-4.66-20.82h0Zm-.49-.49c.07,.06,.13,.12,.2,.19-.07-.06-.13-.13-.2-.19h0Zm-3.48-.18s-.04,.08-.06,.11c.02-.04,.04-.07,.06-.11h0Zm1.33-.91s-.07,0-.1,0c.03,0,.07,0,.1,0h0Zm-14.91,36.12c-2.16,0-3.92-1.42-3.92-3.18s1.75-3.16,3.92-3.16,3.93,1.41,3.93,3.16c0,1.75-1.75,3.18-3.93,3.18h0Zm-36.35-9.94c-1.75,0-3.18-1.18-3.18-2.65s1.42-2.63,3.18-2.63,3.16,1.18,3.16,2.63-1.42,2.65-3.16,2.65h0Zm-15.3-5.23c-1.74,0-3.16-1.18-3.16-2.63s1.42-2.65,3.16-2.65,3.18,1.18,3.18,2.65-1.42,2.63-3.18,2.63h0Zm32.77-8.38c-2.48,0-5.03-.25-7.26-.79-9.96-2.42-50.4-2.42-38.02-7.55,3.83-1.59,10.16-2.13,17.09-2.13,15.47,0,33.91,2.73,33.91,2.73,4.67,2.08,5.77,3.83,4.8,5.14,1.13-.99,2.86-1.62,4.8-1.62,3.41,0,6.19,1.95,6.19,4.38s-2.78,4.37-6.19,4.37-6.19-1.96-6.19-4.37c0-.82,.32-1.6,.88-2.25-1.69,1.34-5.73,2.09-10.01,2.09h0ZM59.37,0c-.58,0-1.16,0-1.74,0h0c-1.54,.01-3.07,.04-4.57,.08-3.38,.1-6.66,.26-9.83,.48-1.5,.11-2.98,.22-4.42,.34h0c-.48,.04-.96,.08-1.43,.13h0c-5.07,.46-9.71,1.04-13.71,1.62-.6,.08-1.19,.17-1.77,.26-2.64,.4-4.96,.79-6.91,1.14-1.05,.19-1.99,.36-2.81,.52-2.51,.48-3.9,.8-3.9,.8,0,0,4.18-.95,11.08-2.06-2.33,3.12-4.01,6.69-4.85,10.28,.96-1.71,2.97-2.89,5.29-2.89,3.26,0,5.89,2.31,5.89,5.14s-2.64,5.13-5.89,5.13c-2.93,0-5.36-1.86-5.81-4.31-.4,3.95,.29,7.75,2.3,10.8,6.64,1.87,12.57,5.36,17.28,10.02,4.38,.99,9.05,1.34,13.81,1.34,8.64,0,17.58-1.14,25.68-1.65-2.86,1.59-6.9,2.59-11.11,3.49,1.48,2.07,1.26,5.36,0,8.12-1.03,2.3-3.19,3.6-2.68,6.43,1.47-.23,2.98-.39,4.5-.46,.68-.03,1.36-.05,2.04-.05,5.51,0,10.77,1.08,15.56,3.04-1.11-1.11-1.78-2.53-1.78-4.09,0-3.51,3.39-6.34,7.55-6.34s7.54,2.83,7.54,6.34-3.38,6.34-7.54,6.34c-.44,0-.88-.03-1.3-.09,.94,.52,1.85,1.09,2.73,1.68,8.43-4.48,13.45-14.53,23.11-18.39,0,2.42,2.41,3.62,3.62,6.03,0-15.73,1.6-33.06-4.34-46.78-2.39,1.4-6.69,1.74-9.86,1.79-.31,0-.61,0-.9,0h-.06c-1.58,0-2.73-.06-2.96-.06-.26-.07-.53-.13-.79-.2-1.41-.35-2.84-.67-4.27-.96-4.55-.94-9.18-1.62-13.82-2.1-2.09-.22-4.18-.39-6.27-.53h-.01c-.63-.04-1.26-.08-1.89-.11C67.09,.12,64.06,.03,61.07,0c-.57,0-1.14,0-1.7,0h0Z"/><path class="l" d="M73.05,37.17c-8.09,.51-17.04,1.65-25.68,1.65-4.76,0-9.43-.35-13.81-1.34,2.44,2.41,4.55,5.13,6.26,8.1,1.45,.14,2.81,.54,4.01,1.14,1.1-1.08,2.66-1.94,4.52-2.66,1.95-2.5,3.59-4.93,7.9-5.37,.38-.04,.74-.06,1.08-.06,2.24,0,3.73,.8,4.61,2.04,4.21-.9,8.25-1.9,11.11-3.49h0ZM19.35,3.32c-6.9,1.11-11.08,2.06-11.08,2.06h0c-.08-.07-.16-.14-.24-.21-1.13-.98-2.16-1.48-3.05-1.57-.1-.01-.21-.02-.31-.02h0s-.09,0-.14,0c-1.17,.06-2.07,.85-2.59,2.14-.48,1.17-.64,2.74-.43,4.54,.12,1,.35,2.07,.72,3.17,.68,2.04,.94,6.11,.94,11.06,0,.48,0,.98,0,1.48,.64-.03,1.28-.04,1.92-.04,1.12,0,2.24,.04,3.34,.13-.04-2.88,.03-5.79,.05-8.75,0,2.97,.12,5.88,.22,8.77,2.61,.23,5.15,.7,7.59,1.38-2.01-3.05-2.7-6.85-2.3-10.8-.05-.27-.08-.54-.08-.82,0-.81,.21-1.57,.59-2.25,.85-3.58,2.52-7.16,4.85-10.28h0ZM113.82,.05h0s-.07,0-.1,0c-.51,.04-.94,.33-1.23,.9h0s-.04,.08-.06,.11c-.3,.54-.83,.98-1.47,1.36,0,0,0,.02,.01,.02,5.94,13.72,4.34,31.06,4.34,46.78-1.21-2.41-3.62-3.61-3.62-6.03-9.67,3.87-14.69,13.92-23.11,18.39,2.48,1.67,4.76,3.61,6.79,5.77,1.9-.94,4.2-1.76,5.09-2.3,3.04-1.86,5.09-3.74,7.15-6.54,.79-1.08,1.98-3.18,3.55-3.18,.27,0,.55,.06,.85,.2,1.62,.77,.08,2.73,1.49,3.66,.35,.23,.66,.34,.92,.34,2.42,0,1.61-8.76,3.48-9.08,.42,2.92,1.51,12.83-.79,14.84-.06,.05-.42,.07-.99,.07s-1.34-.02-2.22-.04c-.93-.02-1.98-.04-3.02-.04-3.15,0-6.18,.19-5.53,1.14v.3c-.33-.06-.65-.09-.98-.09-1.77,0-3.5,.84-5.28,1.69-.68,.32-1.37,.64-2.07,.92,.59,.72,1.15,1.46,1.69,2.22,.24-.05,.46-.09,.66-.14,.73-.16,1.22-.29,1.45-.37,.25-.09,.53-.21,.84-.35,.59-.27,1.29-.6,2.06-.97,1.72-.82,3.8-1.8,5.86-2.43,.19-.06,.38-.11,.56-.16,1.11-.31,2.21-.5,3.24-.5h0s.08,0,.13,0c1.18,.02,2.25,.3,3.13,.96,.11-.01,.22-.03,.34-.04,.38-.04,.74-.06,1.08-.06,1.71,0,2.98,.47,3.88,1.24,.73-.25,1.42-.63,2.01-1.1,1.52-1.21,2.38-3.01,1.67-4.59-.05-.11-.1-.22-.17-.32-.03-.05-.05-.09-.08-.13-.18-.26-.36-.6-.56-1.01-.67-1.41-1.43-3.66-2.14-6.5-.16-.67-.33-1.37-.48-2.1-.4-1.86-.77-3.92-1.08-6.12-.12-.88-.24-1.79-.34-2.72-.15-1.38-.27-2.82-.36-4.28-.11-1.77-.17-3.58-.17-5.43,0-3.43,.21-6.96,.7-10.47h0c.07-.49,.13-.96,.18-1.44,1.1-10.34-1.84-17.75-4.66-20.82-.1-.1-.19-.21-.29-.3-.07-.07-.13-.13-.2-.19-.78-.71-1.53-1.09-2.16-1.09h0Z"/><path class="i" d="M8.48,17.31c-.01,2.96-.09,5.87-.05,8.75,.09,0,.18,.02,.27,.02-.1-2.89-.22-5.8-.22-8.77h0Z"/><path class="i" d="M117.9,50.47c-1.86,.32-1.06,9.08-3.48,9.08-.27,0-.57-.1-.92-.34-1.41-.93,.13-2.89-1.49-3.66-.29-.14-.58-.2-.85-.2-1.57,0-2.76,2.09-3.55,3.18-2.06,2.8-4.1,4.68-7.15,6.54-.89,.54-3.19,1.36-5.09,2.3,.57,.61,1.13,1.25,1.66,1.9,.7-.27,1.39-.6,2.07-.92,1.78-.85,3.51-1.69,5.28-1.69,.32,0,.65,.03,.98,.09v-.3c-.66-.95,2.38-1.14,5.53-1.14,1.04,0,2.09,.02,3.02,.04,.88,.02,1.65,.04,2.22,.04s.93-.02,.99-.07c2.29-2.01,1.21-11.93,.79-14.84h0Z"/><path class="d" d="M19.79,10.71c-2.32,0-4.33,1.18-5.29,2.89-.38,.68-.59,1.44-.59,2.25,0,.28,.03,.55,.08,.82,.45,2.45,2.88,4.31,5.81,4.31,3.26,0,5.89-2.29,5.89-5.13,0-2.84-2.64-5.14-5.89-5.14h0Z"/><path class="d" d="M39.83,45.58c.52,.89,.99,1.8,1.43,2.74h.13c1.32,0,2.63-.29,3.64-.9-.38-.26-.78-.49-1.2-.7-1.2-.6-2.56-1-4.01-1.14h0Z"/><path class="d" d="M98.91,29.83c-2.16,0-3.92,1.41-3.92,3.16s1.75,3.18,3.92,3.18,3.93-1.42,3.93-3.18c0-1.75-1.75-3.16-3.93-3.16h0Z"/><path class="d" d="M95.34,8.41c-1.94,0-3.67,.63-4.8,1.62-.13,.18-.3,.35-.51,.51-.56,.65-.88,1.42-.88,2.25,0,2.41,2.76,4.37,6.19,4.37s6.19-1.96,6.19-4.37-2.78-4.38-6.19-4.38h0Z"/><path class="d" d="M47.25,15.72c-1.74,0-3.16,1.18-3.16,2.65s1.42,2.63,3.16,2.63,3.18-1.18,3.18-2.63-1.42-2.65-3.18-2.65h0Z"/><path class="d" d="M62.55,20.96c-1.75,0-3.18,1.18-3.18,2.63s1.42,2.65,3.18,2.65,3.16-1.18,3.16-2.65-1.42-2.63-3.16-2.63h0Z"/><path class="d" d="M87.15,47.33c-4.16,0-7.55,2.83-7.55,6.34,0,1.55,.67,2.98,1.78,4.09,1.54,.63,3.03,1.35,4.47,2.16,.42,.06,.85,.09,1.3,.09,4.16,0,7.54-2.85,7.54-6.34s-3.38-6.34-7.54-6.34h0Z"/><path class="e" d="M51.83,2.14c-6.93,0-13.26,.55-17.09,2.13-12.37,5.13,28.06,5.13,38.02,7.55,2.22,.54,4.78,.79,7.26,.79,4.28,0,8.33-.75,10.01-2.09,.2-.16,.37-.33,.51-.51,.97-1.31-.14-3.07-4.8-5.14,0,0-18.43-2.73-33.91-2.73h0Z"/><path class="g" d="M47.11,58.77c0,.13,0,.26,0,.39h0v-.39h0Z"/></g></g></g></svg>