<?xml version="1.0" encoding="UTF-8"?><svg xmlns="http://www.w3.org/2000/svg" viewBox="0 0 155.43 95.04"><defs><style>.d{fill:#f49f08;}.e{fill:#ff8dea;}.f{fill:#fff;}.g{fill:#ffed42;}.h{fill:#f255dc;}.i{fill:#f3e0e9;}.j{fill:#df5e79;}.k{fill:#f1bfd9;}.l{fill:#ea3d07;}.m{fill:#e4887a;}.n{fill:#f4b2d0;}.o{fill:#e872ac;}.p{fill:#ce83a5;}.q{fill:#ef6b42;}.r{fill:#ffe706;}.s{fill:#f099c1;}</style></defs><g id="a"/><g id="b"><g id="c"><g><path class="r" d="M54.42,5.03c0,1.55-.06,3.1-.1,4.6l.1-.1V5.03h0Z"/><path class="r" d="M65.29,5.79c-.82,2.78,.75,10.25,4.53,5.9,2.41-2.76-3.01-10.36-4.15-6.66l-.38,.76h0Z"/><path class="d" d="M62.68,35.04c1.76,3.01-1.42,8.23-4.65,8.64-4.72,.6-3.36-4.99-4.06-8.16-.56-2.5-.56-5.73-1.58-8.27-.82-2.04-4.08-3.57-3.47-6.05,4.01-1.12,5.51,6.3,8.3,8.06,.86,.56,1.96,.48,3.03,.4,1.1-.09,2.16-.16,3,.4,1.9,1.32,1.8,4.82,1.68,6.89l-2.25-1.89h0Z"/><path class="h" d="M79.75,94.98c20.45-.99,37.44-13.76,44.16-31.1,.6,1.14,1.08,2.46,1.45,3.98,1.66,6.9-3.36,22.98,10.25,17.13,8.74-3.74,8.54-13.39,8.14-21.17-.15-3.1-1.52-8.27-.16-11.15,1.13-2.35,4.53-2.91,5.47-4.96,1.96-4.27-3.03-7.48-3.9-10.73-1.07-3.93,1.84-5.56,3.19-8.57,2.62-5.79,1.62-13.45-7.07-12.56-7.59,.77-8.52,6.53-13.33,10.42-1.35,1.08-3.32,1.58-5.31,1.55C114.53,10.62,96.05-.95,75.13,.06,52.68,1.14,34.44,16.41,29.32,36.35c-1.74-4.06-1.46-10.76-1.61-13.57-.32-6.7-.99-15.1-9.73-17.35C12.22,3.94,4.21,10.82,2.69,15.19c-2.38,6.83,4.01,11.61,3.11,18.7-.7,5.55-8.87,11.8-4.53,17.1,1.27,1.55,3.13,.35,4.22,1.56,1.62,1.84,1.3,3.86,1.36,6.05,.1,3.55-1.64,7.76-.45,11.31,.92,2.73,3.39,5.39,6.86,5.76,5.82,.61,6.74-3.76,8.64-7.75,1.99-4.18,3.32-10.58,6.59-12.85,3.84,23.64,25.74,41.12,51.27,39.89h0Z"/><path class="e" d="M82.27,2.56s-34.52,.38-47.28,29.63c0,0,13.89-25.51,51.4-23.26,0,0,9,.38,16.5,5.26,0,0-1.89-9.38-20.63-11.64h0Z"/><path class="e" d="M21.12,9.69c-2.44-1.12-7.66-3.71-9.87-.5-2.75,3.99,4.36,5.61,6.4,7.54,2.08,1.94,4.11,7.19,6.84,2.59,1.71-2.9-.74-7.53-3.38-8.89v-.75h0Z"/><path class="e" d="M140.78,41.58c-.82,2.78,.75,10.25,4.5,5.9,2.43-2.76-2.98-10.37-4.14-6.67l-.37,.76h0Z"/><path class="e" d="M142.66,27.71c-2.53,.2-3.95-1.96-4.12-4.12-.17-2.13,.85-4.27,3.2-4.14,3.86,.23,5.74,6.3,1.67,8.26h-.75Z"/><path class="f" d="M112.4,44.77c0,18.95-16.55,34.32-36.96,34.32s-36.94-15.38-36.94-34.32S55.05,10.44,75.44,10.44s36.96,15.36,36.96,34.33h0Z"/><path class="l" d="M96.21,32.37c-5.21-9.14-19.14-9.22-28.68-9.03-9.96,.19-17.69,9.57-17.91,18.89-.23,10.07,5.79,20.11,16.14,22.64,12.73,3.11,30.68,2.05,32.56-14.33,1.21-10.63-5.23-17.41-14.43-20.77-3.57-1.3-8.63-1.3-12.47-.44-4.88,1.1-6.4,3.54-6.84,8.24-.79,8.29,7.53,19.75,17.12,14.12,3.63-2.15,4.85-8.17,2.85-11.65-1.56-2.69-10.2-5.57-9.79-.75,1.21-.03,2.51,.01,3.68,.15,.22,2.53-3.66,2.15-4.49,.35-1.54-3.26,2.78-3.83,4.81-3.95,5.25-.31,9.11,2.62,9.46,7.66,.36,5.21,.15,8.29-4.81,10.58-5.82,2.69-11.78,2.75-16.77-1.84-5.88-5.41-8.71-17.62-.85-22.42,7.69-4.71,17.25-3.09,24.35,1.66,8.64,5.78,11.64,12.92,10.94,24.02-.69,10.85-10.94,12.32-20.44,12.32-5.6,0-11.24,.38-16.51-1.07-4.85-1.32-11.78-3.41-14.69-7.76-6.84-10.2-10.29-23.71,1.72-31.05,6.18-3.79,12.98-9.28,20.45-9.49,6.8-.19,14.34,2.92,20.35,5.32,5.48,2.19,9.74,5.29,12.76,10.6,1.16,2.02,6.92,16.11,.28,14.55,.09-2.97-2.28-7.29-3.76-9.76-1.39-2.34-5.06-4.97-5.39-7.84l.35,1.04h0Z"/><path class="s" d="M143.27,59.63c-.67,.11-1.34,.18-2.02,.22-1.77,1.92-3.56,3.78-5.39,5.57,.34-.03,.68-.05,1-.05,.68,0,1.31,.1,1.84,.46,1.91,1.32,1.81,4.82,1.7,6.87l-2.25-1.87c1.76,3.01-1.43,8.23-4.65,8.64-.24,.03-.46,.05-.67,.05-3.9,0-2.73-5.13-3.39-8.15-1.22,1.07-2.46,2.1-3.7,3.12,0,.65-.01,1.31-.01,1.97,0,5.03,.42,9.8,4.95,9.8,1.28,0,2.9-.38,4.93-1.26,7.1-3.04,8.3-9.98,8.29-16.65,0-1.54-.07-3.06-.14-4.52h0c-.06-1.18-.29-2.66-.48-4.2h0Z"/><path class="p" d="M136.87,65.37c-.33,0-.66,.02-1,.05-2.1,2.06-4.24,4.05-6.41,5.94,.65,3.02-.52,8.15,3.39,8.15,.21,0,.43-.02,.67-.05,3.22-.41,6.4-5.63,4.65-8.64l2.25,1.87c.12-2.05,.22-5.55-1.7-6.87-.53-.36-1.17-.45-1.84-.45h0Z"/><path class="f" d="M146.39,39.4c1.68,2.48,4.15,5.1,2.67,8.32-.94,2.05-4.34,2.6-5.47,4.96-.23,.48-.38,1.03-.47,1.61,.68,.39,1.37,.76,2.07,1.11,3.57-4.19,6.99-8.64,10.24-13.35-.83-.15-1.65-.32-2.47-.55-1.98-.54-4.31-1.21-6.57-2.11h0Zm-7.77-24.49c-.07,.52-.12,1.03-.15,1.55,.71-.24,1.5-.43,2.38-.54-.66-.5-1.41-.82-2.23-1.01h0Z"/><path class="g" d="M54.42,5.03c0,.16,0,.32,0,.48h0v-.48h0Z"/><path class="k" d="M143.16,48.81c-2.19,0-3.01-5.06-2.37-7.23l.37-.76c.22-.7,.59-.99,1.03-.99,1.89,0,5.07,5.42,3.11,7.66-.81,.94-1.53,1.32-2.13,1.32h0Zm-.83-21.09c-2.32,0-3.63-2.07-3.79-4.13-.17-2.07,.79-4.14,3-4.14,.07,0,.14,0,.21,0,3.86,.23,5.74,6.3,1.67,8.26h-.75c-.11,0-.22,.01-.33,.01h0ZM22.28,21.17c-1.7,0-3.15-3.05-4.62-4.43-2.05-1.93-9.15-3.55-6.4-7.54,.79-1.15,1.96-1.56,3.25-1.56,2.33,0,5.05,1.33,6.62,2.05v.75c2.63,1.36,5.09,5.99,3.38,8.89-.79,1.33-1.53,1.84-2.22,1.84h0Zm12.71,11.02C47.75,2.94,82.27,2.56,82.27,2.56c18.74,2.25,20.63,11.64,20.63,11.64-7.5-4.88-16.5-5.26-16.5-5.26-1.59-.1-3.13-.14-4.63-.14-34.03,0-46.77,23.4-46.77,23.4h0ZM77.67,0c-.84,0-1.69,.02-2.53,.06-1.9,.09-3.76,.29-5.59,.57-5.39,.85-10.48,2.52-15.12,4.88h0c-2.66,1.35-5.17,2.93-7.52,4.7-8.61,6.51-14.9,15.68-17.58,26.13-1.19-2.78-1.44-6.79-1.52-9.95-.04-1.46-.04-2.73-.09-3.62-.32-6.7-.99-15.1-9.73-17.35-.55-.14-1.11-.21-1.69-.21-5.53,0-12.22,6.01-13.6,9.97-2.38,6.83,4.01,11.61,3.11,18.7,.86-6.83-5.03-11.54-3.32-17.97,2.09,4.88,8.96,6.58,13.39,9.9,4.5,3,1.49,7.5-3.01,12-4.49,3-1.49,7.5,0,10.51,1.6,1.27,2.99,1.8,4.24,1.8,4.62,0,7.23-7.26,10.78-10.81,3.23,7.84,8.15,14.68,14.16,20.1-2.27-4.45-3.53-9.42-3.53-14.66,0-18.96,16.55-34.33,36.94-34.33,11.64,0,22.03,5,28.8,12.82,.78-.24,1.54-.36,2.28-.36,7.02,0,12.05,10.46,14.39,20.93,0,1.02,2.09,3.43,4.85,3.43,1.25,0,2.64-.5,4.03-1.84-.19,5.8-.16,11.02,4.6,13.4,1.91,.72,3.9,1.05,5.88,1.05,.32,0,.65-.01,.97-.03,.61-.67,1.22-1.34,1.83-2.02-.1-1.25-.13-2.47,.04-3.54,.09-.59,.24-1.13,.47-1.61,1.13-2.35,4.53-2.91,5.47-4.96,1.47-3.22-.99-5.84-2.67-8.32-.55-.81-1.02-1.61-1.23-2.41-.29-1.08-.28-1.99-.09-2.8,.51-2.13,2.31-3.58,3.28-5.77,1.77-3.91,1.89-8.69-.91-11.09-1.12-.96-2.7-1.54-4.82-1.54-.43,0-.87,.02-1.34,.07-.15,.01-.28,.03-.42,.05h0c-.88,.12-1.67,.3-2.38,.54-2.71,.92-4.34,2.68-5.89,4.63-1.38,1.74-2.69,3.62-4.64,5.2-.85,.68-1.95,1.13-3.15,1.36-.65,.12-1.32,.19-2,.19-.05,0-.11,0-.17,0-1.15-2.45-2.52-4.79-4.07-6.99-.67-.94-1.37-1.87-2.1-2.76-.66-.81-1.35-1.59-2.06-2.35-2.52-2.69-5.35-5.1-8.44-7.17-1.1-.74-2.23-1.44-3.4-2.09-1.78-1-3.64-1.9-5.55-2.68-5.95-2.43-12.5-3.78-19.34-3.78h0Z"/><path class="i" d="M82.27,2.56s-34.52,.38-47.28,29.63c0,0,12.74-23.4,46.77-23.4,1.5,0,3.04,.04,4.63,.14,0,0,9,.38,16.5,5.26,0,0-1.89-9.39-20.63-11.64h0Z"/><path class="i" d="M14.5,7.64c-1.29,0-2.46,.41-3.25,1.56-2.75,3.99,4.36,5.61,6.4,7.54,1.47,1.38,2.93,4.43,4.62,4.43,.69,0,1.43-.51,2.22-1.84,1.71-2.9-.74-7.53-3.38-8.89v-.75c-1.57-.72-4.29-2.05-6.62-2.05h0Z"/><path class="i" d="M142.18,39.82c-.44,0-.81,.3-1.03,.99l-.37,.76c-.64,2.17,.18,7.23,2.37,7.23,.6,0,1.32-.38,2.13-1.32,1.97-2.24-1.22-7.66-3.11-7.66h0Z"/><path class="i" d="M141.53,19.44c-2.21,0-3.17,2.07-3,4.14,.17,2.07,1.47,4.13,3.79,4.13,.11,0,.22,0,.33-.01h.75c4.08-1.96,2.19-8.03-1.67-8.26-.07,0-.14,0-.2,0h0Z"/><path class="o" d="M75.44,10.44c-20.39,0-36.94,15.36-36.94,34.33,0,5.24,1.27,10.21,3.53,14.66,9.26,8.34,21.09,13.3,33.3,13.3,5.68,0,11.44-1.08,17.05-3.39,10.51-4.5,21.01-15.01,18.01-27.01-.59-2.94-3.02-5.42-5.48-7.61,1.38,2.72,5.92,14.34,1.05,14.34-.28,0-.6-.04-.94-.12,.09-2.97-2.28-7.29-3.76-9.76-1.28-2.15-4.48-4.55-5.25-7.15-4.71-7.73-15.88-8.72-24.9-8.72-1.24,0-2.43,.02-3.57,.04-9.96,.19-17.69,9.57-17.91,18.89-.23,10.07,5.79,20.11,16.14,22.64,3.48,.85,7.35,1.39,11.17,1.39,10.17,0,20.03-3.81,21.39-15.71,1.21-10.63-5.23-17.41-14.43-20.77-1.97-.72-4.39-1.04-6.8-1.04-1.97,0-3.94,.21-5.67,.6-4.88,1.1-6.4,3.54-6.84,8.24-.64,6.76,4.76,15.62,11.98,15.62,1.64,0,3.37-.46,5.14-1.5,3.63-2.15,4.85-8.17,2.85-11.65-.95-1.64-4.52-3.34-7.08-3.34-1.65,0-2.88,.71-2.71,2.6,.24,0,.48,0,.72,0,1,0,2.02,.05,2.96,.15,.11,1.26-.8,1.8-1.84,1.8s-2.23-.54-2.65-1.45c-1.54-3.26,2.78-3.83,4.81-3.95,.25-.01,.5-.02,.74-.02,4.87,0,8.38,2.88,8.71,7.68,.36,5.21,.15,8.29-4.81,10.58-2.55,1.18-5.12,1.85-7.63,1.85-3.22,0-6.33-1.11-9.14-3.69-5.88-5.41-8.71-17.62-.85-22.42,3.19-1.96,6.71-2.82,10.24-2.82,4.97,0,9.96,1.71,14.11,4.48,8.64,5.78,11.64,12.92,10.94,24.02-.69,10.85-10.94,12.32-20.44,12.32-1.93,0-3.86,.05-5.78,.05-3.66,0-7.27-.16-10.72-1.11-4.85-1.32-11.78-3.41-14.69-7.76-6.84-10.2-10.29-23.71,1.72-31.05,6.18-3.79,12.98-9.28,20.45-9.49,.2,0,.4,0,.6,0,6.64,0,13.92,3,19.75,5.33,2.62,1.04,4.95,2.3,7.01,3.9,.02-.63,.29-1.25,.91-1.87,1.52-1.3,2.96-2.13,4.35-2.56-6.78-7.82-17.16-12.82-28.81-12.82h0Z"/><path class="q" d="M72.22,18.46c-.2,0-.4,0-.6,0-7.47,.21-14.27,5.7-20.45,9.49-12.02,7.34-8.57,20.85-1.72,31.05,2.91,4.35,9.84,6.45,14.69,7.76,3.45,.95,7.06,1.11,10.72,1.11,1.92,0,3.85-.05,5.78-.05,9.5,0,19.75-1.48,20.44-12.32,.7-11.1-2.29-18.24-10.94-24.02-4.15-2.77-9.15-4.48-14.11-4.48-3.53,0-7.05,.86-10.24,2.82-7.86,4.81-5.03,17.02,.85,22.42,2.8,2.58,5.92,3.69,9.14,3.69,2.51,0,5.08-.67,7.63-1.85,4.96-2.29,5.17-5.38,4.81-10.58-.34-4.8-3.85-7.68-8.71-7.68-.24,0-.49,0-.74,.02-2.03,.12-6.34,.69-4.81,3.95,.42,.9,1.6,1.45,2.65,1.45s1.95-.54,1.84-1.8c-.94-.1-1.97-.15-2.96-.15-.24,0-.48,0-.72,0-.16-1.89,1.07-2.6,2.71-2.6,2.56,0,6.13,1.71,7.08,3.34,2,3.48,.78,9.5-2.85,11.65-1.77,1.04-3.5,1.5-5.14,1.5-7.22,0-12.62-8.86-11.98-15.62,.44-4.71,1.96-7.15,6.84-8.24,1.73-.39,3.7-.6,5.67-.6,2.42,0,4.84,.32,6.8,1.04,9.2,3.36,15.64,10.15,14.43,20.77-1.36,11.9-11.21,15.71-21.39,15.71-3.82,0-7.69-.54-11.17-1.39-10.35-2.53-16.37-12.57-16.14-22.65,.22-9.31,7.95-18.7,17.91-18.89,1.14-.02,2.33-.04,3.57-.04,9.03,0,20.19,1,24.9,8.72,.77,2.6,3.97,5,5.25,7.15,1.48,2.47,3.85,6.8,3.76,9.76,.35,.08,.66,.12,.94,.12,4.87,0,.33-11.62-1.05-14.34-2.96-2.64-5.98-4.88-5.93-7.02-2.06-1.6-4.39-2.85-7.01-3.9-5.83-2.33-13.11-5.33-19.75-5.33h0Z"/><path class="m" d="M.82,44.2C.33,45.32,0,46.43,0,47.53c0-1.09,.33-2.2,.82-3.32H.82Z"/><path class="n" d="M12.92,70.46c-.1,0-.2-.01-.3-.04-.16-1.43-.13-2.95-.09-4.42,4.72-1.34,8.6-8.17,10.63-12.32,1.03-2.1,1.86-4.21,3.29-4.21,.66,0,1.45,.45,2.45,1.57,1.7,1.9,2.98,6.32,3.84,8.54h-.76c-1.07-2.07-1.94-4.55-4.22-5.26-.61-.19-1.12-.27-1.56-.27-2.19,0-2.55,2.09-3.74,3.87-1.5,2.22-6.52,12.55-9.54,12.55h0ZM3.52,48.27c-3.1,0-2.24-4.99,.34-5.95l.37,.75c0,1.71,.03,3.43-.03,5.13-.25,.05-.47,.07-.68,.07h0Zm6.78-15.41c-2.23,0-4.4-2.51-3.82-4.79l1.89-.75c.21-.01,.42-.02,.62-.02,.27,0,.54,.02,.81,.07,.94,1.61,1.46,3.49,1.07,5.44-.19,.04-.38,.06-.57,.06h0ZM2.48,15.92c-1.71,6.43,4.18,11.14,3.32,17.97h0c-.42,3.31-3.48,6.86-4.98,10.31C.33,45.32,0,46.43,0,47.52c-.01,1.19,.35,2.35,1.27,3.47,1.27,1.55,3.13,.35,4.22,1.56,1.32,1.5,1.35,3.11,1.35,4.84,0,.13,0,.27,0,.4,0,.27,0,.54,0,.81,0,.11,0,.22,0,.34,0,2.58-.89,5.48-.87,8.21,0,.95,.12,1.88,.41,2.77,.92,2.73,3.39,5.39,6.86,5.76,.37,.04,.72,.06,1.05,.06,4.89,0,5.81-4.07,7.59-7.81,1.99-4.18,3.32-10.58,6.59-12.85,3.72,22.85,24.31,39.96,48.74,39.96,.84,0,1.68-.02,2.53-.06,20.45-.99,37.44-13.76,44.16-31.1,.6,1.14,1.08,2.46,1.45,3.98,.33,1.38,.4,3.12,.4,4.98,0,.54,0,1.09-.01,1.64,1.25-1.01,2.48-2.05,3.7-3.12,0-.02,0-.04-.01-.05-.55-2.5-.57-5.73-1.58-8.27-.82-2.03-4.08-3.57-3.47-6.05,.28-.08,.55-.12,.8-.12,3.42,0,4.9,6.54,7.5,8.17,.56,.36,1.21,.46,1.89,.46,.37,0,.76-.03,1.14-.06,.04,0,.09,0,.14-.01,1.83-1.8,3.62-3.65,5.39-5.57-.33,.02-.65,.03-.97,.03-1.98,0-3.97-.33-5.88-1.05-4.76-2.38-4.79-7.6-4.6-13.4-1.4,1.34-2.78,1.84-4.03,1.84-2.76,0-4.85-2.42-4.85-3.43-2.34-10.46-7.36-20.92-14.39-20.93-.73,0-1.49,.11-2.28,.36,5.1,5.88,8.15,13.36,8.15,21.51,0,18.95-16.55,34.32-36.96,34.32-1.03,0-2.05-.04-3.06-.12,6.4,1.73,13.04,3.14,18.38,3.14,.43,0,.85,0,1.25-.03,16.87-.75,28.13-14.63,28.13-14.63-12.45,19.54-30.31,23.72-43.31,23.72-9.71,0-16.7-2.33-16.7-2.33-10.59-4.07-9.59-6.18-5.24-6.18,1.66,0,3.81,.31,5.99,.93,1.33,.38,2.1,.56,2.43,.56,1.66,0-7.39-4.32-13.31-9.94-1.29-1.22-1.3-1.71-.34-1.71,1.1,0,3.47,.65,6.62,1.62-6.16-3.48-11.14-8.59-14.25-14.69-6.01-5.42-10.94-12.26-14.16-20.1-3.54,3.54-6.16,10.81-10.78,10.81-1.25,0-2.64-.53-4.24-1.8-1.49-3.01-4.49-7.51,0-10.51,4.5-4.5,7.52-9,3.01-12-4.43-3.32-11.3-5.01-13.39-9.9h0Z"/><path class="o" d="M104.25,23.26c-1.39,.43-2.83,1.26-4.35,2.56-.62,.62-.9,1.24-.91,1.87,2.25,1.75,4.17,3.92,5.75,6.7,.05,.09,.11,.2,.17,.33,2.47,2.2,4.9,4.67,5.48,7.61,3,12-7.5,22.51-18.01,27.01-5.61,2.31-11.38,3.39-17.05,3.39-12.2,0-24.04-4.96-33.3-13.3,3.1,6.09,8.09,11.21,14.25,14.69,2.9,.89,6.45,2.04,10.29,3.19,1.89,.57,3.84,1.13,5.81,1.67,1.01,.08,2.03,.12,3.06,.12,20.41,0,36.96-15.38,36.96-34.32,0-8.14-3.05-15.62-8.15-21.5h0Z"/><path class="j" d="M98.98,27.69c-.05,2.15,2.96,4.38,5.93,7.02-.07-.13-.12-.24-.17-.33-1.58-2.77-3.5-4.94-5.75-6.7h0Z"/><path class="p" d="M26.46,49.47c-1.43,0-2.27,2.11-3.29,4.21-2.03,4.15-5.91,10.98-10.63,12.32-.04,1.46-.07,2.98,.09,4.42,.1,.02,.2,.04,.3,.04,3.01,0,8.04-10.33,9.54-12.55,1.19-1.78,1.56-3.87,3.74-3.87,.44,0,.95,.08,1.56,.27,2.28,.72,3.16,3.19,4.22,5.26h.76c-.86-2.22-2.15-6.64-3.84-8.54-1-1.11-1.79-1.57-2.45-1.57h0Z"/><path class="p" d="M3.87,42.32c-2.59,.96-3.45,5.95-.34,5.95,.21,0,.43-.02,.68-.07,.06-1.7,.03-3.42,.03-5.13l-.37-.75h0Z"/><path class="p" d="M8.99,27.3c-.21,0-.41,0-.62,.02l-1.89,.75c-.58,2.28,1.59,4.79,3.82,4.79,.19,0,.38-.02,.57-.06,.4-1.94-.13-3.83-1.07-5.44-.27-.05-.54-.07-.81-.07h0Z"/><path class="p" d="M125.2,56.87c-.26,0-.52,.04-.8,.12-.61,2.49,2.65,4.02,3.47,6.05,1.01,2.54,1.02,5.77,1.58,8.27,0,.02,0,.03,.01,.05,2.17-1.89,4.31-3.88,6.41-5.94-.05,0-.09,0-.14,.01-.38,.03-.76,.06-1.14,.06-.68,0-1.34-.1-1.89-.46-2.59-1.63-4.08-8.17-7.5-8.17h0Z"/><path class="s" d="M120.15,67.45s-11.26,13.89-28.13,14.63c-.41,.02-.83,.03-1.25,.03-5.34,0-11.98-1.41-18.38-3.14-5.86-.45-11.33-2.17-16.1-4.86-3.15-.97-5.52-1.62-6.62-1.62-.96,0-.95,.5,.34,1.71,5.92,5.62,14.97,9.94,13.31,9.94-.34,0-1.11-.18-2.43-.56-2.18-.62-4.33-.93-5.99-.93-4.35,0-5.35,2.11,5.24,6.18,0,0,6.99,2.33,16.7,2.33,13,0,30.86-4.18,43.31-23.72h0Z"/><path class="n" d="M56.28,74.11c4.77,2.69,10.24,4.41,16.1,4.86-1.98-.53-3.93-1.1-5.81-1.67-3.84-1.15-7.39-2.3-10.29-3.19h0Z"/></g></g></g></svg>