<?xml version="1.0" encoding="UTF-8"?><svg xmlns="http://www.w3.org/2000/svg" viewBox="0 0 114.65 225.39"><defs><style>.d{fill:#ffbc1f;}.e{fill:#ed8500;}.f{fill:#69a008;}.g{fill:#b730ae;}.h{fill:#7fc31c;}.i{fill:#d647d3;}.j{fill:#f8fcbb;}.k{fill:#a7a58b;}.l{fill:#720a6b;}.m{fill:#7e7d66;}.n{fill:#ffe29d;}.o{fill:#8b8b79;}.p{fill:#b7d30b;}.q{fill:#911083;}.r{fill:#e6f445;}</style></defs><g id="a"/><g id="b"><g id="c"><g><path class="k" d="M44.1,123.61l-14.44,100.07s.79,1.43,3.31,1.67c.61,.06,1.32,.05,2.15-.07-.21,.03-.42,.05-.61,.06,1.49-9.81,10.54-69.95,11.46-78.51,.67-6.26-2.06-8.34-3.91-9.03l2.05-14.2h0Z"/><path class="o" d="M36.41,225.03c-.46,.11-.88,.19-1.29,.25,.4-.05,.83-.13,1.29-.25h0Z"/><path class="m" d="M47.45,123.61c-1.21-.12-2.38-.14-3.34,0h0l-2.05,14.2c1.85,.69,4.58,2.77,3.91,9.03-.91,8.55-9.97,68.7-11.46,78.51,.2-.02,.4-.03,.61-.06,.4-.06,.83-.14,1.29-.25h0l18.43-99.92s-3.85-1.15-7.39-1.5h0Z"/><path class="q" d="M50.61,101.64s-22.59,16.23-22.97,22.91c0,0,1.67,1.31,4.74,.47,3.06-.83,7.8-.36,7.15,2.89-.65,3.26,3.25,5.49,6.03,3.64,2.79-1.86,6.32-.18,10.31,1.59,3.99,1.77,4.09-3.53,9.94-1.38,5.84,2.14,8.45-3.61-9.82-28.06,0,0-3.34-2.61-5.38-2.05Z"/><path class="q" d="M66.14,.42S21.56-6.13,4.62,32.49C-12.33,71.11,21.26,98.64,42.8,106.83c21.54,8.2,58.42,.16,67.92-27.88C120.23,50.91,115.07,9.3,66.14,.42Z"/><path class="l" d="M80.89,103.45c2.24-4.71,10.19-5.7,11.44-11.9-6.96,2.47-18.08,14.42-21.55,5.97-1.73-4.23,1.01-11.42-.73-15.65-3.48,4.47-4.31,13.38-11.27,15.85-5.55,.69-6.61-5.27-7.67-10.88-.08-.86-.13-1.7-.15-2.46-.09-5.03-1.67-7.22-2.65-.43-1.8,12.45-4.66,12.93-8.46,11.54-3.8-1.39-8.04-14.18-9.82-17.05-1.77-2.86-1.33,5.07,.75,9.56,1.3,2.8-.29,3.26-1.67,3.21C13.03,85.44,4.84,73.54,.38,59.08c3.23,24.51,26.22,41.59,42.42,47.75,12,4.57,28.76,4.09,42.89-2.07-1.56-.11-3.16-.52-4.81-1.31Z"/><path class="g" d="M62.06,1.11S27.8-2.48,12.12,20.88c-15.68,23.36-1.97,36.31,7.35,38.34,9.31,2.03,24.92-4.03,39.31-12.88,13.86-8.52,19.46-16.43,23.61-26.22,3.93-9.24-1.55-17.26-20.34-19Z"/><polygon class="p" points="72.28 42.14 86.26 53.84 103.83 48.96 97.02 65.86 107.1 81.06 88.91 79.81 77.57 94.09 73.13 76.41 56.06 70.03 71.5 60.36 72.28 42.14"/><path class="h" d="M28.14,100.03l-2.17-12.1,12.95-12.83-18.06-2.48-8.2-16.29-7.92,16.38c3.34,10.65,13.76,19.81,23.4,27.31Z"/><path class="f" d="M5.48,71.21l-.73,1.52c.26,.84,.59,1.67,.94,2.5,5.32,9.95,13.71,18.01,22.27,23.79l-1.6-8.88c-9.76-4.17-16.35-10.8-20.89-18.92Z"/><path class="r" d="M58.93,.02C43.23,.45,28.16,4.2,15.25,15.58l-6.69,14.29,23.22-5.09,17.36,16.24,2.33-23.67,20.81-11.48L58.93,.02Z"/><path class="j" d="M51.75,.99s-17.39-.27-34.92,14.61c0,0-2.49,2.73,.81,4.04,3.29,1.31,7.64,2.18,15.09-1.16,7.46-3.34,14.79-9.3,18.95-13.95,4.03-4.51,1.99-3.47,.07-3.54Z"/><path class="i" d="M11.23,32.25s-5.41,6.02-3.49,12.54c1.92,6.52,6.39,6.77,11.3-3.22,4.92-9.99-3.03-13.85-7.81-9.32Z"/><path class="g" d="M90.57,23.2s.45,8.95-2.83,16.92c-3.28,7.96,9.22,10.38,11.78-.19,2.57-10.57-3.12-24.77-7.33-27.39-4.21-2.61-1.84,2.69-1.62,10.66Z"/><path class="g" d="M59.13,73.53s-2.42-2.42-4.41,5.89c-2,8.32,1.54,11.62,4.21,9.57,2.67-2.05,3.61-9.93,.2-15.46Z"/><path class="g" d="M90.6,82.45s-4.97,5.46-8.02,9.37c0,0-.32,4.78,5.84-.12,6.15-4.89,5.79-11.11,2.18-9.25Z"/><path class="g" d="M105.7,29.84s9.05,24.12-.66,46.27c0,0,2.09,2.47,5.36-3.64,3.28-6.11,7.35-24.29-4.7-42.63Z"/><path class="g" d="M39.17,113.15s-7.35,5.14-8.59,8.26c-1.24,3.11,2.48,2.84,6.15-1.72,3.67-4.56,5.77-8.42,2.43-6.54Z"/><path class="g" d="M58.5,114.8s1.79,11.36,3.65,13.77c1.86,2.41,6.89,2.21,4.43-4.3-2.46-6.5-7.58-12.93-8.08-9.47Z"/><path class="e" d="M37.98,121.65s2.09,4.55,7.02,5.55c1.77-2.05,5.37-10.58,6.47-18.4l-1.77-.98s-9.86,11.16-11.72,13.83Z"/><path class="e" d="M59.34,126.45s-3.68,3.39-8.62,2.4c-.84-2.57-.86-11.83,1.15-19.47l2.02-.21s4.78,14.1,5.45,17.29Z"/><path class="d" d="M36.84,100.52s-.76,.34-1.31,3.08c-.55,2.73-.29,6.31,.8,6.73,1.1,.41,8.15,.46,13.45-.54l.19-4.37s-9.03-4.36-13.14-4.89Z"/><path class="d" d="M67,104.27s.66,.49,.63,3.28c-.03,2.78-1.03,6.24-2.19,6.42-1.15,.17-8.06-1.25-13.04-3.32l.72-4.32s9.74-2.39,13.87-2.06Z"/><path class="n" d="M49.77,104.98s3.02,.11,4.34,.87c.04,2.26-.78,4.85-1.04,5.18-2.36,.02-3.94-.4-4.03-.91-.1-.51,.02-4.02,.74-5.14Z"/></g></g></g></svg>