<?xml version="1.0" encoding="UTF-8"?><svg xmlns="http://www.w3.org/2000/svg" viewBox="0 0 142.5 142.62"><defs><style>.d{fill:#f49f08;}.e{fill:#fff;}.f{fill:#ffed42;}.g{fill:#f7b643;}.h{fill:#e4887a;}.i{fill:#ffce00;}.j{fill:#f9c442;}.k{fill:#ffda3d;}.l{fill:#f7b206;}.m{fill:#ffe706;}</style></defs><g id="a"/><g id="b"><g id="c"><g><path class="e" d="M119.05,101.88c-3.95,4.57-11.5,4.51-16.85-.13-5.35-4.63-6.48-12.08-2.53-16.65,3.95-4.57,11.48-4.51,16.84,.12,5.35,4.63,6.5,12.09,2.54,16.66h0Z"/><path class="i" d="M39.93,112.82c16.2,12.7,37.5,14.17,54.02,5.42-.29,1.26-.79,2.58-1.52,3.97-3.28,6.33-17.67,15.25-3.48,19.76,9.1,2.91,15.29-4.56,20.13-10.73,1.91-2.45,4.27-7.29,7.19-8.58,2.39-1.06,5.36,.77,7.42-.17,4.29-1.96,2.62-7.68,4.08-10.73,1.78-3.68,5.06-3,8.07-4.4,5.79-2.68,10.08-9.15,2.88-14.2-6.28-4.4-10.78-.64-16.99-.85-1.73-.06-3.56-.98-5.05-2.31,5.16-18.43-1.27-39.35-17.83-52.35-17.79-13.94-41.68-14.35-58.68-2.56,1.35-4.23,5.96-9.14,7.7-11.37,4.16-5.3,9.18-12.13,4.01-19.59C48.49-.79,37.87-.83,33.84,1.5c-6.3,3.62-4.59,11.46-9.93,16.26-4.19,3.76-14.5,3.13-14.69,10.02-.05,2.01,2.15,2.32,2.17,3.98,.03,2.46-1.54,3.78-2.94,5.48-2.26,2.77-6.35,4.82-7.79,8.3-1.1,2.68-.97,6.33,1.42,8.89,4.01,4.31,7.59,1.58,11.66-.21,4.26-1.85,9.48-5.86,13.46-5.43-12.62,20.49-7.48,48.18,12.72,64.04h0Z"/><path class="m" d="M113.66,104.64c-1.02,1.18-2.08,2.32-3.11,3.43h.15c.98-1.14,1.97-2.29,2.96-3.43h0Z"/><path class="l" d="M105.24,121.29c-2.05-4.95,1.36-8.93,5.32-13.21-6.23,.33-6.69-5.95-5.72-7.07,6.61-12.24,9.79-27.43-4.12-27.5-6.37,.47,.92,12.77-2.87,19.46-5.62,11.09-20.51,12.18-31.46,8.68-26.29-8.8-38.09-38.95-29.29-65.24-6.38,.46-15.57,6.47-17.33-3.03,.85-3.27,1.53-8.66,6.91-7.99,6.38-.46,11.62-1.89,10.18-7.14-1.18-5.44-5.29-11.24-3.67-16.33-5.53,3.76-4.15,11.22-9.29,15.84-4.19,3.76-14.5,3.13-14.69,10.02-.05,2.01,2.15,2.32,2.17,3.98,.03,2.46-1.54,3.78-2.94,5.48-2.26,2.77-6.35,4.82-7.79,8.3-1.1,2.68-.97,6.33,1.42,8.89,4.01,4.31,7.59,1.58,11.66-.21,4.26-1.85,9.48-5.86,13.46-5.43-12.62,20.49-7.48,48.18,12.72,64.04,16.2,12.7,37.5,14.17,54.02,5.42-.29,1.26-.79,2.58-1.52,3.97-3.28,6.33-17.67,15.25-3.48,19.76,9.1,2.91,15.29-4.56,20.13-10.73,.71-.94,1.5-2.2,2.37-3.5-2.56-1.58-4.74-3.73-6.22-6.45h0Z"/><path class="m" d="M102.62,44.23s-26.47-22.4-55.41-8.57c0,0,27.34-10.25,54.36,16.13,0,0,6.59,6.21,9.08,14.85,0,0,4.74-8.37-8.03-22.42h0Z"/><path class="m" d="M51.46,9.44c-1.11-2.46-3.39-7.85-7.17-6.87-4.71,1.22-.38,7.13-.1,9.94,.3,2.84-1.61,8.17,3.5,6.47,3.2-1.07,4.38-6.21,3.28-8.98l.49-.57h0Z"/><path class="m" d="M121.43,112.37c-2.45,1.57-6.17,8.28-.44,7.47,3.65-.51,4.53-9.86,1.23-7.8l-.79,.33h0Z"/><path class="m" d="M131.99,103.06c-2.07-1.5-1.72-4.07-.43-5.83,1.27-1.74,3.45-2.69,5.16-1.04,2.78,2.72,.24,8.57-4.16,7.36l-.57-.49h0Z"/><path class="d" d="M27.49,54.99c.82-2.25,2.74-6.45,2.7-9.01-.08-4.75-2.94-3.11-6.11-1.77-4.28,1.82-11.71,4.46-16.18,2.38-.99,1.08-2.02,2.22-2.84,3.41,1.77,2.52,13.02-2.31,15.71-3.04,2.5-.67,4.37-2.49,6.39,.75,1.28,2.05,.32,4.51-.24,6.79l.57,.49h0Z"/><path class="d" d="M16.89,22.89c-2.77-1.04-7.07,2.69-3.61,4.69,1.16-1.25,2.27-2.58,3.4-3.88l.21-.81h0Z"/><path class="d" d="M28.26,13.78c-2.1,1.46-1.93,5.26,.22,6.48,1.58-1.22,2.42-3,2.77-4.83-.31-.38-.67-.68-1.06-.98l-1.92-.67h0Z"/><path class="d" d="M100.2,132.88c-.65,3.44-6.49,5.32-9.22,3.51-3.98-2.65,.72-6,2.28-8.87,1.22-2.27,3.35-4.72,4.24-7.33,.72-2.1-.75-5.4,1.35-6.88,3.78,1.78,.04,8.41,1.01,11.58,.29,.99,1.17,1.66,2.04,2.29,.89,.65,1.75,1.3,2.02,2.27,.58,2.25-1.81,4.85-3.25,6.34l-.47-2.91h0Z"/><path class="d" d="M29.05,95.24s20.7,34.86,59.68,23.23c0,0-17.69,3.15-31-7.38-5.63-4.45-11.45-12.86-16.21-20.38-6.54-10.31-11.11-18.93-10.54-13.24,.97,9.81,6.6,21.18,2.09,14.29-4.51-6.9-11.43-10.4-4.03,3.49h0Z"/><path class="e" d="M117.56,86.24c-.24,1.26-.54,2.52-.89,3.76,.04,.04,.08,.07,.12,.11,1.25,1.08,2.72,1.88,4.18,2.12-.15-.55-.34-1.1-.56-1.64-.64-1.55-1.6-3.04-2.86-4.35h0Z"/><path class="k" d="M131.72,102.84c-1.75-1.52-1.38-3.94-.15-5.61,1.23-1.69,3.32-2.63,5-1.18,.05,.04,.1,.09,.15,.14,2.78,2.72,.24,8.57-4.16,7.36l-.57-.49c-.1-.07-.19-.15-.28-.22h0ZM44.8,18.92c-1.29-1.12-.39-4.39-.6-6.41-.29-2.81-4.62-8.72,.1-9.94,1.35-.35,2.51,.11,3.49,.96,1.77,1.53,2.97,4.33,3.68,5.91l-.49,.57c1.1,2.77-.08,7.9-3.28,8.98-1.48,.49-2.37,.4-2.9-.06h0Zm2.41,16.74c28.94-13.83,55.41,8.57,55.41,8.57,12.77,14.05,8.03,22.42,8.03,22.42-2.49-8.64-9.08-14.86-9.08-14.86-1.14-1.11-2.28-2.16-3.43-3.15-25.86-22.38-50.93-12.98-50.93-12.98h0Zm53.61,3.61c-.6-.52-1.22-1.03-1.85-1.53-.04-.03-.08-.06-.12-.09-7.18-5.63-15.36-9.05-23.68-10.35-2.17-.34-4.36-.54-6.54-.59-2.48-.06-4.95,.06-7.39,.38-.59,.07-1.17,.16-1.75,.25-2.52,.41-5.01,1.02-7.43,1.83-.28,.09-.55,.19-.83,.28-.81,.28-1.6,.59-2.4,.92h0c-2.23,.93-4.4,2.03-6.47,3.29h0c-.75,.46-1.48,.93-2.2,1.43,1.25-3.91,5.28-8.39,7.25-10.81,.16-.2,.32-.39,.45-.56,.51-.64,1.03-1.31,1.54-2,1.1-1.48,2.17-3.06,3.01-4.73,1.97-3.91,2.65-8.27-.53-12.86-.32-.47-.71-.89-1.15-1.27h-.01c-.38-.34-.8-.64-1.26-.9C45.86-.17,40.23-.42,36.4,.53c-1,.25-1.87,.57-2.56,.97-6.3,3.62-4.59,11.46-9.93,16.26,5.15-4.62,3.77-12.07,9.29-15.84-1.62,5.09,2.48,10.89,3.67,16.33,1.44,5.25-3.8,6.68-10.18,7.14-5.38-.67-6.07,4.72-6.91,7.99,.38,2.02,1.09,3.34,2.04,4.16,3.51,3.04,10.27-.76,15.3-1.13-6.87,20.51-1.2,43.35,14.1,56.6,1.29,1.12,2.64,2.16,4.06,3.13,.93-.43,1.78-.93,2.46-1.54h0c5.34-4.8,3.63-12.64,9.93-16.26,3.65-2.1,12.69-2.27,16.89,1.36,.44,.38,.83,.8,1.15,1.27,5.16,7.46,.14,14.29-4.02,19.59-.55,.71-1.38,1.68-2.31,2.81,7.64-.38,14.92-3.39,18.47-10.41,3.79-6.69-3.5-18.99,2.87-19.46,3.14,.02,5.4,.8,6.96,2.15,5.34,4.63,2.28,15.88-2.84,25.36-.34,.4-.51,1.45-.3,2.63,2.94,.19,5.89,.65,8.8,1.37,.11-.12,.22-.24,.32-.37-.11,.12-.21,.24-.32,.37,5.08,1.26,10.04,3.33,14.7,6.23,1.83-3.1,4.94-2.55,7.79-3.89,3.44-1.59,6.34-4.51,6.64-7.68,.17-1.89-.58-3.86-2.69-5.69-.32-.28-.68-.56-1.07-.83-4.43-3.1-7.97-2.15-11.86-1.39-1.62,.32-3.3,.6-5.13,.54-.25,0-.5-.04-.75-.08-1.45-.25-2.92-1.04-4.18-2.12-.04-.04-.08-.07-.12-.11,.35-1.25,.64-2.5,.89-3.76,.81-4.21,1.04-8.5,.71-12.77-.65-8.25-3.4-16.4-8.14-23.59-1.74-2.65-3.76-5.17-6.03-7.51-.08-.08-.16-.16-.24-.24-.97-.98-1.99-1.93-3.05-2.85h0Z"/><path class="f" d="M113.66,104.64c-.11,.12-.21,.24-.32,.37h0c.11-.12,.21-.24,.32-.37h0Z"/><path class="j" d="M107.68,75.65c-1.55-1.35-3.82-2.13-6.96-2.15-6.37,.47,.92,12.77-2.87,19.46-3.56,7.02-10.83,10.04-18.47,10.41-2.01,2.45-4.46,5.66-5.39,8.56,8.91-6.18,19.72-9.01,30.55-8.29-.21-1.18-.05-2.23,.3-2.63,5.12-9.48,8.18-20.73,2.84-25.36h0ZM5.27,50.23c-.08-.07-.15-.14-.2-.23,.82-1.19,1.84-2.33,2.84-3.41,4.47,2.08,11.91-.56,16.18-2.38,2.16-.92,4.19-1.98,5.27-1.04,.5,.44,.81,1.3,.83,2.8,.04,2.56-1.89,6.76-2.7,9.01l-.57-.49c.55-2.28,1.52-4.74,.24-6.79-.34-.54-.67-.94-1-1.23-1.66-1.43-3.3-.08-5.38,.48-2.6,.7-13.22,5.25-15.5,3.27h0Zm7.46-23.04c-2.37-2.06,1.56-5.27,4.16-4.3l-.21,.81c-1.12,1.3-2.24,2.63-3.4,3.88-.21-.12-.4-.26-.55-.39h0Zm15.28-7.25c-1.7-1.47-1.69-4.81,.25-6.15l1.92,.67c.17,.13,.33,.26,.49,.39,.21,.18,.4,.37,.57,.58-.35,1.84-1.19,3.62-2.77,4.83-.17-.1-.32-.21-.47-.33h0ZM33.2,1.91c-5.53,3.76-4.15,11.22-9.29,15.84h0c-1.03,.92-2.42,1.58-3.94,2.15h0c-3.38,1.26-7.4,2.09-9.43,4.4-.79,.9-1.28,2.01-1.32,3.47-.05,2.01,2.15,2.32,2.17,3.98,.03,2-1.01,3.24-2.15,4.56-.09,.1-.17,.2-.26,.3-.18,.21-.35,.41-.53,.62-.07,.09-.15,.17-.22,.26-1.7,1.96-4.28,3.58-6.06,5.67-.62,.72-1.15,1.5-1.51,2.38-1.1,2.68-.97,6.33,1.42,8.89,.26,.28,.52,.53,.78,.75,3.7,3.2,7.08,.71,10.89-.96,4.26-1.85,9.48-5.86,13.46-5.43-12.21,19.81-7.8,46.35,10.76,62.42,.64,.55,1.29,1.09,1.96,1.62,.69,.54,1.38,1.05,2.08,1.55,.01-.01,.03-.03,.04-.05,.07-.08,.15-.17,.22-.26,.17-.21,.35-.42,.53-.62,.09-.1,.18-.2,.27-.3,.51-.59,1-1.16,1.38-1.8-1.52-1.09-2.93-2.21-4.23-3.34-7.38-6.39-11.16-12.76-11.16-12.76-5.36-10.05-3.21-10.99,.09-8.13,1.26,1.09,2.69,2.74,3.94,4.65,.76,1.16,1.23,1.8,1.49,2.02,1.26,1.09-2.77-8.15-3.58-16.31-.18-1.78,.14-2.16,.87-1.53,1.6,1.39,5.17,7.68,9.67,14.77,1.76,2.77,3.66,5.67,5.64,8.44,2.48-1.19,5.62-1.88,8.11-3.02-1.42-.97-2.78-2.02-4.06-3.13-15.3-13.24-20.97-36.09-14.1-56.6-5.03,.36-11.79,4.17-15.3,1.13-.95-.82-1.66-2.14-2.04-4.16,.85-3.27,1.53-8.66,6.91-7.99,6.38-.46,11.62-1.89,10.18-7.14-1.18-5.44-5.29-11.24-3.67-16.33h0Z"/><path class="f" d="M102.62,44.23s-26.47-22.4-55.41-8.57c0,0,25.07-9.4,50.93,12.98,1.14,.99,2.28,2.04,3.43,3.15,0,0,6.59,6.21,9.08,14.85,0,0,4.74-8.37-8.03-22.42h0Z"/><path class="f" d="M47.78,3.53c-.98-.85-2.14-1.31-3.49-.96-4.71,1.22-.38,7.13-.1,9.94,.21,2.02-.69,5.29,.6,6.41,.53,.46,1.42,.55,2.9,.06,3.2-1.07,4.38-6.21,3.28-8.98l.49-.57c-.71-1.58-1.91-4.38-3.68-5.91h0Z"/><path class="f" d="M136.57,96.05c-1.68-1.45-3.77-.51-5,1.18-1.23,1.68-1.6,4.1,.15,5.61,.09,.07,.18,.15,.28,.22l.57,.49c4.4,1.2,6.94-4.65,4.16-7.36-.05-.05-.1-.1-.15-.14h0Z"/><path class="g" d="M29.36,43.18c-1.09-.94-3.11,.12-5.27,1.04-4.28,1.82-11.71,4.46-16.18,2.38-.99,1.08-2.02,2.22-2.84,3.41,.06,.08,.12,.16,.2,.23,2.29,1.98,12.9-2.56,15.5-3.26,2.08-.56,3.73-1.91,5.38-.48,.33,.29,.67,.69,1,1.23,1.28,2.05,.32,4.51-.24,6.79l.57,.49c.82-2.25,2.74-6.45,2.7-9.01-.02-1.5-.33-2.37-.83-2.8h0Z"/><path class="g" d="M16.89,22.89c-2.6-.97-6.54,2.24-4.16,4.3,.16,.13,.34,.27,.55,.39,1.16-1.25,2.27-2.58,3.4-3.88l.21-.81h0Z"/><path class="g" d="M30.67,14.85c-.16-.14-.32-.26-.49-.39l-1.92-.67c-1.94,1.35-1.95,4.69-.25,6.15,.14,.12,.3,.24,.47,.33,1.58-1.22,2.42-3,2.77-4.83-.17-.22-.37-.41-.57-.58h0Z"/><path class="g" d="M31.85,75.94c-.73-.63-1.05-.25-.87,1.53,.8,8.16,4.84,17.4,3.58,16.31-.26-.22-.73-.86-1.49-2.02-1.24-1.91-2.67-3.55-3.94-4.64-3.3-2.86-5.45-1.92-.09,8.13,0,0,3.78,6.37,11.16,12.76,1.3,1.12,2.71,2.25,4.23,3.34,.47-.78,.78-1.66,.77-2.77-.04-1.64-2.24-1.95-2.18-3.97,.04-1.45,.53-2.57,1.32-3.47,.72-.82,1.7-1.46,2.81-1.99-1.98-2.77-3.88-5.67-5.64-8.44-4.5-7.09-8.07-13.38-9.67-14.77h0Z"/><path class="h" d="M47.16,99.15c-1.11,.53-2.08,1.17-2.81,1.99,.72-.82,1.7-1.46,2.81-1.99h0Z"/></g></g></g></svg>