<?xml version="1.0" encoding="UTF-8"?><svg xmlns="http://www.w3.org/2000/svg" viewBox="0 0 125.54 229.21"><defs><style>.d{fill:#ffb515;}.e{fill:#752923;}.f{fill:#f49000;}.g{fill:#f49a5d;}.h{fill:#d87939;}.i{fill:#a7a58b;}.j{fill:#7e7d66;}.k{fill:#a3423d;}.l{fill:#4f1b19;}.m{fill:#8b8b79;}.n{fill:#ffcd62;}</style></defs><g id="a"/><g id="b"><g id="c"><g><path class="i" d="M50.58,228.73h0Zm2.33-106.05c-.15,.03-.29,.05-.43,.09l-8.43,104.94s.71,1.14,2.69,1.43c.94,.14,2.16,.08,3.72-.37-.52,.15-.99,.25-1.44,.32,.89-10.29,6.36-73.41,6.74-82.34,.3-6.55-2.57-8.51-4.47-9.1l1.62-14.97h0Zm10.39,.84l-12.39,105.1,12.44-105.09s-.02,0-.06-.01h0Z"/><path class="m" d="M50.57,228.74s-.08,.02-.12,.04c.04-.01,.08-.03,.12-.04h0Zm.33-.11c-.11,.04-.22,.07-.32,.1,.11-.03,.21-.07,.32-.1h0Zm13.5-118.89c-1.64-.24-6.92-.92-10.08-.19l-1.42,13.13c2.02-.35,4.79-.1,6.97,.22,1.76,.26,3.13,.56,3.42,.63l1.62-13.71s-.18-.03-.5-.08h0Z"/><path class="j" d="M59.87,122.9c-2.18-.32-4.95-.57-6.97-.22l-1.62,14.97c1.9,.59,4.77,2.55,4.47,9.1-.39,8.93-5.85,72.05-6.74,82.34,.45-.07,.92-.17,1.44-.32,.04-.01,.08-.03,.12-.04h.01c.11-.04,.22-.07,.32-.11h0l12.39-105.1c-.29-.06-1.66-.37-3.42-.62h0Z"/><path class="e" d="M80.67,5.38s-22.16-7.71-41.47-.95C19.89,11.17,3.43,32.39,1.73,48.12,.02,63.86,9.51,90.54,33.92,102.03c24.41,11.5,66.46,15.17,81.74-11.47,15.27-26.65,10.61-65.19-34.99-85.18Z"/><path class="l" d="M113.04,69.86c-4.96-3.2-3.54-16.31-12.86-15.99-1.31-.15-.57,5.24-2.02,6.41-4.22,2.2-10.21-3.76-15.88-.4-4.36,3.51-11.35,6.73-12.37,3.97-2.09-17.47-15.62-14.96-27-20.18-1.17-1.45-1.03-2.76-.74-5.38-5.24-.57-3.05,3.64-4.65,6.13-5.67,3.37-7.58-3.48-11.23-6.53,1.63,9.47-6.67,12.55-14.82,14.32-2.54,.55-7.05,.37-9.89-1.74-.6,15.92,9.11,40.63,32.35,51.57,24.41,11.5,66.46,15.17,81.74-11.47,3.29-5.75,5.66-12.05,6.89-18.6-2.94,.96-6.11,.57-9.5-2.11Z"/><path class="h" d="M42.46,1.55s-8.44,1.08-10.7,5.58c-2.26,4.5,4.99,9.78,8.01,9.86,3.02,.08,10.29-4.12,11.32-9.01,1.03-4.89-6.37-6.44-8.64-6.43Z"/><path class="h" d="M65.72,1.08s-10.79,1.83-12.68,9.86c-1.88,8.03,10.27,12.35,16.84,14.56,6.57,2.21,13.54-1.53,13.9-9.48,.36-7.95-.77-11.57-5.48-14.58-4.72-3.01-12.58-.37-12.58-.37Z"/><path class="h" d="M54.93,26.12s-4.43-.98-8.05,4.37c-3.61,5.35-1.27,9.35,2.21,12.23,3.47,2.87,10.96,3.68,12.85-2.1,1.89-5.79,1.37-10.34-7.01-14.49Z"/><path class="h" d="M94.33,11.92s-7.22,3.72-6.45,8.29c.76,4.58,11.95,10.79,17.35,9.88,5.4-.91,6.55-4.54,6.23-8.57-.32-4.03-3.83-8.91-8.11-11.37-4.27-2.46-9.02,1.77-9.02,1.77Z"/><path class="h" d="M83.95,30.77s-14.24,.95-15.81,8.52c-1.58,7.57,6.23,14.67,11.31,16.71,5.08,2.05,13.31,2.94,18.37-6.5,5.07-9.44,1.17-13.11-2.33-15.73-3.5-2.62-11.53-3-11.53-3Z"/><path class="h" d="M115.71,33.47s-9.68,3.19-9.83,9.17c-.14,5.98,6.28,18.92,8.36,20.64,2.08,1.73,9.53-1.71,10.7-5.58,1.18-3.87,1.74-23.03-9.23-24.22Z"/><path class="h" d="M96.89,60.4s-14.7,2.89-15.59,6.54c-.91,3.64,4.56,13.73,7.84,16.08,3.28,2.35,14.82,.61,18.35-4,3.53-4.61,.98-13.63-.53-16.04-1.51-2.41-6.47-3.2-10.06-2.58Z"/><path class="h" d="M105.6,84.81s-7.14,2.97-6.15,7.82c.99,4.85,6.96,7.99,11.83,7.28,4.87-.72,5.16-5.68,4.42-10.51-.73-4.83-5.54-7.1-10.1-4.59Z"/><path class="h" d="M82.02,85.75s-11.29,1.77-12.2,5.42c-.9,3.65-.15,10.73,5.67,12.86,5.83,2.13,12.3,.58,15.39-4.58,3.08-5.16,3.34-9.87-.74-11.82-4.08-1.94-8.12-1.88-8.12-1.88Z"/><path class="h" d="M67.51,70.69s-8.69,3.3-9.3,6.73c-.63,3.43,4.12,8.44,11.16,6.46,7.03-1.99,5.99-6.34,5.34-9.66-.65-3.31-5.09-4.3-7.19-3.52Z"/><path class="h" d="M43.94,50.66s-7.06,2.23-7.56,6.92c-.51,4.69,1.67,17.15,12.08,16.55,10.41-.62,16.2-7.48,16.74-12.42,.53-4.94-4.73-12.25-8.22-12.63-3.49-.38-13.04,1.58-13.04,1.58Z"/><path class="h" d="M29.22,18.84c-1,.27-8.25,1.6-9.01,4.02-.77,2.42,1.54,6.66,4.66,10.5,3.12,3.83,7.82,9.34,12,3.3,4.19-6.04,5.33-11.91,3.8-14.08-1.53-2.16-8.85-4.45-11.46-3.74Z"/><path class="h" d="M11.9,31.95S1.87,36.1,.39,42.68c-1.47,6.58,1.05,13.6,9.64,13.53,8.59-.07,12.98-3.34,15.46-7.56,2.48-4.23-2.01-11.7-4.51-14.23-2.5-2.52-6.69-3.47-9.07-2.48Z"/><path class="h" d="M25.58,59.4s-7.42,.94-7.74,3.91c-.32,2.96,2.28,9.23,4.5,9.73,2.22,.48,8.39-.59,9.57-4.46,1.18-3.87-2.8-9.04-2.8-9.04,0,0-1.75-.19-3.52-.13Z"/><path class="h" d="M7.66,73.44s-4.6,.5-5.47,3.9c-.87,3.4,2.67,10.28,6,12.14,3.33,1.86,9.13,4.24,11.11,2.2,1.99-2.03-1.09-8.6-3.12-13.07-2.04-4.47-7.25-5.28-8.52-5.17Z"/><path class="h" d="M34.39,80.58s-5.03,2.2-6.62,7.52c-1.59,5.32,5.77,9.62,10.69,13.15,4.92,3.53,9.77-1.69,10.64-7.34,.87-5.65,.79-9.65-1.98-11.95-2.78-2.3-9.64-1.8-12.72-1.38Z"/><path class="e" d="M7.23,60.57s-3.48-1.6-3.61,1.81c-.12,3.4,4.18,10.94,6.48,9.97,2.3-.97,3.82-3.73,3.41-6.7-.41-2.98-6.28-5.08-6.28-5.08Z"/><path class="e" d="M26.63,75.12s-7.29-.3-7.52,1.86c-.23,2.18,3.78,10.17,5.81,7.22,2.03-2.95,5.29-6.01,6.92-7.54,1.63-1.53-5.2-1.54-5.2-1.54Z"/><path class="e" d="M54.02,79.07s-1.58,12.27-2.7,15.81c-1.11,3.54,5.69,5.99,10.14,5.5,4.44-.5,6.27-8.35,2.19-11.23-4.08-2.88-4.3-5.34-6.47-7.78-2.18-2.43-3.17-2.3-3.17-2.3Z"/><path class="e" d="M78.23,76.33s-3.1,6.01-2.42,6.57c.67,.56,3.43,2.08,5.14-.17,1.71-2.26-1.04-8.41-2.72-6.4Z"/><path class="e" d="M94.75,97.15s-1.59,5.68-4.4,6.84c-2.81,1.16,5.88,4.3,8.6-.54,2.72-4.82-1.02-10.84-4.19-6.31Z"/><path class="e" d="M115.7,75.02s-2.89-.31-4.9,2.4c-2,2.71,3.93,6.53,5.05,5.19,1.12-1.34,4.32-6.12-.15-7.58Z"/><path class="g" d="M9.78,34.75s-7.65,3.07-8.04,6.69c-.4,3.62,2.85,5.19,8.23,5.04,5.38-.15,8.69-5.89,8.31-9.11-.39-3.21-3.04-5.7-8.5-2.62Z"/><path class="g" d="M27.43,20.56s-6.18,.79-5.86,2.29c.32,1.5,5.07,4.95,8.98,4.88,3.91-.06,6.88-2.67,6.17-5.19-.7-2.51-5.5-3.28-9.3-1.98Z"/><path class="g" d="M38.34,3.2s-5.6,2.08-5.83,4.24c-.24,2.17,4.85,2.48,9.11,1.48,4.26-1,5.07-6.27,2.44-6.81-2.62-.53-5.73,1.09-5.73,1.09Z"/><path class="g" d="M69.03,1.4s-10.23-.13-15.08,8.61c1.16,2.81,4.87,6.87,11.91,7.15,7.05,.27,12.21-2.34,13.08-5.9,.88-3.56,2.39-6.33-1.74-8.73-4.13-2.4-8.17-1.13-8.17-1.13Z"/><path class="g" d="M54.29,27.13s-3.43,.11-3.58,3.75c-.15,3.65,4.79,7.6,7.73,7.43s5.08-4.08,2.9-6.52c-2.18-2.43-5.64-4.27-7.06-4.66Z"/><path class="g" d="M80.95,33.2s-6.51,1.49-6.49,5.88c.01,4.4,8.42,12.38,13.53,12.45,5.12,.07,8.7-3.69,9.46-8.48,.76-4.8-2.4-7.09-6.08-9.2-3.67-2.11-10.42-.64-10.42-.64Z"/><path class="g" d="M99.97,10.86s-6.32,2-6.49,5.88c-.18,3.88,8.76,9.24,11.97,8.86,3.22-.39,5.43-5.02,3.76-7.65-1.67-2.62-5.83-9.17-9.23-7.1Z"/><path class="g" d="M117.47,36.18s-3.03,.89-4.03,5.66c-1,4.77,3.71,17.48,6.88,17.58,3.16,.1,5-5.56,4.23-11.98-.77-6.43-2.5-12.96-7.07-11.26Z"/><path class="g" d="M100.55,61.67s-10.17,1.58-11.26,4.88c-1.09,3.3,4.5,12.44,8.6,12.89,4.1,.44,8.46-1.53,9.49-6.54,1.03-5.01-.21-11.49-6.83-11.23Z"/><path class="g" d="M54.35,51.29s-10.58,.8-11.64,6.06c-1.06,5.25,6.89,10.75,12.91,9.21,6.02-1.55,9.76-4.55,8.47-8.36-1.3-3.8-3.75-8.22-9.74-6.91Z"/><path class="g" d="M39.91,83.15s-4.91-1.99-5.41,2.59c-.5,4.58,7.11,13.21,10.53,10.9,3.42-2.32,4.61-8.77,3.4-11.1-1.21-2.33-8.52-2.39-8.52-2.39Z"/><path class="g" d="M66.89,72.9s-6.45,3.21-5.72,5.48c.73,2.27,8.98,2.68,10.68-1.77,1.7-4.45-1.89-5.09-4.96-3.71Z"/><path class="g" d="M83.32,87.86s-5.28-.82-7.26,1.66c-1.98,2.46,3.58,7.46,8.83,6.32,5.25-1.14,6.42-5.16,4.14-6.63-2.28-1.46-5.71-1.35-5.71-1.35Z"/><path class="g" d="M111.79,86.31s-4.9,.2-5.78,1.57c-.88,1.37,.05,8.54,3.13,9.36,3.09,.82,4.85,.28,5.51-3.55,.66-3.83-.45-7.12-2.86-7.39Z"/><path class="g" d="M5.07,75.95s-2.62,1.67-1.32,5.47c1.29,3.8,8.33,8.71,8.82,4.13,.49-4.58-1.37-12.1-7.5-9.6Z"/><path class="g" d="M23.89,62.13s-4.32-.71-4.47,2.93c-.15,3.65,7.16,3.71,8.44,.92,1.28-2.79-2.25-3.91-3.97-3.85Z"/><path class="k" d="M48.77,17.26s-3.02,.9-3.85,3.98c-.82,3.08,.47,4.69,4.51,3.42,4.04-1.27,6.26-3.71,4.57-6.09-1.7-2.38-5.23-1.3-5.23-1.3Z"/><path class="k" d="M84.81,24.59s-3.16-.11-6.02,1.54c-2.86,1.65,4.45,1.7,6.86,1.96,2.41,.26,3.93-2.5-.84-3.5Z"/><path class="k" d="M106.13,32.76s-4.48-1.46-6.25-.92c-1.76,.54,.51,6.64,2.43,6.85,1.93,.21,6.18-2.99,6.25-3.72,.08-.72-2.44-2.21-2.44-2.21Z"/><path class="k" d="M70.45,53.53s5.45,3.76,5,5.67c-.45,1.9-2.65,1.91-4.79-.77-2.15-2.67-3.04-5.7-.2-4.9Z"/><path class="k" d="M66.79,26.54s-6.54-2.66-6.48-.94c.06,1.71,4.44,8.53,6.13,8.71,1.69,.18,6.56-1.97,8.03-4.26,1.46-2.28-7.67-3.51-7.67-3.51Z"/><path class="k" d="M28.99,12.92s-6.24,3.47-6.39,4.92c-.16,1.44,7.85-.37,9.18-1.44,1.34-1.08-.68-4.96-2.79-3.47Z"/><path class="f" d="M39.92,133.69s3.81,6.66,11.47,7.5c2.42-3.38,6.72-16.88,7.32-28.97l-2.84-1.25s-13.5,18.38-15.95,22.72Z"/><path class="f" d="M73.17,138.06s-5.15,5.69-12.81,4.87c-1.64-3.82-2.95-17.93-.94-29.87l3.05-.61s9.24,20.85,10.71,25.6Z"/><path class="d" d="M35.26,101.61s-1.11,.62-1.57,4.87c-.46,4.24,.43,9.67,2.16,10.16,1.72,.49,12.49-.42,20.44-2.67l-.31-6.7s-14.38-5.41-20.72-5.66Z"/><path class="d" d="M81.78,103.17s1.09,.66,1.43,4.91c.34,4.26-.71,9.66-2.45,10.1-1.74,.44-12.47-.79-20.35-3.26l.5-6.69s14.53-4.99,20.88-5.06Z"/><path class="n" d="M55.6,106.63s4.62-.24,6.74,.73c.36,3.45-.52,7.5-.88,8.06-3.59,.35-6.07-.07-6.28-.83-.22-.76-.52-6.13,.42-7.96Z"/></g></g></g></svg>