<?xml version="1.0" encoding="UTF-8"?><svg xmlns="http://www.w3.org/2000/svg" viewBox="0 0 190.24 78.48"><defs><style>.d{fill:#fff;}.e{fill:#ffb515;}.f{fill:#fff597;}.g{fill:#055a8d;}.h{fill:#0182ac;}.i{fill:#41b7c8;}.j{fill:#48a5c3;}.k{fill:#1391b4;}.l{fill:#0277a3;}.m{fill:#ade0c2;}.n{fill:#ffe866;}</style></defs><g id="a"/><g id="b"><g id="c"><g><path class="h" d="M37.55,33.74s-13.94-7-30.47-9.27c0,0-6.74-1.21-7.07,3.7-.34,4.9,5.07,9.06,4.86,17.77-.21,8.71-.23,14.78,10.18,12.06,10.43-2.71,16.85-7.95,25.08-11.95,8.23-4,5.19-9.51-2.58-12.31h0Z"/><path class="h" d="M152.69,28.81s13.94-7,30.47-9.26c0,0,6.75-1.21,7.08,3.7,.33,4.9-5.08,9.06-4.86,17.77,.21,8.71,.24,14.78-10.18,12.06-10.42-2.71-16.85-7.96-25.08-11.95-8.23-4-5.19-9.51,2.58-12.32h0Z"/><path class="g" d="M37.55,33.74s-3.71-1.86-9.56-3.97c1.49,1.74,12.48,7.25,4.46,7.96-1.86,.18-3.97-.49-5.66-1.15-2.54-1.01-4.14-2.03-2.58-.13,5.28,3.63,10.68,2.4,10.68,4.19-1.14,4.56-9.63,4.38-15.09,4.19-3.08-.1-5.19-.21-4.51,.53,3.56,1.78,8.91,1.78,12.47,1.78,4.65,2.14-16.47,13.87-22.31,7.9,1,3.15,3.52,4.56,9.58,2.98,10.43-2.71,16.85-7.95,25.08-11.95,8.23-3.99,5.19-9.51-2.58-12.31h0Z"/><path class="g" d="M172.11,39.99c-5.34,0-12.11-3.02-12.49-4.08-.12-3.7,12.95-3.34,10.71-4.83-.51-.33-7.38-.83-8.91-1.79-1.76-1.17-2.15-2.34-1.84-3.45-4.29,1.67-6.89,2.96-6.89,2.96-7.77,2.8-10.81,8.32-2.58,12.32,8.23,4,14.66,9.24,25.08,11.95,2.85,.75,4.91,.81,6.4,.36-7.6-.54-18.51-7.22-21.25-11.26-2.61-2.22,5.97-1.52,11.78-2.19h0Z"/><path class="i" d="M56.6,8.88s-18.54,8.7-19.29,24.96c-.75,16.28,4.54,38.59,37.08,43.13,32.53,4.54,59.55-1.91,69.6-9.46,12.11-9.08,17.78-39.72,1.9-52.58-15.5-12.54-49.18-23.08-89.29-6.05h0Z"/><path class="j" d="M37.33,33.51s0,.08,0,.11h0s0-.07,0-.11h0Zm.02-.32c0,.06-.01,.13-.02,.19,0-.06,0-.13,.02-.19h0Z"/><path class="l" d="M37.32,33.63c0,.07,0,.14-.01,.22-.04,.89-.06,1.8-.07,2.72,0-.92,.03-1.83,.07-2.72,0-.07,.01-.14,.01-.22h0Z"/><path class="j" d="M144.25,67.31s-.02,.02-.03,.02c0,0,.02-.02,.03-.02h0Zm.25-.2s-.02,.02-.03,.02c.01,0,.02-.02,.03-.02h0Zm.24-.2s-.01,0-.02,.02l.02-.02h0Zm.72-.64h0Z"/><path class="k" d="M62.5,74.17s.02,0,.03,0c0,0-.02,0-.03,0h0Zm-.34-.12s.1,.04,.15,.05c-.05-.02-.1-.04-.15-.05h0ZM39.14,26.03c-.94,2.19-1.59,4.58-1.79,7.16,0,.06-.01,.13-.02,.19,0,.04,0,.08,0,.13,0,.04,0,.08,0,.11h0c0,.07,0,.14-.01,.22-.04,.89-.06,1.8-.07,2.72-.02,13.54,4.6,30.12,24.82,37.45-3.34-1.21-6.26-2.68-8.79-4.35-.69-7.2-.72-14.67-.46-22.24-7.01-5.26-11.45-12.86-13.67-21.4h0Zm111.47-5.88c-.72,9.51-4.57,17.19-10.45,23.15,.87,8.56,1.38,17.19,1.45,25.79-6.65,3.94-17.93,7.34-32.1,8.72,.14-6.64,.34-13.27,.52-19.91-5.02,.93-10.22,1.39-15.41,1.39-6.36,0-12.72-.69-18.73-2.02v19.9c-.35-.05-.7-.08-1.05-.12,7.33,1,14.39,1.45,21.02,1.45,22.61,0,40.39-5.16,48.13-10.97,.08-.06,.16-.12,.23-.17,0,0,.02-.02,.03-.02,.08-.06,.15-.12,.22-.18,.01,0,.02-.02,.03-.02,.08-.06,.15-.12,.22-.19,0,0,.01-.01,.02-.02,.24-.2,.48-.41,.71-.63h0c.08-.08,.16-.15,.23-.23h0c9.55-9.23,14.11-32.14,4.91-45.9h0Z"/><path class="n" d="M56.6,8.88s-.75,.35-1.92,1.03c-.4,19.81-3.24,40.7-1.41,59.76,5.27,3.46,12.15,6.06,21.12,7.3,.5,.08,1,.12,1.51,.18V2.6c-6.22,1.42-12.67,3.46-19.29,6.28h0Z"/><path class="n" d="M108.61,.59c3.03,25.74,1.41,51.48,.89,77.21,14.17-1.38,25.46-4.78,32.1-8.72-.17-20.67-2.85-41.56-7.08-61.22-7.14-3.43-15.9-6.14-25.91-7.27h0Z"/><path class="e" d="M75.89,57.23c-6.47-1.44-12.55-3.63-17.82-6.55-1.91-.95-3.63-2.1-5.26-3.33-.26,7.6-.24,15.08,.45,22.31,.63,.42,1.3,.82,1.98,1.21,.09,.05,.18,.1,.26,.15,.6,.33,1.21,.66,1.84,.98,.16,.08,.32,.15,.48,.23,.58,.28,1.16,.54,1.77,.8,.22,.09,.44,.18,.66,.27,.57,.23,1.15,.45,1.74,.67,.27,.1,.53,.19,.8,.29,.57,.2,1.16,.38,1.76,.57,.3,.09,.6,.19,.91,.27,.6,.17,1.22,.33,1.84,.49,.33,.08,.65,.17,.98,.24,.67,.16,1.35,.3,2.05,.44,.31,.07,.61,.14,.93,.19,1.01,.18,2.05,.36,3.13,.51,.51,.08,1,.12,1.51,.18v-19.92Z"/><path class="e" d="M110.03,57.87c-.18,6.65-.38,13.29-.52,19.93,5.22-.51,10.03-1.29,14.38-2.27,.17-.04,.34-.08,.51-.12,1.16-.26,2.27-.54,3.35-.84,.33-.09,.67-.18,1-.28,.8-.22,1.56-.46,2.32-.7,.53-.17,1.06-.34,1.57-.52,.45-.16,.9-.31,1.33-.47,.73-.26,1.44-.54,2.12-.83,.33-.13,.66-.27,.98-.41,.71-.32,1.39-.62,2.04-.94,.24-.12,.47-.24,.71-.36,.63-.32,1.22-.65,1.78-.98-.07-8.6-.6-17.23-1.47-25.8-7.52,7.62-18.32,12.41-30.11,14.59Z"/><path class="m" d="M54.65,11.19c-.54,.38-.98,.76-1.31,1.14-2.02,2.31-2.46,6.07,.88,9.24,.19-3.48,.34-6.94,.43-10.38h0ZM92.93,1.16c-3.76,0-8.06,.3-12.92,1.02,0,0-1.64,.39-4.11,1.06V27.29c.54,.01,1.09,.01,1.65,.01,.92,0,1.87-.01,2.86-.04,15.91-.45,25.01-5.55,29.55-10.62-.22-4.27-.54-8.54-.98-12.8-3.41-1.52-8.71-2.68-16.04-2.68h0Z"/><path class="f" d="M75.89,3.24c-5.97,1.6-16.81,4.81-21.25,7.95-.09,3.43-.24,6.9-.43,10.38,3.18,3.02,9.77,5.51,21.67,5.72,0-7.96,0-15.96,0-24.05h0Z"/><path class="f" d="M108.97,3.84c.44,4.27,.76,8.54,.98,12.8,3.64-4.06,4.34-8.09,3.28-9.69-.7-1.05-2.11-2.16-4.26-3.11h0Z"/><path class="d" d="M72.55,4.98s-11.58,2.44-14.47,4.9c-2.9,2.45,5.34,3.12,10.69,1.11,5.35-2,8.69-5.79,3.79-6.01Z"/><path class="i" d="M5.29,25.24s-4.46,.67-3.79,3.12c.67,2.45,7.35,4.01,15.37,3.79,8.02-.23-2.01-6.24-11.58-6.91Z"/><path class="i" d="M16.42,37.05s-6.9-.44-7.35,2.23c-.45,2.67,6.68,2.01,11.14,1.56,4.46-.44,2.23-3.12-3.79-3.78Z"/><path class="i" d="M185.47,20.12s-19.38,3.13-20.49,5.57c-1.12,2.45,14.03,2.45,19.6,1.12,5.57-1.33,5.79-6.01,.89-6.68Z"/><path class="i" d="M175.23,32.82s-3.79-1.12-3.79,.89,9.8,3.34,11.8,2.68c2-.67-1.34-3.34-8.02-3.57Z"/><path class="i" d="M170.33,41.5s-4.01-.22-4.01,1.12,9.8,8.91,14.25,7.35c4.46-1.56,2.45-7.58-10.25-8.47Z"/></g></g></g></svg>