<?xml version="1.0" encoding="UTF-8"?><svg xmlns="http://www.w3.org/2000/svg" viewBox="0 0 145.37 177.27"><defs><style>.d{fill:#e02c0e;}.e{fill:#c83113;}.f{fill:#7e1970;}.g{fill:#84197a;}.h{fill:#fc7760;}.i{fill:#c4200a;}.j{fill:#f93c16;}.k{fill:#ce689a;}.l{fill:#9c1e8b;}.m{fill:#ff735c;}.n{fill:#cdcdcd;}.o{fill:#ffd8d4;}</style></defs><g id="a"/><g id="b"><g id="c"><g><path class="j" d="M42.61,140.48c-3.5,5.33-2.87,11.85-3.45,18.19-1.06-7.8,1.71-23.33-6.52-23.56-7.29-.4-8.19,10.49-13.75,15.23,2.2-4.86,10.55-12.79,4.77-15.82-7.68,5.32-17.29,12.53-21.36,17.86-7.27,9.54,4.61,9.66,8.52,6.36s5.48-.77,5.44,3.63c-.04,4.41,4.34,11.54,10.08,6.2,5.73-5.34,8.74-6.27,10.91-1.17,2.17,5.1,4.18,9.98,10.14,9.85,5.97-.13,5.73-5.34,5.06-12.92-.51-5.68-4.25-20.66-6.09-27.8-1.58,.97-2.8,2.55-3.75,3.93Z"/><path class="d" d="M34.57,127.32s-4.85,3.02-10.91,7.21c5.77,3.02-2.57,10.95-4.77,15.82,5.56-4.74,6.46-15.63,13.74-15.23,8.24,.23,5.47,15.76,6.52,23.56,.58-6.35-.05-12.87,3.45-18.19,.95-1.38,2.16-2.97,3.75-3.94-.61-2.38-1.02-3.88-1.02-3.88,0,0-6.52-5.51-10.77-5.34h0Z"/><path class="m" d="M11.42,145.43c-2.03,1.21-3.9,2.53-5.51,4.31-.97,1.07-4.78,4.83-3.66,6.57,1.1,1.69,5.42-3.54,6.29-4.44,.92-.95,4.55-4.24,3.8-5.7-.25-.48-.62-.64-1.15-.56l.23-.17Z"/><path class="m" d="M43.56,155c-.99,1.37-.79,4.54-.75,6.13,.05,2.15,.27,4.36,.79,6.42,.47,1.88,1.93,7.13,4.69,6.98,2.53-.13,1.39-8.18,1.34-9.79-.12-4.04-.32-7.93-2.25-11.56-.73-1.37-1.86-3.38-3.24-1.44-.86,1.22-.78,3.33-1.29,4.69l.71-1.43Z"/><path class="m" d="M18.66,162.35c-1.53,3.85,4.36,8.6,5.93,3.81,1.35-4.15-5.72-6.78-6.12-3.12l.2-.69Z"/><path class="i" d="M34.1,129.58c-.84,0-1.11-.08-1.89,.35-.75,.42-1.41,1.04-2.13,1.49-1.77,1.1-2.71,2.33-3.6,4.2,1.53-1.25,3.09-2.8,4.91-3.58,1.51-.65,1.99-.04,3.32,.71,1,.56,2.48,.95,3.19,1.89,1.49,1.99,1.22,4.72,1.95,6.96-.17-2.3,1.52-5.25,3.67-6.11-.68-.63-1.96-.81-2.85-1.18-1.03-.43-2-.95-2.88-1.62-1.66-1.25-2.72-2.72-4.58-3.76l.91,.66Z"/><path class="j" d="M132.24,29.22c-9.63-2.49-7.66-7.01-6.28-12.77,1.38-5.76-4.7-7.56-12.12-5.33-7.41,2.23-8.13-3.62-10.89-8.61-2.76-4.99-5.98-2.56-6.96,7.28-.7,6.99-.08,19.11,.35,25.53,.21,.06,.43,.08,.67,.06,9-.89,7.15-14.01,10.55-20.88-.22,8.23-4.72,22.92,5.92,23.47,4.12,.16,7.88-2.12,11.45-4.62,1.33-1.51,3.01-2.74,4.99-3.5-1.63,1.06-3.29,2.31-4.99,3.5-2.58,2.94-3.8,6.94-3.1,10.68,.52,2.23,1.82,4.02,3.58,5.36,7.44-2.97,14.46-6.76,17.69-8.5,6.22-3.36-1.22-9.19-10.85-11.68Z"/><path class="j" d="M124.93,33.36c1.7-1.2,3.36-2.44,4.99-3.5-1.98,.76-3.66,1.99-4.99,3.5Z"/><path class="d" d="M121.83,44.04c-.69-3.74,.52-7.74,3.1-10.68-3.57,2.5-7.32,4.78-11.45,4.62-10.64-.56-6.15-15.24-5.92-23.47-3.4,6.87-1.55,19.99-10.55,20.88-.24,.03-.46,0-.67-.06,.17,2.62,.31,4.29,.31,4.29,0,0-.65,11.61,9.62,13.62,4.95,.97,12.23-1.08,19.14-3.84-1.76-1.34-3.06-3.13-3.58-5.36Z"/><path class="m" d="M98.76,22.78c-1.38-2.95-1.73-7.63-1.53-10.8,.18-2.85,.16-7.71,3.02-9.48,2.22,2.51,1.85,8.21,1.66,11.39-.13,2.03,.02,9.11-3.16,9.07-.07-.16-.03-.31-.04-.5l.06,.31Z"/><path class="m" d="M130.77,36.92c-1.47,1.07-7.24,6.14-2.83,7.17,1.08,.25,2.83-.12,3.84-.44,1.63-.52,3.33-.85,4.99-1.45,2.58-.94,5.45-2.94,3.23-5.64-1.27-1.54-4.21-3.19-6.22-3.71-1.91-.49-3.82-.15-5.2,1.42-1.21,1.38,.19,3.46,1.96,2.82l.23-.17Z"/><path class="m" d="M118.58,26.25c.14-1.09,1.46-2.46,2-3.52,.6-1.17,1.36-2.46,1.81-3.71,.84-2.33,.85-4.9-1.78-5.91-2.26-.87-4.52-.21-6.69,.36-2.71,.71-4.61,.75-3.95,4.25,.29,1.54,.59,3.02,1.33,4.36,.38,.69,.8,1.43,1.35,2.02,.23,.25,.41,.73,.71,.9,.47,.27,.84-.31,1.22-.03,.95,.7,.08,3.82,1.27,3.84,.75,.01,3.2-3.43,3.64-3.97l-.91,1.4Z"/><path class="i" d="M97.3,38.8s10.99,10.1,12.75,14.01c0,0,1.82-4.87,7.47-9.67,0,0-13.41,2.88-12.65-9.79,0,0-2.45,4.94-7.57,5.45Z"/><path class="j" d="M62.3,84.46s-.93-1.39-1.66-3.41c-6.05,5.64-15.93,2.37-21.72-3.2-2.76,8.29-1.51,16.47,2.98,22.2,1.17,1.49,2.31,2.89,3.45,4.21,9.33-4.21,19.78-12.6,18.65-22.4-.44-.22-.87-.44-1.3-.65-.79,1.11-.38,2.1-.4,3.25h0Z"/><path class="j" d="M67.52,83.54c3.97,9.61,4.89,20.51,.73,30.02,1.21-.45,2.47-1.02,3.79-1.75,7.73-4.31,13.56-8.38,16.02-12.99-4.07-7.84-12.48-11.53-20.54-15.28h0Z"/><path class="j" d="M64.79,52.76c-3.35,1.45-6.35,3.06-9.05,4.8,5.84,1.3,9.75,4.14,11.61,9.34,4.64-1.6,10.34-.62,15.81,3.31,1.79-5.08,4.23-9.51,8.04-13.2-7.88-5.49-16.97-8.33-26.41-4.25h0Z"/><path class="l" d="M71.33,76.79c-2.65,.89-4.53,1.67-5.88,2.36,.76,1.43,1.45,2.9,2.06,4.39,8.05,3.75,16.47,7.44,20.54,15.28,1.58-2.95,1.78-6.11,.18-9.71-4.09-9.2-6.03-16-16.9-12.32h0Z"/><path class="l" d="M45.36,104.26c7.15,8.27,13.78,12.64,22.89,9.3,4.16-9.51,3.23-20.41-.73-30.02-1.19-.55-2.36-1.11-3.51-1.68,1.13,9.8-9.32,18.19-18.65,22.4h0Z"/><path class="l" d="M55.74,57.56c-9.03,5.84-14.43,13.1-16.82,20.28,5.79,5.57,15.67,8.85,21.72,3.2-1.14-3.18-1.79-7.96,2.41-11.64,1.28-1.12,2.73-1.96,4.31-2.5-1.87-5.19-5.78-8.04-11.62-9.34h0Z"/><path class="l" d="M83.17,70.21c2.66,1.9,5.26,4.5,7.66,7.85,2.16,3.01,3.89,5.63,5.2,8.02,8.71-.19,14.65,5.67,20.75,10.44,.3-2.74,.37-5.62,.14-8.69,0,0-10.61-20.28-25.7-30.81-3.81,3.69-6.24,8.12-8.04,13.2h0Z"/><path class="j" d="M95.95,104.08c-.47,.75-.99,1.5-1.58,2.29-3.79,5.03-10.07,11.74-18.03,15.19,1.17,5.41,2.36,10.7,2.71,16.23,3.17-.84,6.42-2.02,9.68-3.66,0,0,10.52-4.67,18.73-15.1-3.05-5.53-7.22-10.45-11.51-14.95Z"/><path class="j" d="M40.23,109.04c-5.31,3.72-8.53,9.19-12.1,14.97,4.5,4.39,10.17,8.4,17.26,11.82,0,0,4.67,2.04,11.88,3.09-.49-5.51-.59-11.15-.17-16.78-2.39-.9-4.84-2.18-7.34-3.94-3.62-2.53-6.82-5.67-9.53-9.17h0Z"/><path class="j" d="M20.88,62.03c-5.53,10.39-8.7,23.65-6.37,36.64,5.08-3.38,10.73-6.02,16.92-7.92-2.1-8.84-1.41-17.83,2.78-24.83-3.91-2.95-8.33-5.39-13.34-3.89h0Z"/><path class="j" d="M41.65,39.94c4.07,3.49,8.24,7.35,10.33,12.31,5.73-2.74,11.73-4.76,17.7-5.79,.72-5.42,1.25-10.83,.34-16.15-10,.46-19.91,4.16-28.37,9.62h0Z"/><path class="j" d="M101.21,42.33c-2.1-2.07-4.29-3.83-6.54-5.33-2.57,3.14-4.9,6.4-6.71,9.92,5.57,1.43,10.77,4.19,15.3,8.6,0,0,1.64,2.08,3.85,5.38,1.85-1.35,3.71-2.6,5.62-3.61-2.71-4.86-6.43-9.93-11.53-14.96Z"/><path class="l" d="M96.02,86.08c3.74,6.81,3.96,11.71-.07,18.01,4.29,4.49,8.46,9.42,11.51,14.95,4.5-5.71,8.29-13.16,9.3-22.51-6.1-4.78-12.04-10.63-20.75-10.44h0Z"/><path class="l" d="M57.09,122.14c-.42,5.62-.32,11.26,.17,16.77,5.94,.86,13.59,1.04,21.8-1.12-.35-5.54-1.53-10.82-2.71-16.24-5.66,2.46-12.18,3.25-19.26,.59h0Z"/><path class="l" d="M28.12,124.01c3.57-5.77,6.79-11.25,12.1-14.97-4.23-5.47-7.25-11.84-8.78-18.29-6.2,1.9-11.84,4.54-16.92,7.92,1.6,8.92,5.8,17.71,13.61,25.33h0Z"/><path class="l" d="M41.65,39.94c-5.79,3.75-10.91,8.31-14.9,13.2-2.13,2.61-4.11,5.62-5.86,8.9,5.01-1.5,9.42,.94,13.34,3.89,1.79-3,4.22-5.65,7.37-7.75,3.3-2.2,6.79-4.2,10.4-5.92-2.09-4.96-6.26-8.82-10.33-12.31h0Z"/><path class="l" d="M70.02,30.31c.91,5.32,.39,10.73-.34,16.15,6.24-1.07,12.46-1.04,18.27,.45,1.81-3.51,4.14-6.78,6.71-9.92-7.73-5.17-16.22-7.07-24.64-6.68h0Z"/><path class="l" d="M118.89,90.11s3.77-15.02-6.15-32.83c-1.91,1.01-3.77,2.26-5.62,3.61,4.69,6.97,11.96,19.41,11.77,29.22Z"/><path class="j" d="M25.12,93.39c1.56,7.32,5.14,14.23,10.02,19.91,3.5-4.03,7.6-7.59,11.9-10.99-3.02-3.19-5.3-7.49-5.98-13.23-5.82-.03-10.97,1.62-15.94,4.31h0Z"/><path class="j" d="M48.87,48.09c-4.01,2.56-8.11,5.77-12.27,9.73-2.33,2.21-4.27,4.53-5.9,6.9,4.98,1.35,9.89,2.83,14.19,5.54,2.86-4.7,7.03-8.34,11.77-10.92-2.13-3.97-4.93-7.69-7.79-11.24h0Z"/><path class="l" d="M69.82,40.22c-6.63,.74-13.65,3.21-20.95,7.87,2.86,3.56,5.66,7.27,7.79,11.24,3.72-2.02,7.78-3.36,11.85-4.05,1.31-5.14,1.51-10.09,1.32-15.06h0Z"/><path class="j" d="M69.82,40.22c.2,4.97,0,9.92-1.32,15.06,5.73-.97,11.45-.59,16.19,1.17,1.22-4.44,3.34-8.72,5.69-12.78-6.27-2.91-13.16-4.28-20.56-3.45h0Z"/><path class="l" d="M112.38,92.09c.94,7.81-.37,17.01-5.27,27.9,0,0,7.36-10.11,10.63-23.33-1.31-2.03-3.12-3.62-5.36-4.58Z"/><path class="j" d="M109.52,59.39c-3.53,2.35-6.85,5.04-9.35,8.59,5.93,6.09,10.99,13.92,12.21,24.1,2.24,.96,4.05,2.55,5.36,4.57,2.41-9.72,2.59-21.13-4.03-31.44-1.29-2.03-2.71-3.97-4.19-5.83h0Z"/><path class="l" d="M84.69,56.45c1.77,.65,3.41,1.49,4.85,2.53,3.45,2.51,7.19,5.47,10.63,9,2.5-3.55,5.82-6.24,9.35-8.59-5.34-6.75-11.81-12.31-19.14-15.72-2.35,4.06-4.47,8.33-5.69,12.78h0Z"/><path class="l" d="M25.12,93.39c4.97-2.69,10.12-4.33,15.94-4.31-.26-2.22-.29-4.65-.02-7.34,.46-4.35,1.84-8.18,3.85-11.49-4.31-2.7-9.21-4.19-14.19-5.54-6.24,9.11-7.6,19.23-5.58,28.67h0Z"/><path class="l" d="M47.04,102.31c-4.29,3.4-8.4,6.96-11.9,10.99,5.83,6.78,13.51,11.83,21.84,13.8,.29-6.11,.24-12.5,1.94-17.78-4.04-1.21-8.43-3.38-11.89-7.01h0Z"/><path class="j" d="M68.13,110.54c-2.09,.18-5.5-.12-9.21-1.22-1.7,5.28-1.66,11.66-1.94,17.78,6.48,1.54,13.35,1.19,20.07-1.66-.84-5.64-2.19-11.06-4.34-16.29-1.63,.79-3.2,1.28-4.58,1.39h0Z"/><path class="l" d="M72.71,109.15c2.15,5.23,3.5,10.65,4.34,16.29,.08-.04,.16-.06,.24-.1,10.62-4.6,17.12-11.71,20.3-19.49-3.63-3.8-7.83-7.25-12.55-9.57-2.4,5.73-7.6,10.58-12.33,12.87h0Z"/><path class="j" d="M85.78,85.93c.23,.79,.42,1.62,.52,2.54,.3,2.68-.22,5.33-1.26,7.81,4.72,2.33,8.92,5.77,12.55,9.57,2.47-6.03,2.93-12.46,1.76-18.44-4.32-1.37-9.01-1.54-13.57-1.49h0Z"/><path class="j" d="M77.47,64.07c-4.59-.89-8.3-.56-11.25,.55,2.54,4.62,4.8,8.8,5.4,13.59,2.09-.44,4.39-.42,6.53,.18,2.05-3.94,4.36-7.76,7.65-11.1-2.52-1.52-5.31-2.63-8.34-3.23h0Z"/><path class="l" d="M65.95,87.94s-3.93-4.87,2.02-8.35c1.08-.64,2.33-1.1,3.66-1.38-.6-4.78-2.87-8.97-5.4-13.59-13.43,5.06-10.74,26.47-.27,23.32h0Z"/><path class="l" d="M78.15,78.39c3.37,.95,6.37,3.32,7.62,7.53,4.56-.05,9.25,.11,13.57,1.49-1.63-8.37-6.48-15.85-13.55-20.12-3.29,3.34-5.6,7.15-7.65,11.1h0Z"/><path class="j" d="M63.72,80.19c-.48,.35-.79,.68-1.02,1.01,.42,.22,.86,.44,1.3,.65,1.15,.57,2.33,1.13,3.51,1.68-.61-1.49-1.3-2.97-2.06-4.39-.72,.37-1.3,.72-1.73,1.05h0Z"/><path class="j" d="M64,81.86c-.44-.22-.87-.44-1.3-.65-.79,1.11-.38,2.1-.4,3.25,0,0-.93-1.39-1.66-3.41-6.05,5.64-15.93,2.37-21.72-3.2-2.76,8.29-1.51,16.47,2.98,22.2,1.17,1.49,2.31,2.89,3.45,4.21,9.33-4.2,19.78-12.6,18.65-22.4h0Z"/><path class="j" d="M67.36,66.9c4.64-1.6,10.34-.62,15.81,3.31,1.79-5.08,4.23-9.51,8.04-13.2-7.88-5.49-16.97-8.33-26.41-4.25-3.35,1.45-6.35,3.06-9.05,4.8,5.84,1.3,9.75,4.14,11.61,9.34h0Z"/><path class="l" d="M88.05,98.82c1.58-2.95,1.78-6.11,.18-9.71-4.09-9.2-6.03-16-16.9-12.32-2.65,.89-4.53,1.67-5.88,2.36,.76,1.43,1.45,2.9,2.06,4.39,8.05,3.75,16.47,7.44,20.54,15.28h0Z"/><path class="g" d="M105.79,88.53c3.98,2.11,7.45,5.22,10.98,7.99,.3-2.74,.37-5.63,.13-8.7,0,0-4.33-8.28-11.39-17,1.07,5.83,1.2,11.83,.28,17.72Z"/><path class="d" d="M78.12,130.26c.43,2.48,.78,4.98,.94,7.53,3.17-.84,6.42-2.02,9.68-3.66,0,0,10.52-4.67,18.73-15.1-2.32-4.22-5.3-8.08-8.49-11.67-5.21,9.22-12.41,16.86-20.86,22.9Z"/><path class="j" d="M94.37,106.37c-3.79,5.03-10.07,11.74-18.03,15.19,.63,2.92,1.26,5.79,1.77,8.7,8.45-6.03,15.66-13.68,20.86-22.9-.99-1.12-2.01-2.21-3.03-3.28-.47,.74-.99,1.5-1.58,2.29Z"/><path class="d" d="M42.77,134.5c-4.98-3.83-9.26-8.45-12.72-13.59-.64,1.01-1.27,2.05-1.92,3.09,3.93,3.83,8.76,7.38,14.64,10.5Z"/><path class="d" d="M20.89,62.03c-5.54,10.39-8.71,23.66-6.37,36.64,1.9-1.26,3.87-2.42,5.92-3.47-1.33-11.25,.77-22.84,7.09-33.03-2.09-.67-4.3-.84-6.64-.14Z"/><path class="d" d="M55.62,33.13c-4.91,1.67-9.63,4.01-13.97,6.81,.85,.73,1.72,1.48,2.56,2.26,3.57-3.33,7.38-6.38,11.41-9.06Z"/><path class="j" d="M90.75,42.22c-1.02,1.52-1.96,3.08-2.79,4.69,3.45,.89,6.77,2.29,9.87,4.28-2.03-3.21-4.4-6.22-7.08-8.96Z"/><path class="d" d="M101.21,42.33c-2.1-2.07-4.29-3.83-6.54-5.33-1.39,1.7-2.71,3.44-3.91,5.23,2.68,2.74,5.05,5.75,7.08,8.96,1.9,1.22,3.72,2.65,5.43,4.33,0,0,1.64,2.08,3.85,5.38,1.85-1.35,3.71-2.6,5.62-3.61-2.71-4.86-6.43-9.93-11.53-14.95Z"/><path class="g" d="M101.89,101.58c-.88,2-1.86,3.92-2.91,5.79,3.19,3.59,6.16,7.45,8.49,11.67,4.5-5.71,8.29-13.16,9.3-22.51-3.53-2.76-7-5.88-10.98-7.99-.69,4.45-1.98,8.83-3.9,13.04Z"/><path class="g" d="M79.06,137.79c-.16-2.55-.51-5.05-.94-7.53-5.09,3.63-10.62,6.67-16.43,9.12,5.12,.35,11.08,.07,17.37-1.59Z"/><path class="g" d="M28.13,124c.65-1.05,1.28-2.08,1.92-3.09-5.19-7.71-8.52-16.6-9.6-25.71-2.05,1.06-4.03,2.21-5.92,3.47,1.6,8.92,5.8,17.71,13.61,25.33Z"/><path class="g" d="M26.75,53.14c-2.13,2.61-4.11,5.61-5.86,8.9,2.34-.7,4.55-.53,6.64,.14,.23-.38,.47-.76,.72-1.13,4.64-6.83,9.97-13.24,15.97-18.84-.84-.77-1.7-1.52-2.56-2.26-5.8,3.75-10.92,8.31-14.91,13.2Z"/><path class="l" d="M70.02,30.31c.91,5.32,.39,10.73-.34,16.15,6.24-1.07,12.46-1.04,18.27,.45,.83-1.61,1.77-3.17,2.8-4.69-4.93-5.04-10.93-9.17-17.83-11.95-.97-.01-1.94,0-2.91,.04h0Z"/><path class="g" d="M72.93,30.27c6.9,2.77,12.89,6.9,17.82,11.95,1.21-1.79,2.52-3.53,3.91-5.23-6.85-4.57-14.28-6.58-21.73-6.72Z"/><path class="l" d="M107.11,60.89c4.69,6.97,11.96,19.41,11.77,29.22,0,0,3.77-15.02-6.15-32.83-1.91,1.02-3.77,2.26-5.62,3.61Z"/><path class="j" d="M47.04,102.31c-3.02-3.19-5.3-7.49-5.98-13.23-5.82-.03-10.97,1.62-15.94,4.31,1.56,7.32,5.14,14.23,10.02,19.91,3.5-4.03,7.6-7.59,11.9-10.99h0Z"/><path class="j" d="M56.66,59.33c-2.13-3.97-4.93-7.69-7.79-11.24-4.01,2.56-8.11,5.77-12.27,9.72-2.33,2.21-4.27,4.53-5.9,6.9,4.98,1.35,9.89,2.83,14.19,5.54,2.86-4.7,7.03-8.34,11.77-10.92h0Z"/><path class="l" d="M68.51,55.28c1.31-5.14,1.52-10.09,1.32-15.06-6.63,.74-13.65,3.21-20.95,7.87,2.86,3.56,5.66,7.27,7.79,11.24,3.72-2.02,7.78-3.36,11.85-4.05h0Z"/><path class="j" d="M84.69,56.45c1.22-4.44,3.34-8.72,5.69-12.78-6.27-2.91-13.16-4.28-20.56-3.45,.2,4.97,0,9.92-1.32,15.06,5.73-.97,11.45-.59,16.19,1.17h0Z"/><path class="g" d="M107.11,119.99s7.36-10.11,10.63-23.33c-1.31-2.03-3.12-3.62-5.36-4.57,.94,7.81-.37,17.01-5.27,27.9Z"/><path class="d" d="M109.52,59.39c-2.03,1.35-3.99,2.82-5.76,4.49,1.2,3.73,2.01,7.58,2.39,11.47,3.12,4.73,5.45,10.25,6.23,16.73,2.24,.95,4.05,2.54,5.36,4.57,2.4-9.73,2.59-21.13-4.03-31.45-1.3-2.03-2.71-3.96-4.19-5.83Z"/><path class="l" d="M93.56,45.32c-1.04-.59-2.1-1.14-3.18-1.65-2.35,4.06-4.47,8.33-5.69,12.78,1.77,.65,3.41,1.49,4.85,2.53,3.45,2.51,7.19,5.47,10.63,9,1.06-1.51,2.28-2.87,3.59-4.1-2.16-6.74-5.62-13.08-10.2-18.56h0Z"/><path class="g" d="M109.52,59.39c-4.56-5.75-9.93-10.64-15.97-14.07,4.58,5.48,8.04,11.83,10.21,18.56,1.77-1.67,3.73-3.14,5.76-4.49Z"/><path class="l" d="M41.04,81.74c.46-4.35,1.84-8.18,3.85-11.49-4.31-2.7-9.21-4.19-14.19-5.54-6.24,9.1-7.6,19.22-5.58,28.67,4.97-2.69,10.12-4.33,15.94-4.31-.26-2.22-.29-4.65-.02-7.34h0Z"/><path class="l" d="M58.92,109.32c-4.04-1.21-8.43-3.38-11.89-7.01-4.29,3.4-8.4,6.96-11.9,10.99,5.83,6.78,13.51,11.83,21.84,13.8,.29-6.11,.25-12.5,1.94-17.78h0Z"/><path class="l" d="M97.59,105.85c-3.63-3.8-7.83-7.25-12.55-9.57-2.4,5.73-7.6,10.58-12.33,12.87,2.15,5.23,3.5,10.65,4.34,16.29,.08-.04,.16-.06,.24-.1,10.62-4.6,17.12-11.71,20.3-19.49h0Z"/><path class="j" d="M99.35,87.41c-4.32-1.37-9.01-1.54-13.57-1.49,.23,.79,.42,1.62,.52,2.54,.3,2.68-.22,5.33-1.26,7.81,4.72,2.33,8.92,5.77,12.55,9.57,2.47-6.03,2.93-12.46,1.76-18.44h0Z"/><path class="j" d="M78.15,78.39c2.05-3.94,4.36-7.76,7.65-11.1-2.52-1.52-5.31-2.64-8.34-3.23-4.59-.89-8.3-.56-11.25,.55,2.54,4.62,4.8,8.8,5.4,13.59,2.1-.44,4.39-.42,6.53,.19h0Z"/><path class="l" d="M65.95,87.94s-3.93-4.87,2.02-8.35c1.08-.64,2.33-1.1,3.66-1.38-.6-4.78-2.87-8.97-5.4-13.59-13.43,5.06-10.74,26.47-.27,23.32h0Z"/><path class="l" d="M85.78,85.93c4.56-.05,9.25,.11,13.57,1.49-1.63-8.37-6.48-15.85-13.55-20.12-3.29,3.34-5.6,7.15-7.65,11.1,3.37,.95,6.37,3.32,7.62,7.53h0Z"/><path class="j" d="M67.52,83.54c-.61-1.49-1.3-2.97-2.06-4.39-.72,.37-1.3,.72-1.73,1.05-.48,.35-.79,.68-1.02,1.01,.42,.22,.86,.44,1.3,.65,1.15,.57,2.33,1.13,3.51,1.68h0Z"/><path class="f" d="M58.57,58.37c-.65,.3-1.28,.62-1.91,.96h0c-4.74,2.58-8.91,6.22-11.77,10.92h0c-.08,.13-.16,.26-.23,.39,1.37-2.09,3.07-4.17,5.16-6.2,0,0,3.63-3.13,9.29-5.87-.18-.07-.36-.14-.54-.2h0Z"/><path class="f" d="M100.43,68.25c.63,.81,1.25,1.67,1.87,2.57,0,0-.18-.42-.54-1.15-.44-.48-.88-.96-1.32-1.42h0Z"/><path class="e" d="M100.54,67.47s-.05,.06-.07,.1c-.03,.04-.06,.07-.08,.11-.06,.09-.13,.18-.2,.27,.08,.1,.15,.2,.23,.3,.45,.46,.89,.94,1.32,1.42-.29-.57-.69-1.32-1.2-2.2h0Z"/><path class="f" d="M100.39,67.68c-.06,.09-.13,.18-.2,.27h0c.06-.09,.13-.18,.2-.27h0Zm.15-.21s-.05,.06-.07,.1c.02-.03,.05-.06,.07-.1h0Z"/><path class="n" d="M87.83,85.92c2.74,.02,5.49,.17,8.15,.66h0c-2.66-.49-5.42-.64-8.15-.66h0Zm-.78,0h0Z"/><path class="e" d="M72.77,109.29c-2.51,1.34-5.2,1.95-7.92,1.95-2.07,0-4.16-.35-6.19-1.01-.87,3.12-1.2,6.59-1.39,10.14,3.12,1.19,6.23,1.74,9.24,1.74,3.34,0,6.58-.67,9.61-1.87-.81-3.74-1.89-7.38-3.34-10.94h0Z"/><path class="e" d="M68.3,55.32c-3.31,.57-6.62,1.59-9.73,3.05,.18,.06,.36,.13,.54,.2,2.67-1.29,5.79-2.5,9.19-3.25h0Z"/><path class="f" d="M80.37,79.26c1.63,1.1,3.2,2.82,4.59,5.37,0,0,1.4,2.49,1.4,6.23,.05-.79,.03-1.59-.06-2.39-.1-.92-.29-1.75-.52-2.54,.35,0,.7,0,1.05,0h0c-.35,0-.7,0-1.05,0-.97-3.26-2.98-5.42-5.41-6.67h0Z"/><path class="e" d="M40.52,89.08c-2.48,.03-4.85,.37-7.13,.96,.89,6.22,3.32,12.3,7.32,17.6,2-1.82,4.1-3.57,6.26-5.28-3.24-3.68-5.6-8.26-6.45-13.29h0Z"/><path class="e" d="M52.51,52.81c-6.64,3.38-11.59,8.3-14.84,14.02,2.52,.91,4.96,1.99,7.22,3.42h0c2.86-4.7,7.03-8.34,11.77-10.92h0c-1.21-2.25-2.63-4.42-4.15-6.52h0Z"/><path class="f" d="M69.68,48.35c-3.67,.09-7.67,.79-12.03,2.29-1.81,.62-3.53,1.35-5.14,2.17,1.52,2.1,2.95,4.27,4.15,6.52,.63-.34,1.26-.66,1.91-.96,3.12-1.46,6.42-2.47,9.73-3.05,.07-.01,.14-.03,.21-.04,.6-2.34,.96-4.64,1.17-6.93h0Z"/><path class="e" d="M70.47,48.34c-.26,0-.53,0-.8,0-.21,2.28-.57,4.59-1.17,6.93,2.17-.47,4.47-.75,6.83-.75,3.06,0,6.24,.47,9.44,1.62,.35-1.23,.76-2.44,1.23-3.64-4.26-2.47-9.42-4.17-15.54-4.17h0Z"/><path class="f" d="M86.01,52.51c-.47,1.2-.89,2.41-1.23,3.64,5.2,1.86,10.47,5.5,15.42,11.81,.06-.09,.13-.18,.2-.27h0s.06-.07,.08-.11h0s.05-.06,.07-.1c-2.34-3.99-7.07-10.65-14.53-14.96h0Z"/><path class="f" d="M37.67,66.84c-3.99,7.01-5.42,15.22-4.28,23.21,2.28-.59,4.65-.93,7.13-.96-.98-5.81,.07-12.19,4.14-18.44,.08-.13,.16-.26,.23-.39h0c-2.27-1.42-4.7-2.51-7.22-3.42h0Z"/><path class="f" d="M46.97,102.37c-2.15,1.71-4.26,3.45-6.26,5.28,3.3,4.37,7.66,8.2,13.08,11.13,1.16,.62,2.31,1.15,3.47,1.59,.19-3.54,.52-7.01,1.39-10.14-4.33-1.4-8.44-4.18-11.68-7.86h0Z"/><path class="f" d="M85.31,96.41c-1.5,3.89-4.86,8.28-11.77,12.44-.25,.15-.51,.3-.77,.44,1.45,3.56,2.53,7.2,3.34,10.94,7.94-3.15,14.46-9.96,17.8-17.92-2.63-2.3-5.5-4.34-8.6-5.9h0Z"/><path class="e" d="M87.05,85.92h-.22c-.35,0-.7,0-1.05,0,.23,.79,.42,1.62,.52,2.54,.09,.8,.11,1.6,.06,2.39,0,1.64-.27,3.53-1.05,5.56,3.1,1.56,5.97,3.6,8.6,5.9,2.1-5,2.93-10.45,2.08-15.73-2.66-.49-5.42-.64-8.15-.66-.13,0-.26,0-.39,0-.13,0-.26,0-.39,0h0Z"/><path class="e" d="M78.06,68.17c-2.51,0-5.52,.55-8.83,2.23,1.16,2.5,2.04,5.01,2.39,7.71,1.08-.31,2.21-.5,3.36-.5,1.09,0,2.2,.17,3.29,.57,1.63-3.11,3.43-6.14,5.75-8.92-1.36-.53-3.41-1.1-5.96-1.1h0Z"/><path class="f" d="M70.1,78.62c-.76,.26-1.48,.58-2.13,.96-.19,.11-.38,.23-.55,.34,.81-.47,1.71-.92,2.68-1.31h0Z"/><path class="f" d="M69.22,70.4c-2.7,1.37-5.6,3.49-8.61,6.67,0,0-6.03,8.14,2.16,10.9,0,0-.45-3.13,1.83-5.82-.2-.1-.4-.19-.59-.29-.44-.22-.87-.44-1.3-.65,.22-.33,.54-.66,1.02-1.01,.44-.33,1.02-.68,1.73-1.05,.27,.5,.53,1.01,.78,1.53,.11-.08,.22-.15,.34-.22,.27-.17,.55-.35,.85-.52,.17-.11,.35-.23,.55-.34,.65-.38,1.37-.71,2.13-.96,.49-.19,1-.37,1.51-.51-.35-2.7-1.23-5.2-2.39-7.71h0Z"/><path class="f" d="M84.02,69.27c-2.33,2.77-4.13,5.8-5.75,8.92,.71,.26,1.41,.61,2.11,1.08,2.42,1.25,4.44,3.4,5.41,6.67,.35,0,.7,0,1.05,0h.61c2.86,.01,5.75,.15,8.54,.66-.97-6-4.14-11.78-10.13-16.42,0,0-.65-.43-1.84-.9h0Z"/><path class="e" d="M65.45,79.14c-.72,.37-1.3,.72-1.73,1.05-.48,.35-.79,.68-1.02,1.01,.42,.22,.86,.44,1.3,.65,.2,.1,.4,.19,.59,.29,.44-.52,.97-1.02,1.64-1.48-.25-.52-.51-1.03-.78-1.53h0Z"/><path class="h" d="M24.3,83.34c-.28,1.18-.58,2.73-.89,4.73-.31,2.03-.47,4-.48,5.92,.7-.32,1.4-.63,2.11-.93-.52-2.55-.8-5.15-.8-7.77,0-.65,.02-1.3,.05-1.95h0Z"/><path class="h" d="M35.33,113.51c-1.4,1.61-2.66,3.37-3.88,5.21,3.55,4.75,7.8,8.68,11.94,11.76,4.69,3.5,9.57,4.89,13.63,5.33-.13-2.09-.2-4.19-.2-6.29v-.26c-.34-.12-.53-.2-.53-.2-8.87-2.53-15.06-7.95-19.26-13.69-.58-.6-1.15-1.22-1.7-1.86h0Z"/><path class="k" d="M56.83,129.26v.26c0,2.11,.07,4.21,.2,6.29,1.13,.12,2.19,.17,3.17,.17,3.85,0,6.41-.74,6.41-.74,7.96-3.33,1.52-5.45,1.52-5.45-1.47,.48-2.99,.65-4.43,.65-3.07,0-5.77-.8-6.88-1.19h0Z"/><path class="k" d="M25.05,93.06c-.71,.3-1.42,.61-2.11,.93-.07,9.78,3.52,18.06,8.52,24.73,1.21-1.84,2.47-3.6,3.88-5.21-.06-.07-.12-.14-.19-.21h0c-4.89-5.68-8.46-12.59-10.02-19.91h0c-.02-.11-.05-.22-.07-.33h0Z"/><path class="h" d="M28.44,91.76c-1.04,.45-2.07,.95-3.1,1.5-.08,.04-.15,.08-.23,.12h0c1.56,7.32,5.14,14.23,10.02,19.91h0c.09-.1,.18-.2,.27-.31-4.05-6.37-5.82-12.71-6.25-15.56-.19-1.27-.43-3.37-.71-5.68h0Z"/><path class="k" d="M25.75,80.27c-.44,0-.92,.89-1.45,3.08-.03,.65-.05,1.3-.05,1.95,0,2.73,.3,5.44,.86,8.09,.08-.04,.15-.08,.23-.12,1.02-.55,2.05-1.05,3.1-1.5-.64-5.22-1.53-11.5-2.69-11.5h0Z"/><path class="k" d="M35.41,112.99c-.09,.1-.18,.2-.27,.31h0c.61,.71,1.24,1.4,1.89,2.07-.58-.79-1.12-1.58-1.62-2.37h0Z"/><path class="h" d="M70.51,36.11c-3.09,.43-14.42,2.29-22.38,7.39-.5,.32-1.01,.66-1.52,1.02,.99,1.03,1.93,2.11,2.78,3.25,7.11-4.44,13.95-6.82,20.42-7.54,.19-.04,.38-.08,.57-.12,.09-1.26,.14-2.52,.14-3.78,0-.08,0-.15,0-.22h0Z"/><path class="o" d="M29.56,62.98h0c.58,.28,1.15,.59,1.71,.93h0c-.56-.34-1.13-.65-1.71-.93h0Z"/><path class="h" d="M29.56,62.98c-1.52,2.62-2.62,5.18-3.14,7.5,0,0,.16,.69,.62,.9,.95-2.27,2.16-4.5,3.65-6.67h0c.18-.27,.38-.54,.57-.81-.56-.34-1.13-.65-1.71-.93h0Z"/><path class="k" d="M46.61,44.52c-6.41,4.5-13.12,11.68-17.05,18.46,.58,.28,1.15,.59,1.71,.93,1.51-2.09,3.27-4.14,5.33-6.09,4.16-3.95,8.26-7.17,12.27-9.72h0c.17-.11,.34-.22,.52-.33-.84-1.14-1.78-2.22-2.78-3.25h0Z"/><path class="k" d="M71.31,36.01s-.29,.03-.8,.1v.22c0,1.26-.05,2.51-.14,3.78,1.4-.28,2.74-.45,3.91-.45,.24,0,.48,0,.71,.02,0,0,3.99-2.3-3.68-3.67h0Z"/><path class="h" d="M48.87,48.09c-4.01,2.56-8.11,5.77-12.27,9.73-2.06,1.95-3.82,4-5.33,6.09h0c-.19,.27-.38,.54-.57,.81,.61,.17,1.22,.33,1.82,.5,3.56-4.46,9.57-10.99,17.08-16.21-.24-.31-.49-.61-.73-.92h0Z"/><path class="k" d="M69.8,40.23c-6.47,.72-13.31,3.1-20.42,7.54-.17,.11-.34,.22-.52,.33h0c.24,.3,.49,.61,.73,.92,2.58-1.79,5.33-3.43,8.22-4.78,0,0,6.34-2.78,11.98-4h0Z"/><path class="k" d="M30.7,64.72c-1.49,2.17-2.7,4.4-3.65,6.67,.08,.04,.17,.06,.28,.06,.46,0,1.14-.45,2.1-1.98,.56-.89,1.61-2.39,3.1-4.25-.61-.17-1.21-.34-1.82-.5h0Z"/></g></g></g></svg>