<?xml version="1.0" encoding="UTF-8"?><svg xmlns="http://www.w3.org/2000/svg" viewBox="0 0 974.14 1148.83"><defs><style>.d{fill:#ffca00;}.e{fill:#f3941b;}.f{fill:#fcefde;}.g{fill:#089ece;}.h{fill:#fdd089;}</style></defs><g id="a"/><g id="b"><g id="c"><g><path class="d" d="M868.43,129.74c-.09,.23-.12,.49-.12,.76,.01,.81,.35,1.74,.45,2.58,36.82,27.83,44.4,34.17,52.37,51.81,1.09,2.41,2.18,5.02,3.36,7.93,.79,1.94,1.61,4.01,2.49,6.24,2.2,5.56,4.77,12.1,8.06,19.98,3.34-2.58,5.92-3.87,7.52-5.93,7.86-10.05,12.78-21.45,15.21-34.01,2.85-14.72,2.74-29.53,1.32-44.3-1.65-17.17-5.49-33.79-15.4-48.41-6.97-10.27-11.5-11.87-23.11-8.75-27.44,7.37-42.55,26.98-52.16,52.11Z"/><path class="e" d="M837.51,104.89c2.82,6.64,7.05,12.91,15.08,17.09,9.88-13.66,18.85-26.06,27.83-38.47,9.29-12.83,24.59-17.33,37.18-25.46-15.41-25.24-49.04-41.36-80.73-39.48-16.12,10.59-20.43,25.87-15.49,43.25,4.18,14.71,10.15,28.96,16.14,43.07Z"/><path class="e" d="M865.62,154.75c-2.02,53-8.49,57.89-31.54,90.58,12.92,3.41,31.09,3.74,52.06-1.73,10.06-2.63,21.67-2.73,29.47-10.65,2.62-33.47-20.03-68.43-50-78.2Z"/><g><path class="h" d="M729.8,173.47c-6.5-9.12-9.11-23.68-8.34-39.53-.77,15.85,1.84,30.41,8.34,39.53,8.84,1.93,17.67,3.97,26.53,5.77-8.87-1.81-17.69-3.84-26.53-5.78Z"/><path class="h" d="M721.48,133.58c.12-2.37,.32-4.76,.59-7.17-.27,2.41-.46,4.8-.59,7.17Z"/><path class="h" d="M725.84,106.85c.6-2.2,1.25-4.38,1.97-6.52-.72,2.15-1.37,4.33-1.97,6.52Z"/><path class="f" d="M509.14,921.48c12.51,4.92,23.84,13.85,35.45,21.45,9.85,6.45,18.84,14.94,29.2,19.91,9.33,4.48,19.9,6.62,30.1,7.62,14.47,1.43,26.56-5.36,34.62-19.26,14.64-25.27,25.92-51.48,12.72-82.25-6.14-14.31-1.42-25.5,8.45-33.88,12.43-10.55,25.15-21.13,38.92-29.11,23.92-13.86,35.45-34.34,33.92-64.86-.46-9.19,.51-19.07,3.12-27.75,7.95-26.46,6.44-53.24,3.65-80.06-4.23-40.66-9.35-81.2-13.63-121.85-1.47-13.93-1.56-28.05-2.21-42.08-.33-7.01,1.3-14.94-1.06-20.87-7.53-18.92-5.51-37.99-5.08-57.8,1.01-47.7-9-93.98-28.86-135.41-21.34-44.52-51.59-82.01-89.51-110.5-6.05-4.55-12.62-8.4-18.11-13.67-27.06-25.99-60.08-36.63-93.45-45.27-58.93-15.26-119.3-17.07-179.34-21.32-10.28-.73-20.72,1.18-31.08,1.88-49.78,8.69-86.24,38.71-111.22,87.3-19.34,37.63-36.38,76.44-47.63,118.29-10.07,37.46-14.26,75.59-12.68,114.64,.62,15.23,.5,30.51,1.08,45.75,2.2,58.23-16.18,107.83-49.38,151.29-1.36,1.78-2.73,3.54-4.2,5.2-22.49,25.46-28.1,53.35-11.67,86.01,11.82,23.49,14.3,47.88,4.46,74.23-8.02,21.48-12.36,44.69-18.73,66.99-11.99,42,16.33,69.37,45.83,76.47,6.44,1.55,14.25-2.03,21.01-4.65,18.8-7.29,36.23-3.32,48.54,12.98,18.83,24.94,36.93,27.92,62.21,10.79,21.08-14.28,46.91,3.57,50.51,32.71,1.51,12.26-.95,25.62-3.56,37.95-4.11,19.36-9.96,38.24-14.94,57.37-6.65,25.56-1.19,48.68,11.4,70.28,9.64,16.52,26.55,15.78,34.49-1.96,3.25-7.25,4.81-15.45,7.25-23.17,2.08-6.6,3.86-13.4,6.59-19.66,4.55-10.48,12.35-16.07,22.77-14.54,9.22,1.36,18.28,4.17,27.43,6.23,7.11,1.61,14.21,4.07,21.38,4.37,15.67,.67,28.29-6.49,36.82-21.72,2.21-3.95,4.39-8.07,5.79-12.44,12.01-37.58,37.69-64.03,59.36-93.8,10.86-14.93,24.96-17.46,39.32-11.82ZM164.37,649.05c-9.98,16.1-5.87,33.54-4.88,50.85,.66,11.54,1.64,23.38,.13,34.69-2.19,16.38-12.73,23.69-27.25,19.95-9.88-2.55-19.41-6.86-30.37-10.85-6.88,11.14-12.77,22.01-19.93,31.66-3.35,4.51-9.91,5.35-13.81,.36-2.1-2.69-3.1-9.3-1.63-12.28,7.52-15.28,15.77-30.11,24.3-44.71,2.05-3.51,6.14-5.51,9.92-8.76,8.32,6.25,15.69,12.4,23.58,17.5,5.37,3.47,13.62-1.34,14.65-8.12,.87-5.71,1.29-11.6,1.14-17.39-.36-14-2-28.01-1.51-41.95,.31-9.01,2.55-18.32,5.66-26.68,2.04-5.5,8.2-7.85,13.31-4.63,3.17,2,5.75,6.32,7.21,10.25,1.06,2.85,.98,7.67-.52,10.09ZM512.29,227.55c.44-3.21,2.18-6.76,4.26-9.04,31.26-34.27,56.79-38.79,85.57,2.49,1.27,1.83,2.56,3.77,3.34,5.89,7.85,21.5,15.59,43.05,20.47,56.57,4.02,27.5,1.47,51.38-4.8,67.14-4.97,12.49-12.36,20.66-25.13,23.06-8.9,1.67-17.36,6.37-26.03,9.7-8.26,3.17-16.86,3.91-23.58-2.86-23.97-24.18-40.34-53.95-41.44-90.66-.62-20.66,4.47-41.56,7.33-62.29Zm-225.9,115.19c-1.45,2.73-4.95,4.06-7.47,6.08-13.54,10.84-27.56,5.97-41.71,1.99-10.05-2.83-16.68-9.54-18.85-20.73-3.55-18.23-7.22-36.53-9.14-55.03-.91-8.79,1.44-18.28,3.45-27.13,6.15-27.19,26.65-40.59,44.2-56.49,16.01-14.5,32.03-13.07,47.43,2.24,9.93,9.86,14.43,22.46,15.56,34.39,3.02,20.02,3.77,38.17-2.85,54.18-8.67,20.98-20.05,40.55-30.62,60.49Zm123.28,397.44c-11.19-9.78-16.37-23.92-23.69-36.62-3.04-5.28-7.64-9.43-11.74-14.35-8.61,8.25-15.54,14.87-24.78,23.72-23.41-20.17-43.79-40.81-41.15-77.28,3.06-42.27,10.62-83.87,24.86-123.04,10-27.52,25.08-51.91,55.75-54.07,11.93-.84,18.68-9.05,22.1-21.29,2.19-7.81,3.38-16.08,6.29-23.51,6.57-16.74,21.59-29.22,33.64-26,25.75,6.88,49.63,17.71,61.28,48.17,6.16,16.11,12.65,32.08,19.56,47.79,6.89,15.68,9.14,31.1,.64,46.83-7.72,14.28-6.2,28.55-2.06,43.92,4.81,17.84,7.14,36.5,11.35,54.57,5.77,24.79,.01,45.43-13.66,65.5-21.08,30.95-20.41,31.53-53.39,26.08-10.11,7.99-19.87,16.65-30.43,23.8-12.05,8.16-23.48,5.45-34.58-4.25Z"/><path class="f" d="M790.2,537.13c6.97-13.11,13.69-26.49,18.75-40.78-.62-.81-1.2-1.73-1.75-2.76-5.78-10.91-7.17-22.67-7.84-34.76-1.09-19.71,.07-39.28,1.73-58.84-18.38,12.13-37.21,23.51-53.94,38.66-3.05,44.36-.77,87.22,9.25,133.41,18.38-7.26,26.62-21.48,33.79-34.95Z"/><g><path d="M423.99,1049.16c1.66-2.97,3.55-5.96,4.46-9.25,8.67-31.33,29.03-53.73,46.65-78.2,3.24-4.5,7.02-8.69,11.09-12.23,9.1-7.91,19.25-8.96,29.17-2.53,8.08,5.24,15.46,11.84,23.22,17.72,13.83,10.49,28.26,19.18,44.39,24.94,26.89,9.59,60-4.1,72.99-30.98,14.51-30.04,29.72-59.7,20.05-96.13-2.45-9.22,1.25-16.26,7.64-21.19,11.92-9.21,23.45-18.97,37.58-24.3,17.03-6.43,26.92-20.12,29.76-40.91,3.78-27.75,10.08-55.11,12.88-82.95,1.85-18.41,.52-37.5-1.36-56.04-1.58-15.59,1.57-27.64,12.42-37.24,1.63-1.44,2.85-3.47,4.51-4.84,27.16-22.34,43.53-53.34,53.91-88.43,8.86-29.99,16.81-60.39,23.65-91.04,4.27-19.14,.5-37.38-13.05-51.57-1.91-2.01-3.8-3.71-5.69-5.13,1.22-27.83,3.64-55.61,5.68-83.4,.2-2.72,1.49-5.36,2.26-7.99,8.42-4,17.07-4.17,25.39-5.88,15.07-3.11,30.13-6.43,44.96-10.5,5.32-1.46,10.36-4.85,14.84-8.27,13.78-10.53,24.8-23.22,32.15-39.35,5.8-12.73,9.18-25.75,10.07-39.52,2.14-33.13-1.45-64.97-20.66-93.45-25.1-37.21-58.36-61.67-103.58-68.97-16.3-2.63-31.95-2.04-47.22,3.53-9.06,3.31-17.95,7.56-26.18,12.58-19.27,11.74-35.64,26.76-46.84,46.62-11.33,20.08-18.36,41.55-21.08,64.61-1.86,15.78-.15,30.98,5.43,45.45,5.96,15.45,14.13,29.95,25.17,42.55,13.36,15.26,29.59,26.76,47.69,35.71,7.62,3.77,15.3,7.41,23.69,11.46,.19,4.1,.52,6.37,.37,8.62-1.93,29.83-3.51,59.68-5.95,89.47-6.01,4.47-11.62,9.81-17.94,13.66-13.3,8.11-24.18,22.39-42.71,22.69-1.54-7.19-3.16-13.63-4.27-20.19-4.09-24.13-8.31-48.24-11.89-72.47-2.98-20.1-11.05-37.69-19.56-55.2-29.05-59.81-69.14-106.67-120.68-143.41-52.69-37.56-109.85-54.77-170.41-60.74-39.24-3.86-78.74-4.45-118.12-6.34-31.09-1.49-59.15,9.86-86.27,25.78-26.89,15.78-45.14,41.24-60.65,69.23-23.13,41.73-43.35,85.06-57.16,132.22-11.37,38.86-11.25,78.46-10.11,118.17,.77,27.06,.41,53.76-3.23,80.55-3.22,23.74-10.92,45.24-22.89,64.73-10.63,17.31-22.12,33.94-33.29,50.83-3.73,5.63-7.91,10.9-11.4,16.71-10.7,17.8-12.37,36.97-5.69,56.97,2.19,6.56,4.63,13.19,7.95,19.07,14.13,24.95,13.17,51.07,5.34,77.78-5.86,20.01-11.53,40.12-18.19,59.79-5.19,15.32-3.9,29.15,1.68,44.12,10.76,28.9,30.8,46.61,54.03,60.71,10.44,6.34,22.49,7.2,33.39,2.61,20.31-8.55,35.18-2.93,49.76,15.15,19.17,23.77,28.32,24.13,55.02,9.99,4.7-2.49,9.1-5.77,13.92-7.84,11.07-4.74,21.23,1.75,22.94,15.31,.84,6.71,.38,14.04-1.1,20.63-4.07,18.18-8.57,36.27-13.65,54.13-10.39,36.55-.95,70.03,14.14,101.28,12.42,25.71,43.07,27.46,61.27,6,8.88-10.47,13.33-23.28,16.7-37.15,4.03-16.59,10.05-20.24,25.23-17.73,6.15,1.01,12.14,3.23,18.27,4.43,29.76,5.82,53.27-5.92,69.12-34.41ZM824.78,380.22c-.65,20.47-.27,40.97-.52,61.46-.15,12.42,.45,25-6.63,40.66-5.41-13.79-7.42-24.85-7.39-35.97,.04-16.48,.27-33.09,2.27-49.42,4.1-33.37,6.05-66.88,8.31-100.38,.65-9.62,2.02-19.04,4.55-29.13,4.24,7.02,4.35,7.5,4.24,10.49-.5,14.22-.79,28.45-1.5,42.65-.99,19.88-2.71,39.74-3.34,59.63Zm90.83-147.27c-7.81,7.93-19.41,8.02-29.47,10.65-20.97,5.48-39.14,5.15-52.06,1.73,23.05-32.69,29.52-37.58,31.54-90.58,29.97,9.77,52.62,44.72,50,78.2Zm28.08-146.57c9.91,14.62,13.75,31.24,15.4,48.41,1.42,14.77,1.53,29.58-1.32,44.3-2.43,12.57-7.35,23.96-15.21,34.01-1.6,2.05-4.18,3.34-7.52,5.93-3.29-7.89-5.86-14.42-8.06-19.98-.88-2.23-1.7-4.3-2.49-6.24-1.18-2.91-2.27-5.53-3.36-7.93-7.98-17.64-15.55-23.97-52.37-51.81-.1-.84-.44-1.77-.45-2.58,0-.27,.03-.52,.12-.76,9.61-25.13,24.72-44.74,52.16-52.11,11.6-3.12,16.14-1.52,23.11,8.75Zm-106.84-67.81c31.7-1.88,65.32,14.24,80.73,39.48-12.58,8.12-27.89,12.62-37.18,25.46-8.98,12.4-17.95,24.81-27.83,38.47-8.02-4.18-12.26-10.46-15.08-17.09-5.99-14.11-11.96-28.36-16.14-43.07-4.94-17.38-.63-32.66,15.49-43.25Zm-68.69,26.42c1.45-2.4,2.61-5.27,4.68-6.96,9.74-7.93,20.71-13.35,34.99-15.83-1.04,9.52-2.2,16.76-2.56,24.05-.94,18.72,6.48,35.57,12.59,52.63,2.09,5.85,5.5,11.21,8.11,16.89,1.1,2.4,1.67,5.05,2.57,7.85-33.5,2.58-58.43-21.45-61.72-45.44-1.55-11.28-5.2-22.37,1.35-33.19Zm-38.36,128.48c-6.5-9.12-9.11-23.68-8.34-39.53,0-.12,.01-.24,.02-.36,.12-2.37,.32-4.76,.59-7.17,.73-6.5,2.01-13.11,3.77-19.55,.6-2.2,1.25-4.38,1.97-6.52,4.03-12.06,9.87-23.18,17.27-31.45,1.29,1.95,2.74,3.51,3.47,5.35,2.08,5.3,4.3,10.6,5.68,16.09,3.03,12.08,10.19,21.29,18.64,30.05,10.76,11.16,23.73,17.36,38.79,19.81,7.25,1.18,14.49,2.38,24.34,3.99-6.35,13.23-14.74,20.66-25.17,25.38-8.77,3.98-18.11,6.83-27.38,9.56-8.91,2.63-18.08,1.96-27.1,.11-8.87-1.81-17.69-3.84-26.53-5.77Zm66.01,67.89c-21.86-9.19-40.87-22.26-54.41-42.25-.58-.85-.48-2.15-.69-3.2,1.33-3.5,4.11-3.47,6.99-2.93,12.9,2.4,25.66,3.92,38.91,1.45,19.71-3.67,36.58-12.02,50.42-26.54,3.01-3.16,5.29-7.66,11.76-6.6,4.54,10.84,2.48,22.12-.41,32.92-4.06,15.22-12.58,27.86-25.66,37.13-2.78,1.97-5.58,3.98-8,6.36-5.57,5.47-12.25,6.46-18.92,3.66Zm-48.66,197.3c16.73-15.15,35.55-26.53,53.94-38.66-1.66,19.55-2.83,39.12-1.73,58.84,.67,12.09,2.05,23.85,7.84,34.76,.55,1.03,1.13,1.95,1.75,2.76-5.05,14.28-11.78,27.67-18.75,40.78-7.17,13.47-15.41,27.69-33.79,34.95-10.02-46.19-12.3-89.05-9.25-133.41Zm-342.48,600.88c-8.53,15.23-21.16,22.38-36.82,21.72-7.17-.3-14.27-2.77-21.38-4.37-9.15-2.07-18.2-4.87-27.43-6.23-10.41-1.54-18.21,4.06-22.77,14.54-2.72,6.26-4.5,13.06-6.59,19.66-2.44,7.72-4.01,15.92-7.25,23.17-7.94,17.74-24.86,18.49-34.49,1.96-12.6-21.6-18.05-44.72-11.4-70.28,4.98-19.13,10.83-38.01,14.94-57.37,2.62-12.33,5.08-25.69,3.56-37.95-3.59-29.15-29.43-47-50.51-32.71-25.27,17.12-43.38,14.14-62.21-10.79-12.31-16.3-29.74-20.26-48.54-12.98-6.76,2.62-14.57,6.2-21.01,4.65-29.5-7.1-57.82-34.47-45.83-76.47,6.37-22.3,10.71-45.5,18.73-66.99,9.84-26.36,7.36-50.74-4.46-74.23-16.43-32.66-10.82-60.55,11.67-86.01,1.47-1.66,2.84-3.43,4.2-5.2,33.21-43.46,51.58-93.06,49.38-151.29-.57-15.24-.46-30.51-1.08-45.75-1.58-39.05,2.61-77.18,12.68-114.64,11.25-41.86,28.29-80.67,47.63-118.29,24.98-48.59,61.44-78.61,111.22-87.3,10.36-.69,20.79-2.6,31.08-1.88,60.04,4.25,120.4,6.06,179.34,21.32,33.37,8.64,66.39,19.28,93.45,45.27,5.49,5.28,12.06,9.13,18.11,13.67,37.91,28.49,68.17,65.98,89.51,110.5,19.86,41.43,29.87,87.71,28.86,135.41-.42,19.81-2.45,38.88,5.08,57.8,2.36,5.93,.74,13.86,1.06,20.87,.65,14.04,.75,28.15,2.21,42.08,4.28,40.65,9.4,81.19,13.63,121.85,2.79,26.82,4.3,53.6-3.65,80.06-2.61,8.68-3.58,18.56-3.12,27.75,1.54,30.52-10,51-33.92,64.86-13.77,7.98-26.48,18.56-38.92,29.11-9.88,8.38-14.6,19.56-8.45,33.88,13.21,30.77,1.93,56.99-12.72,82.25-8.06,13.9-20.15,20.69-34.62,19.26-10.19-1.01-20.77-3.14-30.1-7.62-10.36-4.97-19.35-13.47-29.2-19.91-11.62-7.6-22.94-16.53-35.45-21.45-14.35-5.64-28.46-3.11-39.32,11.82-21.66,29.78-47.35,56.22-59.36,93.8-1.4,4.37-3.58,8.49-5.79,12.44Z"/><path d="M528.07,694.55c13.67-20.07,19.43-40.71,13.66-65.5-4.2-18.07-6.54-36.74-11.35-54.57-4.14-15.37-5.66-29.65,2.06-43.92,8.5-15.73,6.26-31.15-.64-46.83-6.91-15.72-13.41-31.68-19.56-47.79-11.64-30.46-35.53-41.3-61.28-48.17-12.05-3.22-27.07,9.27-33.64,26-2.91,7.43-4.11,15.7-6.29,23.51-3.42,12.24-10.17,20.45-22.1,21.29-30.67,2.16-45.75,26.55-55.75,54.07-14.24,39.16-21.8,80.77-24.86,123.04-2.64,36.47,17.74,57.11,41.15,77.28,9.24-8.85,16.17-15.47,24.78-23.72,4.1,4.92,8.7,9.07,11.74,14.35,7.31,12.7,12.49,26.84,23.69,36.62,11.1,9.7,22.53,12.41,34.58,4.25,10.56-7.15,20.32-15.81,30.43-23.8,32.98,5.45,32.31,4.86,53.39-26.08Z"/><path d="M546.4,380.49c6.72,6.78,15.32,6.04,23.58,2.86,8.66-3.33,17.12-8.02,26.03-9.7,12.77-2.4,20.16-10.57,25.13-23.06,6.27-15.76,8.82-39.64,4.8-67.14-4.88-13.52-12.62-35.07-20.47-56.57-.78-2.12-2.07-4.06-3.34-5.89-28.78-41.28-54.31-36.76-85.57-2.49-2.09,2.29-3.82,5.83-4.26,9.04-2.86,20.73-7.94,41.63-7.33,62.29,1.1,36.7,17.47,66.48,41.44,90.66Z"/><path d="M319.86,228.07c-1.13-11.92-5.63-24.52-15.56-34.39-15.4-15.31-31.42-16.74-47.43-2.24-17.55,15.89-38.05,29.3-44.2,56.49-2,8.85-4.36,18.34-3.45,27.13,1.92,18.5,5.6,36.79,9.14,55.03,2.18,11.19,8.8,17.9,18.85,20.73,14.15,3.98,28.17,8.86,41.71-1.99,2.52-2.02,6.03-3.35,7.47-6.08,10.57-19.94,21.94-39.51,30.62-60.49,6.61-16,5.87-34.16,2.85-54.18Z"/><path d="M157.68,628.71c-5.11-3.22-11.26-.87-13.31,4.63-3.11,8.36-5.34,17.67-5.66,26.68-.48,13.94,1.15,27.96,1.51,41.95,.15,5.79-.26,11.68-1.14,17.39-1.04,6.78-9.29,11.59-14.65,8.12-7.9-5.1-15.27-11.25-23.58-17.5-3.79,3.24-7.87,5.24-9.92,8.76-8.53,14.59-16.79,29.43-24.3,44.71-1.47,2.98-.47,9.58,1.63,12.28,3.9,5,10.47,4.15,13.81-.36,7.16-9.65,13.05-20.52,19.93-31.66,10.96,3.99,20.49,8.3,30.37,10.85,14.52,3.74,25.05-3.57,27.25-19.95,1.51-11.31,.53-23.14-.13-34.69-.99-17.31-5.1-34.76,4.88-50.85,1.5-2.42,1.58-7.23,.52-10.09-1.46-3.93-4.04-8.26-7.21-10.25Z"/></g><path class="e" d="M729.8,173.47c8.84,1.93,17.67,3.97,26.53,5.78,9.02,1.84,18.19,2.51,27.1-.11,9.27-2.73,18.61-5.58,27.38-9.56,10.43-4.73,18.81-12.16,25.17-25.38-9.84-1.61-17.09-2.81-24.34-3.99-15.05-2.45-28.03-8.65-38.79-19.81-8.45-8.76-15.61-17.97-18.64-30.05-1.38-5.5-3.6-10.8-5.68-16.09-.72-1.85-2.18-3.41-3.47-5.35-7.4,8.27-13.23,19.38-17.27,31.45-.72,2.15-1.37,4.33-1.97,6.52-1.77,6.44-3.04,13.05-3.77,19.55-.27,2.41-.46,4.8-.59,7.17,0,.12-.01,.24-.02,.36-.77,15.85,1.84,30.41,8.34,39.53Z"/><path class="d" d="M822.74,231.35c13.07-9.27,21.6-21.92,25.66-37.13,2.88-10.8,4.95-22.08,.41-32.92-6.48-1.07-8.75,3.44-11.76,6.6-13.83,14.52-30.7,22.88-50.42,26.54-13.25,2.46-26.02,.95-38.91-1.45-2.88-.54-5.66-.57-6.99,2.93,.21,1.05,.11,2.35,.69,3.2,13.53,19.98,32.55,33.06,54.41,42.25,6.67,2.8,13.35,1.81,18.92-3.66,2.42-2.37,5.23-4.39,8-6.36Z"/><path class="d" d="M828.53,123.62c-.89-2.8-1.46-5.44-2.57-7.85-2.6-5.68-6.01-11.05-8.11-16.89-6.11-17.06-13.53-33.91-12.59-52.63,.37-7.28,1.52-14.53,2.56-24.05-14.28,2.48-25.25,7.9-34.99,15.83-2.08,1.69-3.23,4.56-4.68,6.96-6.54,10.82-2.89,21.91-1.35,33.19,3.29,23.99,28.22,48.01,61.72,45.44Z"/></g><path class="g" d="M829.62,277.94c.11-2.99,0-3.47-4.24-10.49-2.52,10.09-3.9,19.51-4.55,29.13-2.26,33.5-4.21,67.01-8.31,100.38-2.01,16.33-2.23,32.93-2.27,49.42-.03,11.12,1.98,22.18,7.39,35.97,7.08-15.66,6.48-28.24,6.63-40.66,.25-20.49-.13-40.99,.52-61.46,.63-19.89,2.35-39.75,3.34-59.63,.71-14.21,.99-28.43,1.5-42.65Z"/></g></g></g></svg>