<?xml version="1.0" encoding="UTF-8"?><svg xmlns="http://www.w3.org/2000/svg" viewBox="0 0 144.44 91.86"><defs><style>.d{fill:#ff8dea;}.e{fill:#d939c6;}.f{fill:#f255dc;}.g{fill:#82ecf7;}.h{fill:#f8e0e6;}.i{fill:#888dc8;}.j{fill:#a19494;}.k{fill:#df5e79;}.l{fill:#aea0a2;}.m{fill:#f57ee4;}.n{fill:#ea3d07;}.o{fill:#e268d4;}.p{fill:#ce5ac1;}.q{fill:#e8b1e3;}.r{fill:#ef6b42;}.s{fill:#ffa8ef;}</style></defs><g id="a"/><g id="b"><g id="c"><g><path class="f" d="M77.79,91.76c19.75-1.29,35.97-13.86,42.18-30.73,.6,1.09,1.09,2.36,1.47,3.82,1.71,6.64-2.89,22.25,10.16,16.4,8.39-3.76,8.05-13.07,7.55-20.58-.2-3-1.6-7.98-.33-10.78,1.05-2.3,4.34-2.88,5.21-4.86,1.84-4.16-3.05-7.19-3.94-10.31-1.08-3.78,1.7-5.4,2.95-8.32,2.44-5.65,1.37-13.02-7.03-12.03-7.32,.86-8.14,6.45-12.71,10.27-1.29,1.08-3.19,1.59-5.12,1.58C110.09,9.7,92.07-1.19,71.87,.1,50.19,1.52,32.79,16.53,28.16,35.87c-1.74-3.88-1.59-10.36-1.76-13.08-.41-6.45-1.2-14.57-9.68-16.62C11.13,4.83,3.5,11.61,2.09,15.85-.1,22.49,6.16,27.01,5.4,33.87c-.6,5.37-8.4,11.54-4.12,16.59,.64,.76,1.43,.82,2.18,.85,.7,.03,1.39,.04,1.92,.6,1.6,1.76,1.32,3.7,1.42,5.83,.16,3.43-1.47,7.51-.27,10.92,.94,2.63,3.36,5.17,6.72,5.48,5.63,.5,6.46-3.75,8.23-7.63,1.86-4.07,3.04-10.28,6.16-12.51,4.08,22.78,25.52,39.33,50.15,37.75h0Z"/><path class="d" d="M78.8,2.42s-33.34,.9-45.22,29.36c0,0,13.02-24.85,49.29-23.26,0,0,8.71,.22,16.04,4.81,0,0-1.96-9.03-20.11-10.91h0Z"/><path class="d" d="M19.83,10.26c-2.39-1.05-7.47-3.46-9.56-.32-1.83,2.74,1.04,4.27,3.59,5.58,1.09,.55,2.11,1.05,2.72,1.6,2.04,1.84,4.09,6.9,6.64,2.4,1.61-2.82-.82-7.27-3.39-8.53v-.73h0Z"/><path class="d" d="M135.94,39.22c-.75,2.69,.88,9.89,4.46,5.65,2.29-2.72-3.06-9.98-4.1-6.38l-.35,.73h0Z"/><path class="d" d="M137.53,25.78c-4.84,.48-5.58-8.15-1.01-7.96,3.73,.17,5.66,5.99,1.73,7.95h-.72Z"/><path class="h" d="M108.56,42.73c.3,18.31-15.45,33.41-35.17,33.73-19.71,.32-35.93-14.28-36.22-32.6-.3-18.31,15.45-33.41,35.16-33.73,19.72-.31,35.94,14.27,36.23,32.6h0Z"/><path class="n" d="M92.73,31.02c-5.16-8.76-18.62-8.63-27.85-8.31-9.62,.35-16.94,9.53-17.01,18.54-.07,9.74,5.91,19.35,15.94,21.64,12.36,2.8,29.68,1.5,31.24-14.36,1.01-10.29-5.32-16.74-14.26-19.85-3.48-1.2-8.36-1.13-12.06-.23-4.7,1.12-6.13,3.51-6.5,8.07-.63,8.02,7.59,18.97,16.77,13.38,3.48-2.13,4.57-7.97,2.57-11.29-1.54-2.58-9.93-5.23-9.46-.57,1.18-.05,2.43-.02,3.57,.08,.24,2.45-3.51,2.13-4.35,.4-1.52-3.12,2.63-3.74,4.59-3.88,5.07-.38,8.84,2.38,9.26,7.25,.43,5.03,.27,8-4.48,10.31-5.57,2.67-11.34,2.82-16.23-1.53-5.75-5.13-8.69-16.88-1.17-21.66,7.36-4.66,16.62-3.24,23.57,1.24,8.43,5.45,11.44,12.3,10.94,23.04-.51,10.49-10.38,12.08-19.56,12.23-5.41,.08-10.85,.54-15.96-.79-4.7-1.2-11.43-3.11-14.32-7.27-6.77-9.76-10.3-22.76,1.19-30.04,5.91-3.76,12.39-9.17,19.61-9.48,6.57-.29,13.91,2.6,19.76,4.83,5.32,2.04,9.49,4.98,12.49,10.04,1.15,1.93,6.92,15.45,.49,14.05,.03-2.87-2.32-7-3.78-9.37-1.38-2.25-4.97-4.74-5.33-7.5l.34,1.01h0Z"/><path class="e" d="M1.91,16.57c-.79,3.19,.33,5.92,1.52,8.7,.99-1.37,1.99-2.75,3.01-4.13-.5-.31-.98-.62-1.44-.96-1.33-.99-2.43-2.14-3.09-3.6h0Z"/><path class="m" d="M5.43,33.56c0,.1-.02,.21-.03,.32-.6,5.37-8.4,11.54-4.12,16.59,.12,.15,.26,.27,.39,.37,.33,.25,.69,.36,1.06,.42h0c-.37-.06-.73-.17-1.06-.42-.14-.1-.27-.23-.39-.37-4.29-5.05,3.52-11.22,4.12-16.59,.01-.11,.02-.21,.03-.32h0Zm.02-.31c0,.08-.01,.17-.02,.25,0-.09,.01-.17,.02-.25h0Zm.01-.31c0,.08,0,.16,0,.24,0-.08,0-.16,0-.24h0Zm0-.31c0,.08,0,.16,0,.24,0-.08,0-.16,0-.24h0Zm0-.31c0,.08,0,.16,0,.24,0-.08,0-.16,0-.24h0Zm-.01-.31c0,.08,0,.17,.01,.25,0-.08,0-.17-.01-.25h0Zm-.03-.31c0,.09,.02,.18,.02,.27,0-.09-.01-.18-.02-.27h0Zm-1.99-6.44h0c.87,2.05,1.78,4.12,1.99,6.43-.21-2.32-1.12-4.39-1.99-6.43h0ZM21.01,8.12c-.97-.73-2.14-1.32-3.52-1.73-.59,.77-1.18,1.54-1.77,2.31,1.57,.41,3.08,1.11,4.11,1.56v.73c.26,.13,.52,.29,.77,.48,2.25,1.67,4.07,5.52,2.62,8.06-1.19,2.1-2.27,2.12-3.29,1.36-1.17-.87-2.26-2.77-3.35-3.76-.09-.08-.19-.16-.29-.24-.62-.46-1.5-.89-2.42-1.36-.79-.4-1.6-.83-2.3-1.3-1.74,2.32-3.45,4.62-5.13,6.92,2.74,1.67,6.05,2.96,8.57,4.79,.15,.09,.28,.19,.41,.29,2.49,1.85,2.15,4.32,.46,7,3.29-1.08,8.24-1.23,11.54,.4-.94-3.79-.86-8.59-1-10.82-.33-5.14-.89-11.34-5.39-14.68h0Zm12.57,23.66C45.46,3.32,78.8,2.42,78.8,2.42c7.88,.82,12.7,2.98,15.65,5.17,3.84,2.85,4.46,5.75,4.46,5.75-7.33-4.59-16.04-4.81-16.04-4.81-36.27-1.59-49.29,23.26-49.29,23.26h0Zm103.88,14.09c-1.47-1.09-2.02-4.86-1.53-6.65l.35-.73c.35-1.2,1.17-1.19,2.04-.55,1.73,1.28,3.6,5.12,2.07,6.93-1.2,1.43-2.18,1.56-2.93,1h0Zm-2.28-20.71c-2.58-1.92-2.35-7.5,1.33-7.34,.77,.04,1.46,.31,2.04,.74,2.24,1.66,2.81,5.65-.31,7.2l-.72,.02c-.94,.09-1.73-.16-2.35-.62h0Zm6.58-9.65c-1.31-.97-3.19-1.45-5.76-1.14-7.32,.86-8.14,6.45-12.71,10.27-1.29,1.08-3.19,1.59-5.12,1.58-3.23-6.59-8.04-12.28-13.93-16.66C95.37,2.95,84.02-.67,71.87,.1,50.78,1.48,33.74,15.73,28.56,34.32h.01c.41,.31,.78,.66,1.09,1.05,3.09,3.82,2.77,7.68,1.3,11.23,2.01,3.12,4.32,6,6.87,8.6,.5-.12,1.01-.23,1.52-.34-1.36-3.43-2.13-7.12-2.19-10.98-.3-18.31,15.45-33.41,35.16-33.73,8.64-.14,16.62,2.59,22.87,7.24,1.89,1.4,3.62,2.98,5.16,4.7,2.54-.83,4.87-.24,6.95,1.3,4.38,3.26,7.65,10.78,9.45,18.32,.01,.53,.61,1.45,1.59,2.17,1.65,1.23,4.36,1.9,7.03-.76-.08,5.03,0,9.6,3.37,12.1,.39,.29,.82,.55,1.3,.78,2.78,.99,5.74,1.15,8.58,.64h0c-.34-2.43-.58-5,.2-6.74,.5-1.1,1.51-1.8,2.53-2.46,1.11-.72,2.23-1.37,2.68-2.41,1.3-2.95-.77-5.32-2.41-7.57-.67-.92-1.28-1.83-1.54-2.74-.44-1.52-.25-2.69,.22-3.73,.69-1.56,1.99-2.84,2.74-4.59,1.69-3.92,1.69-8.68-1.27-10.88h0Z"/><path class="s" d="M94.45,7.59c-2.94-2.19-7.77-4.35-15.65-5.17,0,0-33.34,.9-45.22,29.36,0,0,13.02-24.85,49.29-23.26,0,0,8.71,.22,16.04,4.81,0,0-.63-2.89-4.46-5.74h0Z"/><path class="s" d="M19.83,10.26c-1.02-.45-2.54-1.15-4.11-1.56-1.4,1.84-2.79,3.68-4.17,5.52,.7,.48,1.52,.9,2.3,1.3,.93,.47,1.81,.9,2.42,1.36,.11,.08,.2,.16,.29,.24,1.09,.98,2.18,2.89,3.35,3.76,1.02,.76,2.1,.73,3.29-1.36,1.45-2.54-.37-6.39-2.62-8.06-.25-.19-.51-.35-.77-.48v-.73h0Z"/><path class="s" d="M138.32,37.94c-.86-.64-1.69-.65-2.04,.55l-.35,.73c-.5,1.79,.05,5.56,1.53,6.65,.75,.55,1.73,.42,2.93-1.01,1.53-1.81-.34-5.65-2.07-6.93h0Z"/><path class="s" d="M138.56,18.56c-.58-.43-1.27-.71-2.04-.74-3.68-.16-3.92,5.42-1.33,7.34,.62,.46,1.41,.71,2.35,.62l.72-.02c3.12-1.55,2.55-5.54,.31-7.2h0Z"/><path class="h" d="M88.01,32.4c-2.09-1.55-4.53-2.79-7.22-3.72-3.48-1.2-8.36-1.13-12.06-.23-4.7,1.12-6.13,3.51-6.5,8.07-.35,4.54,2.12,10.02,6.01,12.9,2.98,2.21,6.78,2.9,10.76,.47,3.48-2.13,4.57-7.97,2.57-11.29-.23-.39-.63-.79-1.13-1.16-2.77-2.06-8.73-3.36-8.34,.59,1.18-.05,2.43-.02,3.57,.08,.2,2.03-2.35,2.16-3.71,1.15-.28-.2-.5-.46-.64-.76-1.52-3.12,2.63-3.74,4.59-3.88,2.49-.18,4.67,.39,6.29,1.59,1.68,1.25,2.76,3.18,2.97,5.66,.04,.42,.07,.83,.09,1.22,1.3-.79,2.62-.9,3.69-.18,.04,.03,.08,.06,.12,.09h0c.09,.06,.17,.14,.26,.21,.73,.66,1.31,1.77,1.66,3.38,.02,.11,.05,.23,.07,.34h0s1.43,.63,3.96,1.85c.01-.09,.02-.18,.03-.26,.7-7.2-2.19-12.52-7.04-16.13h0Zm13.17,.74c1.46,2.77,6.46,15.07,.31,13.73,.03-2.87-2.32-7-3.78-9.37-1.26-2.05-4.36-4.3-5.16-6.78-.92-1.48-2.09-2.69-3.43-3.69-6.36-4.73-16.71-4.59-24.25-4.33-9.62,.35-16.94,9.53-17.01,18.54-.03,4.58,1.27,9.12,3.7,12.9,7.37,.6,14.76,3.06,21.42,7.53,.03,.02,.07,.05,.11,.07,.33-.44,.66-.87,.98-1.3,2.14-2.87,3.93-5.49,5.11-7.58-4.69,1.84-9.45,1.79-13.65-1.33-.36-.27-.71-.55-1.06-.86-5.75-5.13-8.69-16.88-1.17-21.66,7.36-4.66,16.62-3.24,23.57,1.24,.63,.41,1.23,.82,1.8,1.25,6.29,4.68,8.99,10.44,9.18,18.67,1.94,.97,4.24,2.14,6.83,3.52,2.24-4.01,3.18-8.55,1.91-13.29-.61-2.83-2.99-5.18-5.41-7.27h0Zm-5.98-15.77c-6.25-4.65-14.23-7.37-22.87-7.24-19.71,.32-35.46,15.42-35.16,33.73,.06,3.86,.83,7.56,2.19,10.98,2.12-.43,4.27-.7,6.45-.81-5.22-9.2-6.85-20.16,3.34-26.61,5.91-3.76,12.39-9.17,19.61-9.48,6.57-.29,13.91,2.6,19.76,4.83,2.49,.96,4.73,2.11,6.71,3.58,.03,.02,.07,.05,.1,.08,0-.61,.27-1.21,.85-1.82,1.45-1.28,2.84-2.11,4.18-2.54-1.54-1.73-3.27-3.3-5.16-4.71h0Z"/><path class="r" d="M88.67,31.5c-.57-.42-1.17-.84-1.8-1.25-6.94-4.48-16.21-5.91-23.57-1.24-7.53,4.78-4.59,16.53,1.17,21.66,.35,.31,.7,.6,1.06,.86,4.19,3.12,8.96,3.17,13.65,1.33,.61-1.08,1.05-2.01,1.3-2.77,.4-1.21,.89-2.31,1.44-3.27,.99-1.72,2.17-3,3.35-3.72-.03-.39-.06-.8-.09-1.22-.21-2.48-1.29-4.41-2.97-5.66-1.62-1.2-3.8-1.77-6.29-1.59-1.95,.14-6.11,.75-4.59,3.88,.14,.3,.37,.55,.64,.76,1.35,1,3.9,.88,3.71-1.15-1.14-.11-2.39-.14-3.57-.08-.39-3.94,5.57-2.64,8.34-.59,.5,.37,.89,.77,1.13,1.16,2,3.32,.91,9.16-2.57,11.29-3.98,2.43-7.78,1.74-10.76-.47-3.88-2.88-6.36-8.36-6.01-12.9,.36-4.56,1.8-6.94,6.5-8.07,3.71-.9,8.58-.97,12.06,.23,2.68,.93,5.13,2.17,7.22,3.72,4.86,3.61,7.74,8.93,7.04,16.13,0,.09-.02,.18-.03,.26,.83,.4,1.77,.86,2.82,1.38-.18-8.23-2.89-13.99-9.18-18.67h0Zm6.56-5.14c-1.98-1.48-4.22-2.63-6.71-3.58-5.85-2.23-13.19-5.12-19.76-4.83-7.21,.32-13.7,5.73-19.61,9.48-10.19,6.46-8.56,17.41-3.34,26.61,1.91-.1,3.84-.06,5.77,.09-2.43-3.77-3.73-8.32-3.7-12.9,.07-9,7.39-18.19,17.01-18.54,7.54-.27,17.89-.4,24.25,4.33,1.34,1,2.51,2.21,3.43,3.69,.81,2.48,3.9,4.73,5.16,6.78,1.46,2.37,3.81,6.5,3.78,9.37,6.15,1.34,1.15-10.95-.31-13.73-2.91-2.51-5.87-4.63-5.85-6.7-.03-.02-.07-.05-.1-.07h0Z"/><path class="l" d="M138.87,58.28c.13,.87,.24,1.69,.29,2.39,.12,1.81,.23,3.71,.21,5.63h0c.02-1.91-.09-3.82-.21-5.63-.04-.7-.15-1.51-.28-2.36,0-.01,0-.02-.01-.03h0Z"/><path class="j" d="M138.63,56.63h0c.08,.56,.16,1.12,.24,1.65v.02c-.07-.54-.16-1.1-.24-1.68h0Z"/><path class="k" d="M139.37,66.3h0c-.01,1.6-.12,3.2-.38,4.75h0c.26-1.55,.37-3.15,.38-4.75h0Z"/><path class="q" d="M138.99,71.05h0c-.21,1.2-.51,2.37-.94,3.48h0c.43-1.11,.74-2.27,.94-3.48h0Z"/><path class="i" d="M5.43,33.5s0,.04,0,.06c0-.02,0-.04,0-.06h0Zm.02-.33s0,.05,0,.07c0-.02,0-.05,0-.07h0Zm.01-.3s0,.04,0,.07c0-.02,0-.04,0-.07h0Zm0-.31s0,.05,0,.07c0-.02,0-.04,0-.07h0Zm0-.29s0,.04,0,.05c0-.02,0-.04,0-.05h0Zm-.02-.29s0,.02,0,.04c0-.01,0-.02,0-.04h0Zm-.02-.28s0,0,0,0c0,0,0,0,0,0h0Z"/><path class="o" d="M28.17,53.88c-.33-.24-.69-.44-1.1-.58-1.57,2.25-4.81,6.44-5.65,9.94,.6-.48,1.21-.95,1.83-1.4,.83-2.34,1.71-4.7,2.94-6.36,.43-.59,.91-1.09,1.45-1.47,.28,1.54,.63,3.05,1.06,4.53,.67-.34,1.35-.66,2.04-.96-.71-1.39-1.41-2.83-2.57-3.7h0Zm2.79-7.28c-.62,1.51-1.46,2.96-2.33,4.33,1.15,1.73,2.1,4.42,2.81,6.34,2.07-.86,4.21-1.56,6.39-2.08-2.55-2.6-4.86-5.48-6.87-8.6h0Zm-28.74,.86c-1.5-1.12-.63-4.6,1.44-5.4l.38,.73c.02,1.64,.07,3.3,.05,4.95-.83,.17-1.44,.04-1.87-.27h0Zm5.36-15.39c-1.18-.88-1.96-2.39-1.62-3.83l1.81-.74c.47-.03,.92-.05,1.39,.02,.93,1.54,1.46,3.35,1.11,5.25-.93,.2-1.9-.1-2.69-.69h0Zm7.82-5.85c-.13-.1-.27-.19-.41-.29-2.52-1.83-5.83-3.12-8.57-4.79-1.01,1.38-2.02,2.76-3.01,4.13,.87,2.04,1.78,4.11,1.99,6.43,0,0,0,0,0,0,0,.09,.02,.18,.02,.27,0,.01,0,.02,0,.04,0,.08,0,.17,.01,.25,0,.02,0,.04,0,.05,0,.08,0,.16,0,.24,0,.02,0,.05,0,.07,0,.08,0,.16,0,.24,0,.02,0,.04,0,.07,0,.08,0,.16,0,.24,0,.02,0,.05,0,.07,0,.08-.01,.17-.02,.25,0,.02,0,.04,0,.06,0,.1-.02,.21-.03,.32-.6,5.37-8.4,11.54-4.12,16.59,.12,.15,.26,.27,.39,.37,.33,.25,.69,.36,1.06,.42,1.3-.6,2.47-1.26,3.31-2.14h0c4.37-4.55,2.36-11.3,7.64-14.89,.58-.39,1.32-.73,2.18-1.02,1.7-2.68,2.04-5.15-.46-7h0Zm91.9-2.83c-2.08-1.55-4.41-2.13-6.95-1.3,5.02,5.61,8.08,12.78,8.2,20.65,.07,4.18-.7,8.19-2.16,11.9,3.9,2.11,8.36,4.64,13.14,7.56,.15-.39,.3-.77,.44-1.15h0c.34,.6,.63,1.26,.9,1.98,1.35,.83,2.72,1.7,4.11,2.59-.27-1.84-.52-3.8-1.2-5.45-.81-1.96-4-3.38-3.44-5.77,.97-.3,1.8-.06,2.54,.49,1.04,.78,1.91,2.17,2.75,3.55,.84,1.36,1.65,2.73,2.61,3.44,.08,.06,.16,.12,.25,.17,1.7,1.04,4.24-.4,5.83,.66,.04,.03,.08,.05,.11,.08,1.76,1.31,1.71,4.6,1.63,6.54l-2.21-1.77c.69,1.15,.63,2.65,.11,4.07,1.35,.95,2.72,1.92,4.08,2.92,.43-1.11,.74-2.27,.94-3.48,.26-1.55,.37-3.15,.38-4.75,.02-1.91-.09-3.82-.21-5.63-.05-.7-.16-1.52-.29-2.39-.08-.54-.16-1.09-.24-1.65-2.84,.51-5.79,.35-8.58-.64-.48-.23-.91-.49-1.3-.78-3.36-2.5-3.45-7.07-3.37-12.1-2.67,2.67-5.38,1.99-7.03,.76-.97-.72-1.58-1.64-1.59-2.17-1.8-7.54-5.06-15.06-9.44-18.32h0Z"/><path class="q" d="M100.36,22.08c-1.34,.44-2.73,1.26-4.18,2.54-.59,.61-.85,1.21-.85,1.82,2.21,1.66,4.1,3.73,5.68,6.38,.05,.08,.11,.19,.18,.32,2.42,2.08,4.8,4.44,5.41,7.27,1.27,4.74,.33,9.28-1.91,13.29,.56,.3,1.14,.61,1.73,.93,1.46-3.71,2.23-7.72,2.16-11.9-.12-7.87-3.19-15.05-8.2-20.65h0Z"/><path class="k" d="M95.33,26.44c-.02,2.08,2.95,4.19,5.85,6.7-.07-.13-.13-.24-.18-.32-1.57-2.65-3.47-4.72-5.68-6.38h0Z"/><path class="p" d="M28.64,50.93c-.4,.64-.81,1.26-1.22,1.85-.1,.16-.22,.33-.35,.52,.41,.14,.78,.33,1.1,.58,1.16,.86,1.86,2.31,2.57,3.7,.23-.1,.47-.2,.71-.3-.71-1.92-1.66-4.61-2.81-6.34h0Z"/><path class="p" d="M3.66,42.05c-2.07,.81-2.94,4.29-1.44,5.4,.42,.32,1.04,.44,1.87,.27,.02-1.64-.03-3.31-.05-4.95l-.38-.73h0Z"/><path class="p" d="M9.16,27.51c-.46-.07-.91-.05-1.39-.02l-1.81,.74c-.35,1.44,.44,2.95,1.62,3.83,.79,.59,1.76,.89,2.69,.69,.35-1.89-.19-3.71-1.11-5.25h0Z"/><path class="p" d="M134.43,62.76s-.08-.05-.11-.08c-1.59-1.07-4.12,.38-5.83-.66-.08-.05-.16-.11-.25-.17-.96-.71-1.77-2.07-2.61-3.44-.84-1.38-1.71-2.77-2.75-3.55-.74-.55-1.57-.79-2.54-.49-.56,2.4,2.63,3.82,3.44,5.77,.68,1.65,.94,3.61,1.2,5.45,2.93,1.88,5.93,3.88,8.97,6.01,.52-1.42,.58-2.92-.11-4.07l2.21,1.77c.08-1.94,.13-5.23-1.63-6.53h0Z"/><path class="g" d="M81.92,46.83c-.55,.96-1.04,2.05-1.44,3.27-.25,.76-.7,1.7-1.3,2.77-1.18,2.09-2.97,4.7-5.11,7.58,3.24-4.35,5.68-8.11,6.41-10.35,.4-1.22,.89-2.31,1.44-3.27h0Zm7.41-3.6c.73,.67,1.31,1.77,1.66,3.38-.35-1.61-.94-2.72-1.66-3.38h0Zm-.26-.21s-.08-.06-.12-.09c.04,.03,.08,.06,.12,.09h0Z"/></g></g></g></svg>