<?xml version="1.0" encoding="UTF-8"?><svg xmlns="http://www.w3.org/2000/svg" viewBox="0 0 214.71 176.62"><defs><style>.d{fill:#ce0143;}.e{fill:#b3013c;}.f{fill:#fff2ab;}.g{fill:#f5c296;}.h{fill:#e00148;}.i{fill:#ee014c;}.j{fill:#ff4a64;}.k{fill:#fcc298;}</style></defs><g id="a"/><g id="b"><g id="c"><g><path class="e" d="M161.72,53.51s38.38-10.68,48.43-18.25c10.05-7.57,1.04-7.42-4-11.92-3.44-3.06-8.13-9.84-11.9-15.33-1.75-2.56-3.3-4.83-4.44-6.34-3.58-4.76-10.19,1.87-12.97,4.79-2.77,2.92-24.3,28.27-24.54,40.05,0,0-.25,8.48,9.41,7h0Z"/><path class="e" d="M58.47,132.14s-20.85,33.94-30.9,41.53c-10.05,7.56-7.41-1.05-10.35-7.14-2.92-6.09-12.74-16.92-16.34-21.68-3.59-4.76,4.61-9.28,8.18-11.15,3.58-1.86,33.87-15.56,45.28-12.55,0,0,8.21,2.11,4.13,10.99h0Z"/><path class="i" d="M163.36,75.49s4.88-7.83,1.03-17.36c-3.86-9.53-12.5-22.09-32.76-19.26-15.34,8.24-69.55,50.74-80.51,61.49-10.97,10.76-4.72,23.46,3.51,32.18,8.23,8.72,14.2,10.03,33.39,1.38,19.18-8.65,67.56-50.07,75.35-58.43h0Z"/><path class="h" d="M171.77,47.59s24.16-5.35,33.89-12.26c0,0,6.46-4.13,5.04-6.09-.09-.12-.2-.23-.35-.33-2.59-1.78-6.9-3.1-17.08,3.74-10.18,6.85-21.49,14.95-21.49,14.95h0Z"/><path class="h" d="M171.54,39.74c.94,1.31,8.03-2.97,12.39-7.94,0,0,4.04-3.41,1.92-6.34-.13-.18-.29-.37-.47-.54-3.12-3.04-10.58,7.97-13.42,13.01-.53,.94-.63,1.52-.42,1.82h0Z"/><path class="h" d="M21.92,172.21c.94,1.3,2.63,1.22,3.99-.21,0,0,21.74-23.43,23.77-31.17,.17-.65,.15-1.08-.03-1.34-2.04-2.82-23.8,16.47-27.06,24.25-1.81,4.31-1.64,7.14-.67,8.48h0Z"/><path class="h" d="M15.37,157.12c.33,.45,.88,.76,1.64,.87,3.24,.46,22.08-15.81,22.08-15.81,.16-.12,.21-.19,.19-.23-.34-.48-14.47,5.13-19.51,8.15-4.15,2.5-5.47,5.53-4.4,7.01h0Z"/><path class="h" d="M6.52,147.85c1.49,2.06,5.23,2.81,10.66,.47,11.46-4.94,28.36-12.35,26.91-14.36-.02-.02-.03-.04-.05-.06,0,0-23.7-1.21-33.03,4.57-4.95,3.07-6.17,7.07-4.49,9.39h0Z"/><path class="h" d="M161.95,39.1c1.09,1.5,4.94-.85,10.41-6.99,0,0,11.24-15.01,12.91-20.39,.28-.91,.23-1.61-.1-2.07-1.65-2.28-10.09,1.32-18.18,15.29-4.67,8.08-6.04,12.78-5.04,14.17h0Z"/><path class="d" d="M62.73,91.95l-1.89-.16c3.62-3.04,7.89-6.53,12.53-10.25l-.19,1.74,7.2,6.17-9.28,1.97-3.66,8.75-4.71-8.22h0Zm-11.99,35.93c1.19,1.65,2.51,3.21,3.88,4.67h0c.85,.9,1.67,1.7,2.48,2.43-.4-1.17-.77-2.47-1.09-3.89-2.48-10.99,4.45-23.25,28.64-42.31,19.96-15.73,32.01-24.36,47.55-29.6l-8.7-.96-6.77,7.81-2.09-10.13-5.09-2.14c5.89-4.3,11.26-8.08,15.58-10.92l7.56-1.76-4.26,9.42,4.99,8.27c2.92-.94,5.97-1.77,9.23-2.51,10.74-2.43,18.26,2.12,23.07,7.21-.19-1.68-.6-3.47-1.35-5.34-1.08-2.66-2.54-5.57-4.52-8.3-5.09-7.05-13.65-12.99-28.24-10.95-4.14,2.22-11.1,6.93-19.27,12.84-22.16,16.01-53.24,40.81-61.24,48.65-9.14,8.96-6.33,19.27-.37,27.51h0Z"/><polygon class="f" points="154.62 80.48 149.95 75.58 143.27 76.64 146.49 70.69 143.41 64.66 150.07 65.89 154.86 61.09 155.74 67.81 161.77 70.88 155.67 73.79 154.62 80.48"/><polygon class="f" points="125.35 94.63 114.73 93.26 107.58 101.24 105.59 90.71 95.79 86.37 105.2 81.23 106.3 70.57 114.09 77.93 124.57 75.68 119.98 85.36 125.35 94.63"/><path class="f" d="M94.3,118.87l-11.44,2.67-8.67-7.91-1,11.7-10.2,5.8,10.82,4.57,.66,3.22c3.69-.9,8.06-2.54,13.54-5.01,.96-.44,2.03-.98,3.13-1.57l-1.67-2.78,4.84-10.7Z"/><path class="g" d="M60.85,91.79l1.89,.16,4.71,8.22,3.66-8.75,9.28-1.97-7.2-6.17,.19-1.74c-4.64,3.72-8.91,7.21-12.53,10.25h0Z"/><path class="k" d="M132.21,59.17l1.57,.17-.35-.58c-.41,.13-.82,.27-1.22,.41h0Z"/><path class="g" d="M116.74,66.02l6.77-7.81,8.7,.96c.41-.14,.82-.27,1.23-.4l-4.99-8.27,4.26-9.42-7.56,1.76c-4.32,2.83-9.69,6.62-15.58,10.92l5.09,2.14,2.09,10.13h0Z"/><path class="j" d="M146.37,88.7s4.1-3.91,5.29-5.64c1.19-1.72-2.4-3.18-11.26,2.68-8.86,5.85-36.96,24.11-39.52,33.92-2.56,9.81,25.73-13.17,45.49-30.96Z"/></g></g></g></svg>