<?xml version="1.0" encoding="UTF-8"?><svg xmlns="http://www.w3.org/2000/svg" viewBox="0 0 134.88 143.69"><defs><style>.d{fill:#fff;}.e{fill:#77d868;}.f{fill:#82ecf7;}.g{fill:#80cb73;}.h{fill:#a19494;}.i{fill:#aaf9a1;}.j{fill:#58ba47;}.k{fill:#bdffb3;}.l{fill:#8ff784;}.m{fill:#e8b1e3;}.n{fill:#98e18c;}.o{fill:#cdffc5;}</style></defs><g id="a"/><g id="b"><g id="c"><g><path class="l" d="M50.3,5.03s45.6,28.97,68.1,67.71c.62,.62,9.43,10.89,13.98,9.26,4.56-1.64,3.96,12.85-10.94,24.71-14.9,11.86-24.92,29.31-25.82,34.05-.91,4.74-10.03,3.6-10.34-2.37-.31-5.98-11.25-8.36-14.6-9.89-3.34-1.52-54.11-37.66-60.5-73.8,0,0-1.22-3.76-4.87-3.07-3.65,.68-8.51-5.56-2.44-9.42,6.09-3.86,33.13-27.84,36.78-35.46,3.64-7.61,10.34-9.59,10.64-1.72h0Z"/><path class="e" d="M95.62,140.76c.9-4.74,10.92-22.19,25.82-34.05,14.89-11.85,15.5-26.35,10.94-24.71-.67,.24-1.45,.19-2.27-.02-5.87,15.46-20.18,27.99-32.07,40.47,.91-2.84,0-5.67,1.83-7.58-5.55-2.39-11.44-2.27-17.22-2.13-7.53,.16-14.9,.37-21.08-4.9-10.96-9.3-26.45-19.48-22.81-34.65,4.55-19.89,23.71,3.46,36.47,7.07-15.5-13.97-37.4-28.78-35.57-51.48,1.65-8.6,10.67-15.22,20.56-16.85-6.04-4.44-9.93-6.91-9.93-6.91-.3-7.87-7-5.9-10.64,1.72-3.64,7.62-30.69,31.6-36.78,35.46-6.08,3.86-1.21,10.09,2.44,9.42,3.65-.69,4.87,3.07,4.87,3.07,6.38,36.14,57.16,72.28,60.5,73.8,3.35,1.53,14.29,3.91,14.6,9.89,.31,5.97,9.42,7.11,10.34,2.37h0Z"/><path class="j" d="M9.58,49.52c-.58-.35-1.09-1.09-1.44-1.64,4.63-6.14,11.04-10.91,16.31-15.39,6.34-5.39,11.22-11.78,17-17.85-5.97,6.21-12,11.84-15.87,19.53-1.28,2.55-3.59,4.5-4.93,6.99-1.31,2.43-1.33,6.41-1.14,9.29,.17,2.66,.08,5.45,.32,8.05,.14,1.44,1.43,9-2.17,4.86-1.4-1.61-.46-6.47-1-8.25-1.49-4.92-4.56-2.7-7.31-4.88l.23-.7h0Z"/><path class="j" d="M77.53,128.41c.24-1.36,3.11,1.36,5.67,4.02,2.01,2.1,3.84,4.16,4.07,4.18,3.26,.18,9.92-8.53,11.82-11.17-.81-.57-2.63,.9-4.5,2.37-2.42,1.89-4.94,3.77-5.45,1.17-.35-1.82,2.29-2.19,1.65-4.06-.8-2.3-3.92-1.32-5.58-1.04-3.67,.63-6.64,.56-10.35-.33-2-.49-8.39-3.96-9.71-2.3,3.13,4.3,9.58,3.54,12.15,7.4l.23-.24h0Z"/><path class="d" d="M55.55,26.75c-2.15,2.26-5.87,2.04-8.33-.47-2.45-2.51-2.71-6.37-.57-8.61,2.13-2.26,5.87-2.03,8.32,.47,2.46,2.51,2.71,6.37,.58,8.61h0Z"/><path class="d" d="M44.08,75.17c-3.65,3.84-10.08,3.39-14.37-.98-4.28-4.39-4.79-11.03-1.14-14.87,3.65-3.83,10.08-3.39,14.37,.99,4.27,4.38,4.79,11.04,1.14,14.86h0Z"/><path class="d" d="M100.89,99.95c-1.32,1.38-3.72,1.15-5.35-.52-1.64-1.67-1.89-4.15-.57-5.54,1.33-1.38,3.72-1.15,5.36,.52,1.63,1.67,1.89,4.15,.56,5.54h0Z"/><path class="d" d="M115.17,82.9c-1.82,1.91-5.4,1.33-7.98-1.31-2.58-2.64-3.2-6.33-1.37-8.25,1.83-1.91,5.4-1.33,7.98,1.31,2.59,2.64,3.2,6.34,1.37,8.25h0Z"/><path class="d" d="M72.34,47.87c-1.1,1.15-3.07,.99-4.39-.35-1.33-1.36-1.5-3.39-.41-4.54,1.11-1.15,3.07-1.01,4.4,.35,1.32,1.35,1.49,3.37,.39,4.54h0Z"/><path class="d" d="M79.94,63.83c-1.1,1.15-3.06,.99-4.39-.35-1.33-1.36-1.5-3.39-.41-4.54,1.11-1.15,3.07-1,4.4,.36,1.32,1.34,1.49,3.37,.39,4.54h0Z"/><path class="d" d="M79.13,110.05c-2.64,2.77-7.35,2.42-10.49-.8-3.15-3.22-3.57-8.08-.92-10.86,2.64-2.77,7.34-2.42,10.48,.81,3.15,3.2,3.55,8.06,.92,10.84h0Z"/><path class="k" d="M109.2,64.44s-24.86-34.38-38.07-39.87c-13.23-5.48,17.32,25.75,23.03,35.35,5.71,9.61,20.75,19.8,15.04,4.52h0Z"/><path class="d" d="M68.04,100.92c-.47,2.63-3.76,4.26-7.35,3.62-3.6-.64-6.12-3.29-5.65-5.92,.47-2.64,3.75-4.26,7.34-3.62,3.58,.64,6.12,3.28,5.66,5.92h0Z"/><path class="i" d="M77.54,64.55c-.7-.12-1.4-.49-1.99-1.08-1.33-1.36-1.5-3.39-.41-4.54,.62-.65,1.52-.88,2.42-.72,.7,.12,1.4,.49,1.98,1.08,1.32,1.34,1.49,3.38,.39,4.54-.61,.65-1.5,.88-2.4,.72h0Zm-7.61-15.96c-.7-.12-1.4-.49-1.98-1.08-1.33-1.36-1.5-3.39-.41-4.54,.62-.65,1.52-.88,2.42-.73,.7,.12,1.4,.49,1.98,1.08,1.32,1.35,1.49,3.37,.39,4.54-.62,.65-1.51,.88-2.41,.72h0ZM60.22,11.94c-4.11,.67-8.07,2.22-11.41,4.4,.82-.25,1.71-.3,2.58-.14,1.28,.23,2.55,.88,3.59,1.94,2.46,2.51,2.71,6.37,.58,8.61-1.24,1.3-3,1.78-4.74,1.47-1.28-.23-2.54-.88-3.59-1.94-2.21-2.27-2.64-5.63-1.12-7.91-3.3,2.84-5.66,6.41-6.43,10.41-.87,10.78,3.61,19.77,10.22,27.75,1.47,.06,2.97,.22,4.46,.48,11.94,2.11,21.17,10.42,24.75,20.85,7.41-3.83,16.02-5.53,24.91-4.42,.52,.06,1.03,.14,1.54,.22,.08-.11,.18-.22,.27-.32,.62-.65,1.45-1.01,2.37-1.11-.09,0-.19-.02-.28-.04-3.67-.65-10.36-6.56-13.75-12.28-5.38-9.06-32.87-37.36-24.87-35.94,.48,.08,1.09,.28,1.84,.59,13.21,5.49,38.07,39.87,38.07,39.87,1.96,5.25,1.47,7.49-.25,7.79,.22,.01,.44,.04,.66,.08,1.42,.25,2.92,1.05,4.19,2.35,.54,.55,.99,1.14,1.35,1.75,5.12,2.14,9.68,5.22,13.5,9.02,.53-1.12,1.01-2.26,1.45-3.41-4.72-1.22-11.19-8.74-11.71-9.27-15.95-27.45-43.48-50-58.18-60.8h0Zm-19.94-6.38c-.21,.38-.42,.77-.62,1.19,.2-.41,.4-.81,.62-1.19h0ZM47.77,.11c1.41,.41,2.41,1.98,2.52,4.92-.11-2.94-1.12-4.51-2.52-4.92h0Zm-.29-.06s-.08-.01-.12-.02c.04,0,.08,.01,.12,.02h0Z"/><path class="n" d="M131.89,82.13c-.41,.06-.84,.04-1.3-.04-.16-.03-.31-.06-.47-.1v.02c-.45,1.15-.93,2.29-1.46,3.41,.76,.76,1.49,1.54,2.2,2.35,.36-1.87,.71-3.75,1.04-5.65h0ZM15.62,52.95c-.6,1.05-1.19,2.15-1.15,3.36,.06,1.92,1.38,4.12,2.72,6.14-.68-2.07-.07-5.84-.53-7.36-.29-.96-.64-1.65-1.04-2.15h0ZM47.49,.04h0s-.08-.01-.12-.02c-2.12-.29-4.97,1.78-7.1,5.53-.21,.38-.42,.77-.62,1.19h0c-3.02,6.31-22.11,23.87-32.03,31.89,.05,1.15,.38,2.29,1.42,3.46,.62,.7,1.53,1.24,2.52,1.76,4.08-4.29,8.82-7.92,12.88-11.37,1.92-1.63,3.7-3.34,5.41-5.11,3.42-4.53,7.52-8.5,11.59-12.73h0c-4.03,4.24-7.63,8.63-11.59,12.73-1.6,2.11-3.05,4.35-4.28,6.8-1.28,2.55-3.59,4.5-4.93,6.99-1.31,2.43-1.33,6.41-1.14,9.29,.17,2.66,.08,5.45,.32,8.05,.11,1.17,.98,6.36-.61,6.07-.28-.05-.64-.27-1.09-.71,.48,.72,.92,1.39,1.26,2,.88,1.57,1.8,3.24,2.6,4.96,1.19-1.87,2.59-3.59,4.14-5.14,.01-2.38,.81-4.64,2.44-6.35,2.08-2.18,5.06-2.98,8.03-2.45,.97,.17,1.94,.48,2.88,.94,3.3-.97,6.8-1.42,10.39-1.28-6.6-7.98-11.08-16.97-10.22-27.75,.77-4,3.13-7.57,6.43-10.41,.16-.25,.35-.48,.56-.7,.61-.64,1.34-1.08,2.15-1.33,3.34-2.19,7.3-3.73,11.41-4.4,0,0,0,0,.01,0-6.04-4.44-9.93-6.91-9.93-6.91h0c-.11-2.94-1.12-4.51-2.52-4.92-.09-.02-.19-.05-.29-.06h0Z"/><path class="g" d="M29.85,27.37c-1.71,1.77-3.49,3.49-5.41,5.11-4.06,3.45-8.8,7.08-12.88,11.37,2.4,1.27,5.23,2.46,5.36,5.71,.05,1.14-.64,2.24-1.3,3.39,.4,.5,.75,1.19,1.04,2.15,.46,1.52-.16,5.29,.53,7.36h0c.32,.48,.64,.95,.94,1.4,.45,.44,.81,.66,1.09,.71,1.59,.28,.72-4.9,.61-6.07-.24-2.6-.16-5.39-.32-8.05-.19-2.88-.17-6.86,1.14-9.29,1.34-2.49,3.65-4.43,4.93-6.99,1.23-2.45,2.68-4.68,4.28-6.8h0Zm11.59-12.73c-4.07,4.24-8.17,8.2-11.59,12.73,3.96-4.1,7.56-8.49,11.59-12.73h0Z"/><path class="d" d="M51.39,16.21c-.88-.15-1.77-.11-2.58,.14-.8,.25-1.54,.69-2.15,1.33-.21,.22-.4,.45-.56,.7-1.51,2.28-1.08,5.64,1.12,7.91,1.04,1.06,2.31,1.71,3.59,1.94,1.74,.31,3.51-.17,4.74-1.47,2.13-2.24,1.88-6.1-.58-8.61-1.04-1.06-2.31-1.71-3.59-1.94h0Z"/><path class="d" d="M36.61,56.88c-2.97-.53-5.96,.27-8.03,2.45-1.63,1.71-2.43,3.98-2.44,6.35,3.67-3.65,8.27-6.37,13.35-7.86-.94-.45-1.91-.77-2.88-.94h0Z"/><path class="d" d="M109.61,72.31c-.22-.04-.44-.07-.66-.08-.23,.04-.48,.04-.76,.01-.92,.09-1.74,.45-2.37,1.11-.1,.1-.19,.21-.27,.32,.2,.03,.41,.07,.61,.1,3.15,.56,6.15,1.45,8.99,2.63-.36-.61-.81-1.21-1.35-1.75-1.27-1.3-2.77-2.1-4.19-2.35h0Z"/><path class="d" d="M69.97,42.25c-.9-.16-1.79,.08-2.42,.73-1.1,1.16-.92,3.18,.41,4.54,.58,.59,1.28,.95,1.98,1.08,.9,.16,1.79-.07,2.41-.72,1.1-1.17,.92-3.2-.39-4.54-.58-.6-1.28-.96-1.98-1.08h0Z"/><path class="d" d="M77.57,58.2c-.9-.16-1.79,.08-2.42,.72-1.1,1.16-.92,3.19,.41,4.54,.58,.59,1.29,.96,1.99,1.08,.89,.16,1.78-.08,2.4-.72,1.1-1.17,.92-3.2-.39-4.54-.58-.59-1.28-.96-1.98-1.08h0Z"/><path class="o" d="M69.29,23.99c-8-1.42,19.49,26.88,24.87,35.94,3.39,5.71,10.08,11.63,13.75,12.28,.1,.02,.19,.03,.28,.04,.27,.03,.53,.03,.76-.01,1.72-.29,2.21-2.54,.25-7.79,0,0-24.86-34.38-38.07-39.87-.75-.31-1.36-.5-1.84-.59h0Z"/><path class="h" d="M17.19,62.46h0c.31,.47,.62,.93,.92,1.38,0,0,.01,.01,.02,.02-.3-.45-.62-.92-.94-1.4h0Z"/><path class="m" d="M23.7,75.26h0c.34,1.18,.57,2.36,.67,3.56h0c-.1-1.19-.34-2.38-.67-3.56h0Z"/><path class="f" d="M85.88,91.54c2.36,3.88,4.02,12.5,.87,23.58,3.15-11.08,1.49-19.71-.87-23.58h0Zm-.42-.63c.05,.08,.11,.16,.17,.24-.05-.08-.11-.16-.17-.24h0Zm-3.62-.85s-.06,.08-.09,.11c.03-.03,.06-.07,.09-.11h0Zm1.57-.74s-.07-.01-.11-.02c.04,0,.07,0,.11,.02h0Z"/><path class="d" d="M62.38,95c-2.04-.36-3.98,0-5.36,.87-.17,.17-.38,.32-.63,.46-.71,.61-1.2,1.39-1.35,2.29-.47,2.63,2.06,5.29,5.65,5.92,3.58,.64,6.88-.99,7.35-3.62,.47-2.64-2.07-5.29-5.66-5.92h0Z"/></g></g></g></svg>