<?xml version="1.0" encoding="UTF-8"?><svg xmlns="http://www.w3.org/2000/svg" viewBox="0 0 145.48 92.42"><defs><style>.d{fill:#fff;}.e{fill:#f26256;}.f{fill:#f4796e;}.g{fill:#f9bcb7;}.h{fill:#f04c3e;}.i{fill:#ffe706;}</style></defs><g id="a"/><g id="b"><g id="c"><g><path class="f" d="M77.55,92.36c19.89-.97,36.4-13.36,42.93-30.23,.6,1.11,1.07,2.39,1.42,3.86,1.61,6.71-3.27,22.35,9.97,16.66,8.5-3.64,8.29-13.02,7.92-20.58-.14-3.02-1.48-8.04-.16-10.85,1.08-2.29,4.41-2.83,5.31-4.82,1.91-4.15-2.94-7.28-3.81-10.43-1.02-3.82,1.81-5.4,3.12-8.33,2.54-5.63,1.58-13.08-6.88-12.21-7.38,.75-8.29,6.35-12.97,10.13-1.31,1.05-3.23,1.54-5.16,1.51C111.35,10.32,93.4-.92,73.06,.06,51.24,1.13,33.48,15.95,28.51,35.34c-1.69-3.95-1.42-10.46-1.56-13.19-.31-6.51-.97-14.68-9.47-16.87C11.86,3.83,4.09,10.52,2.59,14.77c-2.3,6.64,3.91,11.29,3.04,18.18-.68,5.4-8.63,11.47-4.41,16.63,1.23,1.51,3.04,.34,4.11,1.54,1.58,1.79,1.27,3.74,1.32,5.88,.1,3.45-1.59,7.53-.44,10.99,.9,2.66,3.3,5.24,6.67,5.61,5.66,.6,6.55-3.67,8.4-7.55,1.93-4.05,3.23-10.29,6.41-12.49,3.74,23,25.03,40,49.85,38.79h0Z"/><path class="e" d="M130.68,57.2c-4.64-2.32-4.66-7.39-4.48-13.04-4.35,4.21-8.66-.1-8.66-1.55-2.91-13.14-10.21-26.27-20.43-17.51-4.38,4.38,8.76,8.76,10.22,16.05,2.91,11.67-7.29,21.89-17.51,26.27-24.81,10.21-52.52-4.38-62.73-29.18-4.38,4.38-7.29,14.58-14.6,8.76-1.45-2.93-4.36-7.29,0-10.22,4.38-4.38,7.31-8.74,2.93-11.67-4.31-3.23-10.99-4.88-13.02-9.62-1.67,6.27,4.06,10.83,3.23,17.47-.68,5.4-8.63,11.47-4.41,16.63,1.23,1.51,3.04,.34,4.11,1.54,1.58,1.79,1.27,3.74,1.32,5.88,.1,3.45-1.59,7.53-.44,10.99,.9,2.66,3.3,5.24,6.67,5.61,5.66,.6,6.55-3.67,8.4-7.55,1.93-4.05,3.23-10.29,6.41-12.49,3.74,23,25.03,40,49.85,38.79,19.89-.97,36.4-13.36,42.93-30.23,.6,1.11,1.07,2.39,1.42,3.86,1.61,6.71-3.27,22.35,9.97,16.66,8.5-3.64,8.29-13.02,7.92-20.58-.06-1.15-.28-2.57-.47-4.07-2.87,.45-5.83,.26-8.63-.8h0Z"/><path class="i" d="M79.98,2.49s-33.55,.37-45.96,28.81c0,0,13.5-24.79,49.98-22.61,0,0,8.74,.37,16.05,5.12,0,0-1.84-9.13-20.07-11.32h0Z"/><path class="i" d="M20.53,9.43c-2.37-1.09-7.45-3.6-9.59-.48-2.67,3.88,4.24,5.46,6.23,7.33,2.02,1.89,3.99,7.01,6.65,2.52,1.66-2.81-.72-7.32-3.28-8.64v-.73h0Z"/><path class="g" d="M136.89,40.43c-.8,2.7,.72,9.96,4.39,5.75,2.35-2.69-2.92-10.08-4.03-6.48l-.36,.73Z"/><path class="g" d="M138.71,26.93c-4.87,.4-5.48-8.3-.89-8.02,3.76,.23,5.59,6.12,1.62,8.02h-.73Z"/><path class="h" d="M31.84,57.94c-.83-2.17-2.08-6.47-3.72-8.31-3.07-3.43-4.12-.41-5.59,2.57-1.98,4.05-5.74,10.67-10.33,11.98-.04,1.42-.07,2.9,.08,4.29,2.89,.73,8.06-9.94,9.57-12.15,1.39-2.09,1.62-4.61,5.15-3.51,2.23,.7,3.09,3.1,4.12,5.13h.72Z"/><path class="h" d="M3.76,41.15c-2.69,.99-3.47,6.45,.33,5.72,.06-1.65,.03-3.33,.03-4.98l-.35-.74h0Z"/><path class="h" d="M6.31,27.3c-.61,2.4,1.92,5.07,4.26,4.6,.38-1.89-.13-3.73-1.04-5.29-.47-.08-.92-.07-1.39-.04l-1.83,.73h0Z"/><path class="h" d="M134.33,68.88c1.7,2.92-1.38,8.01-4.52,8.4-4.59,.58-3.26-4.86-3.95-7.94-.54-2.42-.54-5.58-1.53-8.04-.79-1.98-3.98-3.46-3.38-5.88,3.9-1.09,5.36,6.12,8.07,7.83,1.7,1.07,4.27-.34,5.86,.76,1.86,1.28,1.76,4.69,1.64,6.69l-2.19-1.82Z"/><path class="h" d="M58.46,86.38s37.21,12.4,58.36-20.79c0,0-10.95,13.51-27.35,14.23-6.94,.31-16.52-2.16-24.76-4.65-11.32-3.4-20.11-6.81-16.09-3.01,6.92,6.57,18.24,11.31,10.58,9.12-7.66-2.19-14.95-.37-.74,5.1h0Z"/><path class="d" d="M5.59,10.39c-.18,.1-.37,.21-.55,.32C1.25,13.04,.01,17.13,.43,21.31c.76,.04,1.52,.09,2.28,.14-.67-2.1-.96-4.25-.12-6.67,.47-1.33,1.55-2.9,2.99-4.39h0Z"/><path class="f" d="M21.66,20.59c-1.65,0-3.06-2.97-4.49-4.31-1.99-1.88-8.9-3.45-6.23-7.33,.77-1.11,1.9-1.51,3.16-1.51,2.26,0,4.91,1.29,6.43,1.99v.73c2.56,1.32,4.95,5.83,3.28,8.64-.77,1.3-1.49,1.8-2.16,1.8h0ZM15.83,5.08c-3.52,0-7.52,2.5-10.24,5.31-1.44,1.48-2.53,3.05-2.99,4.39-.84,2.42-.55,4.58,.12,6.67h.02c-.6-1.89-.89-3.82-.32-5.96,1.32,3.08,4.58,4.85,7.89,6.6,5.61,.58,11.2,1.41,16.7,2.54-.02-.98-.03-1.83-.06-2.47-.16-3.4-.42-7.25-1.84-10.47-.28-.63-.6-1.24-.98-1.82-1.38-2.1-3.46-3.77-6.65-4.58-.53-.14-1.09-.2-1.65-.2h0ZM75.52,0c-.23,0-.47,0-.7,0-.59,0-1.17,.03-1.76,.05-10.14,.49-19.4,3.96-26.91,9.48-1.56,1.15-3.05,2.38-4.45,3.7-1.42,1.34-2.76,2.76-4,4.25-.56,.67-1.1,1.35-1.61,2.05-.32,.43-.64,.87-.94,1.31-1.09,1.58-2.08,3.23-2.97,4.93,.32,.08,.64,.16,.96,.24,.27,0,1.67,.08,3.58,.08C50.67,2.82,79.98,2.49,79.98,2.49c18.23,2.19,20.07,11.32,20.07,11.32-7.31-4.75-16.05-5.12-16.05-5.12-1.53-.09-3.02-.14-4.47-.14-22.83,0-35.81,10.82-41.67,17.53,3.83-.06,9.02-.47,11.91-2.16,0-.01,0-.02-.01-.03,.77-.45,1.4-.99,1.77-1.64,.03-.04,.05-.09,.07-.14h0c.35-.69,.86-1.05,1.48-1.09,.04,0,.08,0,.12,0h0c.76,0,1.66,.45,2.6,1.32,.08,.07,.16,.15,.24,.23,.12,.11,.23,.24,.35,.37,3.4,3.72,6.96,12.67,5.63,25.17-.06,.57-.13,1.15-.21,1.74h0c-.59,4.25-.85,8.52-.85,12.66,0,2.23,.07,4.42,.2,6.56,3.92,1.08,7.97,1.66,12.07,1.66,5.52,0,11.12-1.05,16.58-3.29,3.45-1.48,6.91-3.63,9.85-6.27,1.9-8.14,3.38-16.61,4.42-25.39-4.11-4.29-10.17-7.47-6.99-10.65,2.3-1.97,4.46-2.83,6.45-2.83,.6,0,1.18,.08,1.75,.23,.26-3.99,.43-8.05,.5-12.15-.95-.74-1.92-1.44-2.92-2.11-5.01-3.35-10.71-5.8-16.84-7.12-3.4-.73-6.93-1.12-10.55-1.12h0Z"/><path class="g" d="M79.98,2.49s-29.32,.33-43.28,23.6h.07c.35,0,.71,0,1.09-.01,5.86-6.71,18.84-17.53,41.67-17.53,1.45,0,2.94,.04,4.47,.14,0,0,8.74,.37,16.05,5.12,0,0-1.84-9.13-20.07-11.32h0Z"/><path class="g" d="M14.1,7.44c-1.26,0-2.4,.4-3.16,1.51-2.67,3.88,4.24,5.46,6.23,7.33,1.43,1.34,2.84,4.31,4.49,4.31,.67,0,1.39-.49,2.16-1.8,1.66-2.81-.72-7.32-3.28-8.64v-.73c-1.53-.7-4.17-1.99-6.43-1.99h0Z"/></g></g></g></svg>