<?xml version="1.0" encoding="UTF-8"?><svg xmlns="http://www.w3.org/2000/svg" viewBox="0 0 131.84 212.84"><defs><style>.d{fill:#c69651;}.e{fill:#62ac1e;}.f{fill:#b8d059;}.g{fill:#fff;}.h{fill:#7f7f6b;}.i{fill:#85f6f9;}.j{fill:#c6a2c6;}.k{fill:#767d39;}.l{fill:#640573;}.m{fill:#ffeb43;}.n{fill:#fdc281;}.o{fill:#b730ae;}.p{fill:#df989a;}.q{fill:#7fc31c;}.r{fill:#c35c71;}.s{fill:#69685a;}.t{fill:#590b3d;}.u{fill:#b3e5b3;}.v{fill:#5d8cb5;}.w{fill:#fb8d76;}.x{fill:#fff6bf;}.y{fill:#646f3a;}.a`{fill:#57dbe5;}.aa{fill:#25a5a5;}.ab{fill:#610179;}.ac{fill:#545342;}.ad{fill:#e78356;}.ae{fill:#a40435;}.af{fill:#b88382;}.ag{fill:#c90016;}.ah{fill:#ffed6a;}.ai{fill:#992293;}</style></defs><g id="a"/><g id="b"><g id="c"><g><path class="h" d="M72.56,118.64l12.58,93.45s2,2,6.4-.5l-8.98-94.35s-6.75-.08-10,1.4h0Z"/><polygon class="s" points="73.41 124.95 77.16 152.86 77.17 152.86 73.41 124.95 73.41 124.95"/><path class="ac" d="M73.91,124.05c.16,.35,.3,.63,.43,.84-.29,.02-.6,.04-.93,.06l3.76,27.91c.13-.04,.26-.07,.38-.09,.57-.09,.97,.02,1,.35,9.97,18.99,8.1,39.69,9.67,59.65,.08,0,.15-.02,.23-.03,.85-.14,1.88-.48,3.1-1.17l-8.31-87.28c-.81,.23-1.59,.4-2.36,.53-2.29,.37-4.41,.32-6.54,.07-.15-.27-.29-.56-.43-.84h0Z"/><path class="g" d="M24.14,39.12s-16.74,1.85-21.35,4.91c0,0,2.03-6.08,4.39-10.4,0,0,9.3-2.89,18.94,.84l-1.97,4.66h0Z"/><path class="m" d="M.1,55.56s8.75-5.17,23.37-6.69l.66-9.75s-14.8,1.34-21.35,4.91c0,0-2.65,7.4-2.69,11.53H.1Z"/><path class="a`" d="M.08,62.22s14.16-7.23,23.12-9.91l.27-3.44s-13.96,.75-23.37,6.69c0,0-.21,4.16-.02,6.65H.08Z"/><path class="ab" d="M7.17,33.63s12.98-1.74,18.8,1.39l2.72-6.51s-8.86-5.22-15.1-4.56c0,0-5.05,6.51-6.42,9.67h0Z"/><path class="ag" d="M23.2,52.31l.73,9.29s-15.44,6.97-21.33,14.44c0,0-1.95-6.5-2.53-13.82,0,0,9.24-5.94,23.12-9.91h0Z"/><path class="m" d="M25.99,74.01s-12.12,3.48-18.08,14.55c0,0-4.34-7.21-5.34-13.06,0,0,6.71-8.26,21.36-13.9,0,0,.32,8.6,2.06,12.41h0Z"/><path class="e" d="M25.99,74.01s-11.48,2.53-18.08,14.55c0,0,2.11,3.96,4.73,7.53,0,0,7.51-11.91,15.27-18.27l-1.91-3.8h0Z"/><path class="w" d="M36.96,16.95l-5.46,7.53s-11.02-5.71-14.09-5.12l7.96-6.69s6.41,0,11.6,4.28h0Z"/><path class="ag" d="M13.59,23.95s8.74,.74,15.1,4.56c1.3-1.13,2.8-4.03,2.8-4.03,0,0-8.75-5.55-14.09-5.12,0,0-3.38,3.65-3.81,4.59h0Z"/><path class="g" d="M26.42,78.75s-10.88,11.2-13.78,17.34c.89,1.34,4.66,5.37,5.62,6.51,1.34-2.87,7.26-15.47,11.74-20.14,0,0-.68-4.28-3.58-3.7h0Z"/><path class="a`" d="M33.3,86.86s-9.21,15.1-10.56,19.88c-4.27-3.64-4.48-4.15-4.48-4.15,0,0,2.32-10.05,11.74-20.14,2.74,1.86,3.3,4.41,3.3,4.41h0Z"/><path class="a`" d="M24.55,13.43s7.14,.47,12.4,3.52c1.44-1.5,3.37-3.39,3.37-3.39,0,0-5.89-4.38-10.19-4.04,0,0-4.94,3.16-5.59,3.91h0Z"/><path class="m" d="M40.33,13.57l4.4-3.46s-2.84-3.07-6.59-4.51c0,0-4.37,1.73-8,3.92,2.65,.65,7.32,2.72,10.19,4.04h0Z"/><path class="ab" d="M50.69,5.8l1.53-1.11s-.24-1.76-3.35-2.4c0,0-.97,.29-2.32,.69,1.49,.8,2.88,1.74,4.13,2.82h0Z"/><path class="q" d="M46.55,2.98c-2.69,.82-6.96,2.11-8.41,2.62,0,0,3.96,1.44,6.59,4.51l5.96-4.3c-1.25-1.09-2.64-2.02-4.13-2.82h0Z"/><path class="ab" d="M27.36,110.22s7.6-11.26,12.7-16.79l-7.92-5.31s-7.97,14.26-9.4,18.61c0,0,3.79,2.96,4.63,3.49h0Z"/><path class="m" d="M40.06,93.43s-8.5,7.38-12.7,16.79l6.65,4.22s5.6-11.69,11.59-18.29l-5.55-2.72h0Z"/><path class="e" d="M34.01,114.45s6.18,3.27,7.39,3.57c0,0,3.51-10.56,7.98-19l-3.78-2.87s-6.93,7.26-11.59,18.3h0Z"/><path class="o" d="M49.38,99.02s-5.71,10.13-7.98,19c0,0,5.52,2.33,7.12,2.59l5.17-19.56-4.32-2.03h0Z"/><path class="ag" d="M53.7,101.05s-4.8,14.2-5.17,19.56c2.84,.96,9.09,2.64,9.09,2.64,0,0-.65-10.81,.72-20.99l-4.63-1.21h0Z"/><path class="a`" d="M57.88,101.51s-1.28,16.29-.26,21.74c1.85,.84,6.45,1.66,9,1.46-1.99-5.17-4.28-16.65-4.92-22.32l-3.82-.88h0Z"/><path class="m" d="M61.09,102.23s2.85,16.17,4.72,22.15c1.44,.87,5.78,.72,8.53,.51-1.59-2.64-6.15-17.89-6.71-22.38l-6.54-.28h0Z"/><path class="ab" d="M67.63,102.51s2.05,13.47,6.71,22.38c2.99,.35,5.95,.32,9.42-.75-4.03-6-10.22-21.9-10.22-21.9l-5.9,.26h0Z"/><path class="g" d="M73.53,102.25s4.27,14.07,10.22,21.9c3.7-.68,9.37-3.9,9.37-3.9,0,0-8.1-10.02-12.77-19.13l-6.83,1.13h0Z"/><path class="o" d="M80.36,101.12s6.37,13.13,12.77,19.13c3.26-1.24,9.26-5.27,9.26-5.27,0,0-11.37-11.54-14.72-16.42l-7.3,2.56h0Z"/><path class="w" d="M87.66,98.56s7.78,11.04,14.72,16.42c2.28-1.16,8.01-6.16,8.01-6.16l-17.84-13.4-4.89,3.14h0Z"/><path class="ag" d="M92.55,95.42s13.29,10.8,17.84,13.4c2.77-2.39,9.48-10.03,11.89-14.57,0,0-15.26-3.14-22.17-5.56l-7.56,6.73h0Z"/><path class="a`" d="M100.11,88.69s8.97,3.44,22.17,5.56c0,0,3.34-5.2,4.63-8.85,0,0-19.18-.27-23.67-2.09,0,0-2.05,4.11-3.13,5.38h0Z"/><path class="m" d="M103.24,83.31s7.35,2.98,23.67,2.09c0,0,3.67-8.58,3.63-11.55l-23.64,3.25-3.66,6.21h0Z"/><path class="w" d="M106.91,77.1s15.7-1.24,23.64-3.25c0,0,1.05-4.23,1.19-9.96,0,0-14.09,4.07-23.97,6.63l-.86,6.58h0Z"/><path class="ab" d="M107.77,70.51s18.85-3.85,23.97-6.63c0,0,.59-4.99-.99-10,0,0-14.67,9.26-21.96,12l-1.02,4.62h0Z"/><path class="a`" d="M108.78,65.89s18.14-7.95,21.96-12c0,0-.7-6.46-2.48-11.46,0,0-8.73,11.94-19.25,18.9l-.24,4.56h0Z"/><path class="g" d="M109.02,61.33s11.85-7.46,19.25-18.9c0,0-2.71-9.26-4.51-12.09,0,0-7.22,13.61-17.22,22.1l2.48,8.9h0Z"/><path class="w" d="M106.54,52.44s10.68-7.36,17.22-22.1c0,0-4.82-8.51-6.77-10.71,0,0-3.8,16.89-13.2,27.89l2.75,4.92h0Z"/><path class="ab" d="M103.78,47.52s10.01-10.86,13.2-27.89c0,0-4.56-5.17-6.23-6.42,0,0-4.48,20.89-11.01,30.69l4.04,3.63h0Z"/><path class="a`" d="M99.74,43.89s9.6-15.96,11.01-30.69c0,0-4.22-3.42-9-6.4,0,0-3.26,26.33-6.35,34.67l4.34,2.42h0Z"/><path class="ag" d="M90.51,39.49l4.9,1.98s5.59-14.27,6.35-34.67c0,0-6.55-2.84-11-4.26,0,0,.99,22.63-.25,36.95h0Z"/><path class="e" d="M90.7,36.91s1.94-25.43,.06-34.37c0,0-7.45-1.78-10.82-1.92,0,0,5.65,29.18,5.59,35.9,0,0,3.67,1.49,5.17,.39h0Z"/><path class="w" d="M85.54,36.52s-2.03-25.71-5.59-35.9c0,0-8.39-1.12-12.87-.36,0,0,10.02,21.92,12.69,35.73l5.77,.53h0Z"/><path class="m" d="M74.22,35.83S63.65,14.55,54.52,3.82c0,0,5.13-2.58,7.06-3.13,0,0,3.92-.31,5.49-.43,0,0,8.06,17.13,12.69,35.73l-5.55-.15h0Z"/><path class="g" d="M44.73,10.11s16.32,11.36,23.79,25.98l5.7-.26S64.11,15.3,54.52,3.82c0,0-7.81,3.94-9.79,6.29h0Z"/><path class="a`" d="M64.7,37.77s-15.41-15.17-29.88-18.19c0,0,5.54-7.18,9.9-9.48,0,0,18.61,12.97,23.79,25.98l-3.82,1.68h0Z"/><path class="o" d="M62.44,39.13s-22.39-8.49-34.1-6.78c0,0,.99-6.74,6.49-12.76,0,0,14.34,1.44,29.88,18.19l-2.27,1.36h0Z"/><path class="e" d="M58.6,42.99s-14.91-1.19-33.7,.88c0,0-.6-5.09,3.54-12.72,0,0,17.83,.77,34.6,8.13l-4.44,3.71h0Z"/><path class="m" d="M55.52,46.6s-21.76,2.1-31.74,8.22c0,0-.72-6.65,.87-11.52,0,0,24.12-2.09,33.95-.3l-3.08,3.61h0Z"/><path class="ab" d="M23.35,54.26s13.67-6.8,32.76-7.72l-2.99,4.59s-22.89,5.36-28.42,12.91c0,0-1.71-6.78-1.35-9.77h0Z"/><path class="ag" d="M28.16,72.85s5.33-7.54,23.9-17.5l1.37-5.23s-23.68,5.22-28.73,13.92c0,0,1.32,6.61,3.46,8.81h0Z"/><path class="g" d="M52.08,60.49s-12.04,5.09-21.22,18.85c0,0-2.68-3.94-3.32-7.05,0,0,11.29-12.15,24.53-16.95,0,0-.69,3.81,.02,5.14h0Z"/><path class="o" d="M38.1,88.64s2.08-11.22,15.26-24.3l-1.29-3.85s-12.18,3.33-21.22,18.86c0,0,3.24,6.06,7.25,9.3h0Z"/><path class="m" d="M53.32,63.75s-12.92,11.48-15.22,24.89c1.02,2.89,11.38,8.98,11.38,8.98,0,0,2.53-15.41,8.51-27.33,0,0-3.42-3.29-4.66-6.55h0Z"/><path class="ab" d="M57.72,69.52s-7.88,17.81-8.25,28.1c1.9,1.62,6.58,3.23,7.36,3.17-.6-5.09,4.63-29,4.63-29l-3.73-2.27h0Z"/><path class="w" d="M61.46,71.79s-4.94,19.94-5.19,29.44c2.06,1.02,11.36,1.28,11.36,1.28,0,0-3.31-11.98-2.52-29.42l-3.65-1.3h0Z"/><path class="e" d="M64.51,72.94s-.04,22.11,3.12,29.57c3.21,.54,11.7-1.91,11.7-1.91-2.24-3.38-7.38-20.95-8.27-27.2,0,0-4.21,1.72-6.55-.46h0Z"/><path class="a`" d="M70.26,73.28s5.07,24.28,9.11,27.91c4.46-1.14,11.6-5.65,11.6-5.65,0,0-8.85-9.57-16.81-22.77l-3.91,.51h0Z"/><path class="ag" d="M73.38,72.63s13.51,21.05,18.19,22.86c5.47-3.21,12.35-11.25,12.72-16.41-8.44-1.89-25.62-6.87-27.32-8.31-1.69-1.44-3.6,1.86-3.6,1.86h0Z"/><path class="g" d="M75.76,70.47s21.22,8.6,29.17,9.15c1.47-3.86,3.66-13.72,2.66-16.4-2.66,1.4-28.37,3.42-28.37,3.42l-3.46,3.83h0Z"/><path class="m" d="M78.48,67.3s21.76,.45,29.54-3.52c.46-4.18-1.87-8.74-1.87-8.74,0,0-23.22,8.55-27.13,9.05l-.54,3.21h0Z"/><path class="a`" d="M79.02,64.09s25.55-6.55,27.28-9.65c-1.22-5.44-6.71-9.93-6.71-9.93,0,0-7.59,8.89-20.82,16.45l.25,3.14h0Z"/><path class="w" d="M92.25,39.16s-8.95,14.14-14.54,20.89c1.06,.9,1.11,1.5,1.11,1.5,0,0,18.64-11.55,21.53-17.51,0,0-5.05-3.94-8.09-4.88h0Z"/><path class="o" d="M77.71,60.05s10.69-12.3,14.54-20.89c-.95-2.1-8.49-2.49-8.49-2.49l-8.1,22.36,2.05,1.02h0Z"/><path class="ab" d="M75.66,59.02s7.42-15.98,8.65-23c-4.39-.64-9.2-1.44-12,.56,1.18,2.47,2.34,22.13,2.34,22.13l1.01,.31h0Z"/><path class="m" d="M74.69,59.3s-.18-17.36-1.83-23.16c-3.14,.25-6.95,1.93-6.95,1.93l8.78,21.23h0Z"/><path class="w" d="M59.95,42.69l14.74,16.61s-6.75-18.03-8.78-21.23c-2.19-.22-5.96,4.62-5.96,4.62h0Z"/><path class="e" d="M74.69,59.3s-8.5-5.06-21.38-5.62c0,0,2.02-7.07,6.64-10.99,0,0,10.21,9.27,14.74,16.61h0Z"/><path class="ag" d="M74.69,59.3s-11.16-1.29-20.39,4.37c0,0-2.56-4.93-.99-9.99,0,0,11.43-.31,21.38,5.62h0Z"/><path class="w" d="M58.5,69.26s8.83-8.2,16.19-9.97c-2.65-.98-15.22-.18-20.39,4.37,0,0,2.35,4.75,4.2,5.6h0Z"/><path class="o" d="M74.69,59.3s-7.19,6.49-6.87,12.99c0,0-4.34,.14-9.33-3.02,0,0,7.85-8.12,16.2-9.97h0Z"/><path class="a`" d="M67.02,72.15s6.72,2.63,10.24-5.35c.42-4.77,.11-6.13-2.57-7.5,0,0-7.84,5.76-7.67,12.85h0Z"/><path class="x" d="M25.97,99.65c-1.09,2.06-2.06,4.02-2.68,5.53,.01,0,.02,.02,.03,.03,.64-1.51,1.6-3.49,2.65-5.56h0Zm-16.64-13.44c-.2,.29-.39,.58-.57,.88h0c.19-.3,.38-.59,.57-.88h0Zm-.53-44.43c-1.52,.39-2.92,.82-4.08,1.28l-.03,.08c1.24-.5,2.64-.96,4.1-1.35h0Z"/><path class="x" d="M9.01,33.43c-1.43,2.59-2.97,5.84-4.28,9.63,1.16-.46,2.56-.89,4.08-1.28,.71-.2,1.43-.38,2.16-.55,.67-2.73,1.53-5.44,2.59-8.07-1.8,.04-3.41,.16-4.56,.27h0Z"/><path class="ah" d="M10.97,41.23c-.73,.17-1.46,.35-2.16,.55-1.46,.4-2.86,.85-4.1,1.35-1.15,3.37-2.11,7.16-2.62,11.29,2.29-1.21,4.77-2.17,7.18-2.91,.29-3.36,.85-6.83,1.71-10.27h0Z"/><path class="u" d="M9.26,51.5c-2.42,.75-4.89,1.7-7.18,2.91-.27,2.19-.41,4.47-.39,6.84,1.5-.86,4.01-2.22,7.32-3.72-.01-1.95,.07-3.96,.25-6.03h0Z"/><path class="af" d="M15.21,24.15c-.9,1.08-1.57,1.99-1.75,2.46,0,0-2.06,2.48-4.45,6.82,1.15-.11,2.75-.22,4.56-.27,1.2-2.99,2.66-5.87,4.4-8.53-1.08-.22-2.02-.38-2.75-.48h0Z"/><path class="ad" d="M9.01,57.53c-3.31,1.51-5.82,2.86-7.32,3.72,.01,1.43,.09,2.89,.23,4.37,.29,2.99,.85,5.92,1.65,8.78,1.17-1.21,3.4-3.3,6.75-5.64-.83-3.18-1.28-7.04-1.31-11.23h0Z"/><path class="ah" d="M10.32,68.76c-3.35,2.34-5.58,4.43-6.75,5.64,1.24,4.47,3.03,8.73,5.19,12.69,.19-.3,.38-.59,.57-.88,1.8-2.7,3.84-4.82,5.86-6.5-2.1-3.54-3.77-7.07-4.67-10.22-.07-.24-.14-.49-.2-.73h0Z"/><path class="f" d="M15.19,79.71c-2.02,1.67-4.06,3.8-5.86,6.5-.19,.29-.38,.58-.57,.89,1.43,2.62,3.02,5.11,4.71,7.42,1.48-2.49,3.81-5.48,6.09-8.18-1.57-2.15-3.06-4.39-4.38-6.62h0Z"/><path class="n" d="M22.23,17.3c-.41,.07-1.46,.95-2.69,2.16,.55,.08,1.12,.2,1.7,.35,1.19-1.88,1.38-2.57,.99-2.51h0Z"/><path class="ad" d="M19.53,19.46c-1.42,1.39-3.09,3.2-4.32,4.69,.73,.1,1.67,.26,2.75,.48,.31-.48,.63-.95,.96-1.42,1.01-1.42,1.76-2.54,2.31-3.4-.58-.15-1.14-.27-1.7-.35h0Z"/><path class="x" d="M19.57,86.33c-2.28,2.7-4.62,5.69-6.09,8.18,1.68,2.29,3.46,4.42,5.29,6.35,.66-1.99,2.04-5.53,4.59-9.69-1.28-1.54-2.56-3.16-3.78-4.84h0Z"/><path class="u" d="M23.35,91.18c-2.55,4.16-3.93,7.71-4.59,9.69,1.49,1.57,3.01,3.02,4.53,4.31,.62-1.52,1.59-3.47,2.68-5.53,.6-1.18,1.22-2.39,1.84-3.55-1.46-1.47-2.97-3.13-4.46-4.92h0Z"/><path class="af" d="M27.81,96.1c-.62,1.17-1.24,2.38-1.84,3.55-1.05,2.07-2.01,4.05-2.65,5.56,1.59,1.35,3.17,2.54,4.73,3.55,1.48-2.96,3.35-5.68,5.16-7.98-1.6-1.1-3.46-2.72-5.4-4.69h0Z"/><path class="ah" d="M33.22,100.79c-1.81,2.3-3.67,5.02-5.16,7.98,2.14,1.39,4.22,2.44,6.15,3.1,0,0,.3,.16,.8,.34,1.25-2.65,2.6-5.05,3.91-7.14-1.19-1.23-2.77-2.48-4.75-3.66-.31-.18-.63-.39-.96-.62h0Z"/><path class="f" d="M38.92,105.07c-1.31,2.09-2.66,4.48-3.91,7.14,.87,.31,2.32,.69,3.83,.44,.5-.08,1.01-.23,1.5-.47,2.05-1.02,1.6-3.98-1.43-7.11h0Z"/><path class="x" d="M57.12,7.1h-.02c.32,.44,.64,.87,.96,1.31h.02c-.32-.45-.64-.89-.96-1.31h0Z"/><path class="ah" d="M60.56,5.91c-.68,.11-1.99,.58-3.44,1.18,.32,.43,.64,.86,.96,1.3,3.15-2.05,3.48-2.65,2.48-2.49h0Z"/><path class="x" d="M57.1,7.1c-2.68,1.12-5.84,2.7-6.5,3.36,0,0-1.16,.6-2.96,1.82,.73,.56,1.56,1.23,2.47,1.97,1.91-1.76,3.96-3.36,6.15-4.72,.68-.42,1.27-.79,1.79-1.13-.32-.44-.64-.88-.96-1.31h0Z"/><path class="u" d="M47.65,12.28c-2.36,1.6-5.84,4.27-9.28,8.07,1.33,.38,2.99,.94,4.91,1.76,1.99-2.81,4.28-5.48,6.84-7.86-.91-.75-1.74-1.41-2.47-1.97h0Z"/><path class="p" d="M38.37,20.35c-2.68,2.97-5.35,6.62-7.44,10.98,1.61,.14,3.91,.4,6.7,.82,1.45-3.35,3.35-6.79,5.65-10.05-1.92-.82-3.58-1.38-4.91-1.76h0Z"/><path class="f" d="M30.93,31.34c-.97,2.03-1.83,4.22-2.5,6.56-.49,1.71-.86,3.45-1.13,5.19,1.78-.13,4.33-.3,7.26-.45,.42-3.14,1.47-6.75,3.07-10.47-2.79-.43-5.1-.68-6.7-.82h0Z"/><path class="ah" d="M27.3,43.08c-.49,3.22-.61,6.47-.44,9.67,1.9-.75,4.52-1.69,7.72-2.61-.26-2.28-.33-4.43-.16-6.33,.03-.39,.08-.78,.13-1.18-2.93,.15-5.48,.33-7.26,.45h0Z"/><path class="af" d="M34.58,50.14c-3.2,.92-5.82,1.86-7.72,2.61,.14,2.64,.49,5.25,1,7.79,2.1-1.7,4.82-3.22,7.7-4.53-.44-1.99-.78-3.97-.99-5.86h0Z"/><path class="ad" d="M35.57,56c-2.88,1.32-5.6,2.83-7.7,4.53,.63,3.11,1.51,6.11,2.57,8.91,1.76-1.63,4.22-3.79,7.18-5.99-.79-2.42-1.49-4.95-2.04-7.46h0Z"/><path class="x" d="M37.61,63.46c-2.95,2.2-5.42,4.36-7.18,5.99,.83,2.2,1.77,4.28,2.79,6.19,2.03-2.9,4.15-5.28,6.2-7.21-.64-1.56-1.25-3.24-1.81-4.96h0Z"/><path class="p" d="M39.42,68.43c-2.05,1.93-4.17,4.31-6.2,7.21,1.83,3.44,3.91,6.35,6.05,8.49,1-2.92,2.42-5.69,3.97-8.18-1.26-1.87-2.58-4.5-3.81-7.52h0Z"/><path class="ah" d="M43.24,75.95c-1.55,2.49-2.96,5.26-3.97,8.18,.5,.5,.99,.96,1.49,1.37,0,0,2.22,2.45,5.07,2.26,.08,0,.15-.01,.22-.02,2.61-.43,2.48-5.12-1.97-10.63-.28-.34-.56-.73-.85-1.16h0Z"/><path class="ad" d="M92.3,76.51c-1,1.47-2.08,2.72-3.13,3.57-3.83,3.08-2.66,8.01,1.46,7.33,.28-.05,.57-.12,.88-.22,4.18-1.89,7.07-4.89,9-8.33-2.47-.58-5.33-1.42-8.21-2.36h0Z"/><path class="x" d="M104.01,65.2c-1.23,.32-2.57,.58-3.97,.81-1.12,.18-2.29,.34-3.47,.48-.6,3.3-2.28,7.1-4.27,10.02,2.88,.93,5.74,1.78,8.21,2.36,2.43-4.31,3.37-9.31,3.5-13.67h0Z"/><path class="ah" d="M103.11,56.49c-1.91,.86-4.49,1.8-7.25,2.71,.35,1.17,.6,2.29,.8,3.3,.23,1.15,.17,2.52-.09,3.99,1.18-.14,2.34-.3,3.47-.48,1.4-.23,2.75-.5,3.97-.81,.11-3.57-.32-6.71-.9-8.71h0Z"/><path class="u" d="M97.43,47.73c-1.39,1.38-3.11,2.85-4.94,4.29,1.67,2.37,2.7,4.89,3.38,7.18,2.76-.91,5.33-1.85,7.25-2.71v-.03c-1.21-3.65-3.29-6.51-5.68-8.74h0Z"/><path class="n" d="M90.26,42.97c-.8,1.37-1.7,2.78-2.63,4.16,2.04,1.45,3.63,3.13,4.86,4.89,1.83-1.44,3.55-2.91,4.94-4.29-2.27-2.11-4.82-3.65-7.17-4.75h0Z"/><path class="p" d="M83.13,40.51c-.38,1.2-.83,2.47-1.3,3.76,1.03,.31,2.04,.7,3.02,1.2,1.01,.51,1.93,1.07,2.78,1.67,.93-1.39,1.83-2.79,2.63-4.16-3.07-1.45-5.8-2.17-7.13-2.46h0Z"/><path class="af" d="M73.65,40.46c.12,.96,.23,1.98,.32,3.04,2.62-.19,5.3,0,7.87,.77,.47-1.29,.92-2.56,1.3-3.76-.54-.12-.85-.17-.85-.17-3.19-.32-6.07-.24-8.63,.12h0Z"/><path class="ah" d="M72.89,40.57c-1.89,.31-3.6,.76-5.12,1.3,.34,.77,.7,1.62,1.07,2.5,.91-.24,1.83-.44,2.78-.59,.78-.13,1.56-.22,2.36-.28-.09-1.06-.2-2.08-.32-3.04-.26,.04-.51,.08-.76,.12h0Z"/><path class="n" d="M67.76,41.87c-2.32,.82-4.21,1.83-5.67,2.83,.47,.45,1,.98,1.58,1.55,1.57-.73,3.32-1.38,5.16-1.87-.37-.89-.73-1.73-1.07-2.5h0Z"/><path class="f" d="M62.09,44.7c-.4,.27-.77,.55-1.11,.82-2.36,1.89-3.1,3.5-2.13,3.34,.29-.05,.74-.26,1.34-.66,1.01-.68,2.19-1.35,3.48-1.95-.58-.57-1.11-1.09-1.58-1.55h0Z"/><path class="ad" d="M117.03,93.3c-2.37,5.94-4.72,9.83-4.72,9.83,3.06-3,5.62-6.11,7.75-9.25-1.04-.19-2.05-.38-3.03-.58h0Z"/><path class="u" d="M119.67,85.55c-.79,2.82-1.72,5.44-2.64,7.75,.98,.2,1.99,.39,3.03,.58,1.89-2.79,3.44-5.6,4.72-8.38-1.83,.07-3.53,.08-5.11,.06h0Z"/><path class="ah" d="M128.59,74.3c-1.22,.26-2.55,.5-3.94,.73-.98,.16-1.98,.31-2.99,.45-.37,3.51-1.09,6.92-1.98,10.08,1.58,.02,3.28,0,5.11-.06,1.75-3.83,2.97-7.61,3.81-11.2h0Z"/><path class="n" d="M130.05,64.65c-2.06,.83-4.99,1.7-8.05,2.52-.01,1.69-.05,3.29-.1,4.77-.04,1.19-.12,2.37-.24,3.54,1.01-.14,2.01-.29,2.99-.45,1.39-.23,2.72-.47,3.94-.73,.8-3.43,1.24-6.68,1.46-9.64h0Z"/><path class="af" d="M129.99,54.59c-1.75,1.47-4.86,3.29-8.18,5.04,.16,2.67,.21,5.2,.19,7.55,3.06-.82,5.98-1.69,8.05-2.52,.29-3.97,.17-7.42-.06-10.06h0Z"/><path class="u" d="M127.71,43.27c-2.07,3.06-4.44,5.82-6.78,8.21,.45,2.82,.72,5.55,.88,8.15,3.31-1.75,6.43-3.57,8.18-5.04-.31-3.53-.81-5.63-.81-5.63-.43-1.98-.92-3.88-1.46-5.69h0Z"/><path class="x" d="M123.11,31.75c-1.51,3.17-3.2,5.97-4.91,8.41,1.28,3.87,2.15,7.67,2.73,11.32,2.34-2.39,4.71-5.15,6.78-8.21-1.28-4.28-2.84-8.1-4.61-11.51h0Z"/><path class="n" d="M116.55,21.74c-.69,3.05-1.59,5.89-2.59,8.47,1.77,3.33,3.16,6.67,4.24,9.95,1.71-2.44,3.4-5.24,4.91-8.41-1.99-3.84-4.22-7.16-6.56-10.02h0Z"/><path class="af" d="M110.48,15.45c-.34,2.3-.86,4.61-1.48,6.86,1.92,2.61,3.56,5.25,4.96,7.9,1-2.59,1.9-5.42,2.59-8.47-1.97-2.41-4.02-4.49-6.07-6.29h0Z"/><path class="u" d="M101.65,9.18c-.08,1.5-.19,2.95-.32,4.38,2.95,2.86,5.49,5.79,7.67,8.76,.63-2.26,1.14-4.56,1.48-6.86-3.04-2.67-6.07-4.71-8.83-6.27h0Z"/><path class="ad" d="M91.12,4.79c.02,.16,.04,.32,.06,.48,3.84,2.66,7.2,5.43,10.15,8.28,.13-1.42,.24-2.88,.32-4.38-4.79-2.7-8.76-3.92-10.53-4.39h0Z"/><path class="f" d="M90.12,4.56c.35,.24,.7,.48,1.05,.71-.02-.16-.04-.32-.06-.48-.64-.17-.99-.23-.99-.23h0Z"/><path class="j" d="M67.63,102.51c.06,.49,.17,1.1,.31,1.82-.21-1.15-.31-1.82-.31-1.82h0Zm20.03-3.95c.19,.28,.41,.58,.65,.89-.39-.54-.62-.86-.65-.89h0Zm-27.62,3.45l1.05,.24v-.02l3.92,.16c-1.46-.08-3.31-.2-4.96-.39h0Zm35.58-9.33c-3.15,2.58-6.49,4.47-9.88,5.84-2.11,1.09-4.48,2.19-6.37,2.67-.15-.13-.29-.29-.44-.47-1.06,.29-4.05,1.09-6.84,1.54-.17,.03-.34,.05-.51,.08l1.95-.09h0l6.83-1.13h0l7.3-2.56h0l4.89-3.14h0l3.08-2.73h0Zm-48.36,4.73l2.12,1.61h0l4.32,2.03h0l4.14,1.08c.01-.18,.03-.33,.03-.43-.69-.13-1.24-.28-1.59-.46,0-.16,.01-.34,.02-.51-.8-.17-2.21-.64-3.6-1.26-1.91-.56-3.71-1.26-5.42-2.06h0Zm53.87-10.22c-1,1.21-2.04,2.32-3.1,3.35l2.08-1.85h0c.29-.34,.65-.89,1.02-1.5h0Zm2.3-3.82h0c.1,.04,.21,.08,.32,.11-.13-.04-.24-.08-.32-.11h0Zm-73.43-.93c-.12,.13-.25,.26-.37,.4,.12-.13,.25-.27,.37-.4h0Zm-5.76-16.7c.28,2.74,.81,6.2,1.75,8.26h0l1.91,3.8c-.35,.29-.69,.58-1.03,.88,2.52-.08,3.13,3.76,3.13,3.76h0c2.74,1.86,3.3,4.41,3.3,4.41,0,0-.33,.54-.88,1.46l7.64,5.12h0l1.94,.95c-9.67-6.67-15.36-17.41-17.76-28.64h0Zm77.34-20.21c1.07,1.49,1.99,2.96,2.77,4.41,.74,1.18,1.4,2.49,1.79,3.87,4.24,10.91,1.22,20.55-2,27.97l2.76-4.69h0l.86-6.58h0l1.02-4.62c1.61-.6,3.57-1.52,5.66-2.59-3.25,1.54-5.66,2.59-5.66,2.59l.24-4.56h0l-2.48-8.9h0l-2.75-4.92h0l-2.21-1.98h0Zm1.77-8.49c-1.67,3.48-3.07,5.92-3.48,6.63h.01c1.24-1.89,2.4-4.17,3.47-6.63h0Zm-12.65-.14c-.26,.19-.58,.3-.93,.36-.3,.05-.63,.06-.96,.04,.13,.05,.27,.1,.4,.16,.51,.13,.99,.28,1.42,.46,.02-.34,.05-.67,.07-1.01h0Zm-22.18-.82l-3.82,1.68h0l-2.16,1.29h.01c2.85-1.46,5.61-2.46,8.28-3.08l-2.32,.11h0Zm16.36-6.66c.35,3.42,.57,5.96,.64,6.8,0,0,.02,0,.02,0-.02-1.5-.27-3.92-.66-6.81h0Zm-58.98,5.56l-1.75,4.14h0l-.19,2.83c.49-2.47,1.15-4.8,1.96-6.97h-.02Zm50.47-10.82c1.15,3.53,2.25,7.27,3.22,11.07,.01,0,.03,0,.04,0-.71-3.39-1.82-7.23-3.1-11.08h-.16Zm-49.75,3.24c1.28,.64,2.08,1.11,2.08,1.11l-.82,1.95c.4-.81,.81-1.6,1.23-2.36-.14,.15-.28,.29-.41,.41-.67-.4-1.37-.77-2.08-1.11h0Zm11.06-11.18c-.24,.25-.49,.5-.72,.74h0l-.29,.4c.3-.35,.64-.73,1-1.13h0Zm6.23-6.99s-.03,.02-.05,.03c.31,.28,.55,.52,.7,.66h.01c-.21-.25-.43-.47-.66-.69h0Z"/><path class="j" d="M20.96,33.54c-1,2.07-1.83,4.17-2.5,6.29,3.28-.49,5.67-.71,5.67-.71h0l1.75-4.14c-1.35-.71-3.07-1.16-4.93-1.44h0Z"/><path class="d" d="M18.47,39.83c-1.04,3.29-1.71,6.62-2.05,9.95,.45-.08,.88-.16,1.29-.22,2.54-.42,4.49-.59,5.32-.65,.16-2.39,.47-4.72,.91-6.95l.19-2.83s-2.39,.22-5.67,.71h0Z"/><path class="v" d="M17.71,49.55c-.42,.07-.85,.14-1.29,.22-.16,1.61-.24,3.22-.25,4.82,2.09-.77,4.34-1.52,6.73-2.21,.01-1.18,.06-2.34,.13-3.49-.83,.06-2.78,.24-5.32,.65h0Z"/><path class="l" d="M24.96,26.68c-1.55,2.24-2.88,4.53-4,6.86,1.85,.28,3.58,.73,4.93,1.44h.02c.07-.17,.13-.34,.2-.52,.55-1.39,1.14-2.72,1.77-4l.82-1.95s-.8-.47-2.08-1.11c-.55-.26-1.1-.5-1.65-.72h0Z"/><path class="ae" d="M22.9,52.39c-2.39,.69-4.64,1.44-6.73,2.21-.02,3.4,.3,6.78,.91,10.08,1.95-1.01,4.09-2.01,6.46-2.93-.45-3.14-.66-6.29-.63-9.36h0Z"/><path class="d" d="M23.53,61.75c-2.36,.93-4.51,1.92-6.46,2.93,.73,3.98,1.88,7.85,3.36,11.53,3.2-1.69,5.56-2.21,5.56-2.21-.94-2.06-1.47-5.52-1.75-8.26-.28-1.33-.52-2.66-.71-4h0Z"/><path class="y" d="M25.99,74.01h0s-2.36,.52-5.56,2.21c.83,2.05,1.76,4.04,2.78,5.97,1.86-2.06,3.21-3.44,3.21-3.44,.03,0,.07-.02,.1-.02,.12-.02,.23-.03,.35-.03,.34-.3,.69-.6,1.03-.88l-1.91-3.8h0Z"/><path class="r" d="M34.79,15.87c-2.5,2.15-4.72,4.39-6.68,6.7,1.6,.82,2.81,1.55,3.23,1.81,.89-1.56,2.03-3.2,3.49-4.8h0s.72-.93,1.84-2.23l.29-.4h0c-.7-.4-1.43-.76-2.17-1.08h0Z"/><path class="ae" d="M28.11,22.58c-1.14,1.35-2.19,2.71-3.15,4.1,.55,.22,1.11,.46,1.65,.72,.71,.34,1.41,.7,2.08,1.11,.14-.12,.28-.26,.41-.41,.69-1.26,1.42-2.46,2.17-3.61,.02-.03,.04-.07,.06-.1-.41-.26-1.62-.98-3.23-1.81h0Z"/><path class="j" d="M26.52,78.73s-.07,.01-.1,.02c0,0-1.34,1.38-3.21,3.44,.9,1.69,1.88,3.33,2.91,4.9,1.04-1.39,2.2-2.81,3.51-4.24,.12-.14,.25-.27,.37-.4h0s-.61-3.83-3.13-3.76c-.11,0-.23,.01-.35,.03h0Z"/><path class="v" d="M30,82.45h0c-.12,.13-.25,.27-.37,.4-1.3,1.42-2.47,2.85-3.51,4.24,.58,.88,1.17,1.73,1.78,2.56,.65,.88,1.31,1.73,1.99,2.56,1.3-2.39,2.24-4.08,2.24-4.08l.28,.19c.55-.91,.88-1.46,.88-1.46,0,0-.56-2.55-3.3-4.41h0Z"/><path class="v" d="M38.64,12.8c-1.35,1-2.64,2.03-3.85,3.08,.74,.32,1.47,.68,2.17,1.08h0c.23-.24,.47-.49,.72-.74,.78-.86,1.66-1.79,2.6-2.68-.5-.23-1.05-.48-1.63-.74h0Z"/><path class="d" d="M43.85,9.26c-1.84,1.14-3.58,2.33-5.22,3.54,.58,.26,1.13,.51,1.63,.74,.88-.84,1.81-1.65,2.72-2.32,.53-.46,1.05-.89,1.56-1.3-.15-.15-.38-.38-.7-.66h0Z"/><path class="l" d="M52.22,4.69c-.61,.29-1.21,.59-1.8,.89,.04,.03,.07,.06,.11,.09,1.07-.66,1.69-.98,1.69-.98h0Z"/><path class="k" d="M50.42,5.57c-2.3,1.17-4.48,2.39-6.52,3.65,.23,.22,.45,.45,.66,.68,2.47-1.99,4.59-3.4,5.97-4.25-.04-.03-.07-.06-.11-.09h0Z"/><path class="l" d="M32.14,88.13s-.94,1.69-2.24,4.08c1.78,2.16,3.65,4.11,5.6,5.86,2.55-2.88,4.56-4.63,4.56-4.63l-7.64-5.12-.28-.19h0Z"/><path class="d" d="M40.06,93.43h0s-2.01,1.75-4.56,4.63c1.72,1.53,3.5,2.91,5.33,4.13,2.11-3.03,3.87-5.04,4.51-5.75-1.16-.63-2.28-1.32-3.34-2.05l-1.94-.95h0Z"/><path class="y" d="M45.34,96.44c-.65,.71-2.4,2.72-4.51,5.75,1.75,1.16,3.55,2.17,5.39,3.05,1.72-3.67,3.16-6.22,3.16-6.22l-2.12-1.61c-.65-.31-1.3-.63-1.92-.97h0Z"/><path class="ai" d="M49.38,99.02h0s-1.44,2.55-3.16,6.22c1.78,.84,3.6,1.55,5.46,2.13,1.08-3.55,2.01-6.32,2.01-6.32l-4.32-2.03h0Z"/><path class="ae" d="M53.7,101.05h0s-.94,2.77-2.01,6.32c1.88,.59,3.8,1.04,5.75,1.36,.14-2.97,.32-5.49,.4-6.61l-4.14-1.08h0Z"/><path class="v" d="M57.87,101.69c0,.1-.02,.25-.03,.43-.08,1.12-.26,3.63-.4,6.61,1.63,.27,3.29,.45,4.96,.53-.73-3.79-1.26-6.76-1.3-7.01l-1.05-.24c-.8-.09-1.55-.2-2.18-.32h0Z"/><path class="d" d="M61.09,102.23v.02c.05,.25,.58,3.23,1.31,7.01,2.15,.11,4.34,.08,6.55-.11-.46-1.96-.79-3.65-1.01-4.83-.15-.72-.25-1.33-.31-1.82h0s-1.1-.03-2.62-.11l-3.92-.17h0Z"/><path class="l" d="M67.63,102.51h0s.1,.67,.31,1.82c.22,1.18,.55,2.86,1.01,4.83,1.37-.11,2.75-.28,4.14-.51,.83-.14,1.67-.29,2.51-.47-1.31-3.45-2.06-5.93-2.06-5.93h0l-1.95,.09c-1.54,.23-2.98,.34-3.95,.18h0Z"/><path class="j" d="M80.36,101.12l-6.83,1.13h0s.75,2.48,2.06,5.93c2.45-.51,4.92-1.2,7.42-2.05-1.63-2.91-2.66-5.01-2.66-5.01h0Z"/><path class="ai" d="M87.66,98.56l-7.3,2.56h0s1.02,2.1,2.66,5.01c2.62-.89,5.26-1.97,7.91-3.23-1.14-1.45-2.05-2.67-2.62-3.44-.24-.32-.46-.62-.65-.89h0Z"/><path class="r" d="M92.55,95.42l-4.89,3.14h0s.25,.36,.65,.9c.57,.77,1.47,1.99,2.62,3.44,2.19-1.04,4.4-2.21,6.6-3.5-2.85-2.24-4.98-3.98-4.98-3.98h0Z"/><path class="ae" d="M100.11,88.69l-2.08,1.85c-.79,.76-1.59,1.47-2.41,2.14l-3.08,2.73h0s2.13,1.73,4.98,3.98c.27-.16,.55-.32,.82-.49,3.86-2.31,7-4.94,9.5-7.77-4.88-1.34-7.74-2.44-7.74-2.44h0Z"/><path class="v" d="M103.43,83.38c-.34,.75-.67,1.47-1,2.17-.43,.57-.86,1.11-1.3,1.65-.37,.61-.73,1.16-1.02,1.5h0s2.87,1.1,7.74,2.44c1.69-1.92,3.1-3.93,4.25-6.02-4.57-.5-7.3-1.28-8.36-1.62-.11-.04-.22-.07-.32-.11h0Z"/><path class="d" d="M106.91,77.1l-2.76,4.69c-.24,.54-.47,1.08-.71,1.59,.08,.03,.19,.07,.32,.11,1.06,.35,3.79,1.13,8.36,1.62,1.57-2.85,2.66-5.82,3.36-8.85-4.79,.54-8.57,.84-8.57,.84h0Z"/><path class="r" d="M116.44,68.57c-4.75,1.14-8.67,1.94-8.67,1.94h0l-.86,6.59h0s3.78-.3,8.57-.84c.58-2.54,.89-5.11,.96-7.68h0Z"/><path class="l" d="M116.2,62.45c-.61,.29-1.2,.58-1.76,.85-2.09,1.07-4.05,1.99-5.66,2.59l-1.02,4.62h0s3.92-.8,8.67-1.94c.06-2.05-.03-4.1-.24-6.12h0Z"/><path class="v" d="M115.27,56.68c-3.59,2.98-6.25,4.66-6.25,4.66h0l-.24,4.56s2.41-1.06,5.66-2.59c.57-.27,1.15-.55,1.76-.85-.2-1.95-.52-3.89-.93-5.78h0Z"/><path class="j" d="M112.38,47.25c-3.33,3.46-5.84,5.19-5.84,5.19h0l2.48,8.9h0s2.66-1.68,6.25-4.66c-.72-3.3-1.72-6.48-2.89-9.43h0Z"/><path class="r" d="M109.04,40.2c-2.84,4.69-5.26,7.32-5.26,7.32h0l2.75,4.92h0s2.51-1.73,5.84-5.19c-1.01-2.54-2.15-4.91-3.34-7.04h0Z"/><path class="l" d="M104.75,34c-.48,1.08-.95,2.1-1.4,3.05-1.07,2.46-2.23,4.74-3.47,6.64,.29,.22,.47,.35,.47,.35-.04,.07-.08,.15-.12,.23,.42,.36,.82,.72,1.21,1.08,.05,.07,.09,.13,.14,.2l2.21,1.98h0s2.42-2.62,5.26-7.32c-.64-1.14-1.29-2.22-1.95-3.22-.7-1.06-1.49-2.06-2.34-2.98h0Z"/><path class="v" d="M98.88,29.29c-1.31,5.93-2.68,10-3.23,11.52,1.75,1.05,3.43,2.27,4.22,2.87,.41-.71,1.81-3.15,3.48-6.63,.45-.94,.92-1.96,1.4-3.05-1.7-1.83-3.68-3.4-5.87-4.71h0Z"/><path class="ae" d="M91.33,25.98c-.26,6.15-.62,10.93-.62,10.93h0c-.02,.34-.05,.68-.07,1.02,.52,.21,.95,.46,1.26,.74,1.2,.6,2.34,1.25,3.42,1.94,.12,.07,.23,.14,.35,.21,.55-1.52,1.91-5.59,3.23-11.52-2.32-1.39-4.86-2.49-7.55-3.31h0Z"/><path class="y" d="M84.33,24.49c.21,1.77,.39,3.44,.54,4.93,.39,2.89,.64,5.3,.66,6.8,1.13,.3,2.22,.66,3.28,1.07,.33,.02,.66,0,.96-.04,.35-.06,.67-.17,.93-.36h0s.36-4.78,.62-10.93c-2.25-.69-4.6-1.19-7-1.49h0Z"/><path class="r" d="M76.52,24.16c1.28,3.85,2.39,7.69,3.1,11.08,2.05,.13,4.02,.47,5.89,.98-.07-.84-.29-3.38-.64-6.8-.16-1.5-.34-3.17-.54-4.93-2.57-.32-5.2-.43-7.81-.32h0Z"/><path class="d" d="M70.89,24.74c-.78,.13-1.56,.28-2.33,.44,2.8,4.98,4.82,8.98,5.45,10.24,1.92-.24,3.78-.29,5.57-.17-.97-3.81-2.08-7.54-3.22-11.07-1.84,.08-3.67,.27-5.47,.57h0Z"/><path class="j" d="M68.56,25.18c-1.96,.43-3.87,.98-5.7,1.66,2.37,2.96,4.4,6.1,5.65,9.24h0l2.32-.11c.69-.16,1.37-.3,2.05-.4,.38-.06,.75-.12,1.13-.16-.63-1.26-2.66-5.25-5.45-10.24h0Z"/><path class="v" d="M62.86,26.84c-2.1,.78-4.09,1.73-5.91,2.84-.19,.11-.38,.23-.57,.35,2.68,2.12,5.48,4.67,8.32,7.73h0l3.82-1.68c-1.25-3.14-3.29-6.29-5.65-9.24h0Zm-19.87-15.62c-.91,.67-1.84,1.48-2.72,2.32-.93,.89-1.82,1.82-2.6,2.68-.36,.4-.7,.78-1,1.13-1.12,1.3-1.84,2.23-1.84,2.23h.02c2.73-3.38,5.57-6.16,8.14-8.36h0Z"/><path class="ai" d="M56.38,30.04c-2.2,1.4-4.16,3.04-5.89,4.85,3.89,1.07,7.99,2.43,12.05,4.18l2.16-1.29c-2.84-3.06-5.64-5.61-8.32-7.73h0Zm-21.56-10.46c-1.46,1.6-2.6,3.24-3.49,4.8-.02,.04-.04,.07-.06,.1,1.15-1.76,2.34-3.39,3.57-4.9h-.02Z"/><path class="y" d="M50.5,34.89c-2.15,2.25-3.91,4.75-5.28,7.39,4.91-.05,9.69,.1,13,.65,1.32-1.35,2.75-2.62,4.22-3.8,.04-.02,.08-.04,.12-.06h-.01c-4.05-1.75-8.16-3.12-12.05-4.18h0Z"/><path class="d" d="M45.22,42.28c-.98,1.9-1.76,3.88-2.31,5.87,.91-.18,1.84-.34,2.79-.5,2.93-.48,6.06-.85,9.38-1.05,.94-1.28,2-2.51,3.14-3.67-3.31-.55-8.08-.7-13-.65h0Z"/><path class="l" d="M45.7,47.64c-.95,.15-1.89,.32-2.79,.5-.49,1.77-.8,3.54-.94,5.3,4.95-1.74,9.36-2.84,10.89-3.2,.61-1.26,1.36-2.48,2.22-3.65-3.31,.2-6.45,.57-9.38,1.05h0Z"/><path class="ae" d="M52.86,50.25c-1.53,.36-5.94,1.46-10.89,3.2-.17,2.3-.04,4.57,.42,6.73,2.75-1.72,5.73-3.32,8.84-4.52,.21-1.87,.78-3.68,1.62-5.41h0Z"/><path class="j" d="M51.24,55.66c-3.11,1.2-6.1,2.8-8.84,4.52,.34,1.58,.85,3.11,1.55,4.55,3.58-2.53,6.48-3.68,7.62-4.07-.42-1.71-.51-3.38-.32-5h0Z"/><path class="ai" d="M51.56,60.66c-1.14,.39-4.04,1.54-7.62,4.07,.75,1.54,1.71,2.98,2.88,4.28,.26,.29,.53,.57,.79,.85,2.33-2.85,4.39-4.88,5.26-5.7-.6-1.18-1.03-2.35-1.32-3.49h0Z"/><path class="d" d="M52.88,64.15c-.87,.82-2.93,2.85-5.26,5.7,2.41,2.51,4.96,4.46,7.57,5.91,1.04-2.72,1.92-4.81,2.32-5.73-.87-.7-1.65-1.47-2.29-2.28-.96-1.21-1.73-2.41-2.34-3.6h0Z"/><path class="j" d="M73.46,72.76c-.09,.04-.18,.09-.27,.13l.32-.04s-.04-.07-.06-.09h0Zm-7.63,.98c1.08,.4,2.28,.35,3.27,.19,.06,0,.11-.02,.16-.03-1.13,.08-2.28,.02-3.43-.16h0Zm12.68-2.19c.48,.2,1.04,.42,1.69,.65-.61-.23-1.18-.45-1.69-.65h0Zm-3.82-12.83c0,.31,0,.51,0,.56,4.76,1.36,4.5,5.81,2.56,9.55l1.38-1.53c-.1,0-.15,0-.15,0l.54-3.21c.05,0,.11-.02,.17-.02,.91-.15,2.61-.63,4.73-1.29-2.91,.81-4.9,1.32-4.9,1.32l-.2-2.55c-.01-.08-.12-.65-1.11-1.49h0l-2.05-1.02h0l-.98-.3h0Z"/><path class="l" d="M52.69,99.47c1.39,.61,2.81,1.08,3.6,1.26,0-.12,.01-.24,.02-.37-.83-.17-1.6-.35-2.31-.53-.44-.11-.88-.24-1.31-.36h0Zm4.82-29.44c-.4,.92-1.28,3.01-2.32,5.73,1.6,.89,3.23,1.58,4.86,2.1,.57-2.58,1.05-4.58,1.27-5.5-1.39-.63-2.69-1.42-3.82-2.33h0Z"/><path class="r" d="M56.31,100.36c0,.12-.01,.25-.02,.37,0,.17-.01,.34-.02,.51,.35,.17,.91,.32,1.59,.46,.64,.12,1.39,.23,2.18,.32,1.65,.19,3.51,.31,4.96,.39,1.52,.08,2.62,.11,2.62,.11h0c-.11-.27-.23-.56-.33-.87-4.17-.1-7.96-.65-10.99-1.28h0Zm5.02-28c-.22,.93-.7,2.92-1.27,5.5,1.52,.48,3.05,.8,4.57,.98-.08-2.52-.1-4.48-.1-5.37-1.09-.27-2.17-.65-3.19-1.11h0Z"/><path class="y" d="M67.3,101.64c.11,.31,.22,.6,.33,.87h0c.96,.16,2.41,.05,3.95-.18,.17-.03,.34-.05,.51-.08,2.79-.46,5.79-1.25,6.84-1.54-.03-.03-.05-.07-.08-.1-.72,.15-1.44,.28-2.15,.4-3.25,.53-6.42,.69-9.4,.63h0Zm-2.79-28.17c0,.89,.02,2.85,.1,5.37,2.22,.25,4.44,.19,6.6-.16,.09-.01,.17-.03,.26-.04-.54-2.28-.93-4.05-1.1-4.87h-.05c-.35,.07-.71,.11-1.06,.14-.05,0-.11,.02-.16,.03-.98,.16-2.19,.21-3.27-.19-.44-.07-.88-.16-1.31-.27h0Z"/><path class="v" d="M85.75,98.52c-2.29,.92-4.6,1.6-6.89,2.1,.03,.03,.05,.07,.08,.1,.15,.18,.3,.34,.44,.47,1.89-.48,4.26-1.57,6.37-2.67h0Zm-12.55-25.62c-.89,.42-1.84,.71-2.83,.87,.17,.81,.56,2.59,1.1,4.87,1.69-.29,3.34-.77,4.95-1.4-1.46-2.16-2.54-3.81-2.91-4.38l-.32,.04h0Z"/><path class="ae" d="M76.14,70.62c-.11,.15-.22,.3-.32,.44-.72,.7-1.51,1.27-2.36,1.7,.02,.02,.04,.05,.06,.09,.37,.57,1.44,2.22,2.91,4.38,.47-.19,.94-.39,1.41-.6,1.97-.92,3.49-2.15,4.63-3.57-.81-.3-1.57-.59-2.27-.86-.64-.23-1.21-.45-1.69-.65-1.09-.42-1.91-.75-2.36-.93h0Z"/><path class="j" d="M78.63,67.3l-1.38,1.53c-.33,.62-.7,1.23-1.1,1.8,.45,.18,1.27,.5,2.36,.93,.51,.2,1.07,.42,1.69,.65,.7,.27,1.46,.55,2.27,.86,1.4-1.74,2.24-3.76,2.64-5.81-3.35,.09-5.86,.06-6.47,.05h0Z"/><path class="d" d="M85.29,62.39c-.47,.13-.93,.26-1.37,.38-2.12,.67-3.82,1.14-4.73,1.29-.06,.01-.12,.02-.17,.02l-.54,3.21s.05,0,.15,0c.61,.01,3.12,.04,6.47-.05,.32-1.64,.36-3.3,.19-4.86h0Z"/><path class="v" d="M84.17,58.06c-3.08,2.08-5.35,3.49-5.35,3.49h0l.2,2.54s1.99-.51,4.9-1.32c.44-.12,.9-.25,1.37-.38-.18-1.6-.57-3.09-1.13-4.34h0Zm20.18-8.11c.71,1.31,1.3,2.6,1.79,3.87-.4-1.38-1.05-2.69-1.79-3.87h0Z"/><path class="r" d="M81.9,54.94c-2.39,3.04-4.19,5.11-4.19,5.11h0c.99,.84,1.1,1.41,1.11,1.49h0s2.27-1.4,5.35-3.48c-.41-.93-.91-1.73-1.47-2.35-.25-.27-.51-.53-.8-.77h0Zm13.4-14.34c1.81,1.15,3.46,2.4,4.93,3.67,.04-.08,.08-.15,.12-.23,0,0-.17-.13-.47-.35h-.01c-.79-.6-2.47-1.82-4.22-2.88-.12-.07-.23-.14-.35-.21h0Z"/><path class="ai" d="M78.35,52.95c-1.5,3.52-2.69,6.08-2.69,6.08h0l2.05,1.02h0s1.8-2.07,4.19-5.11c-1.02-.87-2.26-1.54-3.55-1.99h0Zm10.86-15.49c.92,.37,1.81,.77,2.67,1.2-.3-.29-.74-.53-1.26-.74-.43-.18-.91-.33-1.42-.46h0Z"/><path class="l" d="M74.5,52.3c.12,2.93,.16,5.36,.18,6.42l.98,.3h0s1.19-2.56,2.69-6.08c-1.29-.45-2.62-.67-3.85-.65h0Z"/><path class="d" d="M73.33,52.4c-.41,.07-.8,.17-1.16,.3,1.37,3.52,2.43,6.33,2.52,6.57h0c0-.05,0-.24,0-.56-.02-1.06-.06-3.49-.18-6.42-.4,0-.79,.04-1.17,.1h0Z"/><path class="r" d="M72.17,52.71c-.63,.23-1.17,.57-1.59,1.02,1.55,1.85,2.99,3.76,4.1,5.55h0c-.09-.24-1.15-3.05-2.52-6.57h0Z"/><path class="y" d="M70.58,53.73c-.36,.39-.62,.86-.76,1.42-.17,.67-.22,1.22-.19,1.67,1.67,.67,3.36,1.47,5.01,2.45,.01,0,.03,0,.04,.01-1.1-1.79-2.55-3.7-4.1-5.55h0Z"/><path class="ae" d="M69.64,56.82c.16,2.42,2.65,2.08,2.65,2.08,.89,.05,1.67,.18,2.35,.37-1.65-.98-3.34-1.79-5.01-2.45h0Z"/><path class="t" d="M61.88,.6S21.47,11.13,20.34,52.76c-1.14,41.64,36.95,57.69,62.31,49.34,25.36-8.36,33.28-32.44,25.97-50.44-7.31-18-42.91-27.41-55.37-4.92-12.46,22.49,14.09,35.54,23.62,25.51,9.52-10.04,1.59-17.23-3.71-15.84,0,0-3.71,2.74,.27,3.4,3.98,.66,5.49,7.39-.58,11.29-6.08,3.9-19.86-2.83-19.73-13.6,.13-10.76,10.51-22.33,26.43-19.68,15.92,2.65,27.5,12.49,26.69,27.22-.8,14.72-13.26,37.21-45.32,35.34-15.47-3.18-39.41-20.35-35.59-52.91,.28-8.82,6.58-34.74,36.56-46.88Z"/><path class="aa" d="M64.78,146.25s4.4,5.15,11.18,4.62c1.54-3.33,3.06-15.74,1.6-26.33l-2.67-.62s-8.7,18.16-10.11,22.32Z"/><path class="aa" d="M94.34,144.6s-3.54,5.78-10.32,6.32c-2.05-3.04-5.5-15.07-5.71-25.75l2.54-1.03s11.43,16.57,13.49,20.46Z"/><path class="a`" d="M55.48,119.19s-.86,.72-.56,4.48c.3,3.76,1.96,8.33,3.54,8.46,1.58,.14,10.77-2.41,17.29-5.66l-1.37-5.76s-13.36-2.34-18.9-1.51Z"/><path class="a`" d="M96.09,112.92s1.05,.39,2.04,4.03c.99,3.63,.96,8.49-.47,9.16-1.44,.66-10.95,1.36-18.19,.51l-.66-5.88s11.78-6.72,17.28-7.81Z"/><path class="i" d="M73.95,120.21s3.97-.96,5.96-.47c.88,2.93,.78,6.59,.56,7.13-3.06,.9-5.27,.94-5.58,.31-.31-.62-1.46-5.23-.94-6.97Z"/><path class="i" d="M55.87,119.38s6.1-.27,12.92,.72c2.11,.32,2.78,.96-2.77,1.89-5.56,.92-9.88,1.61-10.42,.06-.54-1.56,.27-2.66,.27-2.66Z"/><path class="i" d="M81.89,119.62s5.56-3.57,13.67-6.43c.7,.02,1.74,1.74,2.22,4.41-.74,2.07-18.62,3.55-15.89,2.02Z"/></g></g></g></svg>