<?xml version="1.0" encoding="UTF-8"?><svg xmlns="http://www.w3.org/2000/svg" viewBox="0 0 199.68 77.95"><defs><style>.d{fill:#c161d8;}.e{fill:#cce821;}.f{fill:#9ee5e5;}.g{fill:#a951bf;}.h{fill:#fd8b35;}.i{fill:#610179;}.j{fill:#490559;}.k{fill:#f42d86;}.l{fill:#8b3d9a;}.m{fill:#fecf71;}.n{fill:#f5fb99;}.o{fill:#d875ef;}</style></defs><g id="a"/><g id="b"><g id="c"><g><path class="i" d="M159.47,26.4c6.36-8.96,22.95-13.26,31.73-14.35-8.81,1.09-25.48,5.41-31.79,14.44-2.31-20.01-16.54-22.7-28.48-25.01C119-.84,71.68-1.99,58.97,10.32c-12.7,12.32-9.23,21.17-9.23,21.17,0,0-.06-.17-.14-.48,1.61,4.49,2.47,11.13,.45,20.59l.07-.09s1.92,16.16,26.55,21.16c24.63,5,73.5,3.85,81.19-19.24,1.54-2.69,1.15-4.62,1.15-4.62,0,0,.3,.37,.81,1-.22-.27-.4-.49-.53-.65-.88-4.42-1.99-13.06,.17-22.76Z"/><path class="j" d="M159.47,26.4l-.07,.09c-.56-4.88-1.85-8.72-3.62-11.79-.03,.12-.04,.24-.07,.36h-5.44c3.63,12.69,5.44,21.75-7.25,29,5.44,1.81,10.88,7.25,7.25,10.87-26.66,15.68-71.34,15.68-93.96-3.87-1.81-5.43-3.63-11.17,6.98-14.8-2.04,1.32-10.69-3.62-10.89-5.04-.28-1.95,4.9-7.66,7.25-5.3-1.81-1.81-5.44-1.81-7.25-3.63-.4-.81-.6-1.71-.67-2.65-3.78,7.19-2,11.83-2,11.83,0,0-.06-.17-.14-.48,1.61,4.49,2.47,11.13,.45,20.59l.07-.09s1.92,16.16,26.55,21.16c24.63,5,73.5,3.85,81.19-19.24,1.54-2.69,1.15-4.62,1.15-4.62,0,0,.1,.13,.28,.35-.88-4.42-1.98-13.05,.17-22.76Z"/><path class="l" d="M196.35,29.17c5-8.08,3.85-16.55,0-17.32-.12-.02-.26-.04-.42-.06h-.2c-.11-.02-.21-.03-.34-.03-.08,0-.18,0-.27,0h-.38c-.15,0-.31,.01-.47,.01-.09,0-.18,0-.28,.01-.16,0-.35,.03-.53,.04-.11,0-.21,0-.32,.02-.23,.02-.48,.04-.72,.07-.07,0-.14,0-.22,.02-.29,.03-.61,.07-.93,.1h-.09c-8.78,1.1-25.37,5.4-31.73,14.36-2.15,9.7-1.05,18.33-.17,22.76,.13,.16,.31,.38,.53,.65l.03,.04c.22,.26,.47,.57,.77,.93l.05,.05c.58,.71,1.32,1.57,2.14,2.54l.11,.13c.39,.44,.8,.92,1.23,1.41,.07,.08,.15,.16,.22,.25,.42,.48,.86,.96,1.31,1.46,.09,.1,.19,.21,.28,.31,.46,.5,.92,1,1.4,1.52,.09,.1,.19,.2,.28,.3,.49,.52,.99,1.05,1.5,1.57,.08,.08,.16,.17,.25,.25,.53,.54,1.06,1.08,1.6,1.62l.15,.14c.53,.53,1.07,1.04,1.6,1.54l.16,.16c.55,.5,1.09,.99,1.63,1.47,.08,.07,.16,.14,.24,.21,.53,.45,1.05,.89,1.57,1.3,.09,.07,.18,.14,.27,.21,.51,.4,1.02,.78,1.51,1.13,.09,.06,.17,.12,.26,.18,.49,.34,.98,.65,1.45,.92l.21,.12c.48,.27,.94,.51,1.39,.69l.13,.05c.46,.19,.91,.34,1.33,.42,9.62,3.08,15.01-2.69,11.93-7.31-3.08-4.62,2.31-11.93,2.31-18.47,0-6.54-5.77-7.69-.77-15.78Z"/><path class="l" d="M49.6,31c.08,.31,.14,.48,.14,.48,0,0-24.63-17.7-37.71-17.7S-1.82,20.32,2.02,25.71c3.85,5.39,3.85,14.63,.77,20.4-3.08,5.77,.77,7.7,5,10,4.24,2.32,5.01,11.17,2.69,16.55-2.31,5.38,7.31,7.31,16.16,2.69,.51-.27,1.05-.59,1.6-.95l.09-.05c.53-.35,1.07-.74,1.62-1.16l.16-.12c.54-.41,1.08-.86,1.64-1.33l.22-.18c.54-.46,1.09-.95,1.64-1.46,.09-.08,.17-.15,.26-.24,.54-.5,1.07-1.02,1.61-1.55,.1-.1,.2-.19,.3-.29,.53-.53,1.06-1.06,1.58-1.6,.11-.11,.22-.22,.32-.33,.52-.54,1.03-1.08,1.53-1.62,.11-.12,.22-.24,.33-.36,.5-.54,.99-1.09,1.47-1.62,.1-.12,.21-.24,.31-.35,.48-.54,.96-1.08,1.41-1.6,.1-.11,.19-.21,.28-.32,.45-.53,.9-1.05,1.32-1.55,.09-.1,.18-.21,.26-.31,.42-.49,.83-.98,1.21-1.45,.07-.08,.13-.15,.19-.22,.39-.48,.77-.94,1.12-1.36l.12-.15c.34-.42,.66-.82,.95-1.18l.08-.1c.29-.36,.55-.69,.78-.98l.08-.1c.22-.29,.41-.53,.56-.72l.05-.06c.14-.18,.24-.31,.31-.4l.02-.02c2.02-9.46,1.16-16.1-.46-20.59Z"/><path class="g" d="M105.01,.87s-33.82,.48-44.06,11.21c-10.22,10.73,25.21,13.5,46.84,10.44,21.63-3.06,31.36-21.59-2.78-21.65Z"/><path class="e" d="M89.82,18.95c0,6.94-6.06,12.56-13.54,12.56s-13.54-5.62-13.54-12.56,6.06-12.57,13.54-12.57c7.48,0,13.54,5.63,13.54,12.57Z"/><path class="m" d="M131.43,42.42c0,6.94-6.06,12.56-13.54,12.56s-13.54-5.62-13.54-12.56,6.06-12.57,13.54-12.57,13.54,5.62,13.54,12.57Z"/><path class="k" d="M145.53,15.05c3.26,0,6.24-1.07,8.58-2.84-5.51-7.06-14.19-8.98-22.08-10.52-.02,.26-.04,.52-.04,.79,0,6.94,6.06,12.57,13.54,12.57Z"/><path class="h" d="M125.07,73.32c8.71-1.49,16.74-4.03,22.78-7.91-2.43-2.13-5.7-3.45-9.3-3.45-7.04,0-12.83,4.99-13.48,11.36Z"/><path class="f" d="M88.71,65.03c0-6.94-6.07-12.56-13.54-12.56s-13.54,5.62-13.54,12.56c0,.68,.07,1.34,.19,2,3.69,2.31,8.52,4.34,14.87,5.64,2.45,.5,5.16,.93,8.02,1.29,2.47-2.28,4.01-5.43,4.01-8.92Z"/><path class="n" d="M76.28,6.38c-7.48,0-13.54,5.63-13.54,12.57,0,.28,.03,.55,.04,.84,5.25,2.57,15.46,3.82,26.05,3.89,.64-1.46,.99-3.05,.99-4.72,0-6.94-6.06-12.57-13.54-12.57Z"/><path class="d" d="M13.03,15.88s-6.14-.56-8.66,1.4c-2.51,1.95-1.4,6.42,12.57,8.38,13.96,1.96,26.25,6.7,27.09,5.31,.84-1.4-18.15-14.24-31-15.08Z"/><path class="o" d="M18.89,36.82s-10.61,1.4-10.05,6.43c.56,5.02,11.73,2.79,21.22-.84,9.49-3.63,4.47-7.54-11.17-5.59Z"/><path class="g" d="M35.09,47.16s-14.8,5.58-17.03,8.65c-2.23,3.07-.56,8.94,7.54,5.03,8.1-3.91,18.43-12.29,20.11-16.2,1.68-3.91-6.14,.28-10.61,2.52Z"/><path class="d" d="M189.22,14s5.54-.5,7.81,1.26c2.27,1.76,1.26,5.79-11.33,7.55-12.59,1.77-23.67,6.05-24.43,4.79-.75-1.26,16.37-12.84,27.95-13.6Z"/><path class="o" d="M183.93,32.89s9.57,1.25,9.06,5.79c-.5,4.53-10.57,2.52-19.14-.76-8.56-3.27-4.03-6.8,10.08-5.03Z"/><path class="g" d="M174.91,53.94s13.34,5.03,15.36,7.81c2.01,2.77,.5,8.06-6.8,4.53-7.3-3.52-16.62-11.08-18.13-14.61-1.51-3.52,5.54,.26,9.57,2.27Z"/><path class="o" d="M77.54,4.71s22.34-6.98,44.12-1.4c0,0,1.96,2.52-6.14,2.24-8.1-.28-43,1.4-37.98-.84Z"/></g></g></g></svg>