<?xml version="1.0" encoding="UTF-8"?><svg xmlns="http://www.w3.org/2000/svg" viewBox="0 0 156.79 149.11"><defs><style>.d{fill:#fcefde;}</style></defs><g id="a"/><g id="b"><g id="c"><g><path d="M148.63,96.53c4.44-9.15,7.02-18.84,7.97-29,.97-10.36-1.84-19.95-5.58-29.39-.46-1.16-.95-2.43-1.78-3.32-4.25-4.61-7.68-9.98-12.82-13.79C111.4,2.49,83.74-3.96,53.12,2.35c-5.82,1.2-11.31,3.27-16.72,5.49-12.41,5.08-22.72,12.64-28.17,25.5-.65,1.53-1.56,2.97-2.46,4.38C1.08,45.11-.04,53.35,0,61.86c.04,8.22,2.8,15.62,7.06,22.54,2.19,3.55,4.27,7.17,6.39,10.72-1.96,5-3.88,9.64-5.57,14.36-.54,1.53-.79,3.33-.57,4.93,.73,5.21,3.14,9.56,7.64,12.48,4.34,2.82,9.11,4.25,14.33,3.9,2.09-.14,4.17-.41,6.26-.52,1.65-.09,3.44,1,3.8,2.65,1.57,7.14,6.02,11.73,12.38,14.93,3.82,1.92,7.34,1.6,10.69-.67,2.06-1.39,3.85-3.2,5.7-4.87,1.24-1.12,2.3-2.44,3.61-3.45,.55-.42,1.77-.6,2.33-.28,2.18,1.25,4.13,2.91,6.34,4.1,2.94,1.58,5.94,3.21,9.1,4.21,5.18,1.65,9.94,.58,13.9-3.41,2.41-2.43,4.23-5.19,5.36-8.42,1.53-4.36,3.16-8.68,4.7-13.04,.9-2.54,2.3-4.48,5.23-4.73,6.05-.52,11.22-3.34,16.33-6.27,5.99-3.43,10.6-8.3,13.6-14.49Zm-28.58,12.28c-2.49-.23-4.92-1.02-7.4-1.48-1.66-.3-4.32,1.81-4.55,3.62-.27,2.08-.35,4.18-.6,6.26-.61,5.03-1.93,9.88-3.91,14.55-1.17,2.76-2.83,5.17-5.18,7.01-2.04,1.59-4.29,2.64-7,1.67-1.98-.7-4.03-1.22-5.96-2.04-2.47-1.04-4.1-2.89-4.36-5.66-.31-3.34-.4-6.71-.86-10.03-.23-1.66-1.28-3.05-2.89-3.89-1.37-.72-3.92-.49-4.61,.67-1.05,1.78-2.1,3.59-2.81,5.52-1.91,5.17-4.27,10.04-8.12,14.07-1.89,1.98-4.22,2.61-6.87,2.35-2.97-.3-5.81-2.52-6.56-5.11-1.2-4.13-1.23-8.28-.32-12.46,.54-2.45,1.36-4.87,1.62-7.34,.11-1.06-.74-2.36-1.46-3.31-.94-1.24-3.72-1.35-4.56-.27-1.27,1.63-2.52,3.3-3.56,5.07-2.35,4.03-5.87,5.83-10.44,5.77-1.68-.02-3.37-.02-5.03-.18-4.99-.48-9.34-5.23-9.4-10.21-.04-3.41,.46-6.68,2.45-9.6,1.65-2.41,3.49-4.76,4.7-7.39,1.23-2.66,1.01-6-2.11-7.65-7.38-3.9-10.31-10.88-12.21-18.28C3.38,52.26,11.82,26.9,31.28,16.39c11.32-6.12,23.25-9.5,35.98-10.37,2.51-.17,5.04-.02,6.81-.02,10.13-.96,19.07,1.73,28.14,3.38,11.87,5.37,23.67,10.87,33.34,19.92,6.66,6.24,10.55,14.01,12.56,22.83,2.2,9.61,1.83,19.3-.24,28.74-1.62,7.38-5.49,14.06-10.17,20.06-2.92,3.74-6.98,6.07-11.46,7.44-1.94,.59-4.16,.64-6.2,.45Z"/><path class="d" d="M137.71,100.93c4.69-6,8.56-12.68,10.17-20.06,2.07-9.45,2.43-19.14,.24-28.74-2.02-8.82-5.9-16.59-12.56-22.83-9.67-9.05-21.47-14.55-33.34-19.92-9.07-1.65-18.01-4.34-28.14-3.38-1.78,0-4.31-.15-6.81,.02-12.73,.87-24.66,4.26-35.98,10.37C11.82,26.9,3.38,52.26,8.06,70.49c1.9,7.39,4.83,14.38,12.21,18.28,3.12,1.65,3.33,4.98,2.11,7.65-1.21,2.63-3.05,4.97-4.7,7.39-1.99,2.92-2.49,6.19-2.45,9.6,.06,4.98,4.4,9.73,9.4,10.21,1.67,.16,3.36,.15,5.03,.18,4.57,.06,8.08-1.74,10.44-5.77,1.04-1.78,2.29-3.45,3.56-5.07,.84-1.08,3.62-.97,4.56,.27,.72,.96,1.57,2.26,1.46,3.31-.25,2.48-1.08,4.89-1.62,7.34-.92,4.17-.89,8.33,.32,12.46,.75,2.58,3.58,4.81,6.56,5.11,2.64,.26,4.98-.36,6.87-2.35,3.85-4.04,6.2-8.91,8.12-14.07,.71-1.92,1.76-3.74,2.81-5.52,.69-1.16,3.24-1.39,4.61-.67,1.61,.84,2.66,2.23,2.89,3.89,.46,3.32,.55,6.69,.86,10.03,.26,2.78,1.89,4.63,4.36,5.66,1.93,.81,3.98,1.33,5.96,2.04,2.71,.97,4.96-.08,7-1.67,2.36-1.84,4.01-4.25,5.18-7.01,1.98-4.67,3.3-9.52,3.91-14.55,.25-2.08,.33-4.18,.6-6.26,.23-1.81,2.89-3.92,4.55-3.62,2.48,.45,4.91,1.25,7.4,1.48,2.05,.19,4.26,.14,6.2-.45,4.48-1.37,8.55-3.7,11.46-7.44ZM40.1,63.11c-1.06,.28-2.54-.03-3.52-.6-3.52-2.02-4.92-6.06-3.5-9.6,1.58-3.94,3.61-7.42,8.07-8.82,3.85-1.21,8.93,2.27,8.88,6.26-.07,5.95-4.07,11.22-9.93,12.76Zm76.22,9.12c-2.43,2.48-5.56,3.56-8.97,3.87-2.46,.22-6.01-2.36-6.65-4.82-.88-3.4-.54-6.57,1.73-9.43,1.78-2.24,4.25-3.07,6.58-2.14,3.16,1.26,6.04,2.92,7.93,5.81,.65,.98,.82,2.27,1.25,3.52-.65,1.13-1.06,2.37-1.88,3.21Z"/><path d="M41.15,44.09c-4.46,1.4-6.49,4.89-8.07,8.82-1.42,3.54-.02,7.58,3.5,9.6,.98,.56,2.46,.88,3.52,.6,5.87-1.55,9.86-6.81,9.93-12.76,.05-3.99-5.04-7.47-8.88-6.26Z"/><path d="M109.01,59.7c-2.32-.93-4.8-.09-6.58,2.14-2.27,2.86-2.62,6.04-1.73,9.43,.64,2.47,4.2,5.04,6.65,4.82,3.4-.3,6.53-1.39,8.97-3.87,.82-.84,1.23-2.07,1.88-3.21-.43-1.25-.6-2.53-1.25-3.52-1.9-2.89-4.78-4.55-7.93-5.81Z"/></g></g></g></svg>