<?xml version="1.0" encoding="UTF-8"?><svg xmlns="http://www.w3.org/2000/svg" viewBox="0 0 226.52 663.31"><defs><style>.f{fill:#fff;}.g{fill:#ffca00;}.h{fill:#f3941b;}.i{fill:#fcefde;}.j{fill:#a67c52;}.k{fill:#089ece;}.l{fill:#fdd089;}</style></defs><g id="a"/><g id="b"><g id="c"><g><path class="j" d="M224.23,663.31h-20V109.31h20c0,2.68,0,5.37,0,8.05,0,181.98,0,363.96,0,545.95Z"/><path d="M224.23,173.31c.52-49.94,1.67-99.64,2.29-149.54,.09-7.41-4.89-13.96-12.07-15.81-61.52-15.83-91.02-5.42-106.55,8.46-14.14,12.64-16.9,28.33-35.16,37.38-23.57,11.67-52.23,2-72.73-7.98,4.99,46.35,9.98,92.7,14.97,139.05,.41,3.81,2.72,7.16,6.14,8.9,20.09,10.21,46.99,19.15,72.44,10.07,20.52-7.33,25.9-21.31,47.25-31.14,16.29-7.5,41.8-13.16,83.43,.62Z"/><g><path class="f" d="M20.49,99.7c-.56-.34-1.1-.78-1.62-1.33-.29-.31-.44-.59-.47-.85-.02-.2,.04-.36,.18-.45,.15-.1,.33-.11,.57-.03,.18,.06,.35,.17,.51,.33,.42,.42,.82,.76,1.2,1.01,.38,.25,.82,.45,1.32,.6,.54,.16,.99,.18,1.35,.06,.36-.12,.52-.34,.48-.68-.05-.4-.28-.77-.69-1.1s-1.04-.68-1.88-1.04c-2.13-.92-3.3-2.22-3.48-3.76-.07-.56,.04-.99,.31-1.3,.27-.31,.66-.48,1.19-.52,.52-.05,1.12,.03,1.79,.22,.6,.17,1.18,.41,1.73,.72,.55,.31,1.02,.65,1.4,1.01,.29,.27,.47,.54,.5,.81,.02,.21-.03,.37-.18,.49-.14,.12-.32,.15-.54,.09-.14-.04-.28-.11-.4-.22-.27-.25-.64-.51-1.1-.79-.46-.28-.87-.47-1.22-.57-.6-.17-1.06-.21-1.36-.11-.31,.11-.44,.33-.4,.67,.05,.38,.25,.73,.61,1.03,.36,.3,.92,.63,1.66,.97,.84,.38,1.52,.72,2.03,1.06s.92,.72,1.21,1.14c.29,.43,.47,.94,.54,1.54,.07,.57-.04,1.02-.33,1.37-.29,.34-.7,.55-1.23,.63-.54,.07-1.13,.01-1.79-.18-.69-.21-1.32-.49-1.88-.82Z"/><path class="f" d="M33.38,95.71c.18,.17,.28,.38,.31,.63l.7,5.78c.03,.24-.03,.43-.17,.56-.14,.14-.33,.19-.58,.16-.24-.03-.45-.14-.63-.31-.17-.18-.28-.38-.32-.62-.2,.23-.49,.41-.87,.53-.38,.12-.79,.14-1.23,.06-.65-.12-1.26-.39-1.83-.82-.57-.43-1.04-.97-1.42-1.6-.38-.64-.61-1.32-.69-2.04-.09-.72-.01-1.33,.22-1.84,.23-.51,.59-.87,1.08-1.08,.48-.22,1.04-.27,1.67-.17,.45,.08,.88,.22,1.3,.44,.41,.22,.77,.47,1.07,.75h0c-.03-.25,.03-.44,.17-.57,.14-.14,.33-.19,.57-.16s.45,.13,.63,.3Zm-1.32,4.93c.33-.37,.46-.89,.38-1.54s-.34-1.23-.77-1.72c-.44-.49-.96-.79-1.57-.89-.6-.1-1.07,.03-1.4,.39-.33,.36-.46,.86-.38,1.51s.33,1.23,.77,1.73,.96,.81,1.57,.92,1.08-.03,1.42-.4Z"/><path class="f" d="M41.53,96.32c.17,.14,.26,.32,.29,.53,.01,.11,0,.25-.06,.41-.75,2.27-1.12,3.4-1.88,5.62-.05,.15-.13,.27-.24,.36-.11,.09-.25,.13-.4,.13h-.12c-.16,0-.31-.06-.46-.16-.15-.1-.27-.24-.36-.41-1.31-2.33-1.97-3.51-3.28-5.86-.08-.15-.13-.3-.15-.45-.02-.18,.04-.34,.18-.48,.14-.14,.33-.19,.56-.17,.18,.01,.34,.07,.5,.18,.16,.1,.29,.24,.38,.41,.98,1.79,1.47,2.68,2.45,4.46,.55-1.69,.82-2.55,1.36-4.27,.05-.17,.14-.3,.25-.39,.12-.09,.26-.12,.41-.12,.21,0,.41,.07,.58,.22Z"/><path class="f" d="M49.76,99.83c-.15,.15-.33,.24-.54,.26-1.8,.15-2.7,.2-4.51,.25,.18,.54,.48,.96,.91,1.26,.43,.3,.89,.43,1.39,.41,.37-.02,.66-.07,.86-.15,.2-.08,.36-.17,.47-.26,.11-.09,.19-.15,.23-.18,.15-.1,.3-.15,.45-.16,.19-.01,.36,.04,.52,.17,.15,.13,.24,.29,.27,.47,.03,.25-.07,.49-.29,.72-.23,.23-.54,.44-.95,.62-.41,.18-.83,.28-1.27,.3-.77,.04-1.46-.1-2.07-.41-.61-.31-1.11-.75-1.49-1.31-.38-.56-.62-1.2-.71-1.91-.1-.79-.02-1.49,.23-2.09,.26-.6,.63-1.07,1.13-1.41,.5-.34,1.05-.52,1.66-.56,.6-.03,1.19,.09,1.76,.39,.57,.29,1.05,.71,1.44,1.24,.39,.54,.64,1.15,.71,1.8,.02,.22-.04,.41-.19,.57Zm-5.21-.88c1.44-.04,2.15-.08,3.58-.19v-.1c-.1-.39-.33-.71-.7-.96s-.77-.37-1.2-.35c-1.06,.06-1.62,.58-1.68,1.59Z"/><path class="f" d="M59.22,100.48c.12,.11,.19,.26,.22,.47,.03,.25-.07,.5-.31,.72-.24,.23-.53,.37-.86,.43-.56,.1-1.04,.06-1.45-.13-.41-.19-.67-.68-.78-1.49l-.5-3.89c-.25,.04-.37,.06-.62,.1-.21,.03-.4-.01-.57-.14-.16-.13-.26-.3-.29-.53-.03-.22,.02-.41,.15-.57,.13-.17,.3-.27,.51-.3,.25-.04,.37-.06,.62-.1l-.12-.9c-.03-.24,.02-.46,.16-.65,.14-.19,.32-.31,.55-.35,.22-.04,.42,0,.59,.14,.17,.14,.28,.33,.31,.57,.05,.36,.07,.54,.12,.9,.38-.07,.57-.11,.95-.18,.21-.04,.4,0,.56,.12,.16,.12,.26,.3,.29,.52,.03,.22-.02,.41-.14,.59-.12,.18-.29,.28-.51,.33-.38,.08-.57,.11-.95,.18,.2,1.53,.3,2.3,.49,3.83,.03,.2,.09,.33,.2,.4,.11,.07,.25,.09,.42,.06,.07-.01,.18-.05,.29-.11,.1-.06,.2-.11,.3-.13,.13-.02,.25,.02,.37,.12Z"/><path class="f" d="M65.75,93.28c.41,.48,.68,1.23,.82,2.25,.19,1.46,.29,2.2,.48,3.66,.03,.25-.02,.48-.14,.68-.13,.21-.31,.34-.54,.4-.23,.06-.43,.03-.6-.1-.17-.13-.27-.31-.31-.56-.19-1.46-.29-2.19-.48-3.65-.07-.52-.22-.91-.45-1.16-.23-.25-.58-.31-1.06-.19-.5,.13-.86,.38-1.1,.77-.24,.39-.32,.82-.26,1.3,.19,1.45,.28,2.18,.47,3.64,.03,.25-.02,.47-.15,.67-.13,.2-.31,.33-.54,.38-.23,.05-.43,.01-.61-.12-.17-.13-.28-.32-.31-.57l-1.14-8.76c-.03-.25,.02-.47,.15-.67,.13-.2,.31-.33,.54-.38,.23-.05,.43-.02,.6,.11,.17,.13,.27,.32,.31,.56,.16,1.26,.25,1.88,.41,3.14,.19-.4,.46-.76,.8-1.1,.34-.33,.73-.56,1.18-.68,.87-.23,1.52-.11,1.93,.37Z"/><path class="f" d="M74.49,94.15c-.14,.2-.31,.34-.52,.41-1.73,.6-2.6,.88-4.34,1.42,.18,.53,.48,.9,.9,1.1,.42,.2,.87,.23,1.34,.08,.36-.12,.64-.24,.83-.38,.19-.14,.34-.27,.45-.39,.11-.12,.18-.2,.22-.25,.15-.14,.29-.23,.43-.28,.18-.06,.35-.04,.5,.05,.15,.1,.24,.25,.26,.44,.03,.26-.06,.54-.27,.83-.22,.3-.52,.6-.91,.89-.39,.29-.8,.5-1.22,.64-.74,.24-1.4,.27-2,.1-.59-.17-1.08-.5-1.46-1-.38-.5-.61-1.12-.71-1.85-.11-.82-.04-1.59,.19-2.3,.24-.72,.59-1.32,1.06-1.81,.47-.49,1-.84,1.59-1.03,.58-.19,1.14-.2,1.7-.03,.56,.17,1.03,.49,1.41,.97,.38,.48,.64,1.07,.71,1.75,.03,.23-.04,.45-.17,.65Zm-5.04,.39c1.38-.43,2.07-.65,3.45-1.12v-.1c-.1-.39-.33-.68-.69-.86-.36-.18-.75-.2-1.16-.06-1.02,.33-1.55,1.04-1.6,2.14Z"/><path class="f" d="M85.86,83.88c.03,.21,0,.44-.11,.69-.11,.27-.27,.45-.49,.54-.15,.06-.3,.08-.46,.06-.45-.04-.93,.04-1.42,.25-.6,.26-1.11,.62-1.52,1.1-.41,.47-.7,1.02-.88,1.64-.17,.62-.21,1.26-.12,1.93,.16,1.15,.55,1.91,1.18,2.28,.63,.37,1.39,.37,2.29,0,.53-.22,.97-.53,1.33-.92,.14-.14,.28-.24,.4-.29,.23-.1,.43-.07,.62,.08,.15,.13,.25,.3,.28,.52,.02,.16,0,.31-.04,.47-.05,.16-.14,.3-.26,.42-.62,.67-1.32,1.16-2.08,1.48-.85,.35-1.66,.47-2.43,.35-.77-.12-1.42-.49-1.95-1.11s-.87-1.49-1.02-2.6c-.13-.99-.05-1.95,.25-2.9,.3-.95,.77-1.78,1.42-2.52,.65-.74,1.42-1.29,2.31-1.68,.77-.33,1.51-.45,2.21-.36,.29,.04,.46,.23,.5,.57Z"/><path class="f" d="M93.42,81.77c.17,.1,.27,.28,.31,.55,.35,2.51,.52,3.76,.87,6.27,.04,.26,0,.51-.13,.75-.12,.24-.3,.41-.52,.52-.22,.1-.42,.1-.58,0-.17-.1-.27-.28-.31-.53-.18,.38-.43,.76-.77,1.13-.34,.37-.71,.64-1.12,.83-.6,.27-1.16,.33-1.69,.2-.53-.13-.98-.45-1.35-.94-.36-.5-.6-1.13-.71-1.92-.11-.78-.07-1.55,.12-2.29,.19-.74,.5-1.4,.93-1.96,.43-.56,.93-.98,1.51-1.24,.41-.19,.81-.28,1.2-.28,.38,0,.72,.08,1.01,.23h0c-.04-.27,0-.52,.13-.76,.12-.24,.3-.42,.52-.52s.42-.11,.59-.01Zm-1.01,6.47c.29-.63,.38-1.3,.29-2.01-.1-.71-.36-1.22-.77-1.53-.42-.31-.91-.33-1.47-.08-.55,.25-.97,.69-1.26,1.33-.29,.63-.38,1.3-.29,2.01,.1,.71,.35,1.22,.77,1.53,.41,.31,.9,.34,1.46,.09,.56-.25,.99-.7,1.27-1.33Z"/><path class="f" d="M100.89,78.83c.42,.44,.7,1.19,.85,2.26,.22,1.53,.32,2.3,.54,3.83,.04,.26,0,.51-.13,.76-.12,.25-.29,.42-.52,.53s-.42,.11-.59,0c-.17-.1-.27-.28-.31-.54-.21-1.53-.32-2.3-.54-3.82-.08-.55-.24-.93-.48-1.15-.24-.22-.6-.21-1.08,.03-.5,.24-.86,.6-1.1,1.07-.24,.47-.32,.96-.25,1.46,.21,1.52,.32,2.29,.53,3.81,.04,.26,0,.51-.13,.75-.12,.24-.29,.42-.52,.52-.22,.11-.42,.11-.59,0-.17-.1-.27-.29-.31-.54-.34-2.45-.51-3.68-.85-6.14-.04-.26,0-.51,.13-.75,.12-.24,.29-.42,.52-.53,.22-.11,.42-.11,.59,0,.17,.1,.27,.28,.31,.54l.04,.25c.18-.47,.44-.92,.78-1.36,.34-.44,.73-.77,1.17-.99,.87-.43,1.52-.43,1.94,.01Z"/><path class="f" d="M108.66,71.09c.17,.1,.27,.28,.31,.55,.53,3.74,.8,5.61,1.34,9.35,.04,.26,0,.52-.12,.77-.12,.25-.29,.43-.52,.54-.22,.11-.42,.11-.58,.01-.17-.1-.27-.28-.32-.54-.17,.4-.43,.79-.76,1.17-.34,.39-.71,.68-1.11,.87-.59,.29-1.15,.37-1.69,.25-.53-.12-.98-.43-1.35-.92-.37-.49-.61-1.14-.72-1.94-.11-.8-.08-1.58,.11-2.36,.18-.77,.49-1.45,.91-2.05,.42-.59,.92-1.03,1.5-1.32,.41-.21,.81-.31,1.19-.32,.38,0,.72,.07,1.01,.21-.17-1.18-.25-1.78-.42-2.96-.04-.26,0-.52,.12-.77,.12-.25,.29-.43,.51-.54s.42-.12,.59-.02Zm-.55,9.59c.28-.65,.37-1.34,.27-2.06-.1-.72-.37-1.24-.78-1.55-.42-.31-.91-.32-1.46-.04-.55,.27-.96,.74-1.25,1.4-.28,.66-.37,1.34-.27,2.06,.1,.72,.36,1.23,.78,1.54s.9,.32,1.46,.05,.98-.74,1.26-1.39Z"/><path class="f" d="M116.64,70.43c.17,.11,.28,.29,.32,.56l.94,6.49c.19,1.32,.03,2.43-.48,3.33s-1.28,1.58-2.28,2.07c-.29,.14-.6,.26-.91,.35-.31,.09-.57,.14-.77,.14-.45,0-.7-.2-.76-.57-.01-.07,0-.16,0-.26,.02-.25,.08-.46,.19-.64,.11-.18,.23-.3,.38-.37,.09-.04,.17-.07,.25-.07,.06,0,.18,0,.34,0,.16,0,.33-.02,.5-.06,.17-.04,.35-.1,.53-.19,.61-.3,1.04-.67,1.28-1.12,.24-.45,.31-1.05,.2-1.8l-.02-.15c-.35,.88-1,1.55-1.94,2.01-.45,.22-.86,.29-1.24,.21-.38-.08-.69-.29-.95-.64-.25-.35-.42-.8-.5-1.37-.25-1.77-.38-2.66-.63-4.43-.04-.26,0-.52,.12-.77,.12-.25,.29-.43,.51-.54,.22-.11,.42-.12,.59-.01,.17,.1,.28,.29,.31,.55,.22,1.56,.34,2.33,.56,3.89,.09,.64,.28,1.04,.55,1.2,.28,.16,.64,.13,1.1-.09,.45-.22,.77-.54,.97-.97,.2-.43,.26-.93,.17-1.51-.23-1.56-.34-2.34-.56-3.9-.04-.26,0-.52,.12-.77,.12-.25,.29-.43,.51-.54,.22-.11,.42-.11,.59,0Z"/><path class="f" d="M119.87,77.07c-.16-.09-.26-.29-.3-.59l-.04-.26c-.04-.3,0-.55,.1-.78,.11-.22,.29-.39,.54-.51l.17-.08c.25-.12,.45-.13,.61-.04,.16,.09,.26,.29,.3,.59l.04,.26c.04,.3,.01,.56-.1,.78-.11,.22-.29,.39-.54,.51l-.17,.08c-.25,.12-.45,.13-.61,.04Zm-.35-3.82c-.48-2.18-.72-3.27-1.19-5.45-.06-.31-.03-.61,.1-.9,.13-.29,.32-.5,.58-.63s.48-.12,.68,.01c.19,.14,.3,.37,.32,.7,.18,2.33,.28,3.49,.46,5.82,.03,.4-.1,.67-.38,.81-.29,.14-.48,.02-.56-.35Z"/><path class="f" d="M27.18,108.44c.18,.18,.28,.39,.31,.63,.03,.23-.03,.4-.18,.5-.15,.1-.35,.11-.61,.05-.9-.24-1.35-.36-2.26-.63,.33,2.82,.5,4.23,.84,7.04,.03,.23-.04,.4-.21,.5-.16,.1-.38,.11-.65,.02-.27-.09-.5-.24-.7-.45-.19-.21-.3-.44-.33-.67-.33-2.81-.5-4.21-.83-7.02-.91-.29-1.37-.45-2.28-.78-.26-.09-.48-.24-.67-.45-.18-.2-.29-.42-.31-.65-.03-.22,.04-.37,.19-.45,.15-.08,.36-.07,.61,.01,2.58,.92,3.87,1.31,6.41,1.97,.26,.07,.48,.19,.66,.38Z"/><path class="f" d="M35.16,112.21c.18,.18,.28,.39,.31,.63l.71,5.8c.14,1.18-.08,2-.68,2.43-.6,.43-1.45,.55-2.56,.32-.32-.07-.66-.16-1-.28-.34-.12-.63-.25-.85-.38-.49-.3-.76-.62-.8-.95,0-.06,0-.13,.02-.21,.03-.18,.11-.31,.24-.38,.13-.07,.27-.09,.43-.05,.09,.02,.19,.05,.28,.1,.07,.04,.19,.11,.37,.21,.17,.1,.36,.19,.55,.27s.39,.14,.59,.18c.67,.14,1.15,.09,1.44-.13,.28-.22,.38-.67,.3-1.34l-.02-.14c-.42,.51-1.15,.66-2.2,.45-.49-.1-.95-.31-1.35-.61-.41-.31-.74-.68-1-1.12-.26-.44-.42-.92-.48-1.42l-.47-3.95c-.03-.23,.03-.41,.17-.53,.14-.12,.34-.15,.58-.1,.25,.05,.46,.18,.64,.37,.18,.19,.29,.41,.31,.64,.17,1.39,.25,2.08,.42,3.47,.07,.57,.25,1.01,.54,1.31s.69,.51,1.19,.6c.49,.09,.86,.03,1.09-.2,.24-.23,.32-.6,.26-1.12-.17-1.39-.25-2.09-.42-3.49-.03-.24,.03-.42,.17-.55,.14-.13,.33-.18,.58-.14,.25,.04,.46,.15,.64,.33Z"/><path class="f" d="M42.85,113c.56,.35,1.02,.81,1.4,1.4,.37,.59,.61,1.25,.7,1.99,.09,.74,.03,1.4-.2,1.97-.22,.58-.57,1.02-1.05,1.32s-1.02,.43-1.65,.39c-.45-.03-.88-.15-1.3-.37-.42-.21-.78-.46-1.07-.74,.13,1.08,.2,1.61,.33,2.69,.03,.24-.03,.43-.17,.57-.14,.14-.33,.2-.58,.17-.24-.03-.46-.13-.63-.31-.18-.18-.28-.39-.31-.63-.41-3.36-.62-5.04-1.03-8.39-.03-.24,.03-.43,.17-.57,.14-.14,.33-.2,.57-.18,.24,.02,.45,.12,.63,.3,.18,.17,.28,.38,.31,.62v.05c.2-.25,.48-.47,.85-.64,.37-.18,.78-.25,1.22-.22,.64,.04,1.24,.23,1.8,.57Zm.13,4.97c.33-.42,.45-.97,.37-1.63-.08-.66-.34-1.22-.77-1.67-.43-.45-.95-.7-1.55-.74-.6-.04-1.07,.14-1.4,.54-.33,.4-.45,.93-.37,1.59,.08,.66,.34,1.23,.78,1.7,.44,.47,.96,.74,1.56,.78,.6,.04,1.06-.15,1.38-.57Z"/><path class="f" d="M52.72,116.53c-.15,.15-.33,.24-.55,.25-1.81,.13-2.71,.17-4.54,.19,.18,.54,.49,.97,.92,1.27,.43,.3,.9,.44,1.4,.43,.38-.01,.66-.06,.87-.14,.2-.08,.36-.16,.47-.25,.11-.09,.19-.14,.23-.18,.15-.09,.3-.14,.45-.15,.19-.01,.36,.05,.52,.18,.15,.13,.24,.29,.27,.47,.03,.25-.07,.49-.3,.71-.23,.23-.55,.43-.96,.61-.41,.17-.84,.27-1.28,.28-.77,.03-1.47-.12-2.08-.44-.62-.32-1.12-.76-1.5-1.33-.39-.57-.62-1.21-.71-1.92-.1-.79-.02-1.49,.24-2.09,.26-.6,.64-1.07,1.14-1.4,.5-.33,1.06-.51,1.67-.54,.6-.03,1.19,.11,1.77,.41,.58,.3,1.06,.72,1.45,1.26,.39,.54,.64,1.16,.71,1.81,.02,.22-.04,.41-.19,.57Zm-5.24-.94c1.45-.02,2.17-.05,3.6-.14v-.1c-.1-.39-.33-.71-.7-.97-.37-.26-.77-.38-1.2-.36-1.06,.04-1.63,.56-1.7,1.57Z"/><path class="f" d="M57.54,110.71c-.14-.08-.23-.26-.26-.52l-.03-.27c-.03-.26,.01-.46,.13-.58,.12-.12,.33-.21,.63-.26,.32-.05,.54-.04,.68,.05s.23,.26,.26,.52l.03,.27c.04,.27,0,.47-.12,.59-.12,.12-.33,.21-.65,.26-.31,.05-.53,.03-.67-.06Zm2.32,8.18c-.13,.19-.32,.3-.55,.33-.23,.03-.44-.02-.61-.16-.18-.14-.28-.34-.31-.58-.3-2.33-.45-3.49-.75-5.82-.03-.24,.02-.46,.15-.65,.13-.19,.32-.3,.55-.34,.23-.04,.44,.01,.61,.15,.17,.14,.28,.33,.31,.58,.3,2.33,.45,3.5,.75,5.83,.03,.24-.02,.46-.15,.65Z"/><path class="f" d="M66.62,110.76c.42,.49,.7,1.24,.83,2.26,.19,1.46,.29,2.19,.48,3.65,.03,.25-.02,.47-.15,.67-.13,.2-.31,.33-.54,.38-.23,.05-.44,.01-.61-.12-.17-.13-.28-.32-.31-.57-.19-1.46-.29-2.19-.48-3.64-.07-.52-.22-.91-.47-1.16-.24-.25-.62-.32-1.12-.21-.52,.11-.91,.35-1.16,.73-.25,.38-.35,.8-.29,1.29,.19,1.45,.28,2.18,.47,3.63,.03,.25-.02,.47-.15,.66-.13,.19-.31,.31-.55,.36-.23,.04-.44,0-.61-.14-.17-.14-.28-.33-.31-.58l-.76-5.84c-.03-.25,.02-.46,.15-.66,.13-.19,.31-.31,.55-.36,.23-.04,.44,0,.61,.14,.17,.14,.28,.33,.31,.57l.03,.24c.2-.39,.47-.75,.83-1.07,.36-.33,.77-.54,1.23-.65,.91-.2,1.58-.07,2,.42Z"/><path class="f" d="M77.08,113.53c.12,.1,.19,.25,.22,.46,.03,.26-.07,.52-.3,.78-.24,.26-.52,.44-.84,.54-.55,.17-1.03,.18-1.44,.04-.41-.14-.67-.63-.78-1.45-.21-1.59-.32-2.38-.53-3.97-.24,.07-.37,.11-.61,.18-.21,.06-.4,.04-.56-.07-.16-.11-.26-.28-.29-.51-.03-.22,.02-.43,.14-.62,.12-.19,.29-.32,.5-.38,.24-.07,.37-.11,.61-.18-.05-.37-.07-.55-.12-.92-.03-.25,.02-.48,.15-.7,.13-.22,.31-.36,.54-.43,.22-.07,.42-.04,.59,.08,.17,.12,.28,.31,.31,.56l.12,.92c.38-.12,.56-.18,.94-.3,.21-.07,.4-.05,.56,.06,.16,.11,.26,.28,.29,.51,.03,.22-.02,.43-.14,.63-.12,.2-.29,.33-.5,.4-.38,.12-.56,.18-.94,.3l.52,3.91c.03,.2,.09,.33,.2,.39s.25,.07,.42,.01c.07-.02,.18-.07,.28-.15,.1-.07,.2-.14,.3-.17,.12-.04,.24-.01,.36,.09Z"/><path class="f" d="M83.49,105.41c.41,.46,.69,1.21,.83,2.25,.2,1.49,.3,2.24,.51,3.74,.03,.25-.01,.49-.14,.72-.13,.23-.3,.38-.53,.47-.23,.08-.43,.07-.6-.05-.17-.12-.27-.3-.31-.55l-.5-3.73c-.07-.53-.22-.92-.45-1.15-.23-.24-.58-.27-1.05-.09-.49,.18-.85,.48-1.08,.9-.23,.42-.32,.88-.25,1.37,.2,1.49,.3,2.23,.5,3.71,.03,.25-.01,.49-.14,.71-.13,.22-.3,.37-.53,.45-.23,.08-.43,.06-.6-.06-.17-.12-.28-.3-.31-.55l-1.2-8.95c-.03-.25,.01-.49,.14-.71,.13-.22,.3-.37,.53-.45,.23-.08,.43-.06,.6,.05,.17,.12,.27,.3,.31,.55,.17,1.28,.26,1.92,.43,3.21,.19-.43,.45-.84,.78-1.22,.33-.38,.72-.65,1.16-.82,.87-.32,1.5-.26,1.91,.2Z"/><path class="f" d="M92.19,105.66c-.14,.21-.31,.36-.52,.45-1.72,.72-2.58,1.08-4.31,1.77,.18,.53,.48,.89,.9,1.07,.42,.18,.87,.17,1.34-.02,.36-.14,.63-.3,.82-.45,.19-.16,.34-.3,.44-.43,.11-.13,.18-.22,.22-.27,.14-.15,.29-.26,.43-.32,.18-.08,.35-.07,.5,.02,.15,.09,.24,.24,.27,.43,.04,.27-.06,.56-.27,.87-.21,.32-.51,.65-.9,.98-.39,.33-.79,.57-1.21,.74-.73,.3-1.4,.38-1.99,.25-.59-.13-1.08-.43-1.46-.92-.38-.48-.62-1.1-.72-1.85-.11-.84-.06-1.63,.17-2.39,.23-.76,.58-1.41,1.04-1.95,.47-.54,.99-.94,1.58-1.18,.57-.24,1.14-.29,1.7-.15,.56,.14,1.03,.44,1.41,.91,.39,.47,.64,1.07,.72,1.75,.03,.23-.03,.47-.17,.68Zm-5.02,.75c1.37-.55,2.05-.83,3.42-1.4v-.1c-.11-.4-.33-.68-.69-.84s-.75-.15-1.16,.01c-1.01,.42-1.53,1.19-1.57,2.33Z"/><path class="f" d="M106.66,95.26c.41,.45,.7,1.21,.85,2.28,.22,1.54,.33,2.31,.55,3.85,.04,.26,0,.51-.13,.76-.12,.24-.3,.42-.52,.52-.23,.1-.42,.1-.6,0-.17-.11-.28-.29-.31-.55-.22-1.54-.33-2.3-.54-3.84-.08-.55-.23-.94-.46-1.17-.23-.23-.58-.23-1.04-.01-.48,.23-.84,.57-1.06,1.03-.23,.46-.3,.94-.23,1.45,.22,1.53,.32,2.3,.54,3.83,.04,.26,0,.51-.13,.75-.12,.24-.3,.41-.52,.52-.23,.1-.42,.1-.6,0-.17-.11-.28-.29-.31-.55-.21-1.53-.32-2.29-.54-3.82-.08-.55-.23-.93-.46-1.16-.23-.23-.58-.23-1.04-.02-.48,.22-.84,.56-1.07,1.02-.23,.46-.3,.94-.23,1.44l.53,3.81c.04,.26,0,.51-.13,.75-.12,.24-.3,.41-.52,.51-.23,.1-.42,.09-.6-.01-.17-.11-.28-.29-.31-.55-.34-2.45-.51-3.68-.85-6.13-.04-.26,0-.51,.13-.75,.12-.24,.3-.41,.52-.51,.23-.1,.42-.1,.59,0,.17,.11,.28,.29,.31,.55l.03,.24c.18-.46,.44-.9,.76-1.32,.32-.42,.71-.73,1.15-.93,1.09-.5,1.86-.28,2.32,.67,.14-.51,.39-1.03,.74-1.56s.78-.91,1.29-1.15c.85-.4,1.49-.38,1.9,.07Z"/><path class="f" d="M114.89,90.65c.17,.1,.28,.29,.32,.56,.37,2.57,.55,3.85,.92,6.42,.04,.26,0,.52-.13,.76-.12,.25-.3,.42-.52,.52-.22,.1-.42,.1-.59,0-.17-.11-.27-.29-.32-.55-.17,.39-.43,.78-.77,1.16-.34,.38-.71,.66-1.12,.85-.6,.28-1.16,.35-1.7,.22-.54-.13-.99-.45-1.36-.95-.37-.5-.61-1.15-.73-1.96-.11-.8-.08-1.59,.11-2.36,.19-.77,.49-1.44,.92-2.03,.43-.58,.93-1.01,1.51-1.29,.41-.2,.81-.29,1.2-.29,.39,0,.73,.08,1.01,.24h0c-.04-.28,0-.53,.12-.78,.12-.25,.29-.42,.52-.53,.22-.11,.42-.11,.59,0Zm-.97,6.62c.29-.65,.38-1.33,.27-2.06-.1-.73-.37-1.25-.79-1.57-.42-.32-.91-.34-1.48-.08-.55,.26-.97,.72-1.26,1.37-.29,.65-.38,1.34-.27,2.06s.36,1.24,.78,1.56c.42,.31,.91,.34,1.47,.08,.56-.26,.99-.72,1.27-1.36Z"/><path class="f" d="M121.42,94.58c.12,.09,.2,.25,.23,.47,.04,.28-.06,.57-.28,.87-.23,.3-.5,.53-.82,.68-.54,.24-1.01,.32-1.42,.22-.41-.1-.67-.59-.8-1.46-.24-1.68-.36-2.52-.61-4.2-.24,.11-.36,.17-.6,.28-.21,.1-.39,.1-.55,0-.16-.1-.26-.27-.29-.51-.03-.23,0-.46,.12-.68,.12-.22,.28-.38,.48-.48,.24-.11,.36-.17,.6-.28l-.14-.97c-.04-.26,0-.52,.13-.77,.12-.25,.3-.43,.52-.53,.22-.1,.41-.1,.58,.01,.17,.11,.28,.3,.32,.56l.14,.98c.37-.17,.55-.26,.92-.43,.21-.1,.39-.1,.55,0,.16,.1,.26,.27,.3,.52,.03,.23,0,.46-.12,.69-.11,.22-.28,.38-.48,.48-.37,.17-.55,.26-.92,.43l.6,4.14c.03,.21,.1,.35,.21,.4,.11,.05,.25,.04,.41-.03,.07-.03,.17-.1,.28-.19,.1-.09,.19-.17,.29-.21,.12-.06,.24-.04,.36,.06Z"/><path class="f" d="M127.61,85.49c.42,.48,.71,1.27,.87,2.37,.23,1.58,.35,2.37,.58,3.95,.04,.27,0,.52-.12,.77-.12,.24-.29,.41-.52,.51-.23,.1-.43,.09-.6-.03-.17-.12-.28-.31-.32-.57-.23-1.58-.35-2.37-.58-3.94-.08-.56-.24-.97-.48-1.21-.23-.24-.58-.26-1.05-.05-.49,.22-.84,.56-1.06,1.03-.22,.47-.3,.96-.22,1.48,.23,1.57,.34,2.36,.57,3.93,.04,.27,0,.52-.12,.77-.12,.24-.29,.42-.52,.52-.23,.1-.42,.1-.6-.02-.17-.11-.28-.3-.32-.57-.55-3.79-.83-5.68-1.38-9.47-.04-.27,0-.52,.12-.77,.12-.25,.29-.42,.52-.53,.22-.1,.42-.1,.6,.01,.17,.11,.28,.3,.32,.57,.2,1.36,.3,2.04,.5,3.39,.18-.47,.43-.92,.75-1.35,.32-.42,.7-.74,1.14-.93,.86-.39,1.5-.34,1.92,.14Z"/><path class="f" d="M137.64,80.59c.21,.11,.33,.28,.36,.52,.05,.32,.01,.59-.1,.81-.12,.22-.27,.36-.46,.44-.13,.05-.28,.07-.46,.07-.03,0-.09,0-.19,0-.1,0-.2,.03-.3,.07-.23,.09-.43,.26-.62,.51-.18,.25-.32,.57-.4,.96-.09,.39-.09,.82-.02,1.29,.22,1.48,.33,2.21,.55,3.69,.04,.27,0,.53-.12,.77-.12,.24-.3,.41-.52,.5-.23,.09-.43,.08-.6-.05-.18-.12-.28-.32-.32-.59l-.95-6.41c-.04-.27,0-.53,.12-.77,.12-.24,.29-.41,.52-.5,.23-.09,.43-.08,.6,.04,.17,.12,.28,.32,.32,.59l.03,.2c.14-.51,.38-.95,.72-1.32,.34-.37,.73-.64,1.15-.81,.26-.1,.49-.1,.7,0Z"/><path class="f" d="M145.47,82.5c-.13,.21-.31,.35-.52,.42-1.74,.59-2.61,.89-4.34,1.53,.2,.58,.51,.97,.94,1.19,.43,.21,.88,.24,1.36,.07,.36-.13,.63-.26,.83-.41,.19-.15,.34-.29,.44-.42,.11-.13,.18-.22,.22-.26,.14-.15,.29-.25,.43-.29,.18-.06,.35-.04,.51,.08,.16,.11,.25,.28,.28,.49,.04,.28-.05,.58-.25,.89-.21,.32-.51,.64-.9,.95-.39,.31-.79,.54-1.22,.68-.74,.26-1.41,.3-2.01,.14-.6-.17-1.1-.51-1.49-1.04-.39-.53-.65-1.19-.77-2-.13-.9-.09-1.74,.12-2.54,.21-.8,.55-1.47,1.01-2.03,.46-.55,.99-.94,1.57-1.15,.58-.21,1.15-.22,1.72-.02,.57,.2,1.06,.57,1.46,1.1,.4,.54,.68,1.19,.78,1.92,.03,.25-.02,.49-.16,.7Zm-5.08,.38c1.38-.51,2.07-.76,3.45-1.23l-.02-.11c-.1-.43-.34-.74-.71-.94-.37-.2-.76-.23-1.18-.08-1.02,.37-1.53,1.16-1.54,2.37Z"/><path class="f" d="M146.82,84.17c-.04-.27,.04-.54,.24-.8,.11-.13,.23-.22,.36-.26,.19-.06,.38-.01,.57,.13,.31,.24,.63,.4,.94,.47,.31,.07,.68,.05,1.08-.07,.68-.22,.98-.64,.89-1.24-.05-.31-.2-.51-.46-.6-.26-.09-.65-.14-1.17-.15-.54-.01-.98-.05-1.33-.12-.35-.07-.66-.23-.95-.5-.29-.27-.47-.69-.56-1.27-.08-.51-.02-.98,.16-1.44,.19-.45,.46-.84,.82-1.17,.36-.33,.76-.56,1.2-.7,.45-.14,.92-.17,1.4-.11,.48,.07,.88,.26,1.2,.58,.14,.14,.23,.31,.26,.52,.04,.24-.02,.47-.16,.67-.11,.15-.24,.25-.4,.3-.19,.06-.37,.03-.51-.08-.19-.19-.43-.31-.7-.37s-.57-.04-.89,.05c-.67,.21-.96,.6-.87,1.18,.04,.23,.12,.4,.27,.5,.15,.1,.32,.17,.52,.19,.2,.02,.49,.04,.85,.05,.5,.02,.92,.06,1.27,.14,.35,.08,.65,.26,.93,.55,.28,.29,.46,.72,.54,1.29,.08,.52,.02,1.01-.18,1.46-.2,.46-.48,.84-.86,1.16-.37,.32-.77,.54-1.2,.66-.58,.17-1.15,.22-1.69,.14-.54-.08-1.01-.32-1.4-.73-.1-.1-.16-.25-.19-.43Z"/><path class="f" d="M158.64,74.3c.18,.15,.29,.37,.34,.65,.25,1.63,.38,2.44,.63,4.07,.18,1.15,.05,2.11-.38,2.87-.43,.76-1.14,1.25-2.12,1.47-.98,.23-1.79,.09-2.41-.43-.62-.51-1.02-1.34-1.2-2.49-.25-1.62-.37-2.42-.62-4.04-.04-.28,0-.53,.12-.75,.12-.23,.3-.37,.53-.43,.23-.06,.44-.02,.62,.13,.18,.15,.29,.36,.33,.64l.62,4.05c.1,.65,.29,1.1,.58,1.35,.29,.25,.67,.33,1.16,.21,.49-.11,.83-.35,1.03-.72,.19-.37,.24-.88,.14-1.53-.25-1.62-.37-2.44-.62-4.06-.04-.28,0-.53,.12-.75,.12-.22,.3-.36,.53-.41,.23-.05,.44,0,.62,.16Z"/><path class="f" d="M163.38,81.67c-.13,.21-.31,.34-.54,.38-.22,.04-.43-.02-.61-.18-.18-.16-.29-.38-.34-.66l-1.53-9.92c-.04-.28,0-.53,.13-.74,.13-.22,.31-.35,.54-.39,.22-.04,.43,.02,.61,.18,.18,.16,.29,.38,.34,.66l1.54,9.94c.04,.28,0,.53-.13,.74Z"/><path class="f" d="M169.12,79.57c.13,.14,.21,.32,.25,.56,.05,.29-.05,.55-.29,.78-.24,.23-.52,.36-.86,.39-.56,.06-1.06-.02-1.49-.26s-.72-.82-.86-1.74c-.28-1.78-.42-2.67-.69-4.45-.25,.03-.37,.05-.62,.09-.22,.03-.41-.03-.58-.18-.17-.15-.28-.35-.32-.61-.04-.25,0-.47,.12-.65,.12-.19,.29-.3,.5-.33,.25-.04,.37-.06,.62-.09-.06-.41-.1-.62-.16-1.03-.04-.28,0-.53,.13-.74,.13-.21,.31-.33,.54-.36,.23-.03,.43,.04,.61,.21,.18,.17,.3,.39,.34,.67,.06,.41,.1,.62,.16,1.03,.39-.05,.58-.07,.96-.11,.22-.02,.41,.04,.58,.2,.17,.16,.28,.37,.32,.63,.04,.25,0,.46-.12,.65-.12,.18-.29,.28-.51,.31-.39,.04-.58,.06-.96,.11,.27,1.75,.41,2.63,.68,4.38,.04,.23,.11,.39,.23,.48,.12,.09,.26,.13,.43,.11,.07,0,.18-.04,.29-.1,.1-.05,.2-.1,.3-.11,.13-.01,.25,.05,.38,.18Z"/><path class="f" d="M180.16,72.27c.19,.19,.3,.44,.35,.74l1.1,6.95c.05,.29,0,.52-.12,.7-.13,.18-.31,.27-.55,.25-.24-.01-.45-.11-.64-.31-.18-.19-.3-.43-.36-.72-.18,.31-.45,.57-.81,.78-.36,.21-.75,.32-1.19,.31-.64,0-1.24-.2-1.82-.58-.58-.38-1.07-.91-1.47-1.58-.41-.68-.68-1.45-.81-2.32-.14-.87-.11-1.65,.07-2.35,.18-.7,.5-1.25,.95-1.65,.45-.4,.98-.6,1.6-.6,.44,0,.87,.1,1.29,.3,.42,.2,.78,.45,1.1,.75v-.02c-.05-.28,0-.52,.12-.71,.13-.19,.31-.28,.55-.27s.45,.11,.64,.31Zm-.94,6.17c.3-.51,.38-1.15,.26-1.94-.12-.79-.42-1.45-.88-1.99-.46-.53-.99-.81-1.59-.81-.59,0-1.03,.26-1.33,.79-.29,.53-.38,1.18-.26,1.97s.41,1.43,.87,1.95c.45,.51,.98,.77,1.58,.78,.6,0,1.05-.24,1.35-.75Z"/><path class="f" d="M188.33,73.83c.47,.73,.81,1.69,1,2.87,.27,1.7,.41,2.55,.68,4.25,.05,.29,0,.51-.13,.68-.13,.17-.32,.23-.56,.19-.25-.04-.46-.17-.66-.39-.19-.22-.31-.47-.36-.76-.27-1.7-.41-2.54-.68-4.24-.1-.61-.28-1.1-.55-1.48-.27-.38-.67-.6-1.2-.67-.54-.07-.94,.07-1.19,.4-.25,.34-.33,.78-.24,1.35,.27,1.69,.4,2.54,.67,4.23,.05,.29,0,.52-.12,.69-.13,.18-.31,.25-.56,.23-.24-.02-.46-.14-.65-.35-.19-.21-.31-.45-.35-.74-.43-2.72-.65-4.08-1.08-6.8-.05-.29,0-.52,.12-.7,.13-.18,.31-.26,.55-.24,.24,.02,.46,.14,.65,.34,.19,.21,.31,.46,.35,.74l.04,.28c.19-.37,.46-.68,.83-.92,.36-.24,.79-.33,1.27-.26,.96,.13,1.68,.57,2.15,1.29Z"/><path class="f" d="M196.89,71.93c.19,.24,.32,.51,.36,.81,.67,4.15,1.01,6.22,1.68,10.37,.05,.29,0,.51-.13,.65-.13,.15-.32,.18-.57,.11-.25-.07-.47-.23-.66-.46-.19-.23-.31-.5-.37-.79-.19,.26-.47,.44-.84,.56-.37,.12-.78,.12-1.23,0-.66-.16-1.29-.5-1.89-1.01-.6-.51-1.11-1.15-1.53-1.91-.42-.76-.7-1.58-.84-2.47-.14-.89-.12-1.65,.07-2.3,.19-.64,.52-1.11,.98-1.39,.46-.28,1.01-.35,1.65-.2,.46,.11,.9,.31,1.34,.61,.43,.3,.81,.64,1.14,1.02-.21-1.31-.32-1.97-.53-3.28-.05-.29,0-.51,.13-.66,.13-.15,.32-.19,.57-.12,.25,.07,.47,.22,.67,.46Zm-.44,9.08c.31-.42,.4-1.03,.27-1.84-.13-.8-.44-1.53-.91-2.17-.48-.64-1.03-1.04-1.65-1.19-.61-.15-1.07,0-1.37,.45-.3,.45-.39,1.07-.26,1.87,.13,.8,.43,1.5,.9,2.12s1.02,1,1.64,1.15c.62,.16,1.09,.03,1.39-.4Z"/><path class="f" d="M31.44,127.42c.18,.2,.28,.42,.31,.66,0,.08,0,.18-.02,.3-.61,2.02-.92,3.01-1.54,4.99-.04,.15-.13,.24-.27,.3-.14,.05-.29,.05-.47,0l-.12-.05c-.33-.12-.6-.36-.8-.74-.65-1.48-.98-2.22-1.63-3.7-.31,1.17-.47,1.75-.79,2.91-.13,.27-.36,.35-.69,.25l-.12-.03c-.18-.06-.34-.17-.51-.32-.16-.15-.28-.31-.36-.5-1.16-2.54-1.74-3.81-2.89-6.36-.05-.11-.08-.22-.09-.33-.03-.22,.03-.38,.17-.49,.14-.1,.34-.1,.61,0,.2,.07,.37,.18,.52,.32,.15,.14,.27,.3,.34,.49,.82,1.8,1.23,2.7,2.04,4.49,.33-.99,.49-1.48,.81-2.48,.12-.28,.36-.36,.74-.24,.2,.06,.36,.15,.49,.27,.12,.12,.23,.27,.33,.46,.58,1.26,.87,1.89,1.45,3.15,.44-1.37,.65-2.06,1.08-3.45,.04-.16,.12-.26,.26-.31,.13-.05,.31-.04,.52,0,.23,.06,.43,.19,.61,.38Z"/><path class="f" d="M39.05,129.32c.43,.6,.7,1.39,.82,2.37,.17,1.4,.26,2.1,.43,3.51,.03,.24-.03,.42-.17,.56-.14,.14-.33,.19-.58,.15-.25-.04-.46-.15-.64-.34-.18-.19-.29-.4-.31-.63-.17-1.4-.26-2.1-.43-3.5-.06-.5-.21-.91-.45-1.23-.24-.32-.61-.52-1.13-.61-.53-.09-.93-.02-1.19,.23-.26,.25-.37,.6-.31,1.06l.42,3.48c.03,.24-.03,.42-.17,.54-.14,.12-.34,.16-.59,.11-.25-.05-.46-.18-.65-.38-.18-.2-.29-.41-.32-.65-.4-3.35-.61-5.03-1.01-8.39-.03-.23,.03-.41,.17-.54,.14-.12,.34-.16,.59-.11,.25,.05,.46,.17,.64,.36,.18,.19,.29,.4,.31,.64l.36,3.01c.22-.28,.51-.49,.88-.65,.37-.16,.79-.2,1.27-.12,.94,.16,1.62,.52,2.04,1.12Z"/><path class="f" d="M48.3,133.4c-.15,.13-.34,.2-.56,.19-1.84-.06-2.77-.12-4.63-.3,.18,.55,.49,1,.93,1.34,.44,.34,.91,.53,1.42,.57,.38,.03,.68,0,.88-.05,.21-.06,.37-.12,.48-.19,.12-.07,.2-.12,.24-.15,.16-.07,.31-.11,.46-.1,.2,0,.37,.08,.53,.23,.16,.14,.25,.31,.27,.49,.03,.25-.08,.47-.31,.66-.23,.2-.56,.37-.98,.49-.42,.12-.86,.17-1.3,.14-.79-.06-1.49-.28-2.12-.65-.63-.38-1.14-.87-1.52-1.47-.39-.6-.63-1.25-.71-1.96-.1-.79-.01-1.46,.25-2.02,.27-.56,.66-.97,1.17-1.24,.51-.27,1.08-.38,1.71-.34,.62,.04,1.22,.23,1.8,.59,.59,.35,1.08,.82,1.47,1.39,.4,.57,.65,1.2,.72,1.84,.02,.22-.05,.4-.2,.53Zm-5.34-1.48c1.47,.14,2.21,.19,3.67,.25v-.1c-.1-.39-.33-.73-.71-1.02s-.79-.45-1.23-.48c-1.08-.07-1.66,.37-1.74,1.35Z"/><path class="f" d="M55.43,129.84c.43,.54,.71,1.31,.83,2.31,.18,1.43,.27,2.15,.46,3.59,.03,.24-.02,.45-.16,.63-.14,.17-.32,.27-.56,.28-.24,.01-.45-.06-.62-.21-.18-.15-.28-.35-.31-.6-.18-1.43-.27-2.15-.45-3.58-.07-.51-.22-.91-.47-1.19-.25-.28-.63-.41-1.14-.39-.53,.02-.93,.19-1.2,.51-.27,.32-.37,.71-.31,1.19,.18,1.43,.27,2.14,.45,3.56,.03,.24-.02,.44-.16,.61-.14,.16-.33,.25-.57,.25-.24,0-.45-.08-.63-.25-.18-.16-.28-.37-.31-.61-.29-2.29-.43-3.44-.72-5.74-.03-.24,.02-.44,.16-.6,.14-.16,.33-.24,.56-.25,.24,0,.45,.08,.63,.24,.18,.16,.28,.36,.31,.6l.03,.24c.21-.34,.5-.63,.87-.89,.37-.25,.79-.39,1.27-.42,.94-.05,1.62,.19,2.05,.73Z"/><path class="f" d="M61.39,127.39c-.14-.08-.23-.26-.26-.52l-.03-.27c-.03-.26,.01-.46,.13-.58,.12-.12,.33-.21,.63-.25,.32-.05,.54-.03,.68,.05s.23,.26,.26,.52l.03,.27c.04,.27,0,.47-.12,.59-.12,.12-.34,.2-.65,.25-.31,.05-.53,.03-.67-.06Zm2.33,8.21c-.13,.19-.32,.3-.55,.33-.24,.03-.44-.02-.62-.17-.18-.14-.28-.34-.31-.58-.3-2.33-.45-3.5-.75-5.83-.03-.24,.02-.46,.15-.65,.13-.19,.32-.3,.55-.33,.24-.04,.44,.02,.62,.16,.17,.14,.28,.33,.31,.58l.76,5.84c.03,.25-.02,.46-.15,.65Z"/><path class="f" d="M69.31,133.41c.12,.11,.19,.26,.22,.47,.03,.26-.07,.5-.31,.73-.24,.23-.53,.38-.86,.44-.56,.11-1.05,.07-1.46-.11-.42-.18-.68-.68-.78-1.5-.2-1.57-.31-2.35-.51-3.92-.25,.05-.37,.07-.62,.11-.22,.04-.41,0-.57-.13-.16-.13-.26-.3-.29-.53-.03-.22,.02-.41,.15-.58,.13-.17,.3-.28,.51-.31,.25-.04,.37-.07,.62-.11l-.12-.91c-.03-.25,.02-.47,.16-.66,.14-.2,.32-.32,.55-.36,.22-.04,.42,0,.6,.14,.17,.13,.28,.33,.31,.57,.05,.36,.07,.55,.12,.91,.38-.08,.57-.12,.96-.2,.22-.05,.41,0,.57,.11,.16,.12,.26,.3,.29,.52,.03,.22-.02,.42-.14,.6-.12,.18-.29,.29-.51,.33-.38,.08-.57,.12-.96,.19,.2,1.54,.3,2.31,.5,3.86,.03,.2,.09,.33,.2,.41,.11,.07,.25,.09,.42,.06,.07-.01,.18-.05,.29-.12,.1-.06,.2-.11,.3-.13,.13-.03,.25,.01,.37,.12Z"/><path class="f" d="M71.99,126.31c-.11,.37-.27,.71-.47,1.02-.21,.31-.44,.49-.7,.55-.2,.05-.36,.04-.49-.03-.13-.06-.21-.2-.23-.4-.02-.15,0-.27,.07-.35,.06-.08,.14-.14,.22-.19,.08-.05,.14-.09,.17-.11,.23-.2,.33-.42,.3-.66-.01-.1-.07-.19-.18-.24-.1-.06-.23-.07-.38-.03s-.27,.1-.36,.19c-.11-.02-.2-.07-.27-.13-.07-.06-.11-.17-.13-.32-.02-.19,.02-.38,.13-.58,.11-.2,.26-.37,.44-.52,.18-.15,.37-.24,.56-.29,.39-.1,.72-.04,.98,.17,.26,.21,.42,.55,.48,1.04,.03,.22-.01,.52-.12,.89Z"/><path class="f" d="M74.14,132.11c-.03-.25,.06-.49,.27-.72,.11-.12,.24-.2,.37-.23,.19-.05,.38,0,.57,.13,.31,.23,.62,.37,.92,.44,.31,.07,.68,.05,1.08-.07,.68-.21,1-.61,.93-1.15-.04-.28-.18-.46-.44-.53-.25-.08-.64-.11-1.16-.12-.53,0-.98-.05-1.32-.11-.35-.07-.66-.22-.93-.47-.28-.25-.45-.64-.52-1.16-.06-.46,0-.89,.21-1.3,.2-.4,.49-.75,.86-1.05,.37-.3,.78-.51,1.22-.63,.45-.13,.92-.17,1.4-.12s.87,.21,1.17,.49c.14,.12,.22,.28,.24,.47,.03,.22-.03,.43-.18,.63-.11,.14-.24,.24-.4,.29-.2,.06-.36,.04-.51-.06-.19-.16-.42-.27-.69-.32-.27-.05-.57-.03-.88,.06-.68,.19-.98,.55-.91,1.07,.03,.21,.11,.36,.25,.46,.14,.09,.31,.15,.51,.17,.2,.02,.48,.03,.84,.04,.5,0,.92,.04,1.26,.1,.34,.06,.64,.21,.91,.47,.26,.25,.43,.64,.5,1.16,.06,.47-.01,.92-.22,1.35-.21,.43-.51,.79-.89,1.09-.38,.3-.79,.51-1.21,.63-.59,.16-1.15,.2-1.69,.13-.54-.08-1-.31-1.38-.7-.1-.09-.16-.23-.18-.4Z"/><path class="f" d="M88.91,121.27c.49,.09,.77,.34,.83,.77,.03,.22,0,.42-.09,.63-.09,.2-.23,.34-.41,.41-.14,.05-.26,.07-.35,.06-.09-.01-.19-.04-.28-.08-.09-.04-.19-.08-.27-.09-.09-.02-.23-.01-.41,.01-.18,.02-.32,.06-.42,.09-.66,.24-1.15,.65-1.46,1.24-.31,.58-.42,1.24-.32,1.97,.09,.7,.36,1.21,.81,1.54,.44,.33,.96,.39,1.55,.18,.43-.15,.75-.33,.94-.52,.05-.05,.12-.13,.2-.23,.08-.11,.16-.19,.23-.26s.17-.12,.28-.17c.22-.08,.4-.07,.55,.04,.15,.11,.24,.29,.27,.53,.03,.23-.06,.5-.28,.8-.22,.3-.52,.58-.91,.85-.39,.27-.81,.48-1.27,.65-.68,.24-1.3,.27-1.87,.1s-1.03-.52-1.4-1.04c-.37-.52-.6-1.16-.7-1.92-.11-.79-.05-1.53,.16-2.25,.21-.71,.56-1.33,1.04-1.87,.48-.53,1.06-.92,1.72-1.16,.75-.27,1.37-.37,1.86-.28Z"/><path class="f" d="M97.9,123.86c-.23,.75-.59,1.41-1.09,1.98-.5,.56-1.08,.98-1.74,1.23-.67,.26-1.3,.32-1.89,.19-.59-.13-1.09-.45-1.49-.95-.4-.5-.65-1.14-.76-1.93-.11-.78-.04-1.54,.19-2.29,.23-.74,.59-1.39,1.09-1.96,.5-.56,1.08-.98,1.74-1.25,.66-.26,1.28-.34,1.88-.21,.59,.12,1.09,.44,1.49,.93,.4,.5,.66,1.14,.77,1.93,.11,.79,.05,1.56-.18,2.32Zm-1.84-2.86c-.23-.31-.51-.5-.84-.59-.33-.08-.68-.05-1.05,.1-.37,.15-.69,.38-.96,.71-.27,.33-.47,.71-.6,1.16-.13,.45-.16,.91-.09,1.39,.07,.48,.21,.87,.44,1.17,.23,.3,.51,.5,.84,.59,.33,.09,.68,.06,1.05-.09,.37-.15,.69-.38,.96-.71,.27-.33,.47-.71,.6-1.16,.13-.45,.16-.91,.09-1.39-.07-.48-.22-.88-.45-1.18Z"/><path class="f" d="M103.15,115.28c.2,.09,.32,.25,.35,.48,.04,.31,0,.57-.11,.78-.12,.21-.27,.36-.46,.45-.13,.06-.28,.09-.46,.09-.03,0-.09,0-.19,.02-.1,0-.2,.04-.3,.08-.23,.1-.43,.27-.62,.52-.19,.25-.33,.56-.42,.94-.09,.38-.1,.79-.04,1.24l.49,3.52c.04,.26,0,.5-.13,.74-.12,.24-.3,.4-.53,.49-.23,.09-.43,.08-.6-.03-.17-.11-.28-.3-.31-.55-.34-2.45-.51-3.67-.85-6.12-.04-.26,0-.5,.13-.74,.12-.24,.3-.4,.53-.5,.23-.1,.43-.09,.6,.02,.17,.11,.28,.29,.31,.55l.03,.19c.14-.49,.39-.92,.73-1.3,.34-.37,.73-.65,1.16-.84,.26-.11,.49-.13,.7-.03Z"/><path class="f" d="M108.81,112.77c.2,.09,.32,.25,.35,.48,.04,.31,0,.57-.11,.79-.12,.22-.27,.37-.46,.45-.13,.06-.28,.09-.46,.09-.03,0-.09,0-.19,.02-.1,.01-.2,.04-.3,.09-.23,.1-.43,.28-.62,.53-.19,.25-.32,.57-.41,.95-.09,.38-.1,.8-.04,1.25,.2,1.42,.3,2.13,.5,3.55,.04,.26,0,.51-.13,.75-.12,.24-.3,.41-.53,.5-.23,.1-.43,.09-.6-.02-.17-.11-.28-.29-.31-.55-.35-2.47-.52-3.7-.87-6.17-.04-.26,0-.51,.13-.75,.12-.24,.3-.41,.52-.51,.23-.1,.43-.1,.6,.01,.17,.11,.28,.29,.31,.55l.03,.19c.14-.5,.39-.94,.73-1.32,.34-.38,.73-.67,1.15-.86,.26-.12,.49-.13,.69-.04Z"/><path class="f" d="M116.53,113.93c-.13,.22-.31,.38-.52,.47-1.72,.76-2.59,1.15-4.31,1.91,.19,.55,.49,.9,.92,1.08,.42,.17,.87,.15,1.34-.05,.36-.16,.63-.32,.82-.48,.19-.16,.34-.31,.44-.45,.11-.14,.18-.23,.22-.28,.14-.16,.29-.27,.42-.33,.18-.08,.35-.07,.5,.02,.15,.09,.24,.24,.27,.44,.04,.27-.05,.57-.26,.9-.21,.33-.51,.68-.9,1.02-.39,.34-.79,.6-1.21,.79-.73,.32-1.4,.42-1.99,.31-.6-.11-1.08-.41-1.47-.9-.38-.49-.63-1.11-.74-1.89-.12-.86-.07-1.69,.15-2.48,.22-.79,.56-1.48,1.03-2.05,.46-.58,.99-1,1.57-1.26,.57-.26,1.14-.32,1.7-.19,.56,.13,1.04,.44,1.43,.92,.39,.48,.66,1.09,.74,1.8,.03,.24-.03,.48-.16,.7Zm-5.03,.87c1.37-.61,2.05-.91,3.42-1.52l-.02-.11c-.1-.41-.33-.69-.69-.85-.36-.16-.75-.15-1.16,.04-1.01,.45-1.53,1.27-1.55,2.44Z"/><path class="f" d="M122.31,106.89c.49,.07,.77,.33,.84,.78,.03,.22,0,.45-.08,.66-.09,.22-.22,.37-.41,.45-.14,.06-.26,.09-.35,.08-.09,0-.19-.03-.28-.07-.09-.04-.19-.07-.27-.08-.09-.02-.23,0-.4,.03s-.32,.07-.42,.12c-.65,.29-1.13,.75-1.43,1.39-.3,.64-.4,1.33-.29,2.09,.11,.73,.38,1.25,.82,1.57,.44,.32,.96,.35,1.54,.1,.43-.19,.74-.38,.93-.6,.05-.05,.11-.14,.19-.25,.08-.12,.16-.21,.23-.29,.07-.07,.17-.14,.28-.19,.22-.09,.4-.09,.55,.02,.15,.11,.24,.29,.28,.55,.04,.24-.05,.53-.27,.85-.21,.32-.51,.63-.89,.93-.38,.3-.8,.55-1.26,.74-.67,.29-1.29,.37-1.85,.22s-1.03-.47-1.4-.99c-.37-.52-.61-1.17-.73-1.96-.12-.82-.08-1.61,.12-2.38,.2-.77,.53-1.45,1-2.04,.47-.59,1.03-1.04,1.7-1.33,.74-.33,1.35-.46,1.85-.39Z"/><path class="f" d="M128.85,110.9c.12,.1,.2,.26,.23,.48,.04,.28-.06,.56-.29,.86-.23,.3-.51,.51-.83,.65-.54,.23-1.02,.28-1.43,.17s-.68-.61-.81-1.49c-.25-1.69-.37-2.54-.62-4.23-.24,.1-.36,.16-.6,.26-.21,.09-.39,.08-.56-.02-.16-.1-.26-.28-.3-.52-.03-.23,0-.46,.12-.68,.12-.22,.28-.37,.49-.47,.24-.1,.36-.16,.6-.26l-.14-.98c-.04-.27,0-.52,.13-.77,.13-.25,.3-.42,.53-.52,.22-.09,.41-.08,.59,.03,.17,.11,.28,.31,.32,.57,.06,.39,.09,.59,.14,.98,.37-.16,.56-.24,.93-.4,.21-.09,.4-.08,.56,.02,.16,.1,.26,.28,.3,.53,.03,.24,0,.46-.12,.68-.12,.22-.28,.37-.49,.46-.37,.16-.56,.24-.93,.4,.24,1.66,.36,2.5,.61,4.16,.03,.21,.1,.35,.21,.41,.11,.06,.25,.05,.41-.02,.07-.03,.17-.09,.28-.18,.1-.09,.19-.16,.29-.2,.12-.05,.24-.03,.37,.07Z"/><path class="f" d="M139,100.03c.18,.13,.29,.32,.33,.59,.39,2.65,.59,3.98,.99,6.63,.2,1.35,.04,2.45-.49,3.29-.53,.84-1.3,1.45-2.33,1.84-.3,.11-.61,.2-.93,.26-.32,.06-.58,.08-.79,.06-.46-.05-.72-.27-.78-.65-.01-.07,0-.16,0-.26,.02-.25,.08-.46,.19-.62,.11-.17,.24-.28,.39-.34,.09-.03,.18-.05,.26-.05,.06,0,.18,.02,.35,.03,.16,.01,.34,.01,.51,0,.18-.02,.36-.06,.54-.13,.62-.24,1.06-.56,1.31-.99,.25-.43,.31-1.02,.2-1.79l-.02-.16c-.36,.84-1.02,1.45-1.99,1.81-.46,.17-.88,.2-1.27,.09-.39-.12-.71-.36-.97-.73-.26-.37-.43-.85-.52-1.43-.27-1.81-.4-2.71-.67-4.52-.04-.27,0-.52,.12-.76,.12-.24,.3-.41,.52-.5,.23-.09,.43-.08,.6,.05,.18,.12,.28,.32,.32,.59,.23,1.59,.35,2.38,.59,3.97,.1,.65,.29,1.07,.57,1.26,.28,.19,.66,.2,1.12,.02,.46-.17,.79-.46,.99-.87s.26-.91,.17-1.5c-.24-1.59-.36-2.39-.59-3.98-.04-.27,0-.52,.12-.76,.12-.24,.3-.4,.52-.49,.23-.09,.43-.07,.61,.06Z"/><path class="f" d="M148.14,103.39c-.22,.76-.58,1.42-1.08,1.96-.5,.54-1.08,.92-1.75,1.14-.67,.22-1.31,.24-1.91,.07-.6-.18-1.11-.54-1.53-1.09-.42-.55-.69-1.24-.81-2.07-.12-.83-.08-1.64,.14-2.41,.22-.77,.57-1.45,1.06-2.01,.49-.56,1.07-.96,1.74-1.19,.66-.23,1.3-.24,1.91-.05,.61,.19,1.12,.57,1.54,1.14,.42,.57,.69,1.27,.82,2.11,.13,.84,.08,1.64-.14,2.41Zm-1.94-3.19c-.24-.34-.53-.58-.87-.7-.34-.12-.69-.12-1.06,0-.37,.13-.69,.35-.96,.67-.27,.32-.47,.72-.59,1.18-.12,.46-.14,.95-.07,1.46,.08,.51,.23,.93,.47,1.27,.24,.33,.53,.56,.87,.68,.34,.12,.69,.11,1.06-.01,.37-.12,.69-.34,.97-.66,.27-.32,.47-.71,.59-1.16,.12-.46,.14-.94,.07-1.45-.08-.51-.24-.94-.48-1.29Z"/><path class="f" d="M154.88,95c.18,.15,.29,.36,.33,.63,.25,1.61,.37,2.42,.62,4.04,.17,1.14,.04,2.1-.39,2.88-.43,.78-1.14,1.29-2.12,1.55-.98,.26-1.78,.15-2.41-.34-.62-.49-1.02-1.3-1.19-2.44-.24-1.6-.36-2.4-.61-4.01-.04-.27,0-.53,.12-.75,.12-.23,.3-.38,.53-.45,.23-.07,.44-.03,.61,.11,.18,.14,.29,.35,.33,.62l.61,4.01c.1,.64,.29,1.09,.58,1.33,.29,.24,.67,.3,1.15,.17,.49-.13,.83-.38,1.03-.76,.19-.37,.24-.88,.14-1.53-.25-1.61-.37-2.42-.61-4.03-.04-.28,0-.53,.12-.75,.12-.23,.3-.37,.53-.43,.23-.06,.44-.02,.62,.13Z"/><path class="f" d="M166.37,93.29c.45,.6,.76,1.48,.94,2.63,.26,1.65,.38,2.48,.64,4.13,.04,.28,0,.52-.12,.73-.13,.21-.31,.33-.54,.36-.24,.03-.45-.04-.63-.2-.18-.17-.3-.39-.34-.67-.26-1.65-.38-2.47-.64-4.12-.09-.59-.26-1.04-.51-1.35-.25-.31-.61-.43-1.1-.35-.51,.08-.87,.33-1.1,.74-.23,.41-.3,.88-.22,1.43,.25,1.64,.38,2.46,.63,4.1,.04,.28,0,.52-.12,.74-.12,.21-.3,.34-.54,.38-.23,.04-.44-.02-.63-.17-.18-.16-.3-.38-.34-.65-.61-3.95-.91-5.93-1.52-9.89-.04-.28,0-.52,.12-.74,.12-.22,.3-.35,.54-.39,.23-.05,.44,.01,.62,.17,.18,.16,.29,.38,.34,.65,.22,1.42,.33,2.13,.55,3.54,.18-.43,.44-.81,.77-1.15s.73-.54,1.19-.61c.9-.14,1.57,.1,2.01,.7Z"/><path class="f" d="M175.09,91.83c.19,.18,.3,.42,.35,.71,.43,2.75,.65,4.13,1.08,6.89,.04,.28,0,.52-.12,.71-.13,.19-.31,.29-.55,.3-.24,0-.45-.08-.63-.26-.18-.18-.3-.41-.35-.69-.18,.32-.45,.61-.81,.85-.36,.24-.75,.38-1.18,.41-.63,.04-1.24-.1-1.81-.44-.57-.34-1.06-.83-1.46-1.48-.4-.65-.67-1.4-.8-2.26-.13-.86-.11-1.65,.08-2.36,.19-.72,.5-1.29,.95-1.72,.45-.43,.98-.67,1.59-.72,.44-.03,.87,.03,1.28,.2,.41,.17,.78,.39,1.09,.67v-.02c-.05-.28,0-.52,.12-.72,.13-.2,.31-.3,.55-.31,.24,0,.45,.08,.64,.25Zm-.95,6.26c.3-.53,.38-1.19,.26-1.97-.12-.78-.41-1.42-.87-1.92-.46-.5-.98-.73-1.58-.69-.59,.04-1.03,.34-1.32,.89-.29,.55-.38,1.22-.26,1.99s.41,1.4,.86,1.88c.45,.48,.97,.7,1.57,.66,.6-.04,1.04-.32,1.34-.85Z"/><path class="f" d="M183.26,92.14c.18,.18,.29,.4,.33,.65,.02,.13,0,.29-.03,.49-.62,2.63-.93,3.95-1.55,6.6-.04,.18-.11,.33-.22,.43-.11,.1-.24,.16-.4,.16h-.12c-.16,0-.31-.06-.47-.18-.15-.12-.28-.28-.39-.48-1.46-2.72-2.19-4.07-3.64-6.74-.09-.17-.15-.35-.18-.52-.03-.22,.01-.42,.14-.6,.13-.18,.31-.27,.54-.27,.18,0,.35,.05,.51,.16,.16,.11,.3,.26,.4,.46,1.09,2.07,1.64,3.11,2.74,5.21,.44-2.04,.66-3.05,1.1-5.08,.04-.2,.12-.36,.23-.46,.11-.1,.25-.14,.41-.12,.22,.02,.42,.11,.6,.29Z"/><path class="f" d="M192.01,97.75c-.14,.13-.33,.18-.56,.14-1.88-.33-2.82-.47-4.68-.68,.22,.66,.56,1.2,1.02,1.62,.46,.42,.95,.67,1.46,.74,.39,.06,.68,.06,.89,.01,.2-.05,.36-.11,.48-.18,.11-.07,.19-.12,.23-.15,.15-.07,.31-.09,.46-.07,.2,.03,.38,.15,.55,.34,.17,.19,.27,.4,.31,.62,.05,.3-.05,.54-.27,.74-.22,.2-.55,.36-.96,.46-.42,.1-.85,.12-1.31,.05-.8-.12-1.52-.4-2.17-.86-.65-.46-1.19-1.03-1.61-1.74-.43-.71-.71-1.48-.84-2.32-.15-.94-.11-1.76,.11-2.44,.22-.68,.58-1.18,1.08-1.5,.49-.32,1.06-.44,1.69-.35,.62,.08,1.24,.37,1.86,.85,.62,.49,1.15,1.1,1.59,1.83,.44,.73,.74,1.51,.85,2.28,.04,.26-.02,.46-.17,.6Zm-5.49-2.19c1.48,.17,2.22,.27,3.71,.51l-.02-.12c-.11-.47-.37-.9-.77-1.28-.4-.38-.83-.61-1.27-.67-1.09-.15-1.64,.38-1.65,1.56Z"/><path class="f" d="M23.83,145.59c-.03-.23,.08-.37,.32-.43,.13-.02,.27,0,.42,.06,.21,.08,.41,.25,.62,.49,.33,.39,.66,.72,1,.98,.34,.26,.74,.48,1.18,.64,.75,.26,1.11,.13,1.05-.38-.03-.26-.18-.5-.46-.73s-.7-.51-1.26-.85c-.59-.35-1.07-.68-1.45-.97-.38-.28-.71-.63-1.01-1.02-.3-.4-.47-.84-.53-1.33-.05-.43,.04-.74,.28-.95,.23-.21,.56-.31,.98-.31,.42,0,.87,.08,1.36,.27,.5,.18,1.01,.45,1.53,.79s.94,.72,1.26,1.15c.14,.19,.23,.37,.25,.55,.02,.21-.05,.35-.22,.42-.12,.05-.28,.05-.45,0-.22-.07-.4-.2-.55-.37-.2-.26-.44-.49-.74-.71-.29-.22-.62-.39-.97-.52-.75-.28-1.09-.18-1.03,.31,.02,.2,.11,.38,.26,.56,.15,.17,.34,.33,.56,.48,.22,.15,.53,.34,.92,.58,.54,.33,1,.62,1.37,.89,.37,.27,.69,.59,.97,.96,.28,.38,.45,.81,.51,1.29,.05,.44-.04,.78-.29,1.01-.24,.23-.58,.36-1,.37-.43,.01-.88-.07-1.35-.25-.65-.24-1.27-.58-1.85-1-.59-.42-1.08-.93-1.49-1.51-.1-.14-.16-.3-.18-.46Z"/><path class="f" d="M37.84,144.58c.18,.19,.29,.4,.32,.65l.7,5.77c.03,.24-.03,.42-.17,.54-.14,.12-.34,.16-.59,.1-.25-.06-.46-.18-.64-.37-.18-.19-.29-.41-.32-.64-.21,.21-.51,.35-.89,.44-.39,.08-.81,.07-1.26-.06-.67-.18-1.29-.51-1.87-.99-.58-.48-1.07-1.05-1.45-1.72-.38-.66-.62-1.36-.7-2.08-.09-.72,0-1.31,.24-1.79,.24-.48,.61-.8,1.11-.96,.5-.17,1.07-.17,1.72,0,.46,.12,.91,.3,1.33,.56,.42,.25,.79,.53,1.1,.84h0c-.03-.25,.03-.43,.17-.55,.14-.12,.34-.16,.59-.1,.25,.05,.46,.17,.65,.36Zm-1.37,4.73c.34-.34,.47-.83,.4-1.49-.08-.65-.34-1.24-.79-1.77-.45-.53-.98-.87-1.61-1.03-.62-.16-1.1-.08-1.44,.25-.34,.32-.48,.81-.4,1.45,.08,.65,.34,1.24,.78,1.78,.44,.54,.98,.89,1.61,1.06s1.11,.07,1.46-.26Z"/><path class="f" d="M46.2,145.94c.17,.16,.27,.34,.29,.55,.01,.11,0,.25-.06,.4-.77,2.18-1.16,3.25-1.95,5.37-.05,.15-.13,.26-.25,.33-.12,.07-.26,.1-.42,.09h-.13c-.16-.03-.32-.1-.47-.22-.15-.12-.27-.26-.37-.44-1.34-2.42-2.01-3.64-3.35-6.09-.09-.16-.14-.31-.15-.46-.02-.18,.04-.33,.18-.45,.14-.12,.33-.16,.57-.12,.18,.03,.35,.1,.52,.22,.16,.12,.29,.26,.39,.44,1,1.86,1.5,2.78,2.5,4.63,.57-1.62,.85-2.44,1.41-4.09,.05-.17,.14-.29,.26-.37,.12-.08,.27-.1,.42-.08,.22,.03,.42,.11,.59,.27Z"/><path class="f" d="M54.64,150.13c-.15,.14-.34,.21-.56,.21-1.84,0-2.77-.04-4.62-.15,.18,.55,.49,.99,.93,1.33,.44,.33,.92,.51,1.42,.53,.38,.01,.68-.01,.88-.08,.21-.06,.37-.13,.48-.21,.12-.08,.2-.13,.24-.16,.16-.08,.31-.12,.46-.12,.2,0,.37,.07,.53,.21,.16,.14,.25,.3,.27,.49,.03,.25-.08,.48-.31,.68-.23,.21-.56,.39-.98,.53-.42,.14-.86,.2-1.3,.18-.79-.03-1.49-.23-2.12-.59-.63-.36-1.14-.84-1.53-1.43-.39-.59-.63-1.24-.72-1.95-.1-.79-.02-1.47,.25-2.05,.26-.57,.65-1,1.16-1.29,.51-.29,1.08-.42,1.71-.4,.62,.02,1.22,.2,1.8,.54,.59,.34,1.08,.79,1.47,1.35,.4,.57,.65,1.19,.72,1.84,.02,.22-.05,.4-.2,.55Zm-5.34-1.33c1.47,.09,2.21,.11,3.67,.13v-.1c-.1-.39-.33-.73-.71-1.01s-.79-.43-1.23-.45c-1.08-.04-1.66,.43-1.73,1.42Z"/><path class="f" d="M62,142.91c.18,.14,.28,.34,.31,.59,.45,3.49,.67,5.23,1.12,8.71,.03,.24-.02,.46-.15,.64-.14,.18-.32,.28-.56,.3-.24,.02-.44-.04-.62-.19-.17-.15-.28-.34-.32-.59-.2,.29-.48,.55-.84,.76-.37,.22-.77,.34-1.2,.36-.64,.03-1.24-.11-1.8-.42-.56-.31-1.03-.76-1.41-1.34-.38-.58-.61-1.24-.7-1.99-.09-.74-.03-1.41,.19-2.01,.22-.6,.57-1.07,1.04-1.43,.47-.35,1.01-.55,1.63-.59,.44-.03,.87,.02,1.27,.16,.41,.13,.76,.32,1.06,.54-.14-1.1-.21-1.65-.35-2.76-.03-.24,.02-.45,.15-.63,.14-.18,.32-.28,.56-.3,.24-.02,.44,.03,.62,.18Zm-.87,8.28c.32-.47,.44-1.05,.35-1.73-.09-.68-.35-1.22-.78-1.64-.43-.42-.95-.61-1.55-.57-.59,.04-1.04,.29-1.37,.75-.32,.47-.44,1.03-.36,1.7,.09,.67,.34,1.22,.77,1.65,.43,.43,.95,.63,1.55,.59,.6-.03,1.06-.29,1.38-.76Z"/><path class="f" d="M70.71,142.16c.17,.14,.28,.33,.31,.57,.43,3.3,.65,4.95,1.08,8.24,.03,.25-.03,.47-.18,.67-.15,.2-.35,.32-.61,.36-.25,.04-.47,0-.66-.14-.18-.14-.29-.33-.33-.58-.35-2.7-.53-4.05-.88-6.74-.31,.28-.46,.41-.77,.69-.13,.11-.26,.18-.42,.2-.23,.04-.43-.02-.61-.18-.18-.15-.29-.34-.32-.56-.02-.15,0-.3,.06-.44,.06-.14,.15-.27,.27-.36,.76-.65,1.13-.97,1.88-1.64,.14-.11,.33-.19,.57-.24,.23-.04,.43,0,.6,.14Z"/><path class="f" d="M81.89,141.86c.5,.12,.78,.39,.83,.82,.03,.21,0,.42-.1,.61-.1,.19-.24,.32-.42,.37-.14,.04-.26,.05-.36,.03-.1-.02-.19-.05-.28-.1-.09-.05-.19-.09-.27-.11-.09-.03-.23-.03-.41-.02s-.32,.03-.43,.06c-.67,.18-1.17,.55-1.49,1.09-.32,.55-.43,1.18-.34,1.9,.09,.69,.36,1.22,.81,1.57,.45,.36,.97,.46,1.57,.3,.44-.12,.76-.26,.96-.44,.05-.04,.12-.11,.2-.21,.08-.1,.16-.18,.24-.24,.08-.06,.17-.11,.29-.14,.22-.06,.41-.04,.56,.08,.15,.12,.24,.3,.27,.54,.03,.23-.07,.48-.29,.76-.22,.27-.53,.53-.93,.76-.4,.23-.83,.41-1.29,.53-.69,.18-1.32,.16-1.89-.05-.57-.22-1.04-.59-1.41-1.13-.37-.54-.6-1.18-.7-1.93-.1-.78-.04-1.5,.18-2.18,.22-.68,.58-1.25,1.07-1.73,.49-.48,1.08-.81,1.76-1,.76-.21,1.39-.26,1.89-.13Z"/><path class="f" d="M90.15,139.1c.17,.11,.28,.3,.31,.57,.34,2.47,.5,3.71,.84,6.19,.03,.25-.01,.49-.14,.71-.13,.22-.31,.37-.54,.45s-.43,.06-.6-.06c-.17-.12-.28-.3-.32-.55-.18,.35-.45,.69-.8,1.01-.35,.32-.74,.55-1.16,.68-.61,.19-1.2,.19-1.74,0-.55-.19-1.01-.55-1.38-1.08-.37-.52-.61-1.17-.71-1.95-.1-.77-.05-1.51,.15-2.21,.2-.7,.53-1.3,.98-1.79,.45-.5,.97-.84,1.56-1.03,.43-.14,.84-.18,1.23-.14,.39,.05,.74,.16,1.03,.33h0c-.03-.27,.01-.5,.14-.73,.13-.22,.31-.37,.54-.45,.23-.08,.43-.06,.61,.05Zm-1.1,6.18c.3-.58,.41-1.22,.31-1.92s-.36-1.22-.78-1.57c-.43-.35-.93-.43-1.51-.24-.57,.18-1,.56-1.31,1.14-.3,.58-.41,1.21-.31,1.91,.09,.7,.35,1.22,.77,1.57s.92,.44,1.5,.25c.58-.18,1.02-.56,1.32-1.15Z"/><path class="f" d="M97.84,136.96c.43,.46,.71,1.22,.86,2.28,.21,1.51,.31,2.27,.52,3.78,.04,.26,0,.5-.14,.73-.13,.23-.31,.39-.53,.47-.23,.09-.43,.07-.61-.05-.17-.12-.28-.3-.31-.56l-.52-3.77c-.07-.54-.23-.93-.48-1.16-.24-.23-.61-.26-1.11-.07-.51,.19-.89,.5-1.14,.94-.25,.43-.34,.9-.27,1.4,.21,1.5,.31,2.26,.51,3.76,.03,.25-.01,.49-.14,.72-.13,.22-.31,.38-.54,.46-.23,.08-.43,.06-.61-.06-.17-.12-.28-.31-.31-.56-.33-2.42-.5-3.63-.83-6.05-.03-.25,.01-.49,.14-.72,.13-.22,.3-.38,.53-.46,.23-.08,.43-.07,.61,.05,.17,.12,.28,.3,.31,.56l.03,.25c.19-.44,.46-.86,.81-1.25,.35-.4,.75-.68,1.21-.85,.9-.34,1.56-.28,1.99,.19Z"/><path class="f" d="M105.84,130.02c.17,.11,.28,.3,.32,.56,.52,3.69,.78,5.53,1.29,9.22,.04,.26,0,.51-.13,.74-.13,.23-.3,.4-.53,.49s-.43,.08-.6-.03c-.17-.11-.28-.29-.32-.55-.18,.38-.44,.74-.79,1.09-.35,.35-.73,.61-1.14,.77-.61,.24-1.18,.28-1.73,.12-.54-.16-1-.5-1.37-1.01-.37-.51-.61-1.16-.72-1.95-.11-.79-.07-1.55,.13-2.29,.2-.74,.51-1.38,.95-1.92,.44-.54,.95-.93,1.54-1.17,.42-.17,.83-.24,1.22-.22,.39,.02,.74,.12,1.03,.28-.16-1.17-.25-1.75-.41-2.92-.04-.26,0-.5,.13-.74,.13-.24,.3-.4,.53-.49,.23-.09,.43-.09,.6,.02Zm-.63,9.32c.29-.62,.39-1.28,.29-2s-.36-1.24-.79-1.57c-.43-.33-.93-.38-1.5-.15-.56,.23-.99,.65-1.29,1.26-.29,.62-.39,1.28-.29,1.99,.1,.71,.36,1.23,.78,1.56s.92,.38,1.49,.16,1.01-.65,1.3-1.26Z"/><path class="f" d="M113.99,129.85c.17,.11,.28,.3,.32,.56,.36,2.56,.55,3.84,.91,6.4,.19,1.31,.01,2.38-.52,3.23-.53,.85-1.31,1.48-2.34,1.9-.3,.12-.61,.22-.93,.29-.32,.07-.58,.1-.79,.09-.46-.04-.72-.24-.77-.61,0-.07,0-.15,0-.26,.02-.24,.09-.44,.2-.61,.11-.17,.24-.28,.39-.34,.09-.04,.18-.06,.26-.06,.06,0,.18,.01,.34,.02,.16,0,.33,0,.51-.03s.36-.08,.54-.15c.62-.25,1.06-.59,1.31-1.02,.25-.43,.32-1.01,.22-1.75l-.02-.15c-.36,.84-1.03,1.46-2,1.85-.46,.19-.88,.23-1.27,.13-.39-.1-.71-.33-.96-.68-.25-.35-.42-.81-.5-1.37-.25-1.75-.37-2.62-.61-4.37-.04-.26,0-.51,.13-.74,.12-.24,.3-.4,.53-.5,.23-.1,.43-.09,.6,.03,.17,.11,.28,.3,.32,.56,.22,1.53,.32,2.3,.54,3.84,.09,.63,.27,1.03,.55,1.21,.28,.18,.65,.17,1.12-.02,.46-.19,.79-.49,1-.9,.21-.41,.27-.9,.19-1.47-.22-1.54-.33-2.31-.55-3.85-.04-.26,0-.51,.13-.75,.12-.24,.3-.41,.53-.5,.23-.1,.43-.09,.6,.02Z"/><path class="f" d="M122.14,124.84c-.09,.25-.12,.49-.09,.72l.1,.72c.48-.2,.72-.3,1.2-.5,.21-.09,.4-.08,.56,.02,.16,.1,.26,.27,.3,.51,.04,.24,0,.47-.12,.69-.12,.22-.28,.37-.49,.45-.48,.2-.72,.3-1.2,.5,.31,2.16,.47,3.23,.78,5.39,.04,.26,0,.52-.13,.75-.12,.24-.3,.4-.53,.5-.23,.09-.43,.08-.6-.03-.18-.12-.28-.31-.32-.57-.31-2.15-.46-3.23-.77-5.38-.28,.12-.43,.18-.71,.3-.21,.09-.4,.08-.56-.01-.16-.1-.26-.27-.3-.51-.03-.24,0-.47,.12-.69,.12-.22,.28-.37,.49-.46,.28-.12,.43-.18,.71-.3l-.1-.7c-.11-.76,.03-1.47,.41-2.14,.38-.67,1-1.18,1.85-1.54,.32-.14,.62-.18,.88-.13,.26,.05,.42,.23,.46,.55,.04,.24,0,.47-.1,.67-.1,.2-.24,.34-.41,.42-.04,.02-.09,.03-.14,.04-.05,0-.1,.02-.16,.03-.22,.03-.4,.07-.54,.13-.3,.13-.49,.31-.59,.56Z"/><path class="f" d="M129.39,123.25c.21,.1,.33,.27,.36,.51,.05,.32,.01,.58-.11,.8-.12,.22-.27,.36-.47,.44-.13,.05-.29,.08-.46,.07-.03,0-.09,0-.19,.01-.1,0-.2,.03-.3,.07-.23,.09-.44,.26-.62,.51-.19,.25-.32,.57-.41,.95-.09,.39-.1,.81-.03,1.27,.21,1.45,.32,2.18,.53,3.63,.04,.27,0,.52-.13,.76-.12,.24-.3,.4-.53,.5-.23,.09-.43,.08-.61-.04-.18-.12-.28-.31-.32-.57-.37-2.52-.55-3.78-.91-6.31-.04-.26,0-.52,.13-.76,.12-.24,.3-.41,.53-.5,.23-.09,.43-.08,.61,.03,.17,.12,.28,.31,.32,.57l.03,.2c.14-.5,.38-.94,.73-1.31,.34-.37,.73-.65,1.16-.82,.26-.11,.5-.11,.7,0Z"/><path class="f" d="M137.72,126.63c-.22,.77-.58,1.44-1.08,2-.5,.57-1.08,.97-1.74,1.22-.67,.25-1.31,.3-1.91,.16-.6-.15-1.11-.49-1.52-1.01-.41-.53-.68-1.2-.8-2.02-.12-.82-.07-1.62,.15-2.39,.22-.78,.58-1.46,1.07-2.04,.49-.58,1.07-1,1.74-1.26,.66-.26,1.29-.31,1.9-.15,.6,.16,1.11,.51,1.53,1.04,.42,.54,.68,1.22,.81,2.05,.12,.83,.07,1.63-.15,2.4Zm-1.91-3.06c-.24-.33-.53-.54-.86-.64-.34-.1-.69-.08-1.06,.06-.37,.14-.69,.38-.96,.72-.27,.33-.47,.73-.59,1.2-.12,.47-.15,.95-.07,1.45,.07,.5,.23,.91,.47,1.23,.24,.32,.53,.53,.86,.63,.34,.1,.69,.08,1.06-.06,.37-.14,.69-.38,.97-.71,.27-.33,.47-.73,.59-1.18,.12-.46,.15-.94,.07-1.45-.07-.51-.23-.92-.47-1.25Z"/><path class="f" d="M148.73,117.02c.43,.53,.74,1.36,.91,2.48,.24,1.61,.36,2.42,.61,4.03,.04,.27,0,.52-.13,.75-.12,.23-.3,.38-.53,.44-.23,.07-.44,.03-.62-.1-.18-.14-.29-.34-.33-.61-.24-1.61-.36-2.41-.6-4.02-.09-.58-.25-1-.49-1.27-.24-.27-.6-.33-1.08-.18-.5,.16-.86,.46-1.09,.9-.23,.44-.3,.93-.22,1.46,.24,1.6,.36,2.4,.6,4,.04,.27,0,.52-.13,.75-.12,.23-.3,.38-.53,.46-.23,.08-.44,.05-.61-.09-.18-.13-.29-.33-.33-.6-.24-1.6-.36-2.4-.6-4-.09-.57-.25-.99-.49-1.25-.24-.26-.6-.31-1.08-.15-.5,.17-.86,.48-1.08,.93-.23,.45-.3,.93-.22,1.46,.24,1.59,.36,2.39,.59,3.98,.04,.27,0,.52-.13,.76-.12,.23-.3,.39-.53,.47-.23,.08-.43,.06-.61-.07-.18-.13-.29-.33-.33-.6-.38-2.57-.57-3.85-.95-6.41-.04-.27,0-.52,.13-.76,.12-.24,.3-.4,.53-.48,.23-.08,.43-.06,.61,.07,.18,.13,.29,.33,.33,.6l.04,.25c.18-.46,.44-.88,.77-1.28,.33-.39,.72-.67,1.17-.82,1.12-.38,1.91-.05,2.4,1,.14-.5,.39-1,.75-1.49s.8-.82,1.33-.98c.88-.28,1.54-.15,1.97,.39Z"/><path class="f" d="M161.19,113.17c.18,.15,.29,.37,.34,.66,.44,2.84,.65,4.26,1.09,7.1,.2,1.3,0,2.32-.59,3.07-.59,.75-1.41,1.23-2.46,1.45-.27,.06-.65,.08-1.14,.08-.49,0-.84-.03-1.06-.09-.48-.12-.74-.37-.8-.76-.01-.07-.01-.16,0-.26,.02-.25,.08-.44,.2-.6,.11-.15,.24-.25,.4-.28,.09-.02,.18-.02,.26-.01,.04,0,.27,.05,.71,.14,.44,.09,.83,.1,1.16,.03,.67-.14,1.14-.4,1.43-.78,.28-.38,.38-.86,.29-1.43l-.12-.76c-.15,.37-.4,.73-.77,1.07-.36,.35-.77,.57-1.23,.67-.63,.14-1.24,.08-1.81-.17-.57-.25-1.06-.68-1.46-1.27-.4-.59-.66-1.31-.79-2.15-.13-.84-.1-1.64,.09-2.38,.19-.74,.51-1.37,.96-1.87,.45-.5,.99-.82,1.61-.96,.46-.11,.9-.09,1.33,.05,.43,.14,.79,.34,1.08,.61l-.03-.17c-.04-.28,0-.52,.12-.74,.12-.22,.3-.35,.54-.4,.23-.05,.44,0,.62,.16Zm-.98,6.45c.31-.58,.4-1.26,.28-2.02-.12-.76-.41-1.36-.87-1.79-.46-.43-.99-.58-1.6-.44-.6,.14-1.05,.51-1.35,1.1-.3,.6-.39,1.28-.28,2.04,.12,.76,.4,1.35,.86,1.76,.45,.41,.98,.55,1.59,.42,.61-.13,1.06-.49,1.37-1.07Z"/><path class="f" d="M170.44,118.42c-.22,.72-.59,1.29-1.11,1.73-.51,.44-1.11,.71-1.8,.8-.69,.09-1.35,0-1.97-.29-.62-.29-1.15-.74-1.58-1.36-.43-.62-.71-1.36-.84-2.21-.13-.85-.09-1.65,.14-2.38,.22-.73,.59-1.34,1.09-1.81,.5-.47,1.1-.76,1.79-.86,.68-.1,1.34,0,1.97,.32,.63,.31,1.16,.79,1.6,1.44,.44,.65,.72,1.4,.85,2.26,.13,.86,.09,1.65-.14,2.36Zm-2.01-3.56c-.25-.39-.55-.68-.9-.86-.35-.18-.72-.25-1.1-.19-.38,.05-.71,.22-.99,.49-.28,.27-.48,.63-.6,1.07-.12,.44-.14,.92-.06,1.45,.08,.52,.24,.97,.49,1.35,.25,.38,.55,.65,.9,.83,.35,.18,.72,.24,1.1,.19,.38-.05,.72-.21,1-.48,.28-.26,.48-.61,.61-1.04,.12-.43,.15-.91,.07-1.43-.08-.53-.25-.98-.5-1.37Z"/><path class="f" d="M171.15,110.37c-.15-.11-.24-.31-.29-.61l-.05-.31c-.05-.3-.01-.52,.11-.65,.12-.13,.33-.21,.63-.24,.32-.03,.55,.01,.7,.12s.24,.31,.29,.62l.05,.31c.05,.31,.02,.53-.1,.65-.12,.12-.33,.2-.66,.22-.31,.03-.54-.01-.69-.12Zm2.76,9.49c-.13,.2-.31,.31-.55,.32-.24,.02-.45-.06-.64-.24-.19-.18-.3-.4-.34-.68-.41-2.67-.62-4-1.04-6.67-.04-.28,0-.52,.13-.72,.13-.2,.31-.31,.55-.33,.24-.02,.45,.06,.64,.24,.19,.18,.3,.41,.34,.69,.42,2.67,.62,4.01,1.04,6.68,.04,.28,0,.52-.13,.72Z"/><path class="f" d="M180.6,112.08c.47,.67,.79,1.58,.98,2.75l.66,4.18c.04,.28,0,.52-.13,.7-.13,.19-.32,.27-.56,.27-.24,0-.46-.11-.65-.3-.19-.19-.31-.43-.35-.71-.26-1.67-.39-2.5-.66-4.17-.09-.6-.28-1.07-.54-1.41-.27-.34-.66-.51-1.18-.51-.54,0-.93,.2-1.18,.57-.25,.37-.33,.83-.24,1.39,.26,1.66,.39,2.49,.65,4.16,.04,.28,0,.52-.13,.71-.13,.19-.31,.29-.55,.3-.24,0-.45-.08-.64-.26-.19-.18-.3-.41-.35-.7l-1.05-6.69c-.04-.28,0-.52,.13-.72,.13-.2,.31-.3,.55-.31,.24-.01,.45,.08,.64,.26,.19,.18,.3,.42,.35,.7l.04,.28c.19-.4,.46-.74,.82-1.03,.36-.29,.78-.44,1.26-.44,.95,0,1.65,.33,2.12,1Z"/><path class="f" d="M189.72,112.09c.19,.21,.31,.46,.36,.76,.47,2.94,.7,4.41,1.17,7.34,.21,1.34,.01,2.28-.6,2.82-.61,.54-1.47,.75-2.57,.63-.28-.03-.68-.12-1.19-.28-.51-.15-.88-.29-1.1-.41-.5-.26-.78-.6-.84-1-.01-.08-.01-.16,0-.26,.02-.24,.09-.41,.2-.53,.12-.12,.25-.17,.41-.16,.09,0,.19,.03,.28,.07,.04,.01,.29,.13,.75,.36,.46,.23,.86,.36,1.21,.4,.7,.07,1.2-.03,1.49-.31,.29-.28,.4-.72,.3-1.31-.05-.32-.08-.47-.13-.79-.15,.31-.42,.58-.8,.81-.38,.23-.81,.31-1.29,.27-.66-.07-1.29-.31-1.89-.74-.6-.43-1.11-.99-1.53-1.7-.42-.71-.7-1.49-.83-2.36-.14-.87-.11-1.65,.09-2.33,.19-.68,.53-1.2,.99-1.55,.47-.35,1.03-.5,1.68-.45,.48,.04,.95,.2,1.4,.47,.45,.27,.83,.59,1.14,.95l-.03-.18c-.05-.29,0-.52,.13-.69,.13-.17,.32-.24,.56-.21,.25,.03,.46,.15,.65,.36Zm-1,6.01c.32-.47,.42-1.1,.29-1.89-.13-.79-.43-1.48-.92-2.05-.49-.57-1.04-.89-1.68-.95-.63-.06-1.1,.16-1.41,.66-.31,.5-.41,1.14-.28,1.92,.12,.79,.42,1.45,.9,2,.48,.55,1.03,.85,1.66,.92,.63,.06,1.11-.14,1.43-.61Z"/><path class="f" d="M201.08,121.37c.14,.18,.22,.4,.26,.64,.05,.3-.05,.51-.31,.64-.25,.12-.56,.14-.92,.04-.6-.16-1.13-.44-1.59-.84-.46-.4-.76-1.07-.92-2.02-.29-1.84-.44-2.75-.74-4.59-.27-.06-.4-.09-.66-.15-.23-.05-.44-.18-.62-.39-.18-.21-.29-.45-.34-.71-.04-.25,0-.45,.13-.59,.13-.14,.3-.18,.53-.13,.27,.06,.4,.09,.66,.15l-.17-1.06c-.05-.29,0-.51,.14-.66,.14-.15,.33-.2,.58-.14,.24,.06,.46,.21,.65,.44,.2,.24,.32,.5,.36,.79,.07,.43,.1,.64,.17,1.07,.41,.11,.62,.16,1.03,.27,.23,.06,.44,.21,.62,.43,.18,.22,.3,.47,.34,.73,.04,.26,0,.45-.13,.58-.13,.13-.31,.16-.54,.1-.41-.11-.62-.17-1.03-.27,.29,1.81,.44,2.71,.73,4.52,.04,.23,.12,.42,.24,.55,.12,.13,.28,.23,.46,.28,.08,.02,.19,.04,.31,.02,.1-.01,.21-.02,.32,.01,.14,.04,.27,.15,.41,.33Z"/><path class="f" d="M209.8,124.04c-.24,.57-.64,.92-1.19,1.07-.55,.15-1.2,.09-1.93-.18-.75-.27-1.45-.7-2.12-1.3-.67-.59-1.24-1.3-1.7-2.11-.46-.82-.77-1.67-.91-2.56-.14-.89-.1-1.64,.14-2.24,.24-.6,.62-1,1.16-1.2,.54-.2,1.18-.17,1.92,.09,.73,.26,1.44,.71,2.12,1.35,.68,.64,1.25,1.39,1.73,2.25,.47,.86,.78,1.74,.93,2.64,.15,.9,.1,1.63-.14,2.2Zm-2.18-4.51c-.27-.51-.6-.95-.97-1.31-.38-.36-.77-.62-1.18-.76-.41-.15-.77-.16-1.07-.04-.3,.12-.51,.36-.64,.73-.13,.36-.15,.82-.06,1.37,.09,.55,.27,1.07,.54,1.56,.27,.49,.59,.91,.97,1.26,.38,.35,.77,.6,1.18,.75,.41,.15,.77,.17,1.07,.07,.3-.11,.52-.33,.65-.68,.13-.35,.15-.8,.07-1.35-.09-.55-.27-1.08-.54-1.59Z"/><path class="f" d="M31.91,159.27c.44,.67,.71,1.48,.83,2.45,.16,1.38,.25,2.07,.41,3.45,.03,.23-.03,.4-.18,.5-.15,.1-.35,.11-.61,.02-.26-.09-.48-.24-.66-.46-.19-.22-.29-.44-.32-.68-.16-1.38-.25-2.07-.41-3.44-.06-.49-.21-.92-.46-1.28-.25-.36-.63-.63-1.17-.83-.55-.21-.97-.23-1.24-.05-.28,.18-.39,.49-.33,.95l.4,3.43c.03,.23-.03,.39-.18,.48-.15,.09-.35,.08-.61-.03-.26-.11-.48-.28-.67-.51-.19-.23-.3-.46-.32-.69-.39-3.3-.58-4.95-.97-8.25-.03-.23,.03-.39,.19-.47,.15-.09,.35-.07,.61,.03,.26,.11,.48,.27,.67,.49,.19,.22,.29,.45,.32,.68,.14,1.18,.21,1.78,.35,2.96,.23-.21,.54-.35,.92-.42s.83-.01,1.33,.17c.97,.36,1.68,.85,2.11,1.52Z"/><path class="f" d="M41.48,165.1c-.16,.1-.35,.12-.58,.07-1.91-.43-2.87-.67-4.8-1.23,.18,.57,.5,1.06,.95,1.48,.46,.42,.94,.7,1.47,.84,.4,.1,.7,.15,.92,.13,.21-.01,.38-.04,.5-.09,.12-.05,.2-.08,.25-.09,.16-.04,.32-.04,.48,0,.2,.05,.38,.15,.55,.32,.16,.17,.25,.34,.27,.53,.03,.25-.08,.44-.32,.58-.24,.14-.59,.24-1.02,.28-.44,.03-.89,0-1.36-.13-.82-.21-1.55-.57-2.2-1.06-.65-.49-1.17-1.07-1.57-1.73-.4-.66-.64-1.33-.72-2.03-.09-.77,0-1.4,.28-1.88,.28-.48,.69-.79,1.23-.94,.54-.15,1.13-.14,1.78,.03,.64,.16,1.26,.47,1.86,.93,.6,.46,1.11,1,1.51,1.62,.41,.63,.66,1.28,.73,1.91,.02,.21-.05,.37-.21,.47Zm-5.53-2.51c1.53,.44,2.29,.64,3.81,.99v-.1c-.1-.39-.33-.76-.72-1.12s-.81-.59-1.27-.71c-1.12-.29-1.73,0-1.82,.93Z"/><path class="f" d="M45.19,168.8c-.15,.13-.35,.17-.6,.13-.24-.04-.45-.16-.63-.35-.18-.19-.29-.4-.32-.64l-1.03-8.46c-.03-.24,.03-.42,.18-.55,.15-.13,.35-.17,.59-.13,.24,.04,.45,.15,.63,.34,.18,.19,.29,.4,.32,.64,.42,3.39,.62,5.09,1.04,8.48,.03,.24-.03,.42-.18,.55Z"/><path class="f" d="M49.05,169.38c-.15,.14-.34,.19-.59,.16-.24-.03-.45-.14-.63-.32-.18-.18-.29-.39-.32-.63-.42-3.4-.63-5.1-1.05-8.5-.03-.24,.03-.43,.18-.57,.15-.14,.34-.19,.59-.16,.24,.03,.45,.13,.63,.31,.18,.18,.29,.39,.32,.63,.42,3.41,.63,5.11,1.06,8.52,.03,.24-.03,.43-.18,.57Z"/></g><g id="d"><g id="e"><g><path class="g" d="M193.65,18.27s0,.02,0,.03c0,.03,.01,.07,.02,.11,1.55,1.18,1.88,1.44,2.21,2.19,.05,.1,.09,.21,.14,.33,.03,.08,.07,.17,.11,.26,.09,.23,.2,.51,.34,.84,.14-.11,.25-.16,.32-.25,.33-.42,.54-.91,.64-1.44,.12-.62,.12-1.25,.06-1.87-.07-.73-.23-1.43-.65-2.04-.29-.43-.49-.5-.98-.37-1.16,.31-1.8,1.14-2.2,2.2h0Z"/><path class="h" d="M192.35,17.22c.12,.28,.3,.55,.64,.72,.42-.58,.8-1.1,1.18-1.62,.39-.54,1.04-.73,1.57-1.08-.65-1.07-2.07-1.75-3.41-1.67-.68,.45-.86,1.09-.65,1.83,.18,.62,.43,1.22,.68,1.82h0Z"/><path class="h" d="M193.53,19.33c-.09,2.24-.36,2.44-1.33,3.83,.55,.14,1.31,.16,2.2-.07,.42-.11,.92-.12,1.24-.45,.11-1.41-.85-2.89-2.11-3.3h0Z"/><g><path class="l" d="M187.8,20.12c-.27-.39-.38-1-.35-1.67-.03,.67,.08,1.28,.35,1.67,.37,.08,.75,.17,1.12,.24-.37-.08-.75-.16-1.12-.24h0Z"/><path class="l" d="M187.45,18.43c0-.1,.01-.2,.02-.3-.01,.1-.02,.2-.02,.3Z"/><path class="l" d="M187.63,17.3c.03-.09,.05-.18,.08-.28-.03,.09-.06,.18-.08,.28Z"/><path class="i" d="M178.48,51.71c.53,.21,1.01,.58,1.5,.91,.42,.27,.8,.63,1.23,.84,.39,.19,.84,.28,1.27,.32,.61,.06,1.12-.23,1.46-.81,.62-1.07,1.09-2.17,.54-3.47-.26-.6-.06-1.08,.36-1.43,.52-.45,1.06-.89,1.64-1.23,1.01-.59,1.5-1.45,1.43-2.74-.02-.39,.02-.81,.13-1.17,.34-1.12,.27-2.25,.15-3.38-.18-1.72-.39-3.43-.58-5.15-.06-.59-.07-1.18-.09-1.78-.01-.3,.05-.63-.04-.88-.32-.8-.23-1.6-.21-2.44,.04-2.01-.38-3.97-1.22-5.72-.9-1.88-2.18-3.46-3.78-4.67-.26-.19-.53-.35-.76-.58-1.14-1.1-2.54-1.55-3.95-1.91-2.49-.64-5.04-.72-7.57-.9-.43-.03-.88,.05-1.31,.08-2.1,.37-3.64,1.63-4.7,3.69-.82,1.59-1.54,3.23-2.01,5-.43,1.58-.6,3.19-.54,4.84,.03,.64,.02,1.29,.05,1.93,.09,2.46-.68,4.55-2.09,6.39-.06,.08-.12,.15-.18,.22-.95,1.08-1.19,2.25-.49,3.63,.5,.99,.6,2.02,.19,3.13-.34,.91-.52,1.89-.79,2.83-.51,1.77,.69,2.93,1.94,3.23,.27,.07,.6-.09,.89-.2,.79-.31,1.53-.14,2.05,.55,.8,1.05,1.56,1.18,2.63,.46,.89-.6,1.98,.15,2.13,1.38,.06,.52-.04,1.08-.15,1.6-.17,.82-.42,1.61-.63,2.42-.28,1.08-.05,2.06,.48,2.97,.41,.7,1.12,.67,1.46-.08,.14-.31,.2-.65,.31-.98,.09-.28,.16-.57,.28-.83,.19-.44,.52-.68,.96-.61,.39,.06,.77,.18,1.16,.26,.3,.07,.6,.17,.9,.18,.66,.03,1.19-.27,1.55-.92,.09-.17,.19-.34,.24-.53,.51-1.59,1.59-2.7,2.51-3.96,.46-.63,1.05-.74,1.66-.5h0Zm-14.56-11.51c-.42,.68-.25,1.42-.21,2.15,.03,.49,.07,.99,0,1.46-.09,.69-.54,1-1.15,.84-.42-.11-.82-.29-1.28-.46-.29,.47-.54,.93-.84,1.34-.14,.19-.42,.23-.58,.02-.09-.11-.13-.39-.07-.52,.32-.65,.67-1.27,1.03-1.89,.09-.15,.26-.23,.42-.37,.35,.26,.66,.52,1,.74,.23,.15,.58-.06,.62-.34,.04-.24,.05-.49,.05-.73-.02-.59-.08-1.18-.06-1.77,.01-.38,.11-.77,.24-1.13,.09-.23,.35-.33,.56-.2,.13,.08,.24,.27,.3,.43,.04,.12,.04,.32-.02,.43h0Zm14.69-17.8c.02-.14,.09-.29,.18-.38,1.32-1.45,2.4-1.64,3.61,.11,.05,.08,.11,.16,.14,.25,.33,.91,.66,1.82,.86,2.39,.17,1.16,.06,2.17-.2,2.84-.21,.53-.52,.87-1.06,.97-.38,.07-.73,.27-1.1,.41-.35,.13-.71,.17-1-.12-1.01-1.02-1.7-2.28-1.75-3.83-.03-.87,.19-1.76,.31-2.63h0Zm-9.54,4.86c-.06,.12-.21,.17-.32,.26-.57,.46-1.16,.25-1.76,.08-.42-.12-.7-.4-.8-.88-.15-.77-.3-1.54-.39-2.32-.04-.37,.06-.77,.15-1.15,.26-1.15,1.13-1.71,1.87-2.39,.68-.61,1.35-.55,2,.09,.42,.42,.61,.95,.66,1.45,.13,.85,.16,1.61-.12,2.29-.37,.89-.85,1.71-1.29,2.55h0Zm5.21,16.78c-.47-.41-.69-1.01-1-1.55-.13-.22-.32-.4-.5-.61-.36,.35-.66,.63-1.05,1-.99-.85-1.85-1.72-1.74-3.26,.13-1.79,.45-3.54,1.05-5.2,.42-1.16,1.06-2.19,2.35-2.28,.5-.04,.79-.38,.93-.9,.09-.33,.14-.68,.27-.99,.28-.71,.91-1.23,1.42-1.1,1.09,.29,2.1,.75,2.59,2.03,.26,.68,.53,1.35,.83,2.02,.29,.66,.39,1.31,.03,1.98-.33,.6-.26,1.21-.09,1.85,.2,.75,.3,1.54,.48,2.3,.24,1.05,0,1.92-.58,2.77-.89,1.31-.86,1.33-2.25,1.1-.43,.34-.84,.7-1.29,1.01-.51,.34-.99,.23-1.46-.18h0Z"/><path class="i" d="M190.35,35.48c.29-.55,.58-1.12,.79-1.72-.03-.03-.05-.07-.07-.12-.24-.46-.3-.96-.33-1.47-.05-.83,0-1.66,.07-2.48-.78,.51-1.57,.99-2.28,1.63-.13,1.87-.03,3.68,.39,5.63,.78-.31,1.12-.91,1.43-1.48h0Z"/><g><path d="M174.88,57.1c.07-.13,.15-.25,.19-.39,.37-1.32,1.23-2.27,1.97-3.3,.14-.19,.3-.37,.47-.52,.38-.33,.81-.38,1.23-.11,.34,.22,.65,.5,.98,.75,.58,.44,1.19,.81,1.87,1.05,1.14,.4,2.53-.17,3.08-1.31,.61-1.27,1.26-2.52,.85-4.06-.1-.39,.05-.69,.32-.89,.5-.39,.99-.8,1.59-1.03,.72-.27,1.14-.85,1.26-1.73,.16-1.17,.43-2.33,.54-3.5,.08-.78,.02-1.58-.06-2.37-.07-.66,.07-1.17,.52-1.57,.07-.06,.12-.15,.19-.2,1.15-.94,1.84-2.25,2.28-3.73,.37-1.27,.71-2.55,1-3.84,.18-.81,.02-1.58-.55-2.18-.08-.08-.16-.16-.24-.22,.05-1.18,.15-2.35,.24-3.52,0-.11,.06-.23,.1-.34,.36-.17,.72-.18,1.07-.25,.64-.13,1.27-.27,1.9-.44,.22-.06,.44-.2,.63-.35,.58-.44,1.05-.98,1.36-1.66,.24-.54,.39-1.09,.43-1.67,.09-1.4-.06-2.74-.87-3.95-1.06-1.57-2.46-2.6-4.37-2.91-.69-.11-1.35-.09-1.99,.15-.38,.14-.76,.32-1.11,.53-.81,.5-1.51,1.13-1.98,1.97-.48,.85-.78,1.75-.89,2.73-.08,.67,0,1.31,.23,1.92,.25,.65,.6,1.26,1.06,1.8,.56,.64,1.25,1.13,2.01,1.51,.32,.16,.65,.31,1,.48,0,.17,.02,.27,.02,.36-.08,1.26-.15,2.52-.25,3.78-.25,.19-.49,.41-.76,.58-.56,.34-1.02,.95-1.8,.96-.07-.3-.13-.58-.18-.85-.17-1.02-.35-2.04-.5-3.06-.13-.85-.47-1.59-.83-2.33-1.23-2.53-2.92-4.5-5.1-6.06-2.23-1.59-4.64-2.31-7.2-2.57-1.66-.16-3.33-.19-4.99-.27-1.31-.06-2.5,.42-3.64,1.09-1.14,.67-1.91,1.74-2.56,2.92-.98,1.76-1.83,3.59-2.41,5.58-.48,1.64-.48,3.31-.43,4.99,.03,1.14,.02,2.27-.14,3.4-.14,1-.46,1.91-.97,2.73-.45,.73-.93,1.43-1.41,2.15-.16,.24-.33,.46-.48,.71-.45,.75-.52,1.56-.24,2.41,.09,.28,.2,.56,.34,.81,.6,1.05,.56,2.16,.23,3.28-.25,.85-.49,1.69-.77,2.52-.22,.65-.16,1.23,.07,1.86,.45,1.22,1.3,1.97,2.28,2.56,.44,.27,.95,.3,1.41,.11,.86-.36,1.49-.12,2.1,.64,.81,1,1.2,1.02,2.32,.42,.2-.11,.38-.24,.59-.33,.47-.2,.9,.07,.97,.65,.04,.28,.02,.59-.05,.87-.17,.77-.36,1.53-.58,2.29-.44,1.54-.04,2.96,.6,4.28,.52,1.09,1.82,1.16,2.59,.25,.38-.44,.56-.98,.71-1.57,.17-.7,.42-.85,1.07-.75,.26,.04,.51,.14,.77,.19,1.26,.25,2.25-.25,2.92-1.45h0Zm16.93-28.25c-.03,.86-.01,1.73-.02,2.6,0,.52,.02,1.06-.28,1.72-.23-.58-.31-1.05-.31-1.52,0-.7,.01-1.4,.1-2.09,.17-1.41,.26-2.82,.35-4.24,.03-.41,.09-.8,.19-1.23,.18,.3,.18,.32,.18,.44-.02,.6-.03,1.2-.06,1.8-.04,.84-.11,1.68-.14,2.52h0Zm3.84-6.22c-.33,.33-.82,.34-1.24,.45-.89,.23-1.65,.22-2.2,.07,.97-1.38,1.25-1.59,1.33-3.83,1.27,.41,2.22,1.89,2.11,3.3h0Zm1.19-6.19c.42,.62,.58,1.32,.65,2.04,.06,.62,.06,1.25-.06,1.87-.1,.53-.31,1.01-.64,1.44-.07,.09-.18,.14-.32,.25-.14-.33-.25-.61-.34-.84-.04-.09-.07-.18-.11-.26-.05-.12-.1-.23-.14-.33-.34-.74-.66-1.01-2.21-2.19,0-.04-.02-.07-.02-.11,0-.01,0-.02,0-.03,.41-1.06,1.04-1.89,2.2-2.2,.49-.13,.68-.06,.98,.37h0Zm-4.51-2.86c1.34-.08,2.76,.6,3.41,1.67-.53,.34-1.18,.53-1.57,1.08-.38,.52-.76,1.05-1.18,1.62-.34-.18-.52-.44-.64-.72-.25-.6-.51-1.2-.68-1.82-.21-.73-.03-1.38,.65-1.83h0Zm-2.9,1.12c.06-.1,.11-.22,.2-.29,.41-.33,.87-.56,1.48-.67-.04,.4-.09,.71-.11,1.02-.04,.79,.27,1.5,.53,2.22,.09,.25,.23,.47,.34,.71,.05,.1,.07,.21,.11,.33-1.41,.11-2.47-.91-2.61-1.92-.07-.48-.22-.94,.06-1.4h0Zm-1.62,5.43c-.27-.39-.38-1-.35-1.67v-.02c0-.1,.01-.2,.03-.3,.03-.27,.08-.55,.16-.83,.03-.09,.05-.18,.08-.28,.17-.51,.42-.98,.73-1.33,.05,.08,.12,.15,.15,.23,.09,.22,.18,.45,.24,.68,.13,.51,.43,.9,.79,1.27,.45,.47,1,.73,1.64,.84,.31,.05,.61,.1,1.03,.17-.27,.56-.62,.87-1.06,1.07-.37,.17-.76,.29-1.16,.4-.38,.11-.76,.08-1.14,0-.37-.08-.75-.16-1.12-.24h0Zm2.79,2.87c-.92-.39-1.73-.94-2.3-1.78-.02-.04-.02-.09-.03-.14,.06-.15,.17-.15,.3-.12,.54,.1,1.08,.17,1.64,.06,.83-.15,1.54-.51,2.13-1.12,.13-.13,.22-.32,.5-.28,.19,.46,.1,.93-.02,1.39-.17,.64-.53,1.18-1.08,1.57-.12,.08-.24,.17-.34,.27-.24,.23-.52,.27-.8,.15h0Zm-2.05,8.33c.71-.64,1.5-1.12,2.28-1.63-.07,.83-.12,1.65-.07,2.48,.03,.51,.09,1.01,.33,1.47,.02,.04,.05,.08,.07,.12-.21,.6-.5,1.17-.79,1.72-.3,.57-.65,1.17-1.43,1.48-.42-1.95-.52-3.76-.39-5.63h0Zm-14.46,25.37c-.36,.64-.89,.95-1.55,.92-.3-.01-.6-.12-.9-.18-.39-.09-.77-.21-1.16-.26-.44-.07-.77,.17-.96,.61-.11,.26-.19,.55-.28,.83-.1,.33-.17,.67-.31,.98-.34,.75-1.05,.78-1.46,.08-.53-.91-.76-1.89-.48-2.97,.21-.81,.46-1.61,.63-2.42,.11-.52,.21-1.08,.15-1.6-.15-1.23-1.24-1.98-2.13-1.38-1.07,.72-1.83,.6-2.63-.46-.52-.69-1.26-.86-2.05-.55-.29,.11-.62,.26-.89,.2-1.25-.3-2.44-1.46-1.94-3.23,.27-.94,.45-1.92,.79-2.83,.42-1.11,.31-2.14-.19-3.13-.69-1.38-.46-2.56,.49-3.63,.06-.07,.12-.14,.18-.22,1.4-1.84,2.18-3.93,2.09-6.39-.02-.64-.02-1.29-.05-1.93-.07-1.65,.11-3.26,.54-4.84,.48-1.77,1.19-3.41,2.01-5,1.05-2.05,2.59-3.32,4.7-3.69,.44-.03,.88-.11,1.31-.08,2.54,.18,5.08,.26,7.57,.9,1.41,.36,2.8,.81,3.95,1.91,.23,.22,.51,.39,.76,.58,1.6,1.2,2.88,2.79,3.78,4.67,.84,1.75,1.26,3.7,1.22,5.72-.02,.84-.1,1.64,.21,2.44,.1,.25,.03,.59,.04,.88,.03,.59,.03,1.19,.09,1.78,.18,1.72,.4,3.43,.58,5.15,.12,1.13,.18,2.26-.15,3.38-.11,.37-.15,.78-.13,1.17,.07,1.29-.42,2.15-1.43,2.74-.58,.34-1.12,.78-1.64,1.23-.42,.35-.62,.83-.36,1.43,.56,1.3,.08,2.41-.54,3.47-.34,.59-.85,.87-1.46,.81-.43-.04-.88-.13-1.27-.32-.44-.21-.82-.57-1.23-.84-.49-.32-.97-.7-1.5-.91-.61-.24-1.2-.13-1.66,.5-.91,1.26-2,2.37-2.51,3.96-.06,.18-.15,.36-.24,.53h0Z"/><path d="M179.28,42.12c.58-.85,.82-1.72,.58-2.77-.18-.76-.28-1.55-.48-2.3-.17-.65-.24-1.25,.09-1.85,.36-.66,.26-1.32-.03-1.98-.29-.66-.57-1.34-.83-2.02-.49-1.29-1.5-1.74-2.59-2.03-.51-.14-1.14,.39-1.42,1.1-.12,.31-.17,.66-.27,.99-.14,.52-.43,.86-.93,.9-1.3,.09-1.93,1.12-2.35,2.28-.6,1.65-.92,3.41-1.05,5.2-.11,1.54,.75,2.41,1.74,3.26,.39-.37,.68-.65,1.05-1,.17,.21,.37,.38,.5,.61,.31,.54,.53,1.13,1,1.55,.47,.41,.95,.52,1.46,.18,.45-.3,.86-.67,1.29-1.01,1.39,.23,1.36,.21,2.25-1.1h0Z"/><path d="M180.05,28.86c.28,.29,.65,.26,1,.12,.37-.14,.72-.34,1.1-.41,.54-.1,.85-.45,1.06-.97,.26-.67,.37-1.67,.2-2.84-.21-.57-.53-1.48-.86-2.39-.03-.09-.09-.17-.14-.25-1.22-1.74-2.29-1.55-3.61-.11-.09,.1-.16,.25-.18,.38-.12,.88-.34,1.76-.31,2.63,.05,1.55,.74,2.81,1.75,3.83h0Z"/><path d="M170.49,22.42c-.05-.5-.24-1.04-.66-1.45-.65-.65-1.33-.71-2-.09-.74,.67-1.61,1.24-1.87,2.39-.08,.37-.18,.77-.15,1.15,.08,.78,.24,1.55,.39,2.32,.09,.47,.37,.76,.8,.88,.6,.17,1.19,.37,1.76-.08,.11-.09,.25-.14,.32-.26,.45-.84,.93-1.67,1.29-2.55,.28-.68,.25-1.44,.12-2.29h0Z"/><path d="M163.64,39.34c-.22-.14-.48-.04-.56,.2-.13,.35-.23,.75-.24,1.13-.02,.59,.05,1.18,.06,1.77,0,.24-.01,.49-.05,.73-.04,.29-.39,.49-.62,.34-.33-.22-.64-.48-1-.74-.16,.14-.33,.22-.42,.37-.36,.62-.71,1.24-1.03,1.89-.06,.13-.02,.4,.07,.52,.16,.21,.44,.18,.58-.02,.3-.41,.55-.87,.84-1.34,.46,.17,.87,.35,1.28,.46,.61,.16,1.06-.15,1.15-.84,.06-.48,.02-.98,0-1.46-.04-.73-.22-1.47,.21-2.15,.06-.1,.07-.31,.02-.43-.06-.17-.17-.35-.3-.43h0Z"/></g><path class="h" d="M187.8,20.12c.37,.08,.75,.17,1.12,.24,.38,.08,.77,.11,1.14,0,.39-.12,.79-.24,1.16-.4,.44-.2,.79-.51,1.06-1.07-.42-.07-.72-.12-1.03-.17-.64-.1-1.18-.37-1.64-.84-.36-.37-.66-.76-.79-1.27-.06-.23-.15-.46-.24-.68-.03-.08-.09-.14-.15-.23-.31,.35-.56,.82-.73,1.33-.03,.09-.06,.18-.08,.28-.07,.27-.13,.55-.16,.83-.01,.1-.02,.2-.02,.3v.02c-.03,.67,.08,1.28,.35,1.67h0Z"/><path class="g" d="M191.72,22.56c.55-.39,.91-.93,1.08-1.57,.12-.46,.21-.93,.02-1.39-.27-.05-.37,.15-.5,.28-.58,.61-1.3,.97-2.13,1.12-.56,.1-1.1,.04-1.64-.06-.12-.02-.24-.02-.3,.12,0,.04,0,.1,.03,.14,.57,.84,1.37,1.4,2.3,1.78,.28,.12,.56,.08,.8-.15,.1-.1,.22-.19,.34-.27h0Z"/><path class="g" d="M191.97,18.01c-.04-.12-.06-.23-.11-.33-.11-.24-.25-.47-.34-.71-.26-.72-.57-1.43-.53-2.22,.02-.31,.06-.61,.11-1.02-.6,.1-1.07,.33-1.48,.67-.09,.07-.14,.19-.2,.29-.28,.46-.12,.93-.06,1.4,.14,1.01,1.19,2.03,2.61,1.92h0Z"/></g><path class="k" d="M192.01,24.53c0-.13,0-.15-.18-.44-.11,.43-.16,.82-.19,1.23-.1,1.41-.18,2.83-.35,4.24-.08,.69-.09,1.39-.1,2.09,0,.47,.08,.94,.31,1.52,.3-.66,.27-1.19,.28-1.72,.01-.87,0-1.73,.02-2.6,.03-.84,.1-1.68,.14-2.52,.03-.6,.04-1.2,.06-1.8h0Z"/></g></g></g></g></g></g></svg>