<?xml version="1.0" encoding="UTF-8"?><svg xmlns="http://www.w3.org/2000/svg" viewBox="0 0 226.52 663.31"><defs><style>.f{fill:#fff;}.g{fill:#ffca00;}.h{fill:#f3941b;}.i{fill:#fcefde;}.j{fill:#a67c52;}.k{fill:#089ece;}.l{fill:#fdd089;}</style></defs><g id="a"/><g id="b"><g id="c"><g><path class="j" d="M224.23,663.31h-20V109.31h20c0,2.68,0,5.37,0,8.05,0,181.98,0,363.96,0,545.95Z"/><path d="M224.23,173.31c.52-49.94,1.67-99.64,2.29-149.54,.09-7.41-4.89-13.96-12.07-15.81-61.52-15.83-91.02-5.42-106.55,8.46-14.14,12.64-16.9,28.33-35.16,37.38-23.57,11.67-52.23,2-72.73-7.98,4.99,46.35,9.98,92.7,14.97,139.05,.41,3.81,2.72,7.16,6.14,8.9,20.09,10.21,46.99,19.15,72.44,10.07,20.52-7.33,25.9-21.31,47.25-31.14,16.29-7.5,41.8-13.16,83.43,.62Z"/><g><path class="f" d="M54.11,156.57c-.82,4.33-2.28,7.61-4.38,9.74-2.11,2.13-4.64,2.91-7.58,2.27-2.98-.64-5.85-2.59-8.59-5.72-2.74-3.13-5.1-7.14-7.04-11.91-1.94-4.76-3.21-9.79-3.83-15.06-.62-5.27-.45-9.68,.48-13.36,.93-3.68,2.47-6.33,4.6-8.06,2.13-1.73,4.64-2.37,7.54-1.96,2.87,.4,5.62,1.8,8.27,4.3,2.65,2.51,4.92,5.88,6.81,10.21,1.9,4.33,3.2,9.25,3.89,14.75,.7,5.51,.64,10.47-.18,14.8Zm-8.91-23.94c-1.1-2.67-2.4-4.77-3.88-6.32-1.49-1.55-3.04-2.44-4.65-2.69-1.61-.25-3,.17-4.17,1.28-1.17,1.11-2,2.82-2.5,5.16-.5,2.35-.55,5.13-.16,8.39,.39,3.26,1.14,6.28,2.25,9.05,1.11,2.77,2.44,5.06,3.96,6.82,1.53,1.76,3.11,2.82,4.75,3.15,1.64,.33,3.04-.13,4.19-1.37,1.15-1.24,1.96-3.13,2.42-5.65,.46-2.51,.49-5.46,.07-8.8-.42-3.34-1.18-6.34-2.28-9.02Z"/><path class="f" d="M79.72,113.41c1.94,3.86,3.43,9.63,4.46,17.3,1.48,11.01,2.23,16.52,3.71,27.53,.25,1.86,.15,3.52-.3,4.94-.45,1.43-1.15,2.26-2.1,2.51-.95,.25-1.83-.19-2.62-1.28-.79-1.09-1.3-2.57-1.55-4.42-1.45-10.92-2.18-16.38-3.63-27.3-.52-3.91-1.32-6.87-2.39-8.89-1.07-2.02-2.58-2.74-4.54-2.25-2.03,.51-3.47,2.04-4.31,4.61-.84,2.58-1.04,5.63-.57,9.2,1.39,10.75,2.09,16.12,3.49,26.87,.24,1.82,.11,3.39-.36,4.68-.48,1.3-1.2,1.99-2.18,2.08-.97,.09-1.86-.47-2.65-1.64-.79-1.17-1.31-2.67-1.54-4.47-2.74-21.43-5.48-42.86-8.22-64.3-.23-1.8-.11-3.36,.35-4.68,.46-1.32,1.16-2.06,2.1-2.25,.94-.19,1.8,.26,2.57,1.34,.77,1.09,1.28,2.54,1.51,4.36,1.2,9.28,1.81,13.92,3.01,23.2,.66-2.71,1.62-5.12,2.89-7.27,1.27-2.15,2.82-3.49,4.65-4.02,3.56-1.03,6.28,.27,8.22,4.13Z"/><path class="f" d="M126.04,93.32c2.05,3.98,3.67,10.06,4.87,18.2,1.43,9.73,2.86,19.46,4.28,29.2,.29,1.98,.23,3.74-.19,5.29-.42,1.55-1.1,2.5-2.04,2.84-.94,.35-1.81-.03-2.61-1.12-.8-1.09-1.35-2.61-1.63-4.58-1.4-9.66-2.8-19.31-4.21-28.97-.6-4.15-1.49-7.24-2.64-9.25-1.15-2.01-2.72-2.57-4.69-1.67-2.04,.93-3.47,2.92-4.27,5.94-.81,3.02-.95,6.42-.41,10.21,1.35,9.51,2.71,19.03,4.06,28.54,.27,1.93,.2,3.67-.23,5.21-.43,1.54-1.11,2.49-2.05,2.85-.93,.36-1.8,0-2.59-1.05-.79-1.05-1.33-2.54-1.6-4.46-2.14-15.23-4.28-30.45-6.42-45.68-.27-1.92-.19-3.66,.22-5.23,.42-1.57,1.08-2.57,1.99-3,.91-.43,1.76-.14,2.54,.88,.78,1.02,1.31,2.49,1.59,4.43,.11,.76,.16,1.14,.27,1.9,.57-3.11,1.48-6,2.73-8.66,1.25-2.66,2.78-4.43,4.6-5.29,3.58-1.68,6.38-.53,8.43,3.45Z"/><path class="f" d="M167.34,124.45c-.56,5.2-1.79,9.35-3.68,12.51-1.89,3.16-4.22,5.04-6.98,5.69-2.79,.66-5.52-.01-8.18-2.05-2.66-2.03-5-5.24-7.02-9.66-2.02-4.42-3.48-9.67-4.38-15.8-.91-6.12-1.08-11.86-.52-17.23,.56-5.37,1.73-9.86,3.53-13.42,1.79-3.56,4.04-5.82,6.76-6.7,2.68-.86,5.37-.18,8.05,2.04,2.68,2.22,5.08,5.77,7.17,10.55,2.09,4.79,3.64,10.39,4.62,16.73,.98,6.35,1.19,12.12,.63,17.33Zm-9.96-26.26c-1.21-2.85-2.56-4.95-4.06-6.26-1.5-1.31-3-1.74-4.52-1.28-1.51,.46-2.76,1.72-3.75,3.76-.99,2.04-1.63,4.68-1.92,7.91-.29,3.23-.15,6.73,.41,10.51,.57,3.78,1.43,7.01,2.61,9.71,1.18,2.7,2.52,4.68,4.02,5.94,1.5,1.27,3.02,1.7,4.55,1.31,1.54-.39,2.82-1.54,3.83-3.46,1.01-1.92,1.67-4.44,1.96-7.59,.3-3.14,.15-6.63-.44-10.49-.59-3.85-1.5-7.22-2.71-10.07Z"/><path class="f" d="M177.44,136.5c-.78-1.22-1.35-2.97-1.71-5.29l-.32-2.03c-.36-2.31-.34-4.1,.05-5.37,.39-1.26,1.13-1.92,2.22-1.95,.3,0,.44,0,.74-.01,1.09-.02,2.03,.62,2.81,1.87,.79,1.26,1.36,3.06,1.73,5.39l.32,2.05c.37,2.34,.35,4.11-.04,5.34-.39,1.22-1.14,1.82-2.24,1.82-.3,0-.45,0-.74,0-1.1,0-2.04-.59-2.81-1.81Z"/><path class="f" d="M191.71,137.21c-.8-1.34-1.39-3.18-1.76-5.53l-.33-2.07c-.37-2.35-.36-4.12,.04-5.31,.4-1.18,1.15-1.7,2.27-1.53,.3,.05,.45,.07,.76,.12,1.12,.19,2.09,.99,2.89,2.38,.81,1.4,1.41,3.28,1.79,5.65,.13,.83,.2,1.25,.33,2.09,.38,2.38,.36,4.12-.04,5.26-.4,1.13-1.17,1.58-2.3,1.37-.31-.06-.46-.08-.76-.14-1.13-.2-2.09-.96-2.89-2.3Z"/><path class="f" d="M206.38,140.7c-.83-1.49-1.43-3.42-1.82-5.82-.14-.84-.2-1.26-.34-2.1-.39-2.39-.37-4.13,.04-5.21,.41-1.08,1.18-1.43,2.34-1.01,.31,.11,.47,.17,.78,.29,1.16,.43,2.15,1.44,2.98,2.98,.84,1.55,1.45,3.54,1.84,5.95,.14,.85,.21,1.27,.35,2.12,.39,2.42,.38,4.13-.04,5.15-.42,1.02-1.21,1.29-2.37,.83-.32-.12-.47-.18-.79-.3-1.16-.44-2.15-1.39-2.98-2.88Z"/></g><g id="d"><g id="e"><g><path class="g" d="M193.65,18.27s0,.02,0,.03c0,.03,.01,.07,.02,.11,1.55,1.18,1.88,1.44,2.21,2.19,.05,.1,.09,.21,.14,.33,.03,.08,.07,.17,.11,.26,.09,.23,.2,.51,.34,.84,.14-.11,.25-.16,.32-.25,.33-.42,.54-.91,.64-1.44,.12-.62,.12-1.25,.06-1.87-.07-.73-.23-1.43-.65-2.04-.29-.43-.49-.5-.98-.37-1.16,.31-1.8,1.14-2.2,2.2h0Z"/><path class="h" d="M192.35,17.22c.12,.28,.3,.55,.64,.72,.42-.58,.8-1.1,1.18-1.62,.39-.54,1.04-.73,1.57-1.08-.65-1.07-2.07-1.75-3.41-1.67-.68,.45-.86,1.09-.65,1.83,.18,.62,.43,1.22,.68,1.82h0Z"/><path class="h" d="M193.53,19.33c-.09,2.24-.36,2.44-1.33,3.83,.55,.14,1.31,.16,2.2-.07,.42-.11,.92-.12,1.24-.45,.11-1.41-.85-2.89-2.11-3.3h0Z"/><g><path class="l" d="M187.8,20.12c-.27-.39-.38-1-.35-1.67-.03,.67,.08,1.28,.35,1.67,.37,.08,.75,.17,1.12,.24-.37-.08-.75-.16-1.12-.24h0Z"/><path class="l" d="M187.45,18.43c0-.1,.01-.2,.02-.3-.01,.1-.02,.2-.02,.3Z"/><path class="l" d="M187.63,17.3c.03-.09,.05-.18,.08-.28-.03,.09-.06,.18-.08,.28Z"/><path class="i" d="M178.48,51.71c.53,.21,1.01,.58,1.5,.91,.42,.27,.8,.63,1.23,.84,.39,.19,.84,.28,1.27,.32,.61,.06,1.12-.23,1.46-.81,.62-1.07,1.09-2.17,.54-3.47-.26-.6-.06-1.08,.36-1.43,.52-.45,1.06-.89,1.64-1.23,1.01-.59,1.5-1.45,1.43-2.74-.02-.39,.02-.81,.13-1.17,.34-1.12,.27-2.25,.15-3.38-.18-1.72-.39-3.43-.58-5.15-.06-.59-.07-1.18-.09-1.78-.01-.3,.05-.63-.04-.88-.32-.8-.23-1.6-.21-2.44,.04-2.01-.38-3.97-1.22-5.72-.9-1.88-2.18-3.46-3.78-4.67-.26-.19-.53-.35-.76-.58-1.14-1.1-2.54-1.55-3.95-1.91-2.49-.64-5.04-.72-7.57-.9-.43-.03-.88,.05-1.31,.08-2.1,.37-3.64,1.63-4.7,3.69-.82,1.59-1.54,3.23-2.01,5-.43,1.58-.6,3.19-.54,4.84,.03,.64,.02,1.29,.05,1.93,.09,2.46-.68,4.55-2.09,6.39-.06,.08-.12,.15-.18,.22-.95,1.08-1.19,2.25-.49,3.63,.5,.99,.6,2.02,.19,3.13-.34,.91-.52,1.89-.79,2.83-.51,1.77,.69,2.93,1.94,3.23,.27,.07,.6-.09,.89-.2,.79-.31,1.53-.14,2.05,.55,.8,1.05,1.56,1.18,2.63,.46,.89-.6,1.98,.15,2.13,1.38,.06,.52-.04,1.08-.15,1.6-.17,.82-.42,1.61-.63,2.42-.28,1.08-.05,2.06,.48,2.97,.41,.7,1.12,.67,1.46-.08,.14-.31,.2-.65,.31-.98,.09-.28,.16-.57,.28-.83,.19-.44,.52-.68,.96-.61,.39,.06,.77,.18,1.16,.26,.3,.07,.6,.17,.9,.18,.66,.03,1.19-.27,1.55-.92,.09-.17,.19-.34,.24-.53,.51-1.59,1.59-2.7,2.51-3.96,.46-.63,1.05-.74,1.66-.5h0Zm-14.56-11.51c-.42,.68-.25,1.42-.21,2.15,.03,.49,.07,.99,0,1.46-.09,.69-.54,1-1.15,.84-.42-.11-.82-.29-1.28-.46-.29,.47-.54,.93-.84,1.34-.14,.19-.42,.23-.58,.02-.09-.11-.13-.39-.07-.52,.32-.65,.67-1.27,1.03-1.89,.09-.15,.26-.23,.42-.37,.35,.26,.66,.52,1,.74,.23,.15,.58-.06,.62-.34,.04-.24,.05-.49,.05-.73-.02-.59-.08-1.18-.06-1.77,.01-.38,.11-.77,.24-1.13,.09-.23,.35-.33,.56-.2,.13,.08,.24,.27,.3,.43,.04,.12,.04,.32-.02,.43h0Zm14.69-17.8c.02-.14,.09-.29,.18-.38,1.32-1.45,2.4-1.64,3.61,.11,.05,.08,.11,.16,.14,.25,.33,.91,.66,1.82,.86,2.39,.17,1.16,.06,2.17-.2,2.84-.21,.53-.52,.87-1.06,.97-.38,.07-.73,.27-1.1,.41-.35,.13-.71,.17-1-.12-1.01-1.02-1.7-2.28-1.75-3.83-.03-.87,.19-1.76,.31-2.63h0Zm-9.54,4.86c-.06,.12-.21,.17-.32,.26-.57,.46-1.16,.25-1.76,.08-.42-.12-.7-.4-.8-.88-.15-.77-.3-1.54-.39-2.32-.04-.37,.06-.77,.15-1.15,.26-1.15,1.13-1.71,1.87-2.39,.68-.61,1.35-.55,2,.09,.42,.42,.61,.95,.66,1.45,.13,.85,.16,1.61-.12,2.29-.37,.89-.85,1.71-1.29,2.55h0Zm5.21,16.78c-.47-.41-.69-1.01-1-1.55-.13-.22-.32-.4-.5-.61-.36,.35-.66,.63-1.05,1-.99-.85-1.85-1.72-1.74-3.26,.13-1.79,.45-3.54,1.05-5.2,.42-1.16,1.06-2.19,2.35-2.28,.5-.04,.79-.38,.93-.9,.09-.33,.14-.68,.27-.99,.28-.71,.91-1.23,1.42-1.1,1.09,.29,2.1,.75,2.59,2.03,.26,.68,.53,1.35,.83,2.02,.29,.66,.39,1.31,.03,1.98-.33,.6-.26,1.21-.09,1.85,.2,.75,.3,1.54,.48,2.3,.24,1.05,0,1.92-.58,2.77-.89,1.31-.86,1.33-2.25,1.1-.43,.34-.84,.7-1.29,1.01-.51,.34-.99,.23-1.46-.18h0Z"/><path class="i" d="M190.35,35.48c.29-.55,.58-1.12,.79-1.72-.03-.03-.05-.07-.07-.12-.24-.46-.3-.96-.33-1.47-.05-.83,0-1.66,.07-2.48-.78,.51-1.57,.99-2.28,1.63-.13,1.87-.03,3.68,.39,5.63,.78-.31,1.12-.91,1.43-1.48h0Z"/><g><path d="M174.88,57.1c.07-.13,.15-.25,.19-.39,.37-1.32,1.23-2.27,1.97-3.3,.14-.19,.3-.37,.47-.52,.38-.33,.81-.38,1.23-.11,.34,.22,.65,.5,.98,.75,.58,.44,1.19,.81,1.87,1.05,1.14,.4,2.53-.17,3.08-1.31,.61-1.27,1.26-2.52,.85-4.06-.1-.39,.05-.69,.32-.89,.5-.39,.99-.8,1.59-1.03,.72-.27,1.14-.85,1.26-1.73,.16-1.17,.43-2.33,.54-3.5,.08-.78,.02-1.58-.06-2.37-.07-.66,.07-1.17,.52-1.57,.07-.06,.12-.15,.19-.2,1.15-.94,1.84-2.25,2.28-3.73,.37-1.27,.71-2.55,1-3.84,.18-.81,.02-1.58-.55-2.18-.08-.08-.16-.16-.24-.22,.05-1.18,.15-2.35,.24-3.52,0-.11,.06-.23,.1-.34,.36-.17,.72-.18,1.07-.25,.64-.13,1.27-.27,1.9-.44,.22-.06,.44-.2,.63-.35,.58-.44,1.05-.98,1.36-1.66,.24-.54,.39-1.09,.43-1.67,.09-1.4-.06-2.74-.87-3.95-1.06-1.57-2.46-2.6-4.37-2.91-.69-.11-1.35-.09-1.99,.15-.38,.14-.76,.32-1.11,.53-.81,.5-1.51,1.13-1.98,1.97-.48,.85-.78,1.75-.89,2.73-.08,.67,0,1.31,.23,1.92,.25,.65,.6,1.26,1.06,1.8,.56,.64,1.25,1.13,2.01,1.51,.32,.16,.65,.31,1,.48,0,.17,.02,.27,.02,.36-.08,1.26-.15,2.52-.25,3.78-.25,.19-.49,.41-.76,.58-.56,.34-1.02,.95-1.8,.96-.07-.3-.13-.58-.18-.85-.17-1.02-.35-2.04-.5-3.06-.13-.85-.47-1.59-.83-2.33-1.23-2.53-2.92-4.5-5.1-6.06-2.23-1.59-4.64-2.31-7.2-2.57-1.66-.16-3.33-.19-4.99-.27-1.31-.06-2.5,.42-3.64,1.09-1.14,.67-1.91,1.74-2.56,2.92-.98,1.76-1.83,3.59-2.41,5.58-.48,1.64-.48,3.31-.43,4.99,.03,1.14,.02,2.27-.14,3.4-.14,1-.46,1.91-.97,2.73-.45,.73-.93,1.43-1.41,2.15-.16,.24-.33,.46-.48,.71-.45,.75-.52,1.56-.24,2.41,.09,.28,.2,.56,.34,.81,.6,1.05,.56,2.16,.23,3.28-.25,.85-.49,1.69-.77,2.52-.22,.65-.16,1.23,.07,1.86,.45,1.22,1.3,1.97,2.28,2.56,.44,.27,.95,.3,1.41,.11,.86-.36,1.49-.12,2.1,.64,.81,1,1.2,1.02,2.32,.42,.2-.11,.38-.24,.59-.33,.47-.2,.9,.07,.97,.65,.04,.28,.02,.59-.05,.87-.17,.77-.36,1.53-.58,2.29-.44,1.54-.04,2.96,.6,4.28,.52,1.09,1.82,1.16,2.59,.25,.38-.44,.56-.98,.71-1.57,.17-.7,.42-.85,1.07-.75,.26,.04,.51,.14,.77,.19,1.26,.25,2.25-.25,2.92-1.45h0Zm16.93-28.25c-.03,.86-.01,1.73-.02,2.6,0,.52,.02,1.06-.28,1.72-.23-.58-.31-1.05-.31-1.52,0-.7,.01-1.4,.1-2.09,.17-1.41,.26-2.82,.35-4.24,.03-.41,.09-.8,.19-1.23,.18,.3,.18,.32,.18,.44-.02,.6-.03,1.2-.06,1.8-.04,.84-.11,1.68-.14,2.52h0Zm3.84-6.22c-.33,.33-.82,.34-1.24,.45-.89,.23-1.65,.22-2.2,.07,.97-1.38,1.25-1.59,1.33-3.83,1.27,.41,2.22,1.89,2.11,3.3h0Zm1.19-6.19c.42,.62,.58,1.32,.65,2.04,.06,.62,.06,1.25-.06,1.87-.1,.53-.31,1.01-.64,1.44-.07,.09-.18,.14-.32,.25-.14-.33-.25-.61-.34-.84-.04-.09-.07-.18-.11-.26-.05-.12-.1-.23-.14-.33-.34-.74-.66-1.01-2.21-2.19,0-.04-.02-.07-.02-.11,0-.01,0-.02,0-.03,.41-1.06,1.04-1.89,2.2-2.2,.49-.13,.68-.06,.98,.37h0Zm-4.51-2.86c1.34-.08,2.76,.6,3.41,1.67-.53,.34-1.18,.53-1.57,1.08-.38,.52-.76,1.05-1.18,1.62-.34-.18-.52-.44-.64-.72-.25-.6-.51-1.2-.68-1.82-.21-.73-.03-1.38,.65-1.83h0Zm-2.9,1.12c.06-.1,.11-.22,.2-.29,.41-.33,.87-.56,1.48-.67-.04,.4-.09,.71-.11,1.02-.04,.79,.27,1.5,.53,2.22,.09,.25,.23,.47,.34,.71,.05,.1,.07,.21,.11,.33-1.41,.11-2.47-.91-2.61-1.92-.07-.48-.22-.94,.06-1.4h0Zm-1.62,5.43c-.27-.39-.38-1-.35-1.67v-.02c0-.1,.01-.2,.03-.3,.03-.27,.08-.55,.16-.83,.03-.09,.05-.18,.08-.28,.17-.51,.42-.98,.73-1.33,.05,.08,.12,.15,.15,.23,.09,.22,.18,.45,.24,.68,.13,.51,.43,.9,.79,1.27,.45,.47,1,.73,1.64,.84,.31,.05,.61,.1,1.03,.17-.27,.56-.62,.87-1.06,1.07-.37,.17-.76,.29-1.16,.4-.38,.11-.76,.08-1.14,0-.37-.08-.75-.16-1.12-.24h0Zm2.79,2.87c-.92-.39-1.73-.94-2.3-1.78-.02-.04-.02-.09-.03-.14,.06-.15,.17-.15,.3-.12,.54,.1,1.08,.17,1.64,.06,.83-.15,1.54-.51,2.13-1.12,.13-.13,.22-.32,.5-.28,.19,.46,.1,.93-.02,1.39-.17,.64-.53,1.18-1.08,1.57-.12,.08-.24,.17-.34,.27-.24,.23-.52,.27-.8,.15h0Zm-2.05,8.33c.71-.64,1.5-1.12,2.28-1.63-.07,.83-.12,1.65-.07,2.48,.03,.51,.09,1.01,.33,1.47,.02,.04,.05,.08,.07,.12-.21,.6-.5,1.17-.79,1.72-.3,.57-.65,1.17-1.43,1.48-.42-1.95-.52-3.76-.39-5.63h0Zm-14.46,25.37c-.36,.64-.89,.95-1.55,.92-.3-.01-.6-.12-.9-.18-.39-.09-.77-.21-1.16-.26-.44-.07-.77,.17-.96,.61-.11,.26-.19,.55-.28,.83-.1,.33-.17,.67-.31,.98-.34,.75-1.05,.78-1.46,.08-.53-.91-.76-1.89-.48-2.97,.21-.81,.46-1.61,.63-2.42,.11-.52,.21-1.08,.15-1.6-.15-1.23-1.24-1.98-2.13-1.38-1.07,.72-1.83,.6-2.63-.46-.52-.69-1.26-.86-2.05-.55-.29,.11-.62,.26-.89,.2-1.25-.3-2.44-1.46-1.94-3.23,.27-.94,.45-1.92,.79-2.83,.42-1.11,.31-2.14-.19-3.13-.69-1.38-.46-2.56,.49-3.63,.06-.07,.12-.14,.18-.22,1.4-1.84,2.18-3.93,2.09-6.39-.02-.64-.02-1.29-.05-1.93-.07-1.65,.11-3.26,.54-4.84,.48-1.77,1.19-3.41,2.01-5,1.05-2.05,2.59-3.32,4.7-3.69,.44-.03,.88-.11,1.31-.08,2.54,.18,5.08,.26,7.57,.9,1.41,.36,2.8,.81,3.95,1.91,.23,.22,.51,.39,.76,.58,1.6,1.2,2.88,2.79,3.78,4.67,.84,1.75,1.26,3.7,1.22,5.72-.02,.84-.1,1.64,.21,2.44,.1,.25,.03,.59,.04,.88,.03,.59,.03,1.19,.09,1.78,.18,1.72,.4,3.43,.58,5.15,.12,1.13,.18,2.26-.15,3.38-.11,.37-.15,.78-.13,1.17,.07,1.29-.42,2.15-1.43,2.74-.58,.34-1.12,.78-1.64,1.23-.42,.35-.62,.83-.36,1.43,.56,1.3,.08,2.41-.54,3.47-.34,.59-.85,.87-1.46,.81-.43-.04-.88-.13-1.27-.32-.44-.21-.82-.57-1.23-.84-.49-.32-.97-.7-1.5-.91-.61-.24-1.2-.13-1.66,.5-.91,1.26-2,2.37-2.51,3.96-.06,.18-.15,.36-.24,.53h0Z"/><path d="M179.28,42.12c.58-.85,.82-1.72,.58-2.77-.18-.76-.28-1.55-.48-2.3-.17-.65-.24-1.25,.09-1.85,.36-.66,.26-1.32-.03-1.98-.29-.66-.57-1.34-.83-2.02-.49-1.29-1.5-1.74-2.59-2.03-.51-.14-1.14,.39-1.42,1.1-.12,.31-.17,.66-.27,.99-.14,.52-.43,.86-.93,.9-1.3,.09-1.93,1.12-2.35,2.28-.6,1.65-.92,3.41-1.05,5.2-.11,1.54,.75,2.41,1.74,3.26,.39-.37,.68-.65,1.05-1,.17,.21,.37,.38,.5,.61,.31,.54,.53,1.13,1,1.55,.47,.41,.95,.52,1.46,.18,.45-.3,.86-.67,1.29-1.01,1.39,.23,1.36,.21,2.25-1.1h0Z"/><path d="M180.05,28.86c.28,.29,.65,.26,1,.12,.37-.14,.72-.34,1.1-.41,.54-.1,.85-.45,1.06-.97,.26-.67,.37-1.67,.2-2.84-.21-.57-.53-1.48-.86-2.39-.03-.09-.09-.17-.14-.25-1.22-1.74-2.29-1.55-3.61-.11-.09,.1-.16,.25-.18,.38-.12,.88-.34,1.76-.31,2.63,.05,1.55,.74,2.81,1.75,3.83h0Z"/><path d="M170.49,22.42c-.05-.5-.24-1.04-.66-1.45-.65-.65-1.33-.71-2-.09-.74,.67-1.61,1.24-1.87,2.39-.08,.37-.18,.77-.15,1.15,.08,.78,.24,1.55,.39,2.32,.09,.47,.37,.76,.8,.88,.6,.17,1.19,.37,1.76-.08,.11-.09,.25-.14,.32-.26,.45-.84,.93-1.67,1.29-2.55,.28-.68,.25-1.44,.12-2.29h0Z"/><path d="M163.64,39.34c-.22-.14-.48-.04-.56,.2-.13,.35-.23,.75-.24,1.13-.02,.59,.05,1.18,.06,1.77,0,.24-.01,.49-.05,.73-.04,.29-.39,.49-.62,.34-.33-.22-.64-.48-1-.74-.16,.14-.33,.22-.42,.37-.36,.62-.71,1.24-1.03,1.89-.06,.13-.02,.4,.07,.52,.16,.21,.44,.18,.58-.02,.3-.41,.55-.87,.84-1.34,.46,.17,.87,.35,1.28,.46,.61,.16,1.06-.15,1.15-.84,.06-.48,.02-.98,0-1.46-.04-.73-.22-1.47,.21-2.15,.06-.1,.07-.31,.02-.43-.06-.17-.17-.35-.3-.43h0Z"/></g><path class="h" d="M187.8,20.12c.37,.08,.75,.17,1.12,.24,.38,.08,.77,.11,1.14,0,.39-.12,.79-.24,1.16-.4,.44-.2,.79-.51,1.06-1.07-.42-.07-.72-.12-1.03-.17-.64-.1-1.18-.37-1.64-.84-.36-.37-.66-.76-.79-1.27-.06-.23-.15-.46-.24-.68-.03-.08-.09-.14-.15-.23-.31,.35-.56,.82-.73,1.33-.03,.09-.06,.18-.08,.28-.07,.27-.13,.55-.16,.83-.01,.1-.02,.2-.02,.3v.02c-.03,.67,.08,1.28,.35,1.67h0Z"/><path class="g" d="M191.72,22.56c.55-.39,.91-.93,1.08-1.57,.12-.46,.21-.93,.02-1.39-.27-.05-.37,.15-.5,.28-.58,.61-1.3,.97-2.13,1.12-.56,.1-1.1,.04-1.64-.06-.12-.02-.24-.02-.3,.12,0,.04,0,.1,.03,.14,.57,.84,1.37,1.4,2.3,1.78,.28,.12,.56,.08,.8-.15,.1-.1,.22-.19,.34-.27h0Z"/><path class="g" d="M191.97,18.01c-.04-.12-.06-.23-.11-.33-.11-.24-.25-.47-.34-.71-.26-.72-.57-1.43-.53-2.22,.02-.31,.06-.61,.11-1.02-.6,.1-1.07,.33-1.48,.67-.09,.07-.14,.19-.2,.29-.28,.46-.12,.93-.06,1.4,.14,1.01,1.19,2.03,2.61,1.92h0Z"/></g><path class="k" d="M192.01,24.53c0-.13,0-.15-.18-.44-.11,.43-.16,.82-.19,1.23-.1,1.41-.18,2.83-.35,4.24-.08,.69-.09,1.39-.1,2.09,0,.47,.08,.94,.31,1.52,.3-.66,.27-1.19,.28-1.72,.01-.87,0-1.73,.02-2.6,.03-.84,.1-1.68,.14-2.52,.03-.6,.04-1.2,.06-1.8h0Z"/></g></g></g></g></g></g></svg>